G04*
G04 #@! TF.GenerationSoftware,Altium Limited,Altium Designer,23.9.2 (47)*
G04*
G04 Layer_Color=32768*
%FSLAX44Y44*%
%MOMM*%
G71*
G04*
G04 #@! TF.SameCoordinates,77EFA038-BFC7-4AA8-AC78-54DD78BCB62B*
G04*
G04*
G04 #@! TF.FilePolarity,Positive*
G04*
G01*
G75*
G36*
X842577Y458632D02*
X834908D01*
X842577Y456715D01*
Y454812D01*
X834908Y452895D01*
X842577Y452881D01*
Y451062D01*
X832821D01*
Y454022D01*
X839489Y455756D01*
X832821Y457504D01*
Y460451D01*
X842577D01*
Y458632D01*
D02*
G37*
G36*
X827811Y447517D02*
X827797Y447136D01*
X827783Y446783D01*
X827755Y446488D01*
X827713Y446248D01*
X827670Y446050D01*
X827642Y445895D01*
X827628Y445853D01*
Y445811D01*
X827614Y445797D01*
Y445783D01*
X827501Y445472D01*
X827374Y445191D01*
X827247Y444965D01*
X827121Y444768D01*
X827008Y444613D01*
X826923Y444500D01*
X826867Y444429D01*
X826839Y444401D01*
X826571Y444161D01*
X826289Y443950D01*
X825993Y443767D01*
X825725Y443626D01*
X825471Y443513D01*
X825373Y443457D01*
X825288Y443428D01*
X825203Y443400D01*
X825147Y443372D01*
X825119Y443358D01*
X825105D01*
X824766Y443259D01*
X824414Y443175D01*
X824076Y443118D01*
X823751Y443090D01*
X823596Y443076D01*
X823455Y443062D01*
X823343D01*
X823230Y443048D01*
X823145D01*
X823089D01*
X823047D01*
X823033D01*
X822539Y443062D01*
X822102Y443104D01*
X821891Y443118D01*
X821707Y443147D01*
X821524Y443175D01*
X821369Y443203D01*
X821228Y443245D01*
X821101Y443273D01*
X820988Y443302D01*
X820904Y443316D01*
X820833Y443344D01*
X820777Y443358D01*
X820749Y443372D01*
X820735D01*
X820396Y443499D01*
X820086Y443654D01*
X819818Y443809D01*
X819593Y443964D01*
X819410Y444091D01*
X819269Y444204D01*
X819184Y444274D01*
X819156Y444288D01*
Y444302D01*
X818930Y444542D01*
X818747Y444782D01*
X818592Y445036D01*
X818465Y445261D01*
X818366Y445458D01*
X818296Y445628D01*
X818282Y445684D01*
X818268Y445726D01*
X818254Y445754D01*
Y445769D01*
X818183Y446036D01*
X818141Y446332D01*
X818099Y446642D01*
X818084Y446939D01*
X818070Y447206D01*
X818056Y447319D01*
Y451210D01*
X827811D01*
Y447517D01*
D02*
G37*
G36*
X842577Y447975D02*
X840363Y447171D01*
Y443252D01*
X842577Y442406D01*
Y440278D01*
X832821Y444197D01*
Y446283D01*
X842577Y450061D01*
Y447975D01*
D02*
G37*
G36*
X824597Y441920D02*
X824865Y441906D01*
X825105Y441864D01*
X825330Y441821D01*
X825556Y441779D01*
X825753Y441709D01*
X825937Y441652D01*
X826106Y441582D01*
X826261Y441525D01*
X826388Y441455D01*
X826500Y441399D01*
X826599Y441356D01*
X826669Y441300D01*
X826726Y441272D01*
X826754Y441258D01*
X826768Y441243D01*
X826980Y441060D01*
X827163Y440877D01*
X827318Y440665D01*
X827459Y440440D01*
X827572Y440214D01*
X827670Y439989D01*
X827755Y439763D01*
X827811Y439538D01*
X827868Y439340D01*
X827896Y439143D01*
X827924Y438960D01*
X827952Y438805D01*
Y438678D01*
X827966Y438593D01*
Y438509D01*
X827938Y438100D01*
X827882Y437719D01*
X827797Y437395D01*
X827699Y437113D01*
X827642Y436986D01*
X827600Y436887D01*
X827558Y436789D01*
X827515Y436718D01*
X827473Y436662D01*
X827459Y436605D01*
X827431Y436591D01*
Y436577D01*
X827205Y436309D01*
X826966Y436070D01*
X826698Y435872D01*
X826444Y435717D01*
X826218Y435591D01*
X826120Y435548D01*
X826035Y435506D01*
X825965Y435478D01*
X825908Y435449D01*
X825880Y435435D01*
X825866D01*
X825556Y437296D01*
X825739Y437367D01*
X825908Y437437D01*
X826035Y437508D01*
X826148Y437592D01*
X826233Y437649D01*
X826289Y437705D01*
X826317Y437747D01*
X826331Y437761D01*
X826416Y437874D01*
X826472Y438001D01*
X826515Y438128D01*
X826543Y438241D01*
X826557Y438339D01*
X826571Y438424D01*
Y438494D01*
X826557Y438720D01*
X826500Y438932D01*
X826430Y439129D01*
X826345Y439284D01*
X826261Y439411D01*
X826190Y439495D01*
X826134Y439566D01*
X826120Y439580D01*
X825937Y439721D01*
X825725Y439820D01*
X825499Y439904D01*
X825302Y439961D01*
X825105Y439989D01*
X824964Y440003D01*
X824907Y440017D01*
X824865D01*
X824837D01*
X824823D01*
Y435337D01*
X824428D01*
X824076Y435365D01*
X823737Y435407D01*
X823427Y435464D01*
X823131Y435534D01*
X822877Y435605D01*
X822638Y435689D01*
X822426Y435774D01*
X822243Y435858D01*
X822074Y435943D01*
X821947Y436013D01*
X821834Y436084D01*
X821750Y436140D01*
X821679Y436183D01*
X821651Y436211D01*
X821637Y436225D01*
X821454Y436394D01*
X821284Y436591D01*
X821143Y436789D01*
X821031Y436986D01*
X820918Y437198D01*
X820833Y437409D01*
X820763Y437606D01*
X820706Y437804D01*
X820664Y437987D01*
X820636Y438156D01*
X820608Y438311D01*
X820594Y438438D01*
X820580Y438551D01*
Y438706D01*
X820594Y438960D01*
X820622Y439199D01*
X820678Y439439D01*
X820735Y439650D01*
X820805Y439862D01*
X820890Y440045D01*
X820988Y440228D01*
X821073Y440383D01*
X821172Y440524D01*
X821270Y440651D01*
X821355Y440764D01*
X821425Y440849D01*
X821482Y440919D01*
X821538Y440975D01*
X821566Y441004D01*
X821581Y441018D01*
X821778Y441173D01*
X821989Y441314D01*
X822201Y441441D01*
X822426Y441553D01*
X822666Y441638D01*
X822891Y441709D01*
X823328Y441821D01*
X823540Y441864D01*
X823723Y441892D01*
X823892Y441906D01*
X824033Y441920D01*
X824160Y441934D01*
X824259D01*
X824315D01*
X824329D01*
X824597Y441920D01*
D02*
G37*
G36*
X842577Y435527D02*
X842562Y435146D01*
X842548Y434794D01*
X842520Y434498D01*
X842478Y434258D01*
X842436Y434061D01*
X842407Y433906D01*
X842393Y433864D01*
Y433821D01*
X842379Y433807D01*
Y433793D01*
X842266Y433483D01*
X842140Y433201D01*
X842013Y432976D01*
X841886Y432778D01*
X841773Y432623D01*
X841689Y432510D01*
X841632Y432440D01*
X841604Y432412D01*
X841336Y432172D01*
X841054Y431960D01*
X840758Y431777D01*
X840490Y431636D01*
X840237Y431524D01*
X840138Y431467D01*
X840053Y431439D01*
X839969Y431411D01*
X839912Y431383D01*
X839884Y431368D01*
X839870D01*
X839532Y431270D01*
X839179Y431185D01*
X838841Y431129D01*
X838517Y431101D01*
X838362Y431087D01*
X838221Y431072D01*
X838108D01*
X837995Y431058D01*
X837911D01*
X837854D01*
X837812D01*
X837798D01*
X837304Y431072D01*
X836867Y431115D01*
X836656Y431129D01*
X836473Y431157D01*
X836289Y431185D01*
X836134Y431213D01*
X835993Y431256D01*
X835866Y431284D01*
X835754Y431312D01*
X835669Y431326D01*
X835599Y431354D01*
X835542Y431368D01*
X835514Y431383D01*
X835500D01*
X835162Y431509D01*
X834851Y431665D01*
X834584Y431820D01*
X834358Y431975D01*
X834175Y432102D01*
X834034Y432214D01*
X833949Y432285D01*
X833921Y432299D01*
Y432313D01*
X833696Y432553D01*
X833512Y432792D01*
X833357Y433046D01*
X833230Y433271D01*
X833132Y433469D01*
X833061Y433638D01*
X833047Y433694D01*
X833033Y433737D01*
X833019Y433765D01*
Y433779D01*
X832948Y434047D01*
X832906Y434343D01*
X832864Y434653D01*
X832850Y434949D01*
X832835Y435217D01*
X832821Y435330D01*
Y439221D01*
X842577D01*
Y435527D01*
D02*
G37*
G36*
X826148Y434336D02*
X826472Y434181D01*
X826740Y434012D01*
X826966Y433828D01*
X827149Y433659D01*
X827276Y433504D01*
X827332Y433462D01*
X827360Y433420D01*
X827374Y433391D01*
X827389Y433377D01*
X827487Y433208D01*
X827586Y433039D01*
X827727Y432658D01*
X827825Y432278D01*
X827896Y431911D01*
X827924Y431742D01*
X827938Y431587D01*
X827952Y431446D01*
Y431319D01*
X827966Y431220D01*
Y431079D01*
X827952Y430798D01*
X827938Y430530D01*
X827896Y430276D01*
X827854Y430036D01*
X827811Y429825D01*
X827741Y429627D01*
X827684Y429444D01*
X827614Y429289D01*
X827558Y429148D01*
X827487Y429021D01*
X827431Y428923D01*
X827389Y428838D01*
X827332Y428768D01*
X827304Y428725D01*
X827290Y428697D01*
X827276Y428683D01*
X827135Y428542D01*
X826994Y428415D01*
X826853Y428302D01*
X826712Y428204D01*
X826571Y428133D01*
X826430Y428063D01*
X826176Y427964D01*
X825937Y427908D01*
X825838Y427893D01*
X825767Y427879D01*
X825697Y427865D01*
X825640D01*
X825612D01*
X825598D01*
X825288Y427893D01*
X825006Y427964D01*
X824766Y428049D01*
X824569Y428161D01*
X824414Y428274D01*
X824301Y428359D01*
X824245Y428429D01*
X824217Y428457D01*
X824132Y428584D01*
X824033Y428711D01*
X823963Y428866D01*
X823878Y429035D01*
X823737Y429374D01*
X823611Y429726D01*
X823512Y430036D01*
X823484Y430177D01*
X823441Y430304D01*
X823413Y430403D01*
X823399Y430473D01*
X823385Y430530D01*
Y430544D01*
X823314Y430812D01*
X823258Y431051D01*
X823202Y431263D01*
X823145Y431446D01*
X823103Y431615D01*
X823061Y431756D01*
X823018Y431869D01*
X822990Y431982D01*
X822948Y432066D01*
X822920Y432137D01*
X822906Y432193D01*
X822877Y432221D01*
X822863Y432278D01*
X822849Y432292D01*
X822793Y432348D01*
X822737Y432391D01*
X822624Y432447D01*
X822539Y432475D01*
X822525D01*
X822511D01*
X822426Y432461D01*
X822356Y432447D01*
X822229Y432362D01*
X822159Y432292D01*
X822130Y432278D01*
Y432264D01*
X822060Y432123D01*
X822003Y431968D01*
X821975Y431798D01*
X821947Y431615D01*
X821933Y431460D01*
X821919Y431333D01*
Y431206D01*
X821933Y430995D01*
X821947Y430812D01*
X821989Y430657D01*
X822032Y430530D01*
X822074Y430431D01*
X822102Y430360D01*
X822130Y430318D01*
X822144Y430304D01*
X822229Y430191D01*
X822328Y430107D01*
X822426Y430022D01*
X822539Y429966D01*
X822624Y429924D01*
X822694Y429895D01*
X822751Y429867D01*
X822765D01*
X822440Y428105D01*
X822116Y428218D01*
X821834Y428373D01*
X821595Y428528D01*
X821411Y428697D01*
X821256Y428838D01*
X821143Y428965D01*
X821087Y429049D01*
X821059Y429064D01*
Y429078D01*
X820974Y429219D01*
X820904Y429374D01*
X820777Y429712D01*
X820692Y430065D01*
X820636Y430417D01*
X820622Y430586D01*
X820608Y430741D01*
X820594Y430882D01*
X820580Y430995D01*
Y431516D01*
X820608Y431770D01*
X820636Y432010D01*
X820678Y432235D01*
X820721Y432433D01*
X820777Y432616D01*
X820833Y432785D01*
X820890Y432940D01*
X820960Y433067D01*
X821017Y433180D01*
X821073Y433279D01*
X821115Y433349D01*
X821158Y433420D01*
X821186Y433462D01*
X821200Y433476D01*
X821214Y433490D01*
X821327Y433617D01*
X821454Y433730D01*
X821581Y433828D01*
X821721Y433899D01*
X821975Y434040D01*
X822215Y434124D01*
X822426Y434167D01*
X822525Y434181D01*
X822596Y434195D01*
X822666Y434209D01*
X822708D01*
X822737D01*
X822751D01*
X822934Y434195D01*
X823103Y434167D01*
X823272Y434138D01*
X823427Y434082D01*
X823695Y433941D01*
X823921Y433786D01*
X824104Y433645D01*
X824231Y433504D01*
X824287Y433448D01*
X824315Y433420D01*
X824329Y433391D01*
X824343Y433377D01*
X824414Y433250D01*
X824499Y433081D01*
X824583Y432884D01*
X824654Y432672D01*
X824738Y432447D01*
X824809Y432207D01*
X824950Y431714D01*
X825020Y431474D01*
X825077Y431249D01*
X825133Y431051D01*
X825175Y430868D01*
X825203Y430713D01*
X825232Y430600D01*
X825260Y430530D01*
Y430502D01*
X825302Y430332D01*
X825344Y430205D01*
X825387Y430093D01*
X825415Y430008D01*
X825457Y429952D01*
X825471Y429909D01*
X825499Y429881D01*
X825612Y429797D01*
X825725Y429754D01*
X825810Y429740D01*
X825838D01*
X825852D01*
X825965Y429754D01*
X826063Y429782D01*
X826148Y429825D01*
X826218Y429867D01*
X826275Y429909D01*
X826317Y429952D01*
X826345Y429980D01*
X826359Y429994D01*
X826444Y430149D01*
X826500Y430318D01*
X826557Y430502D01*
X826585Y430671D01*
X826599Y430826D01*
X826613Y430967D01*
Y431079D01*
X826599Y431319D01*
X826571Y431516D01*
X826528Y431700D01*
X826472Y431841D01*
X826430Y431954D01*
X826388Y432038D01*
X826359Y432094D01*
X826345Y432108D01*
X826233Y432235D01*
X826092Y432334D01*
X825965Y432419D01*
X825824Y432489D01*
X825697Y432531D01*
X825598Y432560D01*
X825542Y432588D01*
X825514D01*
X825796Y434463D01*
X826148Y434336D01*
D02*
G37*
G36*
X827811Y424355D02*
X820735D01*
Y426230D01*
X827811D01*
Y424355D01*
D02*
G37*
G36*
X819790D02*
X818056D01*
Y426230D01*
X819790D01*
Y424355D01*
D02*
G37*
G36*
X842577Y421966D02*
X840927D01*
Y427407D01*
X838277D01*
Y422515D01*
X836628D01*
Y427407D01*
X834471D01*
Y422149D01*
X832821D01*
Y429381D01*
X842577D01*
Y421966D01*
D02*
G37*
G36*
X824499Y422833D02*
X824752Y422819D01*
X825203Y422748D01*
X825415Y422692D01*
X825612Y422635D01*
X825796Y422579D01*
X825951Y422523D01*
X826106Y422466D01*
X826233Y422410D01*
X826345Y422353D01*
X826444Y422297D01*
X826515Y422255D01*
X826571Y422226D01*
X826599Y422198D01*
X826613D01*
X826825Y422029D01*
X827008Y421860D01*
X827163Y421677D01*
X827304Y421493D01*
X827417Y421310D01*
X827515Y421113D01*
X827600Y420930D01*
X827656Y420760D01*
X827713Y420591D01*
X827741Y420436D01*
X827769Y420295D01*
X827797Y420182D01*
Y420084D01*
X827811Y419999D01*
Y419943D01*
X827797Y419703D01*
X827755Y419478D01*
X827699Y419266D01*
X827628Y419069D01*
X827445Y418716D01*
X827346Y418547D01*
X827233Y418406D01*
X827135Y418279D01*
X827036Y418153D01*
X826937Y418054D01*
X826853Y417983D01*
X826768Y417913D01*
X826712Y417871D01*
X826684Y417842D01*
X826669Y417828D01*
X827699D01*
X827910D01*
X828093Y417842D01*
X828234Y417856D01*
X828347Y417871D01*
X828446Y417899D01*
X828502Y417913D01*
X828530Y417927D01*
X828544D01*
X828657Y417983D01*
X828756Y418040D01*
X828840Y418096D01*
X828911Y418153D01*
X828967Y418209D01*
X828996Y418251D01*
X829010Y418279D01*
X829024Y418293D01*
X829094Y418448D01*
X829151Y418618D01*
X829193Y418801D01*
X829221Y418984D01*
X829235Y419139D01*
X829249Y419266D01*
Y419393D01*
X829235Y419590D01*
X829221Y419760D01*
X829179Y419901D01*
X829137Y420013D01*
X829108Y420112D01*
X829066Y420168D01*
X829052Y420211D01*
X829038Y420225D01*
X828981Y420295D01*
X828897Y420352D01*
X828728Y420422D01*
X828657Y420436D01*
X828587Y420450D01*
X828544Y420464D01*
X828530D01*
X828277Y422607D01*
X828361Y422621D01*
X828432D01*
X828488D01*
X828502D01*
X828671Y422607D01*
X828840Y422593D01*
X829151Y422509D01*
X829418Y422382D01*
X829644Y422241D01*
X829827Y422114D01*
X829954Y421987D01*
X830039Y421902D01*
X830053Y421888D01*
X830067Y421874D01*
X830180Y421719D01*
X830264Y421550D01*
X830349Y421353D01*
X830419Y421155D01*
X830532Y420732D01*
X830603Y420309D01*
X830631Y420112D01*
X830659Y419929D01*
X830673Y419760D01*
Y419619D01*
X830687Y419492D01*
Y419323D01*
X830673Y418984D01*
X830659Y418674D01*
X830617Y418406D01*
X830574Y418167D01*
X830546Y417983D01*
X830504Y417856D01*
X830490Y417772D01*
X830476Y417744D01*
X830391Y417518D01*
X830306Y417321D01*
X830208Y417152D01*
X830123Y417011D01*
X830053Y416912D01*
X829982Y416827D01*
X829940Y416771D01*
X829926Y416757D01*
X829785Y416616D01*
X829630Y416503D01*
X829461Y416404D01*
X829306Y416320D01*
X829165Y416249D01*
X829052Y416207D01*
X828981Y416179D01*
X828953Y416165D01*
X828826Y416123D01*
X828699Y416094D01*
X828403Y416038D01*
X828093Y416010D01*
X827783Y415982D01*
X827515Y415967D01*
X827403Y415953D01*
X827290D01*
X827205D01*
X827149D01*
X827106D01*
X827092D01*
X820735D01*
Y417701D01*
X821750D01*
X821538Y417871D01*
X821369Y418040D01*
X821200Y418223D01*
X821073Y418406D01*
X820960Y418590D01*
X820862Y418773D01*
X820791Y418942D01*
X820721Y419111D01*
X820678Y419266D01*
X820636Y419407D01*
X820622Y419548D01*
X820594Y419647D01*
Y419745D01*
X820580Y419816D01*
Y419872D01*
X820594Y420098D01*
X820622Y420323D01*
X820664Y420535D01*
X820721Y420746D01*
X820876Y421099D01*
X820960Y421268D01*
X821045Y421409D01*
X821143Y421550D01*
X821228Y421663D01*
X821299Y421761D01*
X821369Y421846D01*
X821440Y421916D01*
X821482Y421959D01*
X821510Y421987D01*
X821524Y422001D01*
X821707Y422156D01*
X821905Y422283D01*
X822130Y422396D01*
X822342Y422494D01*
X822567Y422565D01*
X822793Y422635D01*
X823244Y422734D01*
X823441Y422776D01*
X823639Y422804D01*
X823808Y422819D01*
X823949Y422833D01*
X824076Y422847D01*
X824160D01*
X824231D01*
X824245D01*
X824499Y422833D01*
D02*
G37*
G36*
X842577Y414593D02*
X832821D01*
Y416567D01*
X842577D01*
Y414593D01*
D02*
G37*
G36*
X827811Y412246D02*
X824625D01*
X824414D01*
X824217D01*
X824033Y412232D01*
X823878Y412218D01*
X823723D01*
X823596Y412204D01*
X823469Y412189D01*
X823371Y412175D01*
X823202Y412147D01*
X823089Y412133D01*
X823018Y412105D01*
X823004D01*
X822849Y412048D01*
X822694Y411964D01*
X822581Y411879D01*
X822469Y411795D01*
X822398Y411710D01*
X822328Y411640D01*
X822299Y411597D01*
X822285Y411583D01*
X822201Y411428D01*
X822130Y411273D01*
X822088Y411132D01*
X822046Y410991D01*
X822032Y410878D01*
X822018Y410794D01*
Y410709D01*
X822032Y410568D01*
X822046Y410441D01*
X822074Y410343D01*
X822116Y410244D01*
X822159Y410159D01*
X822187Y410103D01*
X822201Y410075D01*
X822215Y410061D01*
X822285Y409962D01*
X822370Y409892D01*
X822539Y409765D01*
X822624Y409723D01*
X822680Y409694D01*
X822722Y409666D01*
X822737D01*
X822807Y409638D01*
X822891Y409624D01*
X823103Y409596D01*
X823357Y409567D01*
X823596Y409553D01*
X823836Y409539D01*
X823935D01*
X824033D01*
X824104D01*
X824160D01*
X824202D01*
X824217D01*
X827811D01*
Y407664D01*
X823427D01*
X823131D01*
X822891Y407678D01*
X822666Y407692D01*
X822497Y407721D01*
X822356Y407735D01*
X822257Y407763D01*
X822187Y407777D01*
X822173D01*
X822003Y407819D01*
X821862Y407876D01*
X821721Y407932D01*
X821609Y408003D01*
X821510Y408059D01*
X821440Y408101D01*
X821397Y408130D01*
X821383Y408144D01*
X821256Y408256D01*
X821143Y408383D01*
X821045Y408510D01*
X820960Y408637D01*
X820890Y408750D01*
X820847Y408848D01*
X820819Y408905D01*
X820805Y408933D01*
X820735Y409130D01*
X820678Y409328D01*
X820636Y409511D01*
X820608Y409680D01*
X820594Y409835D01*
X820580Y409962D01*
Y410061D01*
X820594Y410315D01*
X820636Y410568D01*
X820692Y410794D01*
X820763Y411019D01*
X820862Y411231D01*
X820960Y411414D01*
X821073Y411597D01*
X821172Y411753D01*
X821284Y411893D01*
X821397Y412020D01*
X821496Y412133D01*
X821595Y412218D01*
X821665Y412288D01*
X821721Y412345D01*
X821764Y412373D01*
X821778Y412387D01*
X820735D01*
Y414121D01*
X827811D01*
Y412246D01*
D02*
G37*
G36*
X842577Y410886D02*
X836148D01*
X842577Y406924D01*
Y404951D01*
X832821D01*
Y406769D01*
X839391D01*
X832821Y410801D01*
Y412704D01*
X842577D01*
Y410886D01*
D02*
G37*
G36*
X824597Y406297D02*
X824865Y406283D01*
X825105Y406241D01*
X825330Y406198D01*
X825556Y406156D01*
X825753Y406086D01*
X825937Y406029D01*
X826106Y405959D01*
X826261Y405902D01*
X826388Y405832D01*
X826500Y405775D01*
X826599Y405733D01*
X826669Y405677D01*
X826726Y405648D01*
X826754Y405634D01*
X826768Y405620D01*
X826980Y405437D01*
X827163Y405254D01*
X827318Y405042D01*
X827459Y404817D01*
X827572Y404591D01*
X827670Y404366D01*
X827755Y404140D01*
X827811Y403914D01*
X827868Y403717D01*
X827896Y403520D01*
X827924Y403337D01*
X827952Y403181D01*
Y403055D01*
X827966Y402970D01*
Y402886D01*
X827938Y402477D01*
X827882Y402096D01*
X827797Y401772D01*
X827699Y401490D01*
X827642Y401363D01*
X827600Y401264D01*
X827558Y401166D01*
X827515Y401095D01*
X827473Y401039D01*
X827459Y400982D01*
X827431Y400968D01*
Y400954D01*
X827205Y400686D01*
X826966Y400447D01*
X826698Y400249D01*
X826444Y400094D01*
X826218Y399967D01*
X826120Y399925D01*
X826035Y399883D01*
X825965Y399855D01*
X825908Y399826D01*
X825880Y399812D01*
X825866D01*
X825556Y401673D01*
X825739Y401744D01*
X825908Y401814D01*
X826035Y401885D01*
X826148Y401969D01*
X826233Y402025D01*
X826289Y402082D01*
X826317Y402124D01*
X826331Y402138D01*
X826416Y402251D01*
X826472Y402378D01*
X826515Y402505D01*
X826543Y402618D01*
X826557Y402716D01*
X826571Y402801D01*
Y402871D01*
X826557Y403097D01*
X826500Y403308D01*
X826430Y403506D01*
X826345Y403661D01*
X826261Y403788D01*
X826190Y403872D01*
X826134Y403943D01*
X826120Y403957D01*
X825937Y404098D01*
X825725Y404197D01*
X825499Y404281D01*
X825302Y404337D01*
X825105Y404366D01*
X824964Y404380D01*
X824907Y404394D01*
X824865D01*
X824837D01*
X824823D01*
Y399714D01*
X824428D01*
X824076Y399742D01*
X823737Y399784D01*
X823427Y399841D01*
X823131Y399911D01*
X822877Y399981D01*
X822638Y400066D01*
X822426Y400151D01*
X822243Y400235D01*
X822074Y400320D01*
X821947Y400390D01*
X821834Y400461D01*
X821750Y400517D01*
X821679Y400559D01*
X821651Y400588D01*
X821637Y400602D01*
X821454Y400771D01*
X821284Y400968D01*
X821143Y401166D01*
X821031Y401363D01*
X820918Y401574D01*
X820833Y401786D01*
X820763Y401983D01*
X820706Y402181D01*
X820664Y402364D01*
X820636Y402533D01*
X820608Y402688D01*
X820594Y402815D01*
X820580Y402928D01*
Y403083D01*
X820594Y403337D01*
X820622Y403576D01*
X820678Y403816D01*
X820735Y404027D01*
X820805Y404239D01*
X820890Y404422D01*
X820988Y404605D01*
X821073Y404760D01*
X821172Y404901D01*
X821270Y405028D01*
X821355Y405141D01*
X821425Y405226D01*
X821482Y405296D01*
X821538Y405352D01*
X821566Y405381D01*
X821581Y405395D01*
X821778Y405550D01*
X821989Y405691D01*
X822201Y405818D01*
X822426Y405930D01*
X822666Y406015D01*
X822891Y406086D01*
X823328Y406198D01*
X823540Y406241D01*
X823723Y406269D01*
X823892Y406283D01*
X824033Y406297D01*
X824160Y406311D01*
X824259D01*
X824315D01*
X824329D01*
X824597Y406297D01*
D02*
G37*
G36*
X839701Y399552D02*
X839983Y399495D01*
X840251Y399411D01*
X840490Y399340D01*
X840716Y399241D01*
X840927Y399143D01*
X841111Y399044D01*
X841280Y398945D01*
X841421Y398847D01*
X841547Y398748D01*
X841660Y398663D01*
X841759Y398579D01*
X841829Y398522D01*
X841872Y398466D01*
X841900Y398438D01*
X841914Y398424D01*
X842069Y398226D01*
X842196Y398015D01*
X842309Y397789D01*
X842407Y397550D01*
X842478Y397324D01*
X842548Y397085D01*
X842647Y396619D01*
X842689Y396408D01*
X842718Y396211D01*
X842732Y396041D01*
X842746Y395886D01*
X842760Y395759D01*
Y395576D01*
X842746Y395125D01*
X842703Y394716D01*
X842647Y394350D01*
X842619Y394195D01*
X842577Y394040D01*
X842548Y393913D01*
X842520Y393800D01*
X842492Y393701D01*
X842464Y393617D01*
X842436Y393546D01*
X842421Y393504D01*
X842407Y393476D01*
Y393462D01*
X842252Y393152D01*
X842083Y392898D01*
X841914Y392658D01*
X841731Y392475D01*
X841576Y392334D01*
X841435Y392221D01*
X841350Y392165D01*
X841336Y392136D01*
X841322D01*
X841040Y391981D01*
X840772Y391855D01*
X840504Y391770D01*
X840251Y391714D01*
X840053Y391685D01*
X839955Y391671D01*
X839884Y391657D01*
X839828D01*
X839785D01*
X839757D01*
X839743D01*
X839405Y391671D01*
X839109Y391714D01*
X838841Y391784D01*
X838615Y391855D01*
X838432Y391925D01*
X838305Y391996D01*
X838221Y392038D01*
X838192Y392052D01*
X837967Y392207D01*
X837769Y392390D01*
X837600Y392574D01*
X837459Y392743D01*
X837347Y392898D01*
X837262Y393025D01*
X837206Y393109D01*
X837191Y393123D01*
Y393137D01*
X837121Y393278D01*
X837050Y393419D01*
X836924Y393758D01*
X836811Y394110D01*
X836698Y394448D01*
X836656Y394604D01*
X836613Y394758D01*
X836571Y394899D01*
X836543Y395012D01*
X836515Y395111D01*
X836501Y395182D01*
X836487Y395238D01*
Y395252D01*
X836416Y395506D01*
X836360Y395731D01*
X836303Y395943D01*
X836247Y396140D01*
X836191Y396295D01*
X836134Y396450D01*
X836078Y396577D01*
X836036Y396690D01*
X835993Y396788D01*
X835951Y396859D01*
X835923Y396930D01*
X835895Y396972D01*
X835852Y397042D01*
X835838Y397056D01*
X835740Y397155D01*
X835641Y397225D01*
X835542Y397268D01*
X835443Y397296D01*
X835373Y397324D01*
X835303Y397338D01*
X835260D01*
X835246D01*
X835105Y397324D01*
X834992Y397296D01*
X834880Y397240D01*
X834795Y397183D01*
X834725Y397127D01*
X834682Y397071D01*
X834654Y397042D01*
X834640Y397028D01*
X834513Y396831D01*
X834428Y396619D01*
X834358Y396394D01*
X834316Y396182D01*
X834287Y395999D01*
X834273Y395844D01*
Y395703D01*
X834287Y395407D01*
X834330Y395153D01*
X834386Y394942D01*
X834443Y394773D01*
X834499Y394632D01*
X834555Y394533D01*
X834598Y394477D01*
X834612Y394463D01*
X834753Y394322D01*
X834922Y394195D01*
X835091Y394096D01*
X835274Y394025D01*
X835429Y393969D01*
X835556Y393941D01*
X835655Y393913D01*
X835669D01*
X835683D01*
X835613Y391939D01*
X835359Y391953D01*
X835133Y391996D01*
X834908Y392052D01*
X834710Y392122D01*
X834513Y392193D01*
X834330Y392277D01*
X834175Y392362D01*
X834020Y392447D01*
X833893Y392545D01*
X833780Y392630D01*
X833681Y392715D01*
X833597Y392785D01*
X833540Y392841D01*
X833498Y392884D01*
X833470Y392912D01*
X833456Y392926D01*
X833315Y393109D01*
X833188Y393307D01*
X833075Y393518D01*
X832977Y393744D01*
X832906Y393969D01*
X832835Y394195D01*
X832737Y394646D01*
X832709Y394857D01*
X832681Y395041D01*
X832666Y395224D01*
X832652Y395379D01*
X832638Y395506D01*
Y395675D01*
X832652Y396084D01*
X832695Y396450D01*
X832751Y396774D01*
X832807Y397056D01*
X832850Y397183D01*
X832878Y397296D01*
X832906Y397381D01*
X832934Y397465D01*
X832962Y397522D01*
X832977Y397564D01*
X832991Y397592D01*
Y397606D01*
X833132Y397888D01*
X833287Y398128D01*
X833456Y398339D01*
X833611Y398508D01*
X833752Y398649D01*
X833865Y398734D01*
X833949Y398804D01*
X833963Y398819D01*
X833977D01*
X834217Y398960D01*
X834471Y399058D01*
X834710Y399129D01*
X834922Y399171D01*
X835105Y399199D01*
X835246Y399227D01*
X835303D01*
X835345D01*
X835359D01*
X835373D01*
X835584Y399213D01*
X835796Y399185D01*
X835979Y399143D01*
X836162Y399086D01*
X836501Y398945D01*
X836797Y398776D01*
X836924Y398706D01*
X837022Y398621D01*
X837121Y398551D01*
X837206Y398480D01*
X837262Y398424D01*
X837304Y398382D01*
X837333Y398353D01*
X837347Y398339D01*
X837445Y398212D01*
X837544Y398057D01*
X837643Y397902D01*
X837727Y397719D01*
X837896Y397366D01*
X838037Y397000D01*
X838094Y396817D01*
X838150Y396662D01*
X838192Y396507D01*
X838235Y396380D01*
X838263Y396281D01*
X838291Y396196D01*
X838305Y396140D01*
Y396126D01*
X838362Y395900D01*
X838418Y395703D01*
X838460Y395520D01*
X838503Y395351D01*
X838545Y395210D01*
X838573Y395083D01*
X838615Y394970D01*
X838643Y394871D01*
X838658Y394787D01*
X838686Y394716D01*
X838714Y394618D01*
X838742Y394561D01*
Y394547D01*
X838813Y394364D01*
X838883Y394223D01*
X838954Y394096D01*
X839024Y393997D01*
X839081Y393927D01*
X839123Y393885D01*
X839151Y393856D01*
X839165Y393842D01*
X839264Y393772D01*
X839362Y393715D01*
X839461Y393687D01*
X839546Y393659D01*
X839630Y393645D01*
X839701Y393631D01*
X839743D01*
X839757D01*
X839955Y393645D01*
X840124Y393701D01*
X840293Y393786D01*
X840434Y393870D01*
X840547Y393969D01*
X840631Y394040D01*
X840688Y394096D01*
X840702Y394124D01*
X840828Y394322D01*
X840927Y394547D01*
X840998Y394787D01*
X841040Y395012D01*
X841068Y395224D01*
X841096Y395393D01*
Y395548D01*
X841082Y395872D01*
X841026Y396154D01*
X840955Y396394D01*
X840871Y396605D01*
X840786Y396774D01*
X840716Y396887D01*
X840659Y396958D01*
X840645Y396986D01*
X840448Y397169D01*
X840237Y397310D01*
X839997Y397437D01*
X839757Y397522D01*
X839546Y397592D01*
X839377Y397648D01*
X839320Y397663D01*
X839264D01*
X839236Y397677D01*
X839221D01*
X839405Y399594D01*
X839701Y399552D01*
D02*
G37*
G36*
X824583Y398586D02*
X824879Y398558D01*
X825161Y398515D01*
X825429Y398459D01*
X825669Y398403D01*
X825894Y398332D01*
X826092Y398247D01*
X826275Y398163D01*
X826444Y398092D01*
X826585Y398008D01*
X826712Y397937D01*
X826811Y397867D01*
X826895Y397825D01*
X826952Y397782D01*
X826980Y397754D01*
X826994Y397740D01*
X827163Y397571D01*
X827318Y397402D01*
X827445Y397219D01*
X827558Y397049D01*
X827656Y396866D01*
X827727Y396697D01*
X827797Y396528D01*
X827840Y396373D01*
X827882Y396218D01*
X827910Y396077D01*
X827938Y395964D01*
X827952Y395851D01*
X827966Y395766D01*
Y395654D01*
X827952Y395428D01*
X827924Y395217D01*
X827882Y395005D01*
X827825Y394822D01*
X827769Y394681D01*
X827727Y394554D01*
X827699Y394484D01*
X827684Y394455D01*
X827558Y394244D01*
X827417Y394047D01*
X827262Y393863D01*
X827121Y393722D01*
X826994Y393596D01*
X826881Y393497D01*
X826811Y393441D01*
X826782Y393426D01*
X827811D01*
Y391692D01*
X818056D01*
Y393567D01*
X821566D01*
X821397Y393736D01*
X821242Y393906D01*
X821115Y394075D01*
X820988Y394258D01*
X820904Y394427D01*
X820819Y394596D01*
X820749Y394766D01*
X820706Y394921D01*
X820664Y395076D01*
X820636Y395203D01*
X820608Y395330D01*
X820594Y395428D01*
X820580Y395513D01*
Y395625D01*
X820594Y395865D01*
X820622Y396091D01*
X820664Y396302D01*
X820721Y396514D01*
X820876Y396866D01*
X820960Y397035D01*
X821045Y397176D01*
X821143Y397317D01*
X821228Y397430D01*
X821299Y397529D01*
X821369Y397613D01*
X821440Y397684D01*
X821482Y397726D01*
X821510Y397754D01*
X821524Y397768D01*
X821707Y397909D01*
X821905Y398036D01*
X822116Y398149D01*
X822342Y398247D01*
X822567Y398332D01*
X822793Y398403D01*
X823244Y398501D01*
X823441Y398530D01*
X823639Y398558D01*
X823808Y398572D01*
X823963Y398586D01*
X824090Y398600D01*
X824174D01*
X824245D01*
X824259D01*
X824583Y398586D01*
D02*
G37*
G36*
X827811Y384404D02*
X826782D01*
X826994Y384235D01*
X827177Y384066D01*
X827318Y383897D01*
X827445Y383742D01*
X827543Y383601D01*
X827614Y383488D01*
X827656Y383418D01*
X827670Y383389D01*
X827769Y383164D01*
X827840Y382952D01*
X827896Y382755D01*
X827924Y382572D01*
X827952Y382417D01*
X827966Y382290D01*
Y382191D01*
X827952Y381965D01*
X827924Y381740D01*
X827882Y381543D01*
X827811Y381345D01*
X827656Y380979D01*
X827572Y380824D01*
X827473Y380669D01*
X827389Y380542D01*
X827304Y380429D01*
X827219Y380330D01*
X827149Y380246D01*
X827078Y380175D01*
X827036Y380133D01*
X827008Y380105D01*
X826994Y380091D01*
X826796Y379935D01*
X826599Y379809D01*
X826374Y379682D01*
X826148Y379583D01*
X825908Y379498D01*
X825683Y379428D01*
X825232Y379329D01*
X825020Y379287D01*
X824823Y379259D01*
X824654Y379245D01*
X824499Y379231D01*
X824372Y379217D01*
X824287D01*
X824217D01*
X824202D01*
X823878Y379231D01*
X823582Y379259D01*
X823300Y379301D01*
X823047Y379343D01*
X822807Y379414D01*
X822581Y379484D01*
X822384Y379569D01*
X822201Y379640D01*
X822046Y379724D01*
X821905Y379809D01*
X821792Y379879D01*
X821693Y379935D01*
X821623Y379992D01*
X821566Y380034D01*
X821538Y380062D01*
X821524Y380076D01*
X821355Y380246D01*
X821214Y380415D01*
X821087Y380584D01*
X820974Y380767D01*
X820890Y380951D01*
X820805Y381120D01*
X820692Y381458D01*
X820664Y381627D01*
X820636Y381768D01*
X820608Y381895D01*
X820594Y382008D01*
X820580Y382092D01*
Y382219D01*
X820594Y382431D01*
X820622Y382642D01*
X820664Y382854D01*
X820735Y383037D01*
X820890Y383389D01*
X821073Y383685D01*
X821158Y383812D01*
X821256Y383925D01*
X821341Y384024D01*
X821411Y384108D01*
X821482Y384179D01*
X821524Y384221D01*
X821552Y384249D01*
X821566Y384263D01*
X818056D01*
Y386138D01*
X827811D01*
Y384404D01*
D02*
G37*
G36*
X842577Y388626D02*
Y386484D01*
X835288Y384538D01*
X842577Y382621D01*
Y380492D01*
X832821Y378138D01*
Y380126D01*
X839644Y381620D01*
X832821Y383312D01*
Y385680D01*
X839532Y387456D01*
X832821Y388922D01*
Y390938D01*
X842577Y388626D01*
D02*
G37*
G36*
Y375206D02*
X832821D01*
Y377180D01*
X842577D01*
Y375206D01*
D02*
G37*
G36*
X827825Y375932D02*
X828037Y376003D01*
X828220Y376073D01*
X828389Y376157D01*
X828530Y376228D01*
X828643Y376298D01*
X828728Y376355D01*
X828784Y376397D01*
X828798Y376411D01*
X828925Y376538D01*
X829024Y376693D01*
X829094Y376848D01*
X829137Y377003D01*
X829165Y377144D01*
X829193Y377257D01*
Y377370D01*
X829179Y377638D01*
X829165Y377779D01*
X829137Y377892D01*
X829122Y378004D01*
X829108Y378089D01*
X829094Y378145D01*
Y378159D01*
X830560Y377990D01*
X830631Y377609D01*
X830659Y377440D01*
X830673Y377271D01*
Y377144D01*
X830687Y377032D01*
Y376750D01*
X830673Y376566D01*
X830645Y376411D01*
X830617Y376270D01*
X830603Y376143D01*
X830574Y376059D01*
X830560Y376003D01*
Y375988D01*
X830518Y375833D01*
X830462Y375692D01*
X830405Y375580D01*
X830363Y375481D01*
X830321Y375396D01*
X830278Y375340D01*
X830264Y375298D01*
X830250Y375284D01*
X830081Y375072D01*
X829912Y374917D01*
X829827Y374861D01*
X829771Y374818D01*
X829729Y374790D01*
X829715Y374776D01*
X829574Y374692D01*
X829433Y374607D01*
X829277Y374522D01*
X829122Y374452D01*
X828981Y374395D01*
X828869Y374339D01*
X828798Y374311D01*
X828770Y374297D01*
X827558Y373846D01*
X820735Y371351D01*
Y373282D01*
X825767Y374945D01*
X820735Y376623D01*
Y378610D01*
X827825Y375932D01*
D02*
G37*
G36*
X834471Y371118D02*
X842577D01*
Y369144D01*
X834471D01*
Y366269D01*
X832821D01*
Y374008D01*
X834471D01*
Y371118D01*
D02*
G37*
G36*
X842577Y357909D02*
X840927D01*
Y363463D01*
X834358Y358120D01*
X832821D01*
Y365253D01*
X834471D01*
Y360700D01*
X840800Y365846D01*
X842577D01*
Y357909D01*
D02*
G37*
G36*
X823850Y366346D02*
X824118D01*
X824358Y366332D01*
X824583Y366318D01*
X824781Y366304D01*
X824964Y366290D01*
X825133Y366261D01*
X825274Y366247D01*
X825401Y366233D01*
X825514Y366219D01*
X825598Y366205D01*
X825669Y366191D01*
X825711D01*
X825739Y366177D01*
X825753D01*
X825965Y366106D01*
X826162Y366036D01*
X826345Y365937D01*
X826500Y365853D01*
X826641Y365768D01*
X826754Y365698D01*
X826811Y365641D01*
X826839Y365627D01*
X827022Y365458D01*
X827191Y365275D01*
X827332Y365077D01*
X827459Y364894D01*
X827558Y364739D01*
X827628Y364598D01*
X827670Y364513D01*
X827684Y364499D01*
Y364485D01*
X827741Y364344D01*
X827783Y364189D01*
X827868Y363837D01*
X827924Y363484D01*
X827952Y363146D01*
X827966Y362991D01*
X827980Y362836D01*
Y362709D01*
X827995Y362582D01*
Y362357D01*
X827980Y361948D01*
X827952Y361581D01*
X827896Y361257D01*
X827840Y360989D01*
X827825Y360876D01*
X827797Y360764D01*
X827769Y360679D01*
X827741Y360608D01*
X827727Y360552D01*
X827713Y360510D01*
X827699Y360496D01*
Y360482D01*
X827586Y360228D01*
X827445Y360002D01*
X827318Y359805D01*
X827191Y359636D01*
X827078Y359509D01*
X826994Y359410D01*
X826937Y359354D01*
X826909Y359340D01*
X826712Y359185D01*
X826500Y359058D01*
X826303Y358959D01*
X826106Y358875D01*
X825937Y358818D01*
X825796Y358776D01*
X825753Y358762D01*
X825711D01*
X825697Y358748D01*
X825683D01*
X825528Y358720D01*
X825359Y358691D01*
X825175Y358663D01*
X824992Y358649D01*
X824569Y358621D01*
X824160Y358593D01*
X823977D01*
X823794D01*
X823625Y358579D01*
X823484D01*
X823371D01*
X823272D01*
X823216D01*
X823202D01*
X818056D01*
Y360552D01*
X823469D01*
X823681D01*
X823878D01*
X824062Y360566D01*
X824231D01*
X824372Y360580D01*
X824513D01*
X824640Y360594D01*
X824752D01*
X824921Y360623D01*
X825048Y360637D01*
X825119Y360651D01*
X825147D01*
X825330Y360693D01*
X825485Y360764D01*
X825626Y360848D01*
X825753Y360933D01*
X825852Y361017D01*
X825922Y361088D01*
X825965Y361144D01*
X825979Y361158D01*
X826092Y361328D01*
X826176Y361539D01*
X826233Y361736D01*
X826275Y361948D01*
X826303Y362131D01*
X826317Y362272D01*
Y362413D01*
X826303Y362709D01*
X826261Y362963D01*
X826204Y363188D01*
X826134Y363386D01*
X826077Y363527D01*
X826021Y363639D01*
X825979Y363696D01*
X825965Y363724D01*
X825824Y363879D01*
X825655Y364006D01*
X825499Y364119D01*
X825344Y364189D01*
X825203Y364246D01*
X825091Y364288D01*
X825020Y364316D01*
X824992D01*
X824907Y364330D01*
X824823Y364344D01*
X824710D01*
X824583Y364358D01*
X824315Y364372D01*
X824033D01*
X823780Y364386D01*
X823667D01*
X823554D01*
X823469D01*
X823413D01*
X823371D01*
X823357D01*
X818056D01*
Y366360D01*
X823272D01*
X823568D01*
X823850Y366346D01*
D02*
G37*
G36*
X842577Y349239D02*
X840927D01*
Y354681D01*
X838277D01*
Y349789D01*
X836628D01*
Y354681D01*
X834471D01*
Y349423D01*
X832821D01*
Y356654D01*
X842577D01*
Y349239D01*
D02*
G37*
G36*
X827811Y349077D02*
X826162D01*
Y354519D01*
X823512D01*
Y349627D01*
X821862D01*
Y354519D01*
X819706D01*
Y349260D01*
X818056D01*
Y356492D01*
X827811D01*
Y349077D01*
D02*
G37*
G36*
X829982Y347259D02*
X829898Y347047D01*
X829799Y346850D01*
X829700Y346681D01*
X829602Y346540D01*
X829517Y346427D01*
X829447Y346342D01*
X829404Y346286D01*
X829390Y346272D01*
X829249Y346131D01*
X829108Y346018D01*
X828967Y345934D01*
X828826Y345849D01*
X828714Y345807D01*
X828629Y345764D01*
X828559Y345736D01*
X828544D01*
X828361Y345694D01*
X828150Y345652D01*
X827938Y345623D01*
X827741Y345609D01*
X827558Y345595D01*
X827403D01*
X827346D01*
X827304D01*
X827290D01*
X827276D01*
X825937D01*
Y347470D01*
X827811D01*
Y346554D01*
X828009Y346568D01*
X828178Y346596D01*
X828333Y346638D01*
X828460Y346695D01*
X828559Y346737D01*
X828629Y346779D01*
X828671Y346808D01*
X828685Y346822D01*
X828798Y346920D01*
X828897Y347047D01*
X828996Y347174D01*
X829066Y347315D01*
X829122Y347428D01*
X829165Y347527D01*
X829193Y347597D01*
X829207Y347625D01*
X829982Y347259D01*
D02*
G37*
G36*
X842577Y345588D02*
X838503D01*
Y344954D01*
X838517Y344757D01*
X838531Y344587D01*
X838559Y344446D01*
X838573Y344334D01*
X838601Y344263D01*
X838615Y344221D01*
Y344207D01*
X838672Y344094D01*
X838728Y343981D01*
X838799Y343882D01*
X838855Y343784D01*
X838925Y343713D01*
X838982Y343657D01*
X839010Y343629D01*
X839024Y343615D01*
X839095Y343558D01*
X839165Y343488D01*
X839377Y343333D01*
X839602Y343163D01*
X839856Y342980D01*
X840081Y342825D01*
X840194Y342755D01*
X840279Y342698D01*
X840349Y342642D01*
X840406Y342600D01*
X840448Y342585D01*
X840462Y342571D01*
X842577Y341162D01*
Y338793D01*
X840674Y339992D01*
X840476Y340119D01*
X840279Y340245D01*
X840110Y340358D01*
X839955Y340471D01*
X839814Y340570D01*
X839673Y340654D01*
X839461Y340823D01*
X839292Y340950D01*
X839179Y341035D01*
X839109Y341105D01*
X839095Y341119D01*
X838925Y341274D01*
X838770Y341458D01*
X838643Y341627D01*
X838517Y341796D01*
X838418Y341937D01*
X838347Y342050D01*
X838291Y342134D01*
X838277Y342149D01*
Y342163D01*
X838235Y341923D01*
X838178Y341712D01*
X838122Y341514D01*
X838051Y341317D01*
X837981Y341148D01*
X837911Y340993D01*
X837840Y340838D01*
X837755Y340711D01*
X837685Y340598D01*
X837614Y340499D01*
X837544Y340415D01*
X837488Y340358D01*
X837445Y340302D01*
X837403Y340260D01*
X837389Y340245D01*
X837375Y340231D01*
X837234Y340119D01*
X837093Y340020D01*
X836783Y339851D01*
X836487Y339738D01*
X836191Y339668D01*
X835937Y339611D01*
X835838Y339597D01*
X835740D01*
X835669Y339583D01*
X835599D01*
X835570D01*
X835556D01*
X835246Y339597D01*
X834950Y339653D01*
X834696Y339724D01*
X834471Y339794D01*
X834287Y339879D01*
X834147Y339949D01*
X834104Y339978D01*
X834062Y340006D01*
X834048Y340020D01*
X834034D01*
X833794Y340189D01*
X833597Y340372D01*
X833442Y340556D01*
X833301Y340739D01*
X833216Y340908D01*
X833146Y341035D01*
X833103Y341119D01*
X833089Y341134D01*
Y341148D01*
X833047Y341289D01*
X833005Y341444D01*
X832934Y341796D01*
X832892Y342177D01*
X832850Y342543D01*
Y342727D01*
X832835Y342882D01*
Y343037D01*
X832821Y343163D01*
Y347562D01*
X842577D01*
Y345588D01*
D02*
G37*
G36*
X827811Y333923D02*
X826077D01*
Y337645D01*
X825894Y337532D01*
X825739Y337405D01*
X825669Y337349D01*
X825612Y337306D01*
X825584Y337278D01*
X825570Y337264D01*
X825514Y337207D01*
X825443Y337151D01*
X825288Y336982D01*
X825105Y336799D01*
X824921Y336615D01*
X824752Y336432D01*
X824611Y336277D01*
X824555Y336221D01*
X824513Y336178D01*
X824499Y336150D01*
X824484Y336136D01*
X824188Y335826D01*
X823949Y335572D01*
X823723Y335361D01*
X823554Y335192D01*
X823413Y335065D01*
X823314Y334980D01*
X823244Y334924D01*
X823230Y334910D01*
X822990Y334726D01*
X822765Y334571D01*
X822553Y334445D01*
X822370Y334346D01*
X822215Y334261D01*
X822088Y334205D01*
X822018Y334177D01*
X821989Y334163D01*
X821764Y334078D01*
X821538Y334022D01*
X821327Y333979D01*
X821129Y333951D01*
X820974Y333937D01*
X820847Y333923D01*
X820763D01*
X820735D01*
X820523Y333937D01*
X820312Y333965D01*
X820114Y333993D01*
X819931Y334050D01*
X819607Y334191D01*
X819325Y334332D01*
X819198Y334416D01*
X819099Y334487D01*
X819001Y334557D01*
X818930Y334628D01*
X818874Y334684D01*
X818818Y334712D01*
X818803Y334741D01*
X818789Y334755D01*
X818648Y334910D01*
X818521Y335093D01*
X818423Y335262D01*
X818338Y335460D01*
X818197Y335826D01*
X818099Y336193D01*
X818070Y336362D01*
X818042Y336517D01*
X818028Y336658D01*
X818014Y336785D01*
X818000Y336883D01*
Y337024D01*
X818014Y337264D01*
X818028Y337490D01*
X818099Y337926D01*
X818211Y338293D01*
X818268Y338462D01*
X818338Y338617D01*
X818395Y338758D01*
X818465Y338871D01*
X818521Y338984D01*
X818564Y339068D01*
X818620Y339139D01*
X818648Y339181D01*
X818662Y339209D01*
X818677Y339223D01*
X818818Y339379D01*
X818959Y339519D01*
X819128Y339646D01*
X819311Y339759D01*
X819677Y339928D01*
X820030Y340069D01*
X820213Y340112D01*
X820368Y340154D01*
X820509Y340196D01*
X820636Y340210D01*
X820749Y340238D01*
X820819D01*
X820876Y340252D01*
X820890D01*
X821073Y338392D01*
X820791Y338363D01*
X820551Y338307D01*
X820340Y338251D01*
X820185Y338180D01*
X820058Y338124D01*
X819973Y338067D01*
X819917Y338025D01*
X819903Y338011D01*
X819790Y337870D01*
X819706Y337715D01*
X819635Y337560D01*
X819593Y337405D01*
X819565Y337278D01*
X819550Y337165D01*
Y337067D01*
X819565Y336855D01*
X819607Y336672D01*
X819663Y336517D01*
X819720Y336376D01*
X819776Y336277D01*
X819833Y336193D01*
X819875Y336150D01*
X819889Y336136D01*
X820030Y336023D01*
X820185Y335939D01*
X820340Y335882D01*
X820495Y335840D01*
X820636Y335812D01*
X820763Y335798D01*
X820833D01*
X820847D01*
X820862D01*
X821073Y335812D01*
X821270Y335854D01*
X821468Y335925D01*
X821637Y335995D01*
X821792Y336066D01*
X821905Y336136D01*
X821975Y336178D01*
X822003Y336193D01*
X822088Y336249D01*
X822187Y336334D01*
X822314Y336446D01*
X822426Y336559D01*
X822694Y336813D01*
X822962Y337067D01*
X823216Y337320D01*
X823328Y337433D01*
X823413Y337546D01*
X823498Y337630D01*
X823554Y337687D01*
X823596Y337729D01*
X823611Y337743D01*
X823878Y338025D01*
X824132Y338279D01*
X824372Y338519D01*
X824583Y338730D01*
X824795Y338927D01*
X824992Y339096D01*
X825161Y339252D01*
X825330Y339379D01*
X825471Y339491D01*
X825598Y339590D01*
X825697Y339674D01*
X825796Y339731D01*
X825852Y339787D01*
X825908Y339815D01*
X825937Y339844D01*
X825951D01*
X826275Y340027D01*
X826613Y340168D01*
X826923Y340281D01*
X827205Y340365D01*
X827459Y340422D01*
X827558Y340436D01*
X827642Y340450D01*
X827713Y340464D01*
X827769Y340478D01*
X827797D01*
X827811D01*
Y333923D01*
D02*
G37*
G36*
X842577Y330801D02*
X840927D01*
Y335706D01*
X832892D01*
Y337680D01*
X842577D01*
Y330801D01*
D02*
G37*
G36*
X823498Y332640D02*
X823963Y332612D01*
X824400Y332570D01*
X824795Y332513D01*
X825147Y332457D01*
X825471Y332386D01*
X825753Y332302D01*
X826007Y332217D01*
X826218Y332147D01*
X826416Y332062D01*
X826571Y331992D01*
X826698Y331921D01*
X826782Y331879D01*
X826853Y331837D01*
X826895Y331808D01*
X826909Y331794D01*
X827106Y331625D01*
X827262Y331442D01*
X827417Y331259D01*
X827529Y331061D01*
X827642Y330878D01*
X827727Y330681D01*
X827797Y330497D01*
X827854Y330314D01*
X827910Y330145D01*
X827938Y329990D01*
X827966Y329849D01*
X827980Y329736D01*
Y329637D01*
X827995Y329553D01*
Y329496D01*
X827980Y329243D01*
X827952Y329003D01*
X827896Y328763D01*
X827840Y328552D01*
X827769Y328355D01*
X827684Y328171D01*
X827586Y328016D01*
X827487Y327861D01*
X827403Y327734D01*
X827304Y327607D01*
X827219Y327509D01*
X827149Y327424D01*
X827092Y327368D01*
X827036Y327326D01*
X827008Y327297D01*
X826994Y327283D01*
X826754Y327114D01*
X826472Y326973D01*
X826176Y326832D01*
X825852Y326734D01*
X825528Y326635D01*
X825203Y326564D01*
X824865Y326494D01*
X824541Y326437D01*
X824231Y326409D01*
X823949Y326381D01*
X823681Y326353D01*
X823455Y326339D01*
X823272Y326325D01*
X823131D01*
X823075D01*
X823033D01*
X823018D01*
X823004D01*
X822497Y326339D01*
X822032Y326367D01*
X821609Y326409D01*
X821214Y326480D01*
X820847Y326550D01*
X820523Y326621D01*
X820227Y326719D01*
X819973Y326804D01*
X819734Y326889D01*
X819550Y326973D01*
X819381Y327058D01*
X819240Y327128D01*
X819142Y327199D01*
X819071Y327241D01*
X819029Y327269D01*
X819015Y327283D01*
X818832Y327438D01*
X818677Y327607D01*
X818550Y327791D01*
X818423Y327974D01*
X818324Y328157D01*
X818254Y328340D01*
X818183Y328510D01*
X818127Y328693D01*
X818084Y328862D01*
X818056Y329003D01*
X818028Y329144D01*
X818014Y329257D01*
X818000Y329356D01*
Y329496D01*
X818014Y329750D01*
X818042Y329990D01*
X818099Y330229D01*
X818155Y330441D01*
X818240Y330638D01*
X818324Y330822D01*
X818409Y330977D01*
X818507Y331132D01*
X818606Y331259D01*
X818691Y331385D01*
X818775Y331484D01*
X818860Y331555D01*
X818916Y331625D01*
X818973Y331667D01*
X819001Y331696D01*
X819015Y331710D01*
X819255Y331879D01*
X819536Y332020D01*
X819833Y332147D01*
X820143Y332259D01*
X820467Y332344D01*
X820805Y332429D01*
X821129Y332485D01*
X821454Y332541D01*
X821764Y332570D01*
X822046Y332598D01*
X822314Y332626D01*
X822539Y332640D01*
X822722Y332654D01*
X822863D01*
X822920D01*
X822962D01*
X822976D01*
X822990D01*
X823498Y332640D01*
D02*
G37*
G36*
X827811Y318755D02*
X826077D01*
Y322476D01*
X825894Y322363D01*
X825739Y322237D01*
X825669Y322180D01*
X825612Y322138D01*
X825584Y322110D01*
X825570Y322095D01*
X825514Y322039D01*
X825443Y321983D01*
X825288Y321814D01*
X825105Y321630D01*
X824921Y321447D01*
X824752Y321264D01*
X824611Y321109D01*
X824555Y321052D01*
X824513Y321010D01*
X824499Y320982D01*
X824484Y320968D01*
X824188Y320658D01*
X823949Y320404D01*
X823723Y320192D01*
X823554Y320023D01*
X823413Y319896D01*
X823314Y319812D01*
X823244Y319755D01*
X823230Y319741D01*
X822990Y319558D01*
X822765Y319403D01*
X822553Y319276D01*
X822370Y319177D01*
X822215Y319093D01*
X822088Y319037D01*
X822018Y319008D01*
X821989Y318994D01*
X821764Y318910D01*
X821538Y318853D01*
X821327Y318811D01*
X821129Y318783D01*
X820974Y318769D01*
X820847Y318755D01*
X820763D01*
X820735D01*
X820523Y318769D01*
X820312Y318797D01*
X820114Y318825D01*
X819931Y318881D01*
X819607Y319022D01*
X819325Y319163D01*
X819198Y319248D01*
X819099Y319318D01*
X819001Y319389D01*
X818930Y319459D01*
X818874Y319516D01*
X818818Y319544D01*
X818803Y319572D01*
X818789Y319586D01*
X818648Y319741D01*
X818521Y319925D01*
X818423Y320094D01*
X818338Y320291D01*
X818197Y320658D01*
X818099Y321024D01*
X818070Y321193D01*
X818042Y321348D01*
X818028Y321489D01*
X818014Y321616D01*
X818000Y321715D01*
Y321856D01*
X818014Y322095D01*
X818028Y322321D01*
X818099Y322758D01*
X818211Y323125D01*
X818268Y323294D01*
X818338Y323449D01*
X818395Y323590D01*
X818465Y323703D01*
X818521Y323815D01*
X818564Y323900D01*
X818620Y323970D01*
X818648Y324013D01*
X818662Y324041D01*
X818677Y324055D01*
X818818Y324210D01*
X818959Y324351D01*
X819128Y324478D01*
X819311Y324591D01*
X819677Y324760D01*
X820030Y324901D01*
X820213Y324943D01*
X820368Y324985D01*
X820509Y325028D01*
X820636Y325042D01*
X820749Y325070D01*
X820819D01*
X820876Y325084D01*
X820890D01*
X821073Y323223D01*
X820791Y323195D01*
X820551Y323139D01*
X820340Y323082D01*
X820185Y323012D01*
X820058Y322956D01*
X819973Y322899D01*
X819917Y322857D01*
X819903Y322843D01*
X819790Y322702D01*
X819706Y322547D01*
X819635Y322392D01*
X819593Y322237D01*
X819565Y322110D01*
X819550Y321997D01*
Y321898D01*
X819565Y321687D01*
X819607Y321503D01*
X819663Y321348D01*
X819720Y321207D01*
X819776Y321109D01*
X819833Y321024D01*
X819875Y320982D01*
X819889Y320968D01*
X820030Y320855D01*
X820185Y320770D01*
X820340Y320714D01*
X820495Y320672D01*
X820636Y320644D01*
X820763Y320630D01*
X820833D01*
X820847D01*
X820862D01*
X821073Y320644D01*
X821270Y320686D01*
X821468Y320756D01*
X821637Y320827D01*
X821792Y320897D01*
X821905Y320968D01*
X821975Y321010D01*
X822003Y321024D01*
X822088Y321081D01*
X822187Y321165D01*
X822314Y321278D01*
X822426Y321391D01*
X822694Y321644D01*
X822962Y321898D01*
X823216Y322152D01*
X823328Y322265D01*
X823413Y322378D01*
X823498Y322462D01*
X823554Y322519D01*
X823596Y322561D01*
X823611Y322575D01*
X823878Y322857D01*
X824132Y323111D01*
X824372Y323350D01*
X824583Y323562D01*
X824795Y323759D01*
X824992Y323928D01*
X825161Y324083D01*
X825330Y324210D01*
X825471Y324323D01*
X825598Y324422D01*
X825697Y324506D01*
X825796Y324562D01*
X825852Y324619D01*
X825908Y324647D01*
X825937Y324675D01*
X825951D01*
X826275Y324859D01*
X826613Y325000D01*
X826923Y325112D01*
X827205Y325197D01*
X827459Y325253D01*
X827558Y325267D01*
X827642Y325281D01*
X827713Y325296D01*
X827769Y325310D01*
X827797D01*
X827811D01*
Y318755D01*
D02*
G37*
G36*
X842577Y328305D02*
X840363Y327502D01*
Y323583D01*
X842577Y322737D01*
Y320608D01*
X832821Y324527D01*
Y326614D01*
X842577Y330392D01*
Y328305D01*
D02*
G37*
G36*
Y317733D02*
X836148D01*
X842577Y313771D01*
Y311798D01*
X832821D01*
Y313616D01*
X839391D01*
X832821Y317648D01*
Y319551D01*
X842577D01*
Y317733D01*
D02*
G37*
G36*
X825852Y313806D02*
X827811D01*
Y312002D01*
X825852D01*
Y310790D01*
X824217D01*
Y312002D01*
X818014D01*
Y313581D01*
X824231Y317810D01*
X825852D01*
Y313806D01*
D02*
G37*
G36*
X842577Y306018D02*
X842562Y305637D01*
X842548Y305285D01*
X842520Y304989D01*
X842478Y304749D01*
X842436Y304552D01*
X842407Y304397D01*
X842393Y304354D01*
Y304312D01*
X842379Y304298D01*
Y304284D01*
X842266Y303974D01*
X842140Y303692D01*
X842013Y303466D01*
X841886Y303269D01*
X841773Y303114D01*
X841689Y303001D01*
X841632Y302931D01*
X841604Y302903D01*
X841336Y302663D01*
X841054Y302451D01*
X840758Y302268D01*
X840490Y302127D01*
X840237Y302014D01*
X840138Y301958D01*
X840053Y301930D01*
X839969Y301902D01*
X839912Y301873D01*
X839884Y301859D01*
X839870D01*
X839532Y301761D01*
X839179Y301676D01*
X838841Y301620D01*
X838517Y301591D01*
X838362Y301577D01*
X838221Y301563D01*
X838108D01*
X837995Y301549D01*
X837911D01*
X837854D01*
X837812D01*
X837798D01*
X837304Y301563D01*
X836867Y301606D01*
X836656Y301620D01*
X836473Y301648D01*
X836289Y301676D01*
X836134Y301704D01*
X835993Y301747D01*
X835866Y301775D01*
X835754Y301803D01*
X835669Y301817D01*
X835599Y301845D01*
X835542Y301859D01*
X835514Y301873D01*
X835500D01*
X835162Y302000D01*
X834851Y302155D01*
X834584Y302310D01*
X834358Y302465D01*
X834175Y302592D01*
X834034Y302705D01*
X833949Y302776D01*
X833921Y302790D01*
Y302804D01*
X833696Y303043D01*
X833512Y303283D01*
X833357Y303537D01*
X833230Y303762D01*
X833132Y303960D01*
X833061Y304129D01*
X833047Y304185D01*
X833033Y304228D01*
X833019Y304256D01*
Y304270D01*
X832948Y304538D01*
X832906Y304834D01*
X832864Y305144D01*
X832850Y305440D01*
X832835Y305708D01*
X832821Y305821D01*
Y309711D01*
X842577D01*
Y306018D01*
D02*
G37*
G36*
X843811Y157026D02*
X839737D01*
Y156392D01*
X839752Y156195D01*
X839766Y156025D01*
X839794Y155885D01*
X839808Y155772D01*
X839836Y155701D01*
X839850Y155659D01*
Y155645D01*
X839907Y155532D01*
X839963Y155419D01*
X840033Y155321D01*
X840090Y155222D01*
X840160Y155152D01*
X840217Y155095D01*
X840245Y155067D01*
X840259Y155053D01*
X840330Y154997D01*
X840400Y154926D01*
X840611Y154771D01*
X840837Y154602D01*
X841091Y154418D01*
X841316Y154263D01*
X841429Y154193D01*
X841514Y154136D01*
X841584Y154080D01*
X841641Y154038D01*
X841683Y154024D01*
X841697Y154010D01*
X843811Y152600D01*
Y150232D01*
X841908Y151430D01*
X841711Y151557D01*
X841514Y151684D01*
X841345Y151796D01*
X841189Y151909D01*
X841049Y152008D01*
X840908Y152093D01*
X840696Y152262D01*
X840527Y152388D01*
X840414Y152473D01*
X840344Y152544D01*
X840330Y152558D01*
X840160Y152713D01*
X840005Y152896D01*
X839878Y153065D01*
X839752Y153234D01*
X839653Y153375D01*
X839582Y153488D01*
X839526Y153573D01*
X839512Y153587D01*
Y153601D01*
X839470Y153361D01*
X839413Y153150D01*
X839357Y152952D01*
X839286Y152755D01*
X839216Y152586D01*
X839145Y152431D01*
X839075Y152276D01*
X838990Y152149D01*
X838920Y152036D01*
X838849Y151937D01*
X838779Y151853D01*
X838723Y151796D01*
X838680Y151740D01*
X838638Y151698D01*
X838624Y151684D01*
X838610Y151670D01*
X838469Y151557D01*
X838328Y151458D01*
X838018Y151289D01*
X837722Y151176D01*
X837426Y151106D01*
X837172Y151049D01*
X837073Y151035D01*
X836974D01*
X836904Y151021D01*
X836833D01*
X836805D01*
X836791D01*
X836481Y151035D01*
X836185Y151092D01*
X835931Y151162D01*
X835706Y151233D01*
X835523Y151317D01*
X835381Y151388D01*
X835339Y151416D01*
X835297Y151444D01*
X835283Y151458D01*
X835269D01*
X835029Y151627D01*
X834832Y151811D01*
X834677Y151994D01*
X834536Y152177D01*
X834451Y152346D01*
X834381Y152473D01*
X834338Y152558D01*
X834324Y152572D01*
Y152586D01*
X834282Y152727D01*
X834240Y152882D01*
X834169Y153234D01*
X834127Y153615D01*
X834085Y153982D01*
Y154165D01*
X834071Y154320D01*
Y154475D01*
X834056Y154602D01*
Y159000D01*
X843811D01*
Y157026D01*
D02*
G37*
G36*
X840597Y149710D02*
X840865Y149696D01*
X841105Y149654D01*
X841330Y149611D01*
X841556Y149569D01*
X841753Y149499D01*
X841937Y149442D01*
X842106Y149372D01*
X842261Y149315D01*
X842388Y149245D01*
X842501Y149188D01*
X842599Y149146D01*
X842670Y149090D01*
X842726Y149062D01*
X842754Y149047D01*
X842768Y149033D01*
X842980Y148850D01*
X843163Y148667D01*
X843318Y148455D01*
X843459Y148230D01*
X843572Y148004D01*
X843671Y147779D01*
X843755Y147553D01*
X843811Y147328D01*
X843868Y147130D01*
X843896Y146933D01*
X843924Y146750D01*
X843952Y146595D01*
Y146468D01*
X843967Y146383D01*
Y146299D01*
X843938Y145890D01*
X843882Y145509D01*
X843797Y145185D01*
X843699Y144903D01*
X843642Y144776D01*
X843600Y144677D01*
X843558Y144579D01*
X843515Y144508D01*
X843473Y144452D01*
X843459Y144396D01*
X843431Y144381D01*
Y144367D01*
X843205Y144100D01*
X842966Y143860D01*
X842698Y143663D01*
X842444Y143507D01*
X842219Y143380D01*
X842120Y143338D01*
X842035Y143296D01*
X841965Y143268D01*
X841908Y143240D01*
X841880Y143225D01*
X841866D01*
X841556Y145086D01*
X841739Y145157D01*
X841908Y145227D01*
X842035Y145298D01*
X842148Y145382D01*
X842233Y145439D01*
X842289Y145495D01*
X842317Y145537D01*
X842331Y145552D01*
X842416Y145664D01*
X842472Y145791D01*
X842515Y145918D01*
X842543Y146031D01*
X842557Y146130D01*
X842571Y146214D01*
Y146285D01*
X842557Y146510D01*
X842501Y146721D01*
X842430Y146919D01*
X842345Y147074D01*
X842261Y147201D01*
X842190Y147285D01*
X842134Y147356D01*
X842120Y147370D01*
X841937Y147511D01*
X841725Y147610D01*
X841500Y147694D01*
X841302Y147751D01*
X841105Y147779D01*
X840964Y147793D01*
X840908Y147807D01*
X840865D01*
X840837D01*
X840823D01*
Y143127D01*
X840428D01*
X840076Y143155D01*
X839737Y143197D01*
X839427Y143254D01*
X839131Y143324D01*
X838878Y143395D01*
X838638Y143479D01*
X838427Y143564D01*
X838243Y143648D01*
X838074Y143733D01*
X837947Y143803D01*
X837834Y143874D01*
X837750Y143930D01*
X837679Y143973D01*
X837651Y144001D01*
X837637Y144015D01*
X837454Y144184D01*
X837285Y144381D01*
X837144Y144579D01*
X837031Y144776D01*
X836918Y144988D01*
X836833Y145199D01*
X836763Y145396D01*
X836707Y145594D01*
X836664Y145777D01*
X836636Y145946D01*
X836608Y146101D01*
X836594Y146228D01*
X836580Y146341D01*
Y146496D01*
X836594Y146750D01*
X836622Y146989D01*
X836678Y147229D01*
X836735Y147441D01*
X836805Y147652D01*
X836890Y147835D01*
X836989Y148018D01*
X837073Y148174D01*
X837172Y148315D01*
X837271Y148441D01*
X837355Y148554D01*
X837426Y148639D01*
X837482Y148709D01*
X837538Y148766D01*
X837567Y148794D01*
X837581Y148808D01*
X837778Y148963D01*
X837990Y149104D01*
X838201Y149231D01*
X838427Y149344D01*
X838666Y149428D01*
X838892Y149499D01*
X839329Y149611D01*
X839540Y149654D01*
X839723Y149682D01*
X839893Y149696D01*
X840033Y149710D01*
X840160Y149724D01*
X840259D01*
X840315D01*
X840330D01*
X840597Y149710D01*
D02*
G37*
G36*
X843811Y139673D02*
Y137981D01*
X836735Y135176D01*
Y137093D01*
X840358Y138447D01*
X840569Y138531D01*
X840767Y138588D01*
X840837Y138616D01*
X840893Y138630D01*
X840936Y138644D01*
X840950D01*
X841020Y138658D01*
X841105Y138686D01*
X841316Y138757D01*
X841401Y138785D01*
X841486Y138813D01*
X841542Y138827D01*
X841556Y138841D01*
X840358Y139222D01*
X836735Y140561D01*
Y142521D01*
X843811Y139673D01*
D02*
G37*
G36*
Y132145D02*
X836735D01*
Y134020D01*
X843811D01*
Y132145D01*
D02*
G37*
G36*
X835790D02*
X834056D01*
Y134020D01*
X835790D01*
Y132145D01*
D02*
G37*
G36*
X842148Y130750D02*
X842472Y130595D01*
X842740Y130425D01*
X842966Y130242D01*
X843149Y130073D01*
X843276Y129918D01*
X843332Y129876D01*
X843360Y129833D01*
X843374Y129805D01*
X843389Y129791D01*
X843487Y129622D01*
X843586Y129453D01*
X843727Y129072D01*
X843826Y128692D01*
X843896Y128325D01*
X843924Y128156D01*
X843938Y128001D01*
X843952Y127860D01*
Y127733D01*
X843967Y127634D01*
Y127493D01*
X843952Y127211D01*
X843938Y126943D01*
X843896Y126690D01*
X843854Y126450D01*
X843811Y126239D01*
X843741Y126041D01*
X843685Y125858D01*
X843614Y125703D01*
X843558Y125562D01*
X843487Y125435D01*
X843431Y125336D01*
X843389Y125252D01*
X843332Y125181D01*
X843304Y125139D01*
X843290Y125111D01*
X843276Y125097D01*
X843135Y124956D01*
X842994Y124829D01*
X842853Y124716D01*
X842712Y124617D01*
X842571Y124547D01*
X842430Y124476D01*
X842176Y124378D01*
X841937Y124321D01*
X841838Y124307D01*
X841768Y124293D01*
X841697Y124279D01*
X841641D01*
X841612D01*
X841598D01*
X841288Y124307D01*
X841006Y124378D01*
X840767Y124462D01*
X840569Y124575D01*
X840414Y124688D01*
X840301Y124773D01*
X840245Y124843D01*
X840217Y124871D01*
X840132Y124998D01*
X840033Y125125D01*
X839963Y125280D01*
X839878Y125449D01*
X839737Y125787D01*
X839611Y126140D01*
X839512Y126450D01*
X839484Y126591D01*
X839442Y126718D01*
X839413Y126817D01*
X839399Y126887D01*
X839385Y126943D01*
Y126958D01*
X839315Y127225D01*
X839258Y127465D01*
X839202Y127676D01*
X839145Y127860D01*
X839103Y128029D01*
X839061Y128170D01*
X839018Y128283D01*
X838990Y128395D01*
X838948Y128480D01*
X838920Y128551D01*
X838906Y128607D01*
X838878Y128635D01*
X838864Y128692D01*
X838849Y128706D01*
X838793Y128762D01*
X838737Y128804D01*
X838624Y128861D01*
X838539Y128889D01*
X838525D01*
X838511D01*
X838427Y128875D01*
X838356Y128861D01*
X838229Y128776D01*
X838159Y128706D01*
X838130Y128692D01*
Y128677D01*
X838060Y128536D01*
X838004Y128381D01*
X837975Y128212D01*
X837947Y128029D01*
X837933Y127874D01*
X837919Y127747D01*
Y127620D01*
X837933Y127409D01*
X837947Y127225D01*
X837990Y127070D01*
X838032Y126943D01*
X838074Y126845D01*
X838102Y126774D01*
X838130Y126732D01*
X838145Y126718D01*
X838229Y126605D01*
X838328Y126521D01*
X838427Y126436D01*
X838539Y126380D01*
X838624Y126337D01*
X838694Y126309D01*
X838751Y126281D01*
X838765D01*
X838441Y124519D01*
X838116Y124632D01*
X837834Y124787D01*
X837595Y124942D01*
X837411Y125111D01*
X837256Y125252D01*
X837144Y125379D01*
X837087Y125463D01*
X837059Y125477D01*
Y125491D01*
X836974Y125632D01*
X836904Y125787D01*
X836777Y126126D01*
X836693Y126478D01*
X836636Y126831D01*
X836622Y127000D01*
X836608Y127155D01*
X836594Y127296D01*
X836580Y127409D01*
Y127930D01*
X836608Y128184D01*
X836636Y128424D01*
X836678Y128649D01*
X836721Y128847D01*
X836777Y129030D01*
X836833Y129199D01*
X836890Y129354D01*
X836960Y129481D01*
X837017Y129594D01*
X837073Y129692D01*
X837115Y129763D01*
X837158Y129833D01*
X837186Y129876D01*
X837200Y129890D01*
X837214Y129904D01*
X837327Y130031D01*
X837454Y130143D01*
X837581Y130242D01*
X837722Y130313D01*
X837975Y130454D01*
X838215Y130538D01*
X838427Y130581D01*
X838525Y130595D01*
X838596Y130609D01*
X838666Y130623D01*
X838708D01*
X838737D01*
X838751D01*
X838934Y130609D01*
X839103Y130581D01*
X839272Y130552D01*
X839427Y130496D01*
X839695Y130355D01*
X839921Y130200D01*
X840104Y130059D01*
X840231Y129918D01*
X840287Y129861D01*
X840315Y129833D01*
X840330Y129805D01*
X840344Y129791D01*
X840414Y129664D01*
X840499Y129495D01*
X840583Y129298D01*
X840654Y129086D01*
X840738Y128861D01*
X840809Y128621D01*
X840950Y128128D01*
X841020Y127888D01*
X841077Y127662D01*
X841133Y127465D01*
X841175Y127282D01*
X841204Y127127D01*
X841232Y127014D01*
X841260Y126943D01*
Y126915D01*
X841302Y126746D01*
X841345Y126619D01*
X841387Y126506D01*
X841415Y126422D01*
X841457Y126365D01*
X841471Y126323D01*
X841500Y126295D01*
X841612Y126210D01*
X841725Y126168D01*
X841810Y126154D01*
X841838D01*
X841852D01*
X841965Y126168D01*
X842064Y126196D01*
X842148Y126239D01*
X842219Y126281D01*
X842275Y126323D01*
X842317Y126365D01*
X842345Y126394D01*
X842359Y126408D01*
X842444Y126563D01*
X842501Y126732D01*
X842557Y126915D01*
X842585Y127084D01*
X842599Y127240D01*
X842613Y127380D01*
Y127493D01*
X842599Y127733D01*
X842571Y127930D01*
X842529Y128113D01*
X842472Y128254D01*
X842430Y128367D01*
X842388Y128452D01*
X842359Y128508D01*
X842345Y128522D01*
X842233Y128649D01*
X842092Y128748D01*
X841965Y128832D01*
X841824Y128903D01*
X841697Y128945D01*
X841598Y128973D01*
X841542Y129002D01*
X841514D01*
X841796Y130877D01*
X842148Y130750D01*
D02*
G37*
G36*
X843811Y120769D02*
X836735D01*
Y122644D01*
X843811D01*
Y120769D01*
D02*
G37*
G36*
X835790D02*
X834056D01*
Y122644D01*
X835790D01*
Y120769D01*
D02*
G37*
G36*
X840611Y119261D02*
X841020Y119204D01*
X841373Y119134D01*
X841528Y119091D01*
X841669Y119049D01*
X841796Y119007D01*
X841908Y118965D01*
X842007Y118922D01*
X842092Y118894D01*
X842162Y118866D01*
X842205Y118838D01*
X842233Y118824D01*
X842247D01*
X842543Y118626D01*
X842796Y118415D01*
X843022Y118189D01*
X843205Y117978D01*
X843346Y117780D01*
X843445Y117625D01*
X843487Y117569D01*
X843515Y117527D01*
X843530Y117498D01*
Y117484D01*
X843671Y117146D01*
X843783Y116822D01*
X843854Y116512D01*
X843910Y116216D01*
X843938Y115976D01*
X843952Y115877D01*
Y115793D01*
X843967Y115722D01*
Y115624D01*
X843952Y115328D01*
X843924Y115060D01*
X843868Y114792D01*
X843797Y114552D01*
X843727Y114312D01*
X843642Y114101D01*
X843544Y113904D01*
X843445Y113720D01*
X843346Y113565D01*
X843248Y113424D01*
X843163Y113298D01*
X843093Y113199D01*
X843022Y113114D01*
X842966Y113058D01*
X842937Y113030D01*
X842923Y113016D01*
X842712Y112832D01*
X842501Y112677D01*
X842289Y112536D01*
X842064Y112409D01*
X841838Y112311D01*
X841612Y112226D01*
X841401Y112156D01*
X841189Y112099D01*
X841006Y112057D01*
X840823Y112029D01*
X840668Y112001D01*
X840527Y111987D01*
X840414Y111972D01*
X840330D01*
X840273D01*
X840259D01*
X839963Y111987D01*
X839681Y112015D01*
X839427Y112071D01*
X839174Y112128D01*
X838948Y112212D01*
X838723Y112297D01*
X838525Y112395D01*
X838342Y112480D01*
X838187Y112579D01*
X838032Y112677D01*
X837919Y112762D01*
X837806Y112846D01*
X837736Y112903D01*
X837665Y112959D01*
X837637Y112987D01*
X837623Y113001D01*
X837440Y113199D01*
X837285Y113410D01*
X837144Y113622D01*
X837017Y113847D01*
X836918Y114073D01*
X836833Y114284D01*
X836763Y114496D01*
X836707Y114707D01*
X836664Y114890D01*
X836636Y115074D01*
X836608Y115229D01*
X836594Y115370D01*
X836580Y115483D01*
Y115638D01*
X836594Y116018D01*
X836650Y116371D01*
X836721Y116695D01*
X836805Y116977D01*
X836862Y117090D01*
X836904Y117202D01*
X836932Y117301D01*
X836974Y117372D01*
X837003Y117442D01*
X837031Y117484D01*
X837045Y117513D01*
Y117527D01*
X837242Y117823D01*
X837454Y118076D01*
X837679Y118302D01*
X837891Y118485D01*
X838088Y118626D01*
X838243Y118739D01*
X838300Y118781D01*
X838342Y118795D01*
X838370Y118824D01*
X838384D01*
X838708Y118979D01*
X839033Y119077D01*
X839329Y119162D01*
X839596Y119218D01*
X839836Y119247D01*
X839935Y119261D01*
X840019D01*
X840076Y119275D01*
X840132D01*
X840160D01*
X840174D01*
X840611Y119261D01*
D02*
G37*
G36*
X843811Y108660D02*
X840626D01*
X840414D01*
X840217D01*
X840033Y108645D01*
X839878Y108631D01*
X839723D01*
X839596Y108617D01*
X839470Y108603D01*
X839371Y108589D01*
X839202Y108561D01*
X839089Y108547D01*
X839018Y108519D01*
X839004D01*
X838849Y108462D01*
X838694Y108378D01*
X838581Y108293D01*
X838469Y108209D01*
X838398Y108124D01*
X838328Y108054D01*
X838300Y108011D01*
X838286Y107997D01*
X838201Y107842D01*
X838130Y107687D01*
X838088Y107546D01*
X838046Y107405D01*
X838032Y107292D01*
X838018Y107208D01*
Y107123D01*
X838032Y106982D01*
X838046Y106855D01*
X838074Y106756D01*
X838116Y106658D01*
X838159Y106573D01*
X838187Y106517D01*
X838201Y106489D01*
X838215Y106475D01*
X838286Y106376D01*
X838370Y106305D01*
X838539Y106179D01*
X838624Y106136D01*
X838680Y106108D01*
X838723Y106080D01*
X838737D01*
X838807Y106052D01*
X838892Y106038D01*
X839103Y106009D01*
X839357Y105981D01*
X839596Y105967D01*
X839836Y105953D01*
X839935D01*
X840033D01*
X840104D01*
X840160D01*
X840203D01*
X840217D01*
X843811D01*
Y104078D01*
X839427D01*
X839131D01*
X838892Y104092D01*
X838666Y104106D01*
X838497Y104135D01*
X838356Y104149D01*
X838257Y104177D01*
X838187Y104191D01*
X838173D01*
X838004Y104233D01*
X837863Y104290D01*
X837722Y104346D01*
X837609Y104416D01*
X837510Y104473D01*
X837440Y104515D01*
X837397Y104543D01*
X837383Y104557D01*
X837256Y104670D01*
X837144Y104797D01*
X837045Y104924D01*
X836960Y105051D01*
X836890Y105164D01*
X836848Y105262D01*
X836819Y105319D01*
X836805Y105347D01*
X836735Y105544D01*
X836678Y105742D01*
X836636Y105925D01*
X836608Y106094D01*
X836594Y106249D01*
X836580Y106376D01*
Y106475D01*
X836594Y106728D01*
X836636Y106982D01*
X836693Y107208D01*
X836763Y107433D01*
X836862Y107645D01*
X836960Y107828D01*
X837073Y108011D01*
X837172Y108166D01*
X837285Y108307D01*
X837397Y108434D01*
X837496Y108547D01*
X837595Y108631D01*
X837665Y108702D01*
X837722Y108758D01*
X837764Y108786D01*
X837778Y108801D01*
X836735D01*
Y110534D01*
X843811D01*
Y108660D01*
D02*
G37*
G36*
Y92476D02*
X842078D01*
Y96198D01*
X841894Y96085D01*
X841739Y95958D01*
X841669Y95902D01*
X841612Y95859D01*
X841584Y95831D01*
X841570Y95817D01*
X841514Y95761D01*
X841443Y95704D01*
X841288Y95535D01*
X841105Y95352D01*
X840922Y95169D01*
X840752Y94986D01*
X840611Y94831D01*
X840555Y94774D01*
X840513Y94732D01*
X840499Y94704D01*
X840485Y94690D01*
X840189Y94379D01*
X839949Y94126D01*
X839723Y93914D01*
X839554Y93745D01*
X839413Y93618D01*
X839315Y93533D01*
X839244Y93477D01*
X839230Y93463D01*
X838990Y93280D01*
X838765Y93125D01*
X838553Y92998D01*
X838370Y92899D01*
X838215Y92815D01*
X838088Y92758D01*
X838018Y92730D01*
X837990Y92716D01*
X837764Y92631D01*
X837538Y92575D01*
X837327Y92533D01*
X837130Y92505D01*
X836974Y92490D01*
X836848Y92476D01*
X836763D01*
X836735D01*
X836523Y92490D01*
X836312Y92519D01*
X836115Y92547D01*
X835931Y92603D01*
X835607Y92744D01*
X835325Y92885D01*
X835198Y92970D01*
X835100Y93040D01*
X835001Y93111D01*
X834930Y93181D01*
X834874Y93237D01*
X834818Y93266D01*
X834803Y93294D01*
X834789Y93308D01*
X834649Y93463D01*
X834522Y93646D01*
X834423Y93815D01*
X834338Y94013D01*
X834197Y94379D01*
X834099Y94746D01*
X834071Y94915D01*
X834042Y95070D01*
X834028Y95211D01*
X834014Y95338D01*
X834000Y95437D01*
Y95578D01*
X834014Y95817D01*
X834028Y96043D01*
X834099Y96480D01*
X834212Y96846D01*
X834268Y97015D01*
X834338Y97171D01*
X834395Y97311D01*
X834465Y97424D01*
X834522Y97537D01*
X834564Y97622D01*
X834620Y97692D01*
X834649Y97734D01*
X834663Y97763D01*
X834677Y97777D01*
X834818Y97932D01*
X834959Y98073D01*
X835128Y98200D01*
X835311Y98312D01*
X835678Y98482D01*
X836030Y98623D01*
X836213Y98665D01*
X836368Y98707D01*
X836509Y98749D01*
X836636Y98764D01*
X836749Y98792D01*
X836819D01*
X836876Y98806D01*
X836890D01*
X837073Y96945D01*
X836791Y96917D01*
X836552Y96860D01*
X836340Y96804D01*
X836185Y96734D01*
X836058Y96677D01*
X835974Y96621D01*
X835917Y96579D01*
X835903Y96564D01*
X835790Y96423D01*
X835706Y96268D01*
X835635Y96113D01*
X835593Y95958D01*
X835565Y95831D01*
X835551Y95719D01*
Y95620D01*
X835565Y95408D01*
X835607Y95225D01*
X835664Y95070D01*
X835720Y94929D01*
X835776Y94831D01*
X835833Y94746D01*
X835875Y94704D01*
X835889Y94690D01*
X836030Y94577D01*
X836185Y94492D01*
X836340Y94436D01*
X836495Y94394D01*
X836636Y94365D01*
X836763Y94351D01*
X836833D01*
X836848D01*
X836862D01*
X837073Y94365D01*
X837271Y94408D01*
X837468Y94478D01*
X837637Y94549D01*
X837792Y94619D01*
X837905Y94690D01*
X837975Y94732D01*
X838004Y94746D01*
X838088Y94802D01*
X838187Y94887D01*
X838314Y95000D01*
X838427Y95112D01*
X838694Y95366D01*
X838962Y95620D01*
X839216Y95874D01*
X839329Y95986D01*
X839413Y96099D01*
X839498Y96184D01*
X839554Y96240D01*
X839596Y96283D01*
X839611Y96297D01*
X839878Y96579D01*
X840132Y96832D01*
X840372Y97072D01*
X840583Y97283D01*
X840795Y97481D01*
X840992Y97650D01*
X841161Y97805D01*
X841330Y97932D01*
X841471Y98045D01*
X841598Y98143D01*
X841697Y98228D01*
X841796Y98284D01*
X841852Y98341D01*
X841908Y98369D01*
X841937Y98397D01*
X841951D01*
X842275Y98580D01*
X842613Y98721D01*
X842923Y98834D01*
X843205Y98919D01*
X843459Y98975D01*
X843558Y98989D01*
X843642Y99003D01*
X843713Y99017D01*
X843769Y99031D01*
X843797D01*
X843811D01*
Y92476D01*
D02*
G37*
G36*
Y88938D02*
X841937D01*
Y90813D01*
X843811D01*
Y88938D01*
D02*
G37*
G36*
Y82763D02*
X843797Y82524D01*
Y82101D01*
X843783Y81932D01*
Y81664D01*
X843769Y81565D01*
Y81424D01*
X843755Y81368D01*
Y81311D01*
X843713Y81030D01*
X843642Y80776D01*
X843572Y80550D01*
X843487Y80353D01*
X843417Y80198D01*
X843346Y80085D01*
X843304Y80014D01*
X843290Y79986D01*
X843135Y79789D01*
X842966Y79634D01*
X842811Y79479D01*
X842642Y79366D01*
X842501Y79267D01*
X842388Y79197D01*
X842317Y79155D01*
X842289Y79141D01*
X842049Y79042D01*
X841824Y78957D01*
X841598Y78901D01*
X841401Y78873D01*
X841232Y78844D01*
X841105Y78830D01*
X841020D01*
X841006D01*
X840992D01*
X840682Y78844D01*
X840400Y78901D01*
X840160Y78985D01*
X839935Y79070D01*
X839766Y79155D01*
X839639Y79239D01*
X839554Y79296D01*
X839526Y79310D01*
X839301Y79507D01*
X839117Y79718D01*
X838962Y79958D01*
X838849Y80170D01*
X838751Y80367D01*
X838680Y80536D01*
X838666Y80592D01*
X838652Y80635D01*
X838638Y80663D01*
Y80677D01*
X838511Y80451D01*
X838384Y80254D01*
X838229Y80085D01*
X838102Y79944D01*
X837975Y79845D01*
X837877Y79761D01*
X837806Y79704D01*
X837778Y79690D01*
X837552Y79563D01*
X837341Y79465D01*
X837130Y79408D01*
X836932Y79352D01*
X836763Y79324D01*
X836636Y79310D01*
X836552D01*
X836537D01*
X836523D01*
X836298Y79324D01*
X836072Y79352D01*
X835889Y79408D01*
X835720Y79465D01*
X835579Y79521D01*
X835466Y79577D01*
X835410Y79606D01*
X835381Y79620D01*
X835198Y79733D01*
X835043Y79859D01*
X834902Y79986D01*
X834775Y80099D01*
X834691Y80212D01*
X834620Y80296D01*
X834578Y80353D01*
X834564Y80367D01*
X834451Y80536D01*
X834367Y80719D01*
X834296Y80889D01*
X834240Y81044D01*
X834197Y81185D01*
X834169Y81283D01*
X834155Y81354D01*
Y81382D01*
X834127Y81622D01*
X834099Y81889D01*
X834085Y82171D01*
X834071Y82453D01*
X834056Y82707D01*
Y86993D01*
X843811D01*
Y82763D01*
D02*
G37*
G36*
X811250Y320000D02*
X780750D01*
Y434000D01*
X811250D01*
Y320000D01*
D02*
G37*
G36*
X74240Y129811D02*
X72451D01*
Y136135D01*
X68554Y129811D01*
X66612D01*
Y139408D01*
X68401D01*
Y132945D01*
X72367Y139408D01*
X74240D01*
Y129811D01*
D02*
G37*
G36*
X64559D02*
X62618D01*
Y133819D01*
X61994D01*
X61800Y133805D01*
X61633Y133791D01*
X61494Y133763D01*
X61384Y133750D01*
X61314Y133722D01*
X61273Y133708D01*
X61259D01*
X61148Y133652D01*
X61037Y133597D01*
X60940Y133528D01*
X60843Y133472D01*
X60773Y133403D01*
X60718Y133347D01*
X60690Y133320D01*
X60676Y133306D01*
X60621Y133236D01*
X60552Y133167D01*
X60399Y132959D01*
X60233Y132737D01*
X60052Y132487D01*
X59900Y132266D01*
X59830Y132155D01*
X59775Y132072D01*
X59719Y132002D01*
X59678Y131947D01*
X59664Y131905D01*
X59650Y131891D01*
X58263Y129811D01*
X55933D01*
X57112Y131683D01*
X57237Y131877D01*
X57362Y132072D01*
X57473Y132238D01*
X57584Y132390D01*
X57681Y132529D01*
X57764Y132668D01*
X57930Y132876D01*
X58055Y133042D01*
X58138Y133153D01*
X58208Y133223D01*
X58222Y133236D01*
X58374Y133403D01*
X58554Y133555D01*
X58721Y133680D01*
X58887Y133805D01*
X59026Y133902D01*
X59137Y133972D01*
X59220Y134027D01*
X59234Y134041D01*
X59248D01*
X59012Y134082D01*
X58804Y134138D01*
X58610Y134193D01*
X58416Y134263D01*
X58249Y134332D01*
X58097Y134401D01*
X57944Y134471D01*
X57819Y134554D01*
X57709Y134623D01*
X57611Y134693D01*
X57528Y134762D01*
X57473Y134817D01*
X57417Y134859D01*
X57376Y134901D01*
X57362Y134915D01*
X57348Y134928D01*
X57237Y135067D01*
X57140Y135206D01*
X56973Y135511D01*
X56863Y135802D01*
X56793Y136093D01*
X56738Y136343D01*
X56724Y136440D01*
Y136537D01*
X56710Y136607D01*
Y136676D01*
Y136704D01*
Y136717D01*
X56724Y137022D01*
X56779Y137314D01*
X56849Y137563D01*
X56918Y137785D01*
X57001Y137966D01*
X57070Y138104D01*
X57098Y138146D01*
X57126Y138188D01*
X57140Y138201D01*
Y138215D01*
X57306Y138451D01*
X57487Y138645D01*
X57667Y138798D01*
X57847Y138936D01*
X58014Y139020D01*
X58138Y139089D01*
X58222Y139130D01*
X58236Y139144D01*
X58249D01*
X58388Y139186D01*
X58541Y139228D01*
X58887Y139297D01*
X59262Y139339D01*
X59622Y139380D01*
X59803D01*
X59955Y139394D01*
X60108D01*
X60233Y139408D01*
X64559D01*
Y129811D01*
D02*
G37*
G36*
X46614Y137785D02*
X43771D01*
Y129811D01*
X41829D01*
Y137785D01*
X39000D01*
Y139408D01*
X46614D01*
Y137785D01*
D02*
G37*
G36*
X51939Y139574D02*
X52300Y139533D01*
X52619Y139477D01*
X52896Y139422D01*
X53021Y139380D01*
X53132Y139352D01*
X53215Y139325D01*
X53298Y139297D01*
X53354Y139269D01*
X53395Y139255D01*
X53423Y139242D01*
X53437D01*
X53714Y139103D01*
X53950Y138950D01*
X54158Y138784D01*
X54325Y138631D01*
X54463Y138493D01*
X54546Y138382D01*
X54616Y138298D01*
X54630Y138285D01*
Y138271D01*
X54768Y138035D01*
X54865Y137785D01*
X54935Y137549D01*
X54976Y137341D01*
X55004Y137161D01*
X55032Y137022D01*
Y136967D01*
Y136925D01*
Y136912D01*
Y136898D01*
X55018Y136690D01*
X54990Y136482D01*
X54949Y136301D01*
X54893Y136121D01*
X54755Y135788D01*
X54588Y135497D01*
X54519Y135372D01*
X54436Y135275D01*
X54366Y135178D01*
X54297Y135095D01*
X54241Y135039D01*
X54200Y134998D01*
X54172Y134970D01*
X54158Y134956D01*
X54033Y134859D01*
X53881Y134762D01*
X53728Y134665D01*
X53548Y134582D01*
X53201Y134415D01*
X52841Y134277D01*
X52660Y134221D01*
X52508Y134166D01*
X52355Y134124D01*
X52231Y134082D01*
X52133Y134055D01*
X52050Y134027D01*
X51995Y134013D01*
X51981D01*
X51759Y133958D01*
X51565Y133902D01*
X51385Y133861D01*
X51218Y133819D01*
X51079Y133777D01*
X50955Y133750D01*
X50844Y133708D01*
X50746Y133680D01*
X50663Y133666D01*
X50594Y133639D01*
X50497Y133611D01*
X50441Y133583D01*
X50428D01*
X50247Y133514D01*
X50109Y133444D01*
X49984Y133375D01*
X49887Y133306D01*
X49817Y133250D01*
X49776Y133209D01*
X49748Y133181D01*
X49734Y133167D01*
X49665Y133070D01*
X49609Y132973D01*
X49582Y132876D01*
X49554Y132793D01*
X49540Y132709D01*
X49526Y132640D01*
Y132598D01*
Y132585D01*
X49540Y132390D01*
X49595Y132224D01*
X49679Y132058D01*
X49762Y131919D01*
X49859Y131808D01*
X49928Y131725D01*
X49984Y131669D01*
X50012Y131655D01*
X50206Y131531D01*
X50428Y131433D01*
X50663Y131364D01*
X50885Y131323D01*
X51093Y131295D01*
X51260Y131267D01*
X51412D01*
X51731Y131281D01*
X52009Y131336D01*
X52244Y131406D01*
X52452Y131489D01*
X52619Y131572D01*
X52730Y131642D01*
X52799Y131697D01*
X52827Y131711D01*
X53007Y131905D01*
X53146Y132113D01*
X53271Y132349D01*
X53354Y132585D01*
X53423Y132793D01*
X53479Y132959D01*
X53492Y133014D01*
Y133070D01*
X53506Y133098D01*
Y133112D01*
X55392Y132931D01*
X55351Y132640D01*
X55295Y132363D01*
X55212Y132099D01*
X55143Y131863D01*
X55046Y131642D01*
X54949Y131433D01*
X54852Y131253D01*
X54755Y131087D01*
X54657Y130948D01*
X54560Y130823D01*
X54477Y130712D01*
X54394Y130615D01*
X54338Y130546D01*
X54283Y130504D01*
X54255Y130477D01*
X54241Y130463D01*
X54047Y130310D01*
X53839Y130185D01*
X53617Y130074D01*
X53382Y129977D01*
X53160Y129908D01*
X52924Y129839D01*
X52466Y129742D01*
X52258Y129700D01*
X52064Y129672D01*
X51898Y129658D01*
X51745Y129644D01*
X51620Y129631D01*
X51440D01*
X50996Y129644D01*
X50594Y129686D01*
X50233Y129742D01*
X50081Y129769D01*
X49928Y129811D01*
X49804Y129839D01*
X49693Y129866D01*
X49595Y129894D01*
X49512Y129922D01*
X49443Y129950D01*
X49401Y129964D01*
X49374Y129977D01*
X49360D01*
X49055Y130130D01*
X48805Y130296D01*
X48569Y130463D01*
X48389Y130643D01*
X48250Y130796D01*
X48139Y130934D01*
X48084Y131018D01*
X48056Y131031D01*
Y131045D01*
X47903Y131323D01*
X47779Y131586D01*
X47695Y131850D01*
X47640Y132099D01*
X47612Y132293D01*
X47598Y132390D01*
X47585Y132460D01*
Y132515D01*
Y132557D01*
Y132585D01*
Y132598D01*
X47598Y132931D01*
X47640Y133223D01*
X47709Y133486D01*
X47779Y133708D01*
X47848Y133888D01*
X47917Y134013D01*
X47959Y134096D01*
X47973Y134124D01*
X48125Y134346D01*
X48306Y134540D01*
X48486Y134706D01*
X48652Y134845D01*
X48805Y134956D01*
X48930Y135039D01*
X49013Y135095D01*
X49027Y135109D01*
X49041D01*
X49179Y135178D01*
X49318Y135247D01*
X49651Y135372D01*
X49998Y135483D01*
X50331Y135594D01*
X50483Y135636D01*
X50636Y135677D01*
X50774Y135719D01*
X50885Y135747D01*
X50982Y135774D01*
X51052Y135788D01*
X51107Y135802D01*
X51121D01*
X51371Y135871D01*
X51592Y135927D01*
X51800Y135982D01*
X51995Y136038D01*
X52147Y136093D01*
X52300Y136149D01*
X52425Y136204D01*
X52536Y136246D01*
X52633Y136287D01*
X52702Y136329D01*
X52771Y136357D01*
X52813Y136385D01*
X52882Y136426D01*
X52896Y136440D01*
X52993Y136537D01*
X53063Y136634D01*
X53104Y136731D01*
X53132Y136828D01*
X53160Y136898D01*
X53173Y136967D01*
Y137009D01*
Y137022D01*
X53160Y137161D01*
X53132Y137272D01*
X53076Y137383D01*
X53021Y137466D01*
X52965Y137536D01*
X52910Y137577D01*
X52882Y137605D01*
X52868Y137619D01*
X52674Y137744D01*
X52466Y137827D01*
X52244Y137896D01*
X52036Y137938D01*
X51856Y137966D01*
X51704Y137979D01*
X51565D01*
X51273Y137966D01*
X51024Y137924D01*
X50816Y137868D01*
X50649Y137813D01*
X50511Y137758D01*
X50414Y137702D01*
X50358Y137661D01*
X50344Y137647D01*
X50206Y137508D01*
X50081Y137341D01*
X49984Y137175D01*
X49914Y136995D01*
X49859Y136842D01*
X49831Y136717D01*
X49804Y136620D01*
Y136607D01*
Y136593D01*
X47862Y136662D01*
X47876Y136912D01*
X47917Y137134D01*
X47973Y137355D01*
X48042Y137549D01*
X48112Y137744D01*
X48195Y137924D01*
X48278Y138076D01*
X48361Y138229D01*
X48458Y138354D01*
X48541Y138465D01*
X48625Y138562D01*
X48694Y138645D01*
X48749Y138701D01*
X48791Y138742D01*
X48819Y138770D01*
X48833Y138784D01*
X49013Y138923D01*
X49207Y139047D01*
X49415Y139158D01*
X49637Y139255D01*
X49859Y139325D01*
X50081Y139394D01*
X50525Y139491D01*
X50733Y139519D01*
X50913Y139547D01*
X51093Y139560D01*
X51246Y139574D01*
X51371Y139588D01*
X51537D01*
X51939Y139574D01*
D02*
G37*
G36*
X59234Y117934D02*
X57126D01*
X55212Y125104D01*
X53326Y117934D01*
X51232D01*
X48916Y127531D01*
X50871D01*
X52341Y120819D01*
X54006Y127531D01*
X56336D01*
X58083Y120930D01*
X59525Y127531D01*
X61508D01*
X59234Y117934D01*
D02*
G37*
G36*
X66570Y127697D02*
X66931Y127656D01*
X67250Y127600D01*
X67527Y127545D01*
X67652Y127503D01*
X67763Y127476D01*
X67846Y127448D01*
X67930Y127420D01*
X67985Y127392D01*
X68027Y127378D01*
X68054Y127365D01*
X68068D01*
X68345Y127226D01*
X68581Y127073D01*
X68789Y126907D01*
X68956Y126754D01*
X69094Y126616D01*
X69178Y126505D01*
X69247Y126421D01*
X69261Y126408D01*
Y126394D01*
X69399Y126158D01*
X69497Y125908D01*
X69566Y125673D01*
X69608Y125465D01*
X69635Y125284D01*
X69663Y125146D01*
Y125090D01*
Y125049D01*
Y125035D01*
Y125021D01*
X69649Y124813D01*
X69621Y124605D01*
X69580Y124424D01*
X69524Y124244D01*
X69386Y123911D01*
X69219Y123620D01*
X69150Y123495D01*
X69067Y123398D01*
X68997Y123301D01*
X68928Y123218D01*
X68872Y123162D01*
X68831Y123121D01*
X68803Y123093D01*
X68789Y123079D01*
X68664Y122982D01*
X68512Y122885D01*
X68359Y122788D01*
X68179Y122705D01*
X67832Y122538D01*
X67472Y122400D01*
X67291Y122344D01*
X67139Y122289D01*
X66986Y122247D01*
X66862Y122205D01*
X66764Y122178D01*
X66681Y122150D01*
X66626Y122136D01*
X66612D01*
X66390Y122081D01*
X66196Y122025D01*
X66016Y121984D01*
X65849Y121942D01*
X65711Y121900D01*
X65586Y121873D01*
X65475Y121831D01*
X65378Y121803D01*
X65294Y121790D01*
X65225Y121762D01*
X65128Y121734D01*
X65073Y121706D01*
X65059D01*
X64878Y121637D01*
X64740Y121568D01*
X64615Y121498D01*
X64518Y121429D01*
X64448Y121373D01*
X64407Y121332D01*
X64379Y121304D01*
X64365Y121290D01*
X64296Y121193D01*
X64240Y121096D01*
X64213Y120999D01*
X64185Y120916D01*
X64171Y120833D01*
X64157Y120763D01*
Y120722D01*
Y120708D01*
X64171Y120514D01*
X64227Y120347D01*
X64310Y120181D01*
X64393Y120042D01*
X64490Y119931D01*
X64559Y119848D01*
X64615Y119792D01*
X64643Y119779D01*
X64837Y119654D01*
X65059Y119557D01*
X65294Y119487D01*
X65516Y119446D01*
X65724Y119418D01*
X65891Y119390D01*
X66043D01*
X66362Y119404D01*
X66640Y119460D01*
X66876Y119529D01*
X67084Y119612D01*
X67250Y119695D01*
X67361Y119765D01*
X67430Y119820D01*
X67458Y119834D01*
X67638Y120028D01*
X67777Y120236D01*
X67902Y120472D01*
X67985Y120708D01*
X68054Y120916D01*
X68110Y121082D01*
X68124Y121138D01*
Y121193D01*
X68137Y121221D01*
Y121235D01*
X70024Y121054D01*
X69982Y120763D01*
X69927Y120486D01*
X69843Y120222D01*
X69774Y119987D01*
X69677Y119765D01*
X69580Y119557D01*
X69483Y119376D01*
X69386Y119210D01*
X69289Y119071D01*
X69191Y118946D01*
X69108Y118835D01*
X69025Y118738D01*
X68970Y118669D01*
X68914Y118628D01*
X68886Y118600D01*
X68872Y118586D01*
X68678Y118433D01*
X68470Y118308D01*
X68249Y118198D01*
X68013Y118101D01*
X67791Y118031D01*
X67555Y117962D01*
X67097Y117865D01*
X66889Y117823D01*
X66695Y117795D01*
X66529Y117781D01*
X66376Y117768D01*
X66251Y117754D01*
X66071D01*
X65627Y117768D01*
X65225Y117809D01*
X64865Y117865D01*
X64712Y117892D01*
X64559Y117934D01*
X64435Y117962D01*
X64324Y117990D01*
X64227Y118017D01*
X64143Y118045D01*
X64074Y118073D01*
X64033Y118087D01*
X64005Y118101D01*
X63991D01*
X63686Y118253D01*
X63436Y118419D01*
X63200Y118586D01*
X63020Y118766D01*
X62881Y118919D01*
X62770Y119057D01*
X62715Y119141D01*
X62687Y119155D01*
Y119168D01*
X62535Y119446D01*
X62410Y119709D01*
X62327Y119973D01*
X62271Y120222D01*
X62243Y120416D01*
X62230Y120514D01*
X62216Y120583D01*
Y120638D01*
Y120680D01*
Y120708D01*
Y120722D01*
X62230Y121054D01*
X62271Y121346D01*
X62340Y121609D01*
X62410Y121831D01*
X62479Y122011D01*
X62548Y122136D01*
X62590Y122219D01*
X62604Y122247D01*
X62757Y122469D01*
X62937Y122663D01*
X63117Y122830D01*
X63284Y122968D01*
X63436Y123079D01*
X63561Y123162D01*
X63644Y123218D01*
X63658Y123232D01*
X63672D01*
X63811Y123301D01*
X63949Y123371D01*
X64282Y123495D01*
X64629Y123606D01*
X64962Y123717D01*
X65114Y123759D01*
X65267Y123800D01*
X65405Y123842D01*
X65516Y123870D01*
X65613Y123897D01*
X65683Y123911D01*
X65738Y123925D01*
X65752D01*
X66002Y123995D01*
X66224Y124050D01*
X66432Y124106D01*
X66626Y124161D01*
X66778Y124216D01*
X66931Y124272D01*
X67056Y124327D01*
X67167Y124369D01*
X67264Y124411D01*
X67333Y124452D01*
X67403Y124480D01*
X67444Y124508D01*
X67513Y124549D01*
X67527Y124563D01*
X67624Y124660D01*
X67694Y124757D01*
X67735Y124854D01*
X67763Y124951D01*
X67791Y125021D01*
X67805Y125090D01*
Y125132D01*
Y125146D01*
X67791Y125284D01*
X67763Y125395D01*
X67708Y125506D01*
X67652Y125589D01*
X67597Y125659D01*
X67541Y125700D01*
X67513Y125728D01*
X67500Y125742D01*
X67305Y125867D01*
X67097Y125950D01*
X66876Y126019D01*
X66667Y126061D01*
X66487Y126089D01*
X66335Y126103D01*
X66196D01*
X65905Y126089D01*
X65655Y126047D01*
X65447Y125992D01*
X65281Y125936D01*
X65142Y125881D01*
X65045Y125825D01*
X64989Y125784D01*
X64976Y125770D01*
X64837Y125631D01*
X64712Y125465D01*
X64615Y125298D01*
X64546Y125118D01*
X64490Y124965D01*
X64462Y124840D01*
X64435Y124743D01*
Y124730D01*
Y124716D01*
X62493Y124785D01*
X62507Y125035D01*
X62548Y125257D01*
X62604Y125478D01*
X62673Y125673D01*
X62743Y125867D01*
X62826Y126047D01*
X62909Y126200D01*
X62992Y126352D01*
X63089Y126477D01*
X63173Y126588D01*
X63256Y126685D01*
X63325Y126768D01*
X63381Y126824D01*
X63422Y126865D01*
X63450Y126893D01*
X63464Y126907D01*
X63644Y127046D01*
X63838Y127170D01*
X64046Y127281D01*
X64268Y127378D01*
X64490Y127448D01*
X64712Y127517D01*
X65156Y127614D01*
X65364Y127642D01*
X65544Y127670D01*
X65724Y127683D01*
X65877Y127697D01*
X66002Y127711D01*
X66168D01*
X66570Y127697D01*
D02*
G37*
G36*
X44090D02*
X44492Y127656D01*
X44839Y127586D01*
X45144Y127517D01*
X45269Y127476D01*
X45393Y127448D01*
X45490Y127420D01*
X45574Y127378D01*
X45643Y127365D01*
X45698Y127337D01*
X45726Y127323D01*
X45740D01*
X45990Y127212D01*
X46225Y127073D01*
X46434Y126921D01*
X46614Y126782D01*
X46766Y126657D01*
X46891Y126546D01*
X46961Y126477D01*
X46974Y126463D01*
X46988Y126449D01*
X47182Y126227D01*
X47363Y125992D01*
X47515Y125784D01*
X47640Y125576D01*
X47737Y125395D01*
X47820Y125257D01*
X47834Y125201D01*
X47862Y125160D01*
X47876Y125146D01*
Y125132D01*
X48014Y124743D01*
X48125Y124327D01*
X48195Y123911D01*
X48250Y123523D01*
X48264Y123343D01*
X48278Y123176D01*
X48292Y123038D01*
Y122913D01*
X48306Y122802D01*
Y122732D01*
Y122677D01*
Y122663D01*
X48292Y122247D01*
X48250Y121845D01*
X48195Y121470D01*
X48112Y121124D01*
X48014Y120805D01*
X47903Y120514D01*
X47793Y120236D01*
X47668Y120000D01*
X47557Y119779D01*
X47446Y119598D01*
X47335Y119432D01*
X47238Y119293D01*
X47155Y119196D01*
X47099Y119113D01*
X47057Y119071D01*
X47044Y119057D01*
X46794Y118822D01*
X46530Y118628D01*
X46267Y118447D01*
X45976Y118308D01*
X45698Y118184D01*
X45407Y118073D01*
X45144Y117990D01*
X44866Y117920D01*
X44617Y117865D01*
X44381Y117823D01*
X44173Y117795D01*
X43993Y117781D01*
X43854Y117768D01*
X43743Y117754D01*
X43646D01*
X43258Y117768D01*
X42897Y117809D01*
X42550Y117879D01*
X42231Y117962D01*
X41926Y118059D01*
X41649Y118170D01*
X41399Y118281D01*
X41164Y118406D01*
X40969Y118530D01*
X40789Y118641D01*
X40637Y118752D01*
X40512Y118849D01*
X40401Y118933D01*
X40331Y119002D01*
X40290Y119044D01*
X40276Y119057D01*
X40054Y119321D01*
X39860Y119598D01*
X39680Y119889D01*
X39541Y120181D01*
X39416Y120486D01*
X39305Y120791D01*
X39222Y121096D01*
X39153Y121387D01*
X39111Y121651D01*
X39069Y121914D01*
X39042Y122136D01*
X39014Y122330D01*
Y122497D01*
X39000Y122622D01*
Y122691D01*
Y122719D01*
X39014Y123149D01*
X39056Y123551D01*
X39111Y123925D01*
X39194Y124286D01*
X39291Y124605D01*
X39402Y124910D01*
X39513Y125187D01*
X39638Y125423D01*
X39763Y125645D01*
X39874Y125839D01*
X39985Y126005D01*
X40082Y126144D01*
X40151Y126241D01*
X40220Y126324D01*
X40262Y126366D01*
X40276Y126380D01*
X40525Y126616D01*
X40789Y126824D01*
X41066Y127004D01*
X41344Y127156D01*
X41635Y127281D01*
X41912Y127392D01*
X42190Y127476D01*
X42453Y127545D01*
X42703Y127600D01*
X42939Y127642D01*
X43147Y127670D01*
X43327Y127697D01*
X43466D01*
X43577Y127711D01*
X43674D01*
X44090Y127697D01*
D02*
G37*
G36*
X47668Y106057D02*
X45726D01*
Y108956D01*
X44159Y110564D01*
X41510Y106057D01*
X39000D01*
X42814Y111910D01*
X39180Y115654D01*
X41788D01*
X45726Y111383D01*
Y115654D01*
X47668D01*
Y106057D01*
D02*
G37*
G36*
X61772Y115821D02*
X62133Y115779D01*
X62452Y115710D01*
X62770Y115626D01*
X63048Y115529D01*
X63325Y115418D01*
X63561Y115294D01*
X63783Y115169D01*
X63991Y115044D01*
X64157Y114919D01*
X64310Y114808D01*
X64435Y114711D01*
X64532Y114628D01*
X64601Y114558D01*
X64643Y114517D01*
X64657Y114503D01*
X64878Y114240D01*
X65059Y113962D01*
X65225Y113671D01*
X65364Y113366D01*
X65489Y113047D01*
X65586Y112742D01*
X65669Y112437D01*
X65738Y112145D01*
X65794Y111854D01*
X65821Y111604D01*
X65849Y111369D01*
X65877Y111175D01*
Y111008D01*
X65891Y110883D01*
Y110800D01*
Y110786D01*
Y110772D01*
X65877Y110356D01*
X65835Y109968D01*
X65780Y109594D01*
X65697Y109261D01*
X65613Y108942D01*
X65503Y108637D01*
X65392Y108373D01*
X65281Y108137D01*
X65170Y107915D01*
X65059Y107721D01*
X64948Y107569D01*
X64865Y107430D01*
X64781Y107333D01*
X64726Y107250D01*
X64684Y107208D01*
X64670Y107194D01*
X64435Y106959D01*
X64185Y106764D01*
X63921Y106584D01*
X63658Y106446D01*
X63394Y106321D01*
X63131Y106210D01*
X62881Y106126D01*
X62646Y106057D01*
X62410Y106002D01*
X62202Y105960D01*
X62008Y105932D01*
X61855Y105919D01*
X61716Y105905D01*
X61619Y105891D01*
X61536D01*
X61245Y105905D01*
X60981Y105919D01*
X60718Y105960D01*
X60482Y106016D01*
X60260Y106071D01*
X60052Y106126D01*
X59858Y106196D01*
X59678Y106279D01*
X59525Y106348D01*
X59387Y106418D01*
X59262Y106473D01*
X59165Y106529D01*
X59081Y106584D01*
X59026Y106626D01*
X58998Y106640D01*
X58984Y106653D01*
X58804Y106806D01*
X58638Y106973D01*
X58333Y107347D01*
X58083Y107735D01*
X57889Y108110D01*
X57806Y108290D01*
X57736Y108456D01*
X57681Y108609D01*
X57625Y108734D01*
X57584Y108845D01*
X57556Y108928D01*
X57542Y108983D01*
Y108997D01*
X59428Y109580D01*
X59539Y109205D01*
X59664Y108886D01*
X59789Y108623D01*
X59927Y108401D01*
X60038Y108235D01*
X60135Y108124D01*
X60205Y108054D01*
X60233Y108027D01*
X60454Y107860D01*
X60676Y107749D01*
X60898Y107666D01*
X61092Y107597D01*
X61273Y107569D01*
X61425Y107555D01*
X61481Y107541D01*
X61550D01*
X61744Y107555D01*
X61925Y107569D01*
X62257Y107666D01*
X62548Y107777D01*
X62784Y107929D01*
X62979Y108068D01*
X63117Y108179D01*
X63173Y108235D01*
X63214Y108276D01*
X63228Y108290D01*
X63242Y108304D01*
X63353Y108456D01*
X63450Y108637D01*
X63547Y108831D01*
X63616Y109039D01*
X63727Y109469D01*
X63811Y109899D01*
X63838Y110107D01*
X63852Y110287D01*
X63880Y110467D01*
Y110620D01*
X63894Y110731D01*
Y110828D01*
Y110897D01*
Y110911D01*
X63880Y111230D01*
X63866Y111521D01*
X63838Y111785D01*
X63797Y112034D01*
X63741Y112256D01*
X63686Y112464D01*
X63630Y112645D01*
X63561Y112811D01*
X63506Y112950D01*
X63450Y113075D01*
X63394Y113172D01*
X63339Y113255D01*
X63297Y113324D01*
X63270Y113366D01*
X63242Y113394D01*
Y113407D01*
X63117Y113546D01*
X62979Y113671D01*
X62840Y113768D01*
X62687Y113851D01*
X62396Y113990D01*
X62119Y114087D01*
X61883Y114142D01*
X61772Y114156D01*
X61689Y114170D01*
X61606Y114184D01*
X61508D01*
X61231Y114170D01*
X60981Y114115D01*
X60760Y114045D01*
X60565Y113962D01*
X60413Y113879D01*
X60302Y113810D01*
X60233Y113754D01*
X60205Y113740D01*
X60024Y113574D01*
X59858Y113380D01*
X59733Y113186D01*
X59636Y112991D01*
X59567Y112825D01*
X59525Y112700D01*
X59497Y112645D01*
Y112603D01*
X59484Y112589D01*
Y112575D01*
X57570Y113033D01*
X57709Y113435D01*
X57861Y113782D01*
X58027Y114087D01*
X58180Y114337D01*
X58333Y114531D01*
X58388Y114614D01*
X58443Y114683D01*
X58485Y114725D01*
X58527Y114767D01*
X58541Y114794D01*
X58554D01*
X58762Y114974D01*
X58998Y115141D01*
X59220Y115280D01*
X59456Y115391D01*
X59706Y115501D01*
X59941Y115585D01*
X60177Y115654D01*
X60399Y115710D01*
X60607Y115751D01*
X60801Y115779D01*
X60967Y115807D01*
X61120Y115821D01*
X61245Y115834D01*
X61411D01*
X61772Y115821D01*
D02*
G37*
G36*
X55822Y106057D02*
X49055D01*
Y107680D01*
X53881D01*
Y115585D01*
X55822D01*
Y106057D01*
D02*
G37*
G36*
X71549Y115821D02*
X71910Y115779D01*
X72229Y115723D01*
X72506Y115668D01*
X72631Y115626D01*
X72742Y115599D01*
X72825Y115571D01*
X72908Y115543D01*
X72964Y115515D01*
X73005Y115501D01*
X73033Y115488D01*
X73047D01*
X73324Y115349D01*
X73560Y115196D01*
X73768Y115030D01*
X73934Y114878D01*
X74073Y114739D01*
X74156Y114628D01*
X74226Y114545D01*
X74240Y114531D01*
Y114517D01*
X74378Y114281D01*
X74475Y114031D01*
X74545Y113796D01*
X74586Y113588D01*
X74614Y113407D01*
X74642Y113269D01*
Y113213D01*
Y113172D01*
Y113158D01*
Y113144D01*
X74628Y112936D01*
X74600Y112728D01*
X74559Y112548D01*
X74503Y112367D01*
X74364Y112034D01*
X74198Y111743D01*
X74129Y111618D01*
X74045Y111521D01*
X73976Y111424D01*
X73907Y111341D01*
X73851Y111286D01*
X73810Y111244D01*
X73782Y111216D01*
X73768Y111202D01*
X73643Y111105D01*
X73491Y111008D01*
X73338Y110911D01*
X73158Y110828D01*
X72811Y110661D01*
X72451Y110523D01*
X72270Y110467D01*
X72118Y110412D01*
X71965Y110370D01*
X71840Y110329D01*
X71743Y110301D01*
X71660Y110273D01*
X71605Y110259D01*
X71591D01*
X71369Y110204D01*
X71175Y110148D01*
X70994Y110107D01*
X70828Y110065D01*
X70689Y110023D01*
X70564Y109996D01*
X70454Y109954D01*
X70356Y109927D01*
X70273Y109913D01*
X70204Y109885D01*
X70107Y109857D01*
X70051Y109829D01*
X70037D01*
X69857Y109760D01*
X69718Y109691D01*
X69594Y109621D01*
X69497Y109552D01*
X69427Y109496D01*
X69386Y109455D01*
X69358Y109427D01*
X69344Y109413D01*
X69275Y109316D01*
X69219Y109219D01*
X69191Y109122D01*
X69164Y109039D01*
X69150Y108956D01*
X69136Y108886D01*
Y108845D01*
Y108831D01*
X69150Y108637D01*
X69205Y108470D01*
X69289Y108304D01*
X69372Y108165D01*
X69469Y108054D01*
X69538Y107971D01*
X69594Y107915D01*
X69621Y107902D01*
X69816Y107777D01*
X70037Y107680D01*
X70273Y107610D01*
X70495Y107569D01*
X70703Y107541D01*
X70870Y107513D01*
X71022D01*
X71341Y107527D01*
X71618Y107583D01*
X71854Y107652D01*
X72062Y107735D01*
X72229Y107818D01*
X72340Y107888D01*
X72409Y107943D01*
X72437Y107957D01*
X72617Y108151D01*
X72756Y108359D01*
X72881Y108595D01*
X72964Y108831D01*
X73033Y109039D01*
X73088Y109205D01*
X73102Y109261D01*
Y109316D01*
X73116Y109344D01*
Y109358D01*
X75002Y109178D01*
X74961Y108886D01*
X74905Y108609D01*
X74822Y108345D01*
X74753Y108110D01*
X74656Y107888D01*
X74559Y107680D01*
X74461Y107500D01*
X74364Y107333D01*
X74267Y107194D01*
X74170Y107070D01*
X74087Y106959D01*
X74004Y106861D01*
X73948Y106792D01*
X73893Y106751D01*
X73865Y106723D01*
X73851Y106709D01*
X73657Y106556D01*
X73449Y106432D01*
X73227Y106321D01*
X72991Y106224D01*
X72770Y106154D01*
X72534Y106085D01*
X72076Y105988D01*
X71868Y105946D01*
X71674Y105919D01*
X71508Y105905D01*
X71355Y105891D01*
X71230Y105877D01*
X71050D01*
X70606Y105891D01*
X70204Y105932D01*
X69843Y105988D01*
X69691Y106016D01*
X69538Y106057D01*
X69413Y106085D01*
X69303Y106113D01*
X69205Y106140D01*
X69122Y106168D01*
X69053Y106196D01*
X69011Y106210D01*
X68983Y106224D01*
X68970D01*
X68664Y106376D01*
X68415Y106543D01*
X68179Y106709D01*
X67999Y106889D01*
X67860Y107042D01*
X67749Y107181D01*
X67694Y107264D01*
X67666Y107278D01*
Y107291D01*
X67513Y107569D01*
X67389Y107832D01*
X67305Y108096D01*
X67250Y108345D01*
X67222Y108540D01*
X67208Y108637D01*
X67194Y108706D01*
Y108762D01*
Y108803D01*
Y108831D01*
Y108845D01*
X67208Y109178D01*
X67250Y109469D01*
X67319Y109732D01*
X67389Y109954D01*
X67458Y110134D01*
X67527Y110259D01*
X67569Y110343D01*
X67583Y110370D01*
X67735Y110592D01*
X67916Y110786D01*
X68096Y110953D01*
X68262Y111091D01*
X68415Y111202D01*
X68540Y111286D01*
X68623Y111341D01*
X68637Y111355D01*
X68651D01*
X68789Y111424D01*
X68928Y111494D01*
X69261Y111618D01*
X69608Y111729D01*
X69940Y111840D01*
X70093Y111882D01*
X70245Y111924D01*
X70384Y111965D01*
X70495Y111993D01*
X70592Y112021D01*
X70662Y112034D01*
X70717Y112048D01*
X70731D01*
X70981Y112118D01*
X71202Y112173D01*
X71410Y112229D01*
X71605Y112284D01*
X71757Y112340D01*
X71910Y112395D01*
X72035Y112451D01*
X72146Y112492D01*
X72243Y112534D01*
X72312Y112575D01*
X72381Y112603D01*
X72423Y112631D01*
X72492Y112672D01*
X72506Y112686D01*
X72603Y112783D01*
X72673Y112880D01*
X72714Y112978D01*
X72742Y113075D01*
X72770Y113144D01*
X72783Y113213D01*
Y113255D01*
Y113269D01*
X72770Y113407D01*
X72742Y113518D01*
X72686Y113629D01*
X72631Y113713D01*
X72575Y113782D01*
X72520Y113823D01*
X72492Y113851D01*
X72478Y113865D01*
X72284Y113990D01*
X72076Y114073D01*
X71854Y114142D01*
X71646Y114184D01*
X71466Y114212D01*
X71313Y114226D01*
X71175D01*
X70883Y114212D01*
X70634Y114170D01*
X70426Y114115D01*
X70259Y114059D01*
X70121Y114004D01*
X70024Y113948D01*
X69968Y113907D01*
X69954Y113893D01*
X69816Y113754D01*
X69691Y113588D01*
X69594Y113421D01*
X69524Y113241D01*
X69469Y113088D01*
X69441Y112964D01*
X69413Y112867D01*
Y112853D01*
Y112839D01*
X67472Y112908D01*
X67486Y113158D01*
X67527Y113380D01*
X67583Y113602D01*
X67652Y113796D01*
X67722Y113990D01*
X67805Y114170D01*
X67888Y114323D01*
X67971Y114475D01*
X68068Y114600D01*
X68151Y114711D01*
X68235Y114808D01*
X68304Y114891D01*
X68359Y114947D01*
X68401Y114988D01*
X68429Y115016D01*
X68443Y115030D01*
X68623Y115169D01*
X68817Y115294D01*
X69025Y115405D01*
X69247Y115501D01*
X69469Y115571D01*
X69691Y115640D01*
X70135Y115737D01*
X70343Y115765D01*
X70523Y115793D01*
X70703Y115807D01*
X70856Y115821D01*
X70981Y115834D01*
X71147D01*
X71549Y115821D01*
D02*
G37*
G36*
X72645Y94180D02*
X70537D01*
X68623Y101350D01*
X66737Y94180D01*
X64643D01*
X62327Y103777D01*
X64282D01*
X65752Y97065D01*
X67416Y103777D01*
X69746D01*
X71494Y97176D01*
X72936Y103777D01*
X74919D01*
X72645Y94180D01*
D02*
G37*
G36*
X61314D02*
X57681D01*
X57306Y94194D01*
X56960Y94208D01*
X56668Y94236D01*
X56433Y94277D01*
X56238Y94319D01*
X56086Y94347D01*
X56044Y94361D01*
X56003D01*
X55989Y94374D01*
X55975D01*
X55670Y94485D01*
X55392Y94610D01*
X55171Y94735D01*
X54976Y94860D01*
X54824Y94971D01*
X54713Y95054D01*
X54644Y95110D01*
X54616Y95137D01*
X54380Y95401D01*
X54172Y95678D01*
X53992Y95969D01*
X53853Y96233D01*
X53742Y96482D01*
X53687Y96580D01*
X53659Y96663D01*
X53631Y96746D01*
X53603Y96801D01*
X53590Y96829D01*
Y96843D01*
X53492Y97176D01*
X53409Y97523D01*
X53354Y97855D01*
X53326Y98174D01*
X53312Y98327D01*
X53298Y98466D01*
Y98577D01*
X53285Y98687D01*
Y98771D01*
Y98826D01*
Y98868D01*
Y98882D01*
X53298Y99367D01*
X53340Y99797D01*
X53354Y100005D01*
X53382Y100185D01*
X53409Y100366D01*
X53437Y100518D01*
X53479Y100657D01*
X53506Y100782D01*
X53534Y100893D01*
X53548Y100976D01*
X53576Y101045D01*
X53590Y101101D01*
X53603Y101128D01*
Y101142D01*
X53728Y101475D01*
X53881Y101780D01*
X54033Y102044D01*
X54186Y102266D01*
X54311Y102446D01*
X54422Y102584D01*
X54491Y102668D01*
X54505Y102696D01*
X54519D01*
X54755Y102917D01*
X54990Y103098D01*
X55240Y103250D01*
X55462Y103375D01*
X55656Y103472D01*
X55822Y103541D01*
X55878Y103555D01*
X55919Y103569D01*
X55947Y103583D01*
X55961D01*
X56225Y103652D01*
X56516Y103694D01*
X56821Y103736D01*
X57112Y103750D01*
X57376Y103763D01*
X57487Y103777D01*
X61314D01*
Y94180D01*
D02*
G37*
G36*
X51704D02*
X49762D01*
Y103777D01*
X51704D01*
Y94180D01*
D02*
G37*
G36*
X79981Y103944D02*
X80342Y103902D01*
X80661Y103847D01*
X80938Y103791D01*
X81063Y103750D01*
X81174Y103722D01*
X81257Y103694D01*
X81340Y103666D01*
X81396Y103638D01*
X81437Y103625D01*
X81465Y103611D01*
X81479D01*
X81756Y103472D01*
X81992Y103320D01*
X82200Y103153D01*
X82367Y103001D01*
X82505Y102862D01*
X82588Y102751D01*
X82658Y102668D01*
X82672Y102654D01*
Y102640D01*
X82810Y102404D01*
X82907Y102155D01*
X82977Y101919D01*
X83018Y101711D01*
X83046Y101531D01*
X83074Y101392D01*
Y101336D01*
Y101295D01*
Y101281D01*
Y101267D01*
X83060Y101059D01*
X83032Y100851D01*
X82991Y100671D01*
X82935Y100490D01*
X82796Y100158D01*
X82630Y99866D01*
X82561Y99741D01*
X82477Y99644D01*
X82408Y99547D01*
X82339Y99464D01*
X82283Y99409D01*
X82242Y99367D01*
X82214Y99339D01*
X82200Y99326D01*
X82075Y99228D01*
X81923Y99131D01*
X81770Y99034D01*
X81590Y98951D01*
X81243Y98785D01*
X80883Y98646D01*
X80702Y98590D01*
X80550Y98535D01*
X80397Y98493D01*
X80272Y98452D01*
X80175Y98424D01*
X80092Y98396D01*
X80037Y98382D01*
X80023D01*
X79801Y98327D01*
X79607Y98272D01*
X79426Y98230D01*
X79260Y98188D01*
X79121Y98147D01*
X78997Y98119D01*
X78885Y98077D01*
X78788Y98050D01*
X78705Y98036D01*
X78636Y98008D01*
X78539Y97980D01*
X78483Y97952D01*
X78470D01*
X78289Y97883D01*
X78151Y97814D01*
X78026Y97745D01*
X77929Y97675D01*
X77859Y97620D01*
X77818Y97578D01*
X77790Y97550D01*
X77776Y97536D01*
X77707Y97439D01*
X77651Y97342D01*
X77624Y97245D01*
X77596Y97162D01*
X77582Y97079D01*
X77568Y97009D01*
Y96968D01*
Y96954D01*
X77582Y96760D01*
X77637Y96593D01*
X77721Y96427D01*
X77804Y96288D01*
X77901Y96177D01*
X77970Y96094D01*
X78026Y96039D01*
X78053Y96025D01*
X78248Y95900D01*
X78470Y95803D01*
X78705Y95733D01*
X78927Y95692D01*
X79135Y95664D01*
X79302Y95637D01*
X79454D01*
X79773Y95650D01*
X80050Y95706D01*
X80286Y95775D01*
X80494Y95858D01*
X80661Y95942D01*
X80772Y96011D01*
X80841Y96066D01*
X80869Y96080D01*
X81049Y96274D01*
X81188Y96482D01*
X81313Y96718D01*
X81396Y96954D01*
X81465Y97162D01*
X81521Y97328D01*
X81534Y97384D01*
Y97439D01*
X81548Y97467D01*
Y97481D01*
X83434Y97301D01*
X83393Y97009D01*
X83337Y96732D01*
X83254Y96469D01*
X83185Y96233D01*
X83088Y96011D01*
X82991Y95803D01*
X82893Y95623D01*
X82796Y95456D01*
X82699Y95317D01*
X82602Y95193D01*
X82519Y95082D01*
X82436Y94985D01*
X82380Y94915D01*
X82325Y94874D01*
X82297Y94846D01*
X82283Y94832D01*
X82089Y94679D01*
X81881Y94555D01*
X81659Y94444D01*
X81423Y94347D01*
X81201Y94277D01*
X80966Y94208D01*
X80508Y94111D01*
X80300Y94069D01*
X80106Y94042D01*
X79939Y94028D01*
X79787Y94014D01*
X79662Y94000D01*
X79482D01*
X79038Y94014D01*
X78636Y94056D01*
X78275Y94111D01*
X78123Y94139D01*
X77970Y94180D01*
X77845Y94208D01*
X77734Y94236D01*
X77637Y94263D01*
X77554Y94291D01*
X77485Y94319D01*
X77443Y94333D01*
X77415Y94347D01*
X77402D01*
X77097Y94499D01*
X76847Y94666D01*
X76611Y94832D01*
X76431Y95012D01*
X76292Y95165D01*
X76181Y95304D01*
X76126Y95387D01*
X76098Y95401D01*
Y95415D01*
X75945Y95692D01*
X75821Y95955D01*
X75737Y96219D01*
X75682Y96469D01*
X75654Y96663D01*
X75640Y96760D01*
X75626Y96829D01*
Y96885D01*
Y96926D01*
Y96954D01*
Y96968D01*
X75640Y97301D01*
X75682Y97592D01*
X75751Y97855D01*
X75821Y98077D01*
X75890Y98258D01*
X75959Y98382D01*
X76001Y98466D01*
X76015Y98493D01*
X76167Y98715D01*
X76348Y98909D01*
X76528Y99076D01*
X76694Y99214D01*
X76847Y99326D01*
X76972Y99409D01*
X77055Y99464D01*
X77069Y99478D01*
X77083D01*
X77221Y99547D01*
X77360Y99617D01*
X77693Y99741D01*
X78039Y99853D01*
X78372Y99963D01*
X78525Y100005D01*
X78678Y100047D01*
X78816Y100088D01*
X78927Y100116D01*
X79024Y100144D01*
X79093Y100158D01*
X79149Y100171D01*
X79163D01*
X79412Y100241D01*
X79634Y100296D01*
X79842Y100352D01*
X80037Y100407D01*
X80189Y100463D01*
X80342Y100518D01*
X80466Y100574D01*
X80577Y100615D01*
X80674Y100657D01*
X80744Y100698D01*
X80813Y100726D01*
X80855Y100754D01*
X80924Y100795D01*
X80938Y100809D01*
X81035Y100906D01*
X81104Y101004D01*
X81146Y101101D01*
X81174Y101198D01*
X81201Y101267D01*
X81215Y101336D01*
Y101378D01*
Y101392D01*
X81201Y101531D01*
X81174Y101642D01*
X81118Y101752D01*
X81063Y101836D01*
X81007Y101905D01*
X80952Y101947D01*
X80924Y101974D01*
X80910Y101988D01*
X80716Y102113D01*
X80508Y102196D01*
X80286Y102266D01*
X80078Y102307D01*
X79898Y102335D01*
X79745Y102349D01*
X79607D01*
X79315Y102335D01*
X79066Y102293D01*
X78858Y102238D01*
X78691Y102182D01*
X78553Y102127D01*
X78456Y102071D01*
X78400Y102030D01*
X78386Y102016D01*
X78248Y101877D01*
X78123Y101711D01*
X78026Y101544D01*
X77956Y101364D01*
X77901Y101212D01*
X77873Y101087D01*
X77845Y100990D01*
Y100976D01*
Y100962D01*
X75904Y101031D01*
X75918Y101281D01*
X75959Y101503D01*
X76015Y101725D01*
X76084Y101919D01*
X76153Y102113D01*
X76237Y102293D01*
X76320Y102446D01*
X76403Y102598D01*
X76500Y102723D01*
X76583Y102834D01*
X76667Y102931D01*
X76736Y103014D01*
X76791Y103070D01*
X76833Y103111D01*
X76861Y103139D01*
X76875Y103153D01*
X77055Y103292D01*
X77249Y103417D01*
X77457Y103528D01*
X77679Y103625D01*
X77901Y103694D01*
X78123Y103763D01*
X78566Y103860D01*
X78775Y103888D01*
X78955Y103916D01*
X79135Y103930D01*
X79288Y103944D01*
X79412Y103958D01*
X79579D01*
X79981Y103944D01*
D02*
G37*
G36*
X44090D02*
X44492Y103902D01*
X44839Y103833D01*
X45144Y103763D01*
X45269Y103722D01*
X45393Y103694D01*
X45490Y103666D01*
X45574Y103625D01*
X45643Y103611D01*
X45698Y103583D01*
X45726Y103569D01*
X45740D01*
X45990Y103458D01*
X46225Y103320D01*
X46434Y103167D01*
X46614Y103028D01*
X46766Y102903D01*
X46891Y102793D01*
X46961Y102723D01*
X46974Y102709D01*
X46988Y102696D01*
X47182Y102474D01*
X47363Y102238D01*
X47515Y102030D01*
X47640Y101822D01*
X47737Y101642D01*
X47820Y101503D01*
X47834Y101447D01*
X47862Y101406D01*
X47876Y101392D01*
Y101378D01*
X48014Y100990D01*
X48125Y100574D01*
X48195Y100158D01*
X48250Y99769D01*
X48264Y99589D01*
X48278Y99423D01*
X48292Y99284D01*
Y99159D01*
X48306Y99048D01*
Y98979D01*
Y98923D01*
Y98909D01*
X48292Y98493D01*
X48250Y98091D01*
X48195Y97717D01*
X48112Y97370D01*
X48014Y97051D01*
X47903Y96760D01*
X47793Y96482D01*
X47668Y96247D01*
X47557Y96025D01*
X47446Y95844D01*
X47335Y95678D01*
X47238Y95539D01*
X47155Y95442D01*
X47099Y95359D01*
X47057Y95317D01*
X47044Y95304D01*
X46794Y95068D01*
X46530Y94874D01*
X46267Y94693D01*
X45976Y94555D01*
X45698Y94430D01*
X45407Y94319D01*
X45144Y94236D01*
X44866Y94166D01*
X44617Y94111D01*
X44381Y94069D01*
X44173Y94042D01*
X43993Y94028D01*
X43854Y94014D01*
X43743Y94000D01*
X43646D01*
X43258Y94014D01*
X42897Y94056D01*
X42550Y94125D01*
X42231Y94208D01*
X41926Y94305D01*
X41649Y94416D01*
X41399Y94527D01*
X41164Y94652D01*
X40969Y94777D01*
X40789Y94888D01*
X40637Y94999D01*
X40512Y95096D01*
X40401Y95179D01*
X40331Y95248D01*
X40290Y95290D01*
X40276Y95304D01*
X40054Y95567D01*
X39860Y95844D01*
X39680Y96136D01*
X39541Y96427D01*
X39416Y96732D01*
X39305Y97037D01*
X39222Y97342D01*
X39153Y97633D01*
X39111Y97897D01*
X39069Y98160D01*
X39042Y98382D01*
X39014Y98577D01*
Y98743D01*
X39000Y98868D01*
Y98937D01*
Y98965D01*
X39014Y99395D01*
X39056Y99797D01*
X39111Y100171D01*
X39194Y100532D01*
X39291Y100851D01*
X39402Y101156D01*
X39513Y101433D01*
X39638Y101669D01*
X39763Y101891D01*
X39874Y102085D01*
X39985Y102252D01*
X40082Y102390D01*
X40151Y102487D01*
X40220Y102571D01*
X40262Y102612D01*
X40276Y102626D01*
X40525Y102862D01*
X40789Y103070D01*
X41066Y103250D01*
X41344Y103403D01*
X41635Y103528D01*
X41912Y103638D01*
X42190Y103722D01*
X42453Y103791D01*
X42703Y103847D01*
X42939Y103888D01*
X43147Y103916D01*
X43327Y103944D01*
X43466D01*
X43577Y103958D01*
X43674D01*
X44090Y103944D01*
D02*
G37*
G36*
X48984Y506819D02*
X49248Y506791D01*
X49497Y506736D01*
X49706Y506680D01*
X49872Y506625D01*
X50011Y506569D01*
X50094Y506541D01*
X50108Y506528D01*
X50122D01*
X50343Y506403D01*
X50552Y506264D01*
X50718Y506125D01*
X50857Y506001D01*
X50967Y505876D01*
X51051Y505779D01*
X51106Y505723D01*
X51120Y505695D01*
X51245Y505488D01*
X51356Y505266D01*
X51439Y505030D01*
X51522Y504808D01*
X51578Y504600D01*
X51619Y504447D01*
X51633Y504378D01*
Y504336D01*
X51647Y504309D01*
Y504295D01*
X49955Y504017D01*
X49914Y504239D01*
X49858Y504434D01*
X49803Y504600D01*
X49733Y504725D01*
X49664Y504836D01*
X49608Y504919D01*
X49567Y504961D01*
X49553Y504974D01*
X49428Y505085D01*
X49289Y505168D01*
X49151Y505224D01*
X49026Y505266D01*
X48915Y505293D01*
X48832Y505307D01*
X48749D01*
X48582Y505293D01*
X48416Y505266D01*
X48291Y505210D01*
X48180Y505168D01*
X48083Y505113D01*
X48027Y505057D01*
X47986Y505030D01*
X47972Y505016D01*
X47875Y504905D01*
X47806Y504766D01*
X47750Y504641D01*
X47722Y504517D01*
X47695Y504406D01*
X47681Y504323D01*
Y504267D01*
Y504239D01*
X47695Y504031D01*
X47736Y503851D01*
X47806Y503698D01*
X47875Y503574D01*
X47958Y503463D01*
X48014Y503393D01*
X48069Y503338D01*
X48083Y503324D01*
X48249Y503213D01*
X48430Y503130D01*
X48624Y503074D01*
X48804Y503033D01*
X48970Y503019D01*
X49109Y503005D01*
X49234D01*
X49428Y501521D01*
X49248Y501563D01*
X49095Y501604D01*
X48943Y501632D01*
X48818Y501646D01*
X48721Y501660D01*
X48582D01*
X48388Y501646D01*
X48222Y501590D01*
X48069Y501535D01*
X47930Y501452D01*
X47833Y501382D01*
X47750Y501313D01*
X47695Y501258D01*
X47681Y501244D01*
X47556Y501077D01*
X47459Y500897D01*
X47389Y500717D01*
X47334Y500536D01*
X47306Y500370D01*
X47292Y500245D01*
Y500162D01*
Y500148D01*
Y500134D01*
X47306Y499871D01*
X47348Y499635D01*
X47417Y499427D01*
X47487Y499260D01*
X47570Y499136D01*
X47625Y499039D01*
X47681Y498969D01*
X47695Y498955D01*
X47847Y498817D01*
X48014Y498706D01*
X48166Y498637D01*
X48319Y498581D01*
X48457Y498553D01*
X48554Y498539D01*
X48624Y498526D01*
X48651D01*
X48846Y498539D01*
X49012Y498581D01*
X49165Y498637D01*
X49303Y498706D01*
X49400Y498761D01*
X49484Y498817D01*
X49539Y498858D01*
X49553Y498872D01*
X49678Y499025D01*
X49789Y499191D01*
X49858Y499371D01*
X49927Y499538D01*
X49969Y499691D01*
X49997Y499815D01*
X50011Y499898D01*
Y499912D01*
Y499926D01*
X51786Y499704D01*
X51758Y499482D01*
X51703Y499274D01*
X51578Y498886D01*
X51425Y498553D01*
X51328Y498415D01*
X51245Y498276D01*
X51162Y498151D01*
X51079Y498054D01*
X51009Y497957D01*
X50940Y497888D01*
X50884Y497832D01*
X50843Y497790D01*
X50815Y497763D01*
X50801Y497749D01*
X50635Y497624D01*
X50454Y497499D01*
X50288Y497402D01*
X50094Y497319D01*
X49733Y497180D01*
X49400Y497097D01*
X49234Y497069D01*
X49095Y497042D01*
X48970Y497028D01*
X48860Y497014D01*
X48762Y497000D01*
X48638D01*
X48388Y497014D01*
X48138Y497042D01*
X47916Y497083D01*
X47695Y497139D01*
X47500Y497208D01*
X47306Y497277D01*
X47126Y497361D01*
X46973Y497444D01*
X46835Y497527D01*
X46696Y497610D01*
X46599Y497679D01*
X46502Y497749D01*
X46433Y497804D01*
X46377Y497846D01*
X46349Y497874D01*
X46336Y497888D01*
X46169Y498054D01*
X46030Y498234D01*
X45906Y498415D01*
X45795Y498595D01*
X45711Y498789D01*
X45628Y498969D01*
X45517Y499302D01*
X45490Y499455D01*
X45462Y499607D01*
X45434Y499732D01*
X45420Y499843D01*
X45406Y499926D01*
Y499996D01*
Y500037D01*
Y500051D01*
X45434Y500370D01*
X45490Y500647D01*
X45559Y500911D01*
X45656Y501119D01*
X45753Y501299D01*
X45822Y501424D01*
X45878Y501507D01*
X45906Y501535D01*
X46100Y501743D01*
X46322Y501923D01*
X46543Y502062D01*
X46751Y502173D01*
X46932Y502256D01*
X47084Y502298D01*
X47140Y502326D01*
X47182D01*
X47209Y502339D01*
X47223D01*
X46973Y502492D01*
X46765Y502644D01*
X46585Y502811D01*
X46419Y502977D01*
X46280Y503144D01*
X46169Y503310D01*
X46086Y503476D01*
X46003Y503629D01*
X45947Y503782D01*
X45906Y503920D01*
X45878Y504045D01*
X45864Y504156D01*
X45850Y504239D01*
X45836Y504309D01*
Y504350D01*
Y504364D01*
X45850Y504530D01*
X45864Y504683D01*
X45947Y504988D01*
X46044Y505266D01*
X46169Y505501D01*
X46294Y505695D01*
X46405Y505834D01*
X46446Y505890D01*
X46488Y505931D01*
X46502Y505945D01*
X46516Y505959D01*
X46668Y506111D01*
X46849Y506250D01*
X47015Y506361D01*
X47195Y506458D01*
X47389Y506555D01*
X47570Y506625D01*
X47916Y506722D01*
X48069Y506763D01*
X48222Y506791D01*
X48346Y506805D01*
X48471Y506819D01*
X48568Y506833D01*
X48693D01*
X48984Y506819D01*
D02*
G37*
G36*
X32578D02*
X32841Y506791D01*
X33091Y506736D01*
X33299Y506680D01*
X33466Y506625D01*
X33604Y506569D01*
X33688Y506541D01*
X33701Y506528D01*
X33715D01*
X33937Y506403D01*
X34145Y506264D01*
X34312Y506125D01*
X34450Y506001D01*
X34561Y505876D01*
X34644Y505779D01*
X34700Y505723D01*
X34714Y505695D01*
X34839Y505488D01*
X34950Y505266D01*
X35033Y505030D01*
X35116Y504808D01*
X35171Y504600D01*
X35213Y504447D01*
X35227Y504378D01*
Y504336D01*
X35241Y504309D01*
Y504295D01*
X33549Y504017D01*
X33507Y504239D01*
X33452Y504434D01*
X33396Y504600D01*
X33327Y504725D01*
X33258Y504836D01*
X33202Y504919D01*
X33161Y504961D01*
X33147Y504974D01*
X33022Y505085D01*
X32883Y505168D01*
X32745Y505224D01*
X32620Y505266D01*
X32509Y505293D01*
X32425Y505307D01*
X32342D01*
X32176Y505293D01*
X32009Y505266D01*
X31885Y505210D01*
X31774Y505168D01*
X31677Y505113D01*
X31621Y505057D01*
X31579Y505030D01*
X31566Y505016D01*
X31469Y504905D01*
X31399Y504766D01*
X31344Y504641D01*
X31316Y504517D01*
X31288Y504406D01*
X31274Y504323D01*
Y504267D01*
Y504239D01*
X31288Y504031D01*
X31330Y503851D01*
X31399Y503698D01*
X31469Y503574D01*
X31552Y503463D01*
X31607Y503393D01*
X31663Y503338D01*
X31677Y503324D01*
X31843Y503213D01*
X32023Y503130D01*
X32218Y503074D01*
X32398Y503033D01*
X32564Y503019D01*
X32703Y503005D01*
X32828D01*
X33022Y501521D01*
X32841Y501563D01*
X32689Y501604D01*
X32536Y501632D01*
X32412Y501646D01*
X32315Y501660D01*
X32176D01*
X31982Y501646D01*
X31815Y501590D01*
X31663Y501535D01*
X31524Y501452D01*
X31427Y501382D01*
X31344Y501313D01*
X31288Y501258D01*
X31274Y501244D01*
X31150Y501077D01*
X31052Y500897D01*
X30983Y500717D01*
X30928Y500536D01*
X30900Y500370D01*
X30886Y500245D01*
Y500162D01*
Y500148D01*
Y500134D01*
X30900Y499871D01*
X30942Y499635D01*
X31011Y499427D01*
X31080Y499260D01*
X31163Y499136D01*
X31219Y499039D01*
X31274Y498969D01*
X31288Y498955D01*
X31441Y498817D01*
X31607Y498706D01*
X31760Y498637D01*
X31912Y498581D01*
X32051Y498553D01*
X32148Y498539D01*
X32218Y498526D01*
X32245D01*
X32439Y498539D01*
X32606Y498581D01*
X32758Y498637D01*
X32897Y498706D01*
X32994Y498761D01*
X33077Y498817D01*
X33133Y498858D01*
X33147Y498872D01*
X33272Y499025D01*
X33382Y499191D01*
X33452Y499371D01*
X33521Y499538D01*
X33563Y499691D01*
X33590Y499815D01*
X33604Y499898D01*
Y499912D01*
Y499926D01*
X35380Y499704D01*
X35352Y499482D01*
X35296Y499274D01*
X35171Y498886D01*
X35019Y498553D01*
X34922Y498415D01*
X34839Y498276D01*
X34755Y498151D01*
X34672Y498054D01*
X34603Y497957D01*
X34534Y497888D01*
X34478Y497832D01*
X34436Y497790D01*
X34409Y497763D01*
X34395Y497749D01*
X34228Y497624D01*
X34048Y497499D01*
X33882Y497402D01*
X33688Y497319D01*
X33327Y497180D01*
X32994Y497097D01*
X32828Y497069D01*
X32689Y497042D01*
X32564Y497028D01*
X32453Y497014D01*
X32356Y497000D01*
X32231D01*
X31982Y497014D01*
X31732Y497042D01*
X31510Y497083D01*
X31288Y497139D01*
X31094Y497208D01*
X30900Y497277D01*
X30720Y497361D01*
X30567Y497444D01*
X30428Y497527D01*
X30290Y497610D01*
X30193Y497679D01*
X30096Y497749D01*
X30026Y497804D01*
X29971Y497846D01*
X29943Y497874D01*
X29929Y497888D01*
X29763Y498054D01*
X29624Y498234D01*
X29499Y498415D01*
X29388Y498595D01*
X29305Y498789D01*
X29222Y498969D01*
X29111Y499302D01*
X29083Y499455D01*
X29056Y499607D01*
X29028Y499732D01*
X29014Y499843D01*
X29000Y499926D01*
Y499996D01*
Y500037D01*
Y500051D01*
X29028Y500370D01*
X29083Y500647D01*
X29153Y500911D01*
X29250Y501119D01*
X29347Y501299D01*
X29416Y501424D01*
X29471Y501507D01*
X29499Y501535D01*
X29693Y501743D01*
X29915Y501923D01*
X30137Y502062D01*
X30345Y502173D01*
X30526Y502256D01*
X30678Y502298D01*
X30733Y502326D01*
X30775D01*
X30803Y502339D01*
X30817D01*
X30567Y502492D01*
X30359Y502644D01*
X30179Y502811D01*
X30012Y502977D01*
X29874Y503144D01*
X29763Y503310D01*
X29680Y503476D01*
X29596Y503629D01*
X29541Y503782D01*
X29499Y503920D01*
X29471Y504045D01*
X29458Y504156D01*
X29444Y504239D01*
X29430Y504309D01*
Y504350D01*
Y504364D01*
X29444Y504530D01*
X29458Y504683D01*
X29541Y504988D01*
X29638Y505266D01*
X29763Y505501D01*
X29888Y505695D01*
X29999Y505834D01*
X30040Y505890D01*
X30082Y505931D01*
X30096Y505945D01*
X30110Y505959D01*
X30262Y506111D01*
X30442Y506250D01*
X30609Y506361D01*
X30789Y506458D01*
X30983Y506555D01*
X31163Y506625D01*
X31510Y506722D01*
X31663Y506763D01*
X31815Y506791D01*
X31940Y506805D01*
X32065Y506819D01*
X32162Y506833D01*
X32287D01*
X32578Y506819D01*
D02*
G37*
G36*
X41385Y497180D02*
X39290D01*
X35879Y506777D01*
X37945D01*
X40289Y499677D01*
X42730Y506777D01*
X44824D01*
X41385Y497180D01*
D02*
G37*
G36*
X69710Y466180D02*
X67921D01*
Y472504D01*
X64024Y466180D01*
X62082D01*
Y475777D01*
X63871D01*
Y469315D01*
X67838Y475777D01*
X69710D01*
Y466180D01*
D02*
G37*
G36*
X76228Y475944D02*
X76672Y475888D01*
X76866Y475847D01*
X77060Y475805D01*
X77241Y475763D01*
X77393Y475722D01*
X77532Y475666D01*
X77670Y475625D01*
X77768Y475583D01*
X77865Y475555D01*
X77934Y475514D01*
X77989Y475500D01*
X78017Y475472D01*
X78031D01*
X78461Y475223D01*
X78641Y475070D01*
X78822Y474931D01*
X78988Y474779D01*
X79141Y474626D01*
X79279Y474474D01*
X79404Y474335D01*
X79501Y474196D01*
X79598Y474071D01*
X79681Y473960D01*
X79751Y473863D01*
X79792Y473780D01*
X79834Y473725D01*
X79848Y473683D01*
X79862Y473669D01*
X79973Y473447D01*
X80070Y473225D01*
X80222Y472768D01*
X80333Y472310D01*
X80402Y471908D01*
X80430Y471714D01*
X80458Y471547D01*
X80472Y471395D01*
Y471256D01*
X80486Y471159D01*
Y471076D01*
Y471020D01*
Y471007D01*
X80458Y470493D01*
X80402Y470022D01*
X80305Y469592D01*
X80264Y469384D01*
X80208Y469204D01*
X80153Y469037D01*
X80111Y468885D01*
X80056Y468760D01*
X80014Y468649D01*
X79986Y468566D01*
X79959Y468496D01*
X79931Y468455D01*
Y468441D01*
X79695Y468025D01*
X79432Y467664D01*
X79154Y467345D01*
X78877Y467096D01*
X78752Y466985D01*
X78627Y466888D01*
X78530Y466804D01*
X78433Y466749D01*
X78364Y466693D01*
X78295Y466652D01*
X78267Y466638D01*
X78253Y466624D01*
X78031Y466513D01*
X77823Y466416D01*
X77365Y466264D01*
X76922Y466153D01*
X76519Y466083D01*
X76325Y466055D01*
X76159Y466028D01*
X76006Y466014D01*
X75868D01*
X75770Y466000D01*
X75618D01*
X75174Y466014D01*
X74758Y466069D01*
X74356Y466139D01*
X74009Y466222D01*
X73857Y466264D01*
X73718Y466305D01*
X73593Y466347D01*
X73482Y466375D01*
X73399Y466402D01*
X73344Y466430D01*
X73302Y466444D01*
X73288D01*
X72872Y466610D01*
X72525Y466791D01*
X72220Y466971D01*
X71957Y467123D01*
X71762Y467262D01*
X71693Y467318D01*
X71624Y467373D01*
X71582Y467415D01*
X71541Y467442D01*
X71513Y467470D01*
Y471325D01*
X75687D01*
Y469703D01*
X73468D01*
Y468469D01*
X73635Y468344D01*
X73815Y468233D01*
X73995Y468136D01*
X74162Y468052D01*
X74300Y467983D01*
X74425Y467928D01*
X74495Y467900D01*
X74508Y467886D01*
X74522D01*
X74744Y467803D01*
X74966Y467747D01*
X75174Y467706D01*
X75354Y467678D01*
X75521Y467664D01*
X75632Y467650D01*
X75743D01*
X75965Y467664D01*
X76186Y467692D01*
X76381Y467734D01*
X76575Y467789D01*
X76922Y467928D01*
X77060Y467997D01*
X77199Y468080D01*
X77324Y468163D01*
X77435Y468233D01*
X77518Y468316D01*
X77601Y468372D01*
X77656Y468427D01*
X77698Y468469D01*
X77726Y468496D01*
X77740Y468510D01*
X77865Y468677D01*
X77989Y468871D01*
X78087Y469065D01*
X78170Y469273D01*
X78308Y469703D01*
X78392Y470119D01*
X78419Y470313D01*
X78447Y470507D01*
X78461Y470660D01*
X78475Y470812D01*
X78489Y470923D01*
Y471020D01*
Y471076D01*
Y471090D01*
X78475Y471381D01*
X78461Y471644D01*
X78419Y471908D01*
X78378Y472144D01*
X78322Y472352D01*
X78253Y472546D01*
X78183Y472726D01*
X78114Y472893D01*
X78059Y473031D01*
X77989Y473156D01*
X77920Y473253D01*
X77865Y473336D01*
X77823Y473406D01*
X77781Y473447D01*
X77768Y473475D01*
X77754Y473489D01*
X77601Y473628D01*
X77449Y473766D01*
X77282Y473863D01*
X77116Y473960D01*
X76949Y474044D01*
X76783Y474113D01*
X76464Y474210D01*
X76311Y474238D01*
X76173Y474266D01*
X76048Y474279D01*
X75937Y474293D01*
X75854Y474307D01*
X75729D01*
X75424Y474293D01*
X75160Y474238D01*
X74925Y474182D01*
X74716Y474099D01*
X74564Y474030D01*
X74439Y473960D01*
X74370Y473905D01*
X74342Y473891D01*
X74148Y473725D01*
X73981Y473544D01*
X73843Y473364D01*
X73746Y473184D01*
X73662Y473017D01*
X73607Y472893D01*
X73579Y472809D01*
X73565Y472795D01*
Y472782D01*
X71638Y473142D01*
X71693Y473378D01*
X71776Y473614D01*
X71859Y473822D01*
X71971Y474016D01*
X72068Y474210D01*
X72179Y474376D01*
X72290Y474529D01*
X72400Y474668D01*
X72511Y474793D01*
X72608Y474903D01*
X72692Y475001D01*
X72775Y475070D01*
X72844Y475125D01*
X72900Y475181D01*
X72927Y475195D01*
X72941Y475209D01*
X73135Y475347D01*
X73344Y475458D01*
X73565Y475555D01*
X73801Y475639D01*
X74259Y475777D01*
X74703Y475860D01*
X74911Y475902D01*
X75105Y475916D01*
X75285Y475930D01*
X75438Y475944D01*
X75562Y475957D01*
X75729D01*
X76228Y475944D01*
D02*
G37*
G36*
X60030Y466180D02*
X56396D01*
X56022Y466194D01*
X55675Y466208D01*
X55384Y466236D01*
X55148Y466277D01*
X54954Y466319D01*
X54801Y466347D01*
X54760Y466361D01*
X54718D01*
X54704Y466375D01*
X54690D01*
X54385Y466485D01*
X54108Y466610D01*
X53886Y466735D01*
X53692Y466860D01*
X53539Y466971D01*
X53428Y467054D01*
X53359Y467109D01*
X53331Y467137D01*
X53096Y467401D01*
X52888Y467678D01*
X52707Y467969D01*
X52569Y468233D01*
X52458Y468483D01*
X52402Y468579D01*
X52374Y468663D01*
X52347Y468746D01*
X52319Y468801D01*
X52305Y468829D01*
Y468843D01*
X52208Y469176D01*
X52125Y469523D01*
X52069Y469855D01*
X52042Y470174D01*
X52028Y470327D01*
X52014Y470466D01*
Y470577D01*
X52000Y470687D01*
Y470771D01*
Y470826D01*
Y470868D01*
Y470882D01*
X52014Y471367D01*
X52056Y471797D01*
X52069Y472005D01*
X52097Y472185D01*
X52125Y472366D01*
X52153Y472518D01*
X52194Y472657D01*
X52222Y472782D01*
X52250Y472893D01*
X52263Y472976D01*
X52291Y473045D01*
X52305Y473101D01*
X52319Y473128D01*
Y473142D01*
X52444Y473475D01*
X52596Y473780D01*
X52749Y474044D01*
X52901Y474266D01*
X53026Y474446D01*
X53137Y474585D01*
X53207Y474668D01*
X53220Y474696D01*
X53234D01*
X53470Y474917D01*
X53706Y475098D01*
X53955Y475250D01*
X54177Y475375D01*
X54372Y475472D01*
X54538Y475541D01*
X54593Y475555D01*
X54635Y475569D01*
X54663Y475583D01*
X54677D01*
X54940Y475652D01*
X55231Y475694D01*
X55536Y475736D01*
X55828Y475750D01*
X56091Y475763D01*
X56202Y475777D01*
X60030D01*
Y466180D01*
D02*
G37*
G36*
X26384Y470646D02*
X24900Y470438D01*
X24775Y470563D01*
X24650Y470674D01*
X24525Y470771D01*
X24400Y470854D01*
X24165Y470979D01*
X23943Y471062D01*
X23749Y471104D01*
X23610Y471131D01*
X23554Y471145D01*
X23471D01*
X23249Y471131D01*
X23041Y471076D01*
X22861Y471007D01*
X22708Y470923D01*
X22597Y470826D01*
X22500Y470757D01*
X22445Y470701D01*
X22431Y470687D01*
X22292Y470507D01*
X22195Y470299D01*
X22126Y470077D01*
X22084Y469855D01*
X22043Y469661D01*
X22029Y469509D01*
Y469439D01*
Y469398D01*
Y469370D01*
Y469356D01*
X22043Y469023D01*
X22084Y468732D01*
X22154Y468496D01*
X22223Y468302D01*
X22306Y468136D01*
X22362Y468025D01*
X22417Y467969D01*
X22431Y467942D01*
X22584Y467789D01*
X22750Y467664D01*
X22917Y467581D01*
X23069Y467525D01*
X23208Y467498D01*
X23319Y467484D01*
X23388Y467470D01*
X23416D01*
X23596Y467484D01*
X23776Y467525D01*
X23929Y467581D01*
X24054Y467650D01*
X24165Y467720D01*
X24248Y467775D01*
X24303Y467817D01*
X24317Y467831D01*
X24442Y467983D01*
X24553Y468136D01*
X24636Y468302D01*
X24692Y468455D01*
X24733Y468593D01*
X24761Y468718D01*
X24775Y468788D01*
Y468815D01*
X26606Y468621D01*
X26564Y468399D01*
X26522Y468191D01*
X26384Y467817D01*
X26231Y467484D01*
X26148Y467345D01*
X26051Y467207D01*
X25968Y467096D01*
X25898Y466998D01*
X25815Y466915D01*
X25759Y466832D01*
X25704Y466777D01*
X25662Y466735D01*
X25635Y466721D01*
X25621Y466707D01*
X25454Y466582D01*
X25288Y466471D01*
X25108Y466375D01*
X24927Y466305D01*
X24553Y466166D01*
X24220Y466083D01*
X24054Y466055D01*
X23915Y466042D01*
X23776Y466028D01*
X23665Y466014D01*
X23568Y466000D01*
X23444D01*
X23138Y466014D01*
X22847Y466055D01*
X22584Y466111D01*
X22334Y466194D01*
X22098Y466291D01*
X21890Y466402D01*
X21696Y466513D01*
X21516Y466638D01*
X21363Y466749D01*
X21225Y466860D01*
X21100Y466971D01*
X21003Y467068D01*
X20933Y467151D01*
X20878Y467207D01*
X20850Y467248D01*
X20836Y467262D01*
X20711Y467442D01*
X20601Y467623D01*
X20517Y467803D01*
X20434Y467997D01*
X20309Y468358D01*
X20226Y468690D01*
X20198Y468829D01*
X20184Y468968D01*
X20157Y469093D01*
Y469204D01*
X20143Y469287D01*
Y469342D01*
Y469384D01*
Y469398D01*
X20157Y469661D01*
X20184Y469911D01*
X20226Y470147D01*
X20282Y470369D01*
X20337Y470563D01*
X20420Y470757D01*
X20489Y470937D01*
X20573Y471090D01*
X20656Y471228D01*
X20725Y471353D01*
X20808Y471464D01*
X20864Y471547D01*
X20919Y471617D01*
X20961Y471672D01*
X20989Y471700D01*
X21003Y471714D01*
X21169Y471866D01*
X21335Y472005D01*
X21516Y472130D01*
X21696Y472241D01*
X21862Y472324D01*
X22043Y472393D01*
X22362Y472504D01*
X22514Y472546D01*
X22653Y472574D01*
X22778Y472588D01*
X22875Y472601D01*
X22958Y472615D01*
X23083D01*
X23319Y472601D01*
X23554Y472560D01*
X23763Y472518D01*
X23957Y472463D01*
X24109Y472393D01*
X24234Y472352D01*
X24317Y472310D01*
X24331Y472296D01*
X24345D01*
X24054Y473933D01*
X20573D01*
Y475652D01*
X25440D01*
X26384Y470646D01*
D02*
G37*
G36*
X16301Y466180D02*
X14207D01*
X10796Y475777D01*
X12862D01*
X15206Y468677D01*
X17646Y475777D01*
X19741D01*
X16301Y466180D01*
D02*
G37*
G36*
X7370Y475819D02*
X7606Y475791D01*
X7842Y475736D01*
X8050Y475680D01*
X8244Y475597D01*
X8424Y475514D01*
X8577Y475430D01*
X8729Y475333D01*
X8854Y475236D01*
X8979Y475153D01*
X9076Y475070D01*
X9145Y474987D01*
X9215Y474931D01*
X9256Y474876D01*
X9284Y474848D01*
X9298Y474834D01*
X9464Y474598D01*
X9603Y474321D01*
X9728Y474030D01*
X9839Y473725D01*
X9922Y473406D01*
X10005Y473073D01*
X10060Y472754D01*
X10116Y472435D01*
X10144Y472130D01*
X10171Y471852D01*
X10199Y471589D01*
X10213Y471367D01*
X10227Y471187D01*
Y471048D01*
Y470993D01*
Y470951D01*
Y470937D01*
Y470923D01*
X10213Y470424D01*
X10185Y469966D01*
X10144Y469536D01*
X10088Y469148D01*
X10033Y468801D01*
X9963Y468483D01*
X9880Y468205D01*
X9797Y467956D01*
X9728Y467747D01*
X9644Y467553D01*
X9575Y467401D01*
X9506Y467276D01*
X9464Y467193D01*
X9423Y467123D01*
X9395Y467082D01*
X9381Y467068D01*
X9215Y466874D01*
X9034Y466721D01*
X8854Y466569D01*
X8660Y466458D01*
X8479Y466347D01*
X8285Y466264D01*
X8105Y466194D01*
X7925Y466139D01*
X7758Y466083D01*
X7606Y466055D01*
X7467Y466028D01*
X7356Y466014D01*
X7259D01*
X7176Y466000D01*
X7120D01*
X6871Y466014D01*
X6635Y466042D01*
X6399Y466097D01*
X6191Y466153D01*
X5997Y466222D01*
X5817Y466305D01*
X5664Y466402D01*
X5512Y466499D01*
X5387Y466582D01*
X5262Y466680D01*
X5165Y466763D01*
X5082Y466832D01*
X5026Y466888D01*
X4985Y466943D01*
X4957Y466971D01*
X4943Y466985D01*
X4777Y467220D01*
X4638Y467498D01*
X4499Y467789D01*
X4402Y468108D01*
X4305Y468427D01*
X4236Y468746D01*
X4166Y469079D01*
X4111Y469398D01*
X4083Y469703D01*
X4056Y469980D01*
X4028Y470244D01*
X4014Y470466D01*
X4000Y470646D01*
Y470785D01*
Y470840D01*
Y470882D01*
Y470896D01*
Y470909D01*
X4014Y471409D01*
X4042Y471866D01*
X4083Y472282D01*
X4153Y472671D01*
X4222Y473031D01*
X4291Y473350D01*
X4388Y473642D01*
X4471Y473891D01*
X4555Y474127D01*
X4638Y474307D01*
X4721Y474474D01*
X4791Y474612D01*
X4860Y474709D01*
X4901Y474779D01*
X4929Y474820D01*
X4943Y474834D01*
X5096Y475014D01*
X5262Y475167D01*
X5442Y475292D01*
X5623Y475417D01*
X5803Y475514D01*
X5983Y475583D01*
X6150Y475652D01*
X6330Y475708D01*
X6496Y475750D01*
X6635Y475777D01*
X6774Y475805D01*
X6885Y475819D01*
X6982Y475833D01*
X7120D01*
X7370Y475819D01*
D02*
G37*
G36*
X511407Y451993D02*
X514722Y447000D01*
X512392D01*
X510256Y450245D01*
X508134Y447000D01*
X505804D01*
X509105Y451993D01*
X506096Y456597D01*
X508356D01*
X510256Y453726D01*
X512156Y456597D01*
X514417D01*
X511407Y451993D01*
D02*
G37*
G36*
X522613Y454974D02*
X519770D01*
Y447000D01*
X517828D01*
Y454974D01*
X514999D01*
Y456597D01*
X522613D01*
Y454974D01*
D02*
G37*
G36*
X510603Y418993D02*
X513917Y414000D01*
X511587D01*
X509452Y417245D01*
X507330Y414000D01*
X505000D01*
X508301Y418993D01*
X505291Y423597D01*
X507552D01*
X509452Y420726D01*
X511352Y423597D01*
X513612D01*
X510603Y418993D01*
D02*
G37*
G36*
X522613Y414000D02*
X520671D01*
Y418008D01*
X520047D01*
X519853Y417994D01*
X519687Y417980D01*
X519548Y417952D01*
X519437Y417939D01*
X519368Y417911D01*
X519326Y417897D01*
X519312D01*
X519201Y417842D01*
X519090Y417786D01*
X518993Y417717D01*
X518896Y417661D01*
X518827Y417592D01*
X518771Y417537D01*
X518744Y417509D01*
X518730Y417495D01*
X518674Y417425D01*
X518605Y417356D01*
X518452Y417148D01*
X518286Y416926D01*
X518106Y416677D01*
X517953Y416455D01*
X517884Y416344D01*
X517828Y416261D01*
X517773Y416191D01*
X517731Y416136D01*
X517717Y416094D01*
X517704Y416080D01*
X516317Y414000D01*
X513987D01*
X515165Y415872D01*
X515290Y416066D01*
X515415Y416261D01*
X515526Y416427D01*
X515637Y416580D01*
X515734Y416718D01*
X515817Y416857D01*
X515984Y417065D01*
X516109Y417231D01*
X516192Y417342D01*
X516261Y417412D01*
X516275Y417425D01*
X516428Y417592D01*
X516608Y417744D01*
X516774Y417869D01*
X516941Y417994D01*
X517079Y418091D01*
X517190Y418161D01*
X517273Y418216D01*
X517287Y418230D01*
X517301D01*
X517066Y418271D01*
X516857Y418327D01*
X516663Y418382D01*
X516469Y418452D01*
X516303Y418521D01*
X516150Y418591D01*
X515998Y418660D01*
X515873Y418743D01*
X515762Y418812D01*
X515665Y418882D01*
X515582Y418951D01*
X515526Y419007D01*
X515471Y419048D01*
X515429Y419090D01*
X515415Y419104D01*
X515401Y419117D01*
X515290Y419256D01*
X515193Y419395D01*
X515027Y419700D01*
X514916Y419991D01*
X514847Y420282D01*
X514791Y420532D01*
X514777Y420629D01*
Y420726D01*
X514763Y420796D01*
Y420865D01*
Y420893D01*
Y420906D01*
X514777Y421212D01*
X514833Y421503D01*
X514902Y421752D01*
X514971Y421974D01*
X515055Y422155D01*
X515124Y422293D01*
X515152Y422335D01*
X515179Y422377D01*
X515193Y422390D01*
Y422404D01*
X515360Y422640D01*
X515540Y422834D01*
X515720Y422987D01*
X515901Y423125D01*
X516067Y423209D01*
X516192Y423278D01*
X516275Y423320D01*
X516289Y423333D01*
X516303D01*
X516441Y423375D01*
X516594Y423417D01*
X516941Y423486D01*
X517315Y423528D01*
X517676Y423569D01*
X517856D01*
X518009Y423583D01*
X518161D01*
X518286Y423597D01*
X522613D01*
Y414000D01*
D02*
G37*
G36*
X741489Y34180D02*
X737856D01*
X737482Y34194D01*
X737135Y34208D01*
X736844Y34236D01*
X736608Y34277D01*
X736414Y34319D01*
X736261Y34347D01*
X736219Y34361D01*
X736178D01*
X736164Y34374D01*
X736150D01*
X735845Y34485D01*
X735568Y34610D01*
X735346Y34735D01*
X735152Y34860D01*
X734999Y34971D01*
X734888Y35054D01*
X734819Y35110D01*
X734791Y35137D01*
X734555Y35401D01*
X734347Y35678D01*
X734167Y35969D01*
X734028Y36233D01*
X733917Y36483D01*
X733862Y36579D01*
X733834Y36663D01*
X733806Y36746D01*
X733779Y36801D01*
X733765Y36829D01*
Y36843D01*
X733668Y37176D01*
X733585Y37523D01*
X733529Y37855D01*
X733501Y38174D01*
X733487Y38327D01*
X733474Y38466D01*
Y38577D01*
X733460Y38688D01*
Y38771D01*
Y38826D01*
Y38868D01*
Y38882D01*
X733474Y39367D01*
X733515Y39797D01*
X733529Y40005D01*
X733557Y40185D01*
X733585Y40366D01*
X733612Y40518D01*
X733654Y40657D01*
X733682Y40782D01*
X733709Y40893D01*
X733723Y40976D01*
X733751Y41045D01*
X733765Y41101D01*
X733779Y41128D01*
Y41142D01*
X733904Y41475D01*
X734056Y41780D01*
X734209Y42044D01*
X734361Y42266D01*
X734486Y42446D01*
X734597Y42585D01*
X734666Y42668D01*
X734680Y42695D01*
X734694D01*
X734930Y42917D01*
X735165Y43098D01*
X735415Y43250D01*
X735637Y43375D01*
X735831Y43472D01*
X735998Y43541D01*
X736053Y43555D01*
X736095Y43569D01*
X736123Y43583D01*
X736136D01*
X736400Y43652D01*
X736691Y43694D01*
X736996Y43736D01*
X737287Y43749D01*
X737551Y43763D01*
X737662Y43777D01*
X741489D01*
Y34180D01*
D02*
G37*
G36*
X732794D02*
X730742D01*
X729951Y36358D01*
X726096D01*
X725264Y34180D01*
X723169D01*
X727025Y43777D01*
X729077D01*
X732794Y34180D01*
D02*
G37*
G36*
X747495Y43944D02*
X747855Y43902D01*
X748174Y43847D01*
X748452Y43791D01*
X748576Y43749D01*
X748687Y43722D01*
X748770Y43694D01*
X748854Y43666D01*
X748909Y43639D01*
X748951Y43625D01*
X748979Y43611D01*
X748992D01*
X749270Y43472D01*
X749505Y43320D01*
X749714Y43153D01*
X749880Y43001D01*
X750019Y42862D01*
X750102Y42751D01*
X750171Y42668D01*
X750185Y42654D01*
Y42640D01*
X750324Y42404D01*
X750421Y42155D01*
X750490Y41919D01*
X750532Y41711D01*
X750559Y41530D01*
X750587Y41392D01*
Y41336D01*
Y41295D01*
Y41281D01*
Y41267D01*
X750573Y41059D01*
X750546Y40851D01*
X750504Y40671D01*
X750449Y40490D01*
X750310Y40158D01*
X750143Y39866D01*
X750074Y39741D01*
X749991Y39644D01*
X749921Y39547D01*
X749852Y39464D01*
X749797Y39409D01*
X749755Y39367D01*
X749727Y39339D01*
X749714Y39325D01*
X749589Y39228D01*
X749436Y39131D01*
X749284Y39034D01*
X749103Y38951D01*
X748757Y38785D01*
X748396Y38646D01*
X748216Y38590D01*
X748063Y38535D01*
X747911Y38493D01*
X747786Y38452D01*
X747689Y38424D01*
X747606Y38396D01*
X747550Y38382D01*
X747536D01*
X747314Y38327D01*
X747120Y38272D01*
X746940Y38230D01*
X746773Y38188D01*
X746635Y38147D01*
X746510Y38119D01*
X746399Y38077D01*
X746302Y38050D01*
X746219Y38036D01*
X746149Y38008D01*
X746052Y37980D01*
X745997Y37952D01*
X745983D01*
X745803Y37883D01*
X745664Y37814D01*
X745539Y37745D01*
X745442Y37675D01*
X745373Y37620D01*
X745331Y37578D01*
X745303Y37550D01*
X745290Y37536D01*
X745220Y37439D01*
X745165Y37342D01*
X745137Y37245D01*
X745109Y37162D01*
X745095Y37079D01*
X745081Y37009D01*
Y36968D01*
Y36954D01*
X745095Y36760D01*
X745151Y36593D01*
X745234Y36427D01*
X745317Y36288D01*
X745414Y36177D01*
X745484Y36094D01*
X745539Y36039D01*
X745567Y36025D01*
X745761Y35900D01*
X745983Y35803D01*
X746219Y35734D01*
X746441Y35692D01*
X746649Y35664D01*
X746815Y35636D01*
X746967D01*
X747287Y35650D01*
X747564Y35706D01*
X747800Y35775D01*
X748008Y35858D01*
X748174Y35942D01*
X748285Y36011D01*
X748354Y36066D01*
X748382Y36080D01*
X748562Y36274D01*
X748701Y36483D01*
X748826Y36718D01*
X748909Y36954D01*
X748979Y37162D01*
X749034Y37328D01*
X749048Y37384D01*
Y37439D01*
X749062Y37467D01*
Y37481D01*
X750948Y37301D01*
X750906Y37009D01*
X750851Y36732D01*
X750768Y36469D01*
X750698Y36233D01*
X750601Y36011D01*
X750504Y35803D01*
X750407Y35623D01*
X750310Y35456D01*
X750213Y35317D01*
X750116Y35193D01*
X750033Y35082D01*
X749949Y34985D01*
X749894Y34915D01*
X749838Y34874D01*
X749811Y34846D01*
X749797Y34832D01*
X749603Y34680D01*
X749395Y34555D01*
X749173Y34444D01*
X748937Y34347D01*
X748715Y34277D01*
X748479Y34208D01*
X748021Y34111D01*
X747813Y34069D01*
X747619Y34042D01*
X747453Y34028D01*
X747300Y34014D01*
X747176Y34000D01*
X746995D01*
X746552Y34014D01*
X746149Y34056D01*
X745789Y34111D01*
X745636Y34139D01*
X745484Y34180D01*
X745359Y34208D01*
X745248Y34236D01*
X745151Y34264D01*
X745068Y34291D01*
X744998Y34319D01*
X744957Y34333D01*
X744929Y34347D01*
X744915D01*
X744610Y34499D01*
X744360Y34666D01*
X744125Y34832D01*
X743944Y35012D01*
X743805Y35165D01*
X743695Y35304D01*
X743639Y35387D01*
X743611Y35401D01*
Y35415D01*
X743459Y35692D01*
X743334Y35956D01*
X743251Y36219D01*
X743195Y36469D01*
X743168Y36663D01*
X743154Y36760D01*
X743140Y36829D01*
Y36885D01*
Y36926D01*
Y36954D01*
Y36968D01*
X743154Y37301D01*
X743195Y37592D01*
X743265Y37855D01*
X743334Y38077D01*
X743403Y38258D01*
X743473Y38382D01*
X743514Y38466D01*
X743528Y38493D01*
X743681Y38715D01*
X743861Y38909D01*
X744041Y39076D01*
X744208Y39214D01*
X744360Y39325D01*
X744485Y39409D01*
X744568Y39464D01*
X744582Y39478D01*
X744596D01*
X744735Y39547D01*
X744873Y39617D01*
X745206Y39741D01*
X745553Y39852D01*
X745886Y39963D01*
X746038Y40005D01*
X746191Y40047D01*
X746330Y40088D01*
X746441Y40116D01*
X746538Y40144D01*
X746607Y40158D01*
X746662Y40171D01*
X746676D01*
X746926Y40241D01*
X747148Y40296D01*
X747356Y40352D01*
X747550Y40407D01*
X747703Y40463D01*
X747855Y40518D01*
X747980Y40574D01*
X748091Y40615D01*
X748188Y40657D01*
X748257Y40698D01*
X748327Y40726D01*
X748368Y40754D01*
X748438Y40795D01*
X748452Y40809D01*
X748549Y40907D01*
X748618Y41004D01*
X748660Y41101D01*
X748687Y41198D01*
X748715Y41267D01*
X748729Y41336D01*
Y41378D01*
Y41392D01*
X748715Y41530D01*
X748687Y41642D01*
X748632Y41752D01*
X748576Y41836D01*
X748521Y41905D01*
X748465Y41947D01*
X748438Y41974D01*
X748424Y41988D01*
X748230Y42113D01*
X748021Y42196D01*
X747800Y42266D01*
X747592Y42307D01*
X747411Y42335D01*
X747259Y42349D01*
X747120D01*
X746829Y42335D01*
X746579Y42293D01*
X746371Y42238D01*
X746205Y42182D01*
X746066Y42127D01*
X745969Y42071D01*
X745913Y42030D01*
X745900Y42016D01*
X745761Y41877D01*
X745636Y41711D01*
X745539Y41544D01*
X745470Y41364D01*
X745414Y41212D01*
X745387Y41087D01*
X745359Y40990D01*
Y40976D01*
Y40962D01*
X743417Y41031D01*
X743431Y41281D01*
X743473Y41503D01*
X743528Y41725D01*
X743597Y41919D01*
X743667Y42113D01*
X743750Y42293D01*
X743833Y42446D01*
X743916Y42598D01*
X744014Y42723D01*
X744097Y42834D01*
X744180Y42931D01*
X744249Y43014D01*
X744305Y43070D01*
X744346Y43112D01*
X744374Y43139D01*
X744388Y43153D01*
X744568Y43292D01*
X744762Y43417D01*
X744970Y43528D01*
X745192Y43625D01*
X745414Y43694D01*
X745636Y43763D01*
X746080Y43860D01*
X746288Y43888D01*
X746468Y43916D01*
X746649Y43930D01*
X746801Y43944D01*
X746926Y43958D01*
X747092D01*
X747495Y43944D01*
D02*
G37*
G36*
X737717Y85944D02*
X738078Y85902D01*
X738397Y85833D01*
X738716Y85750D01*
X738993Y85652D01*
X739271Y85541D01*
X739506Y85417D01*
X739728Y85292D01*
X739936Y85167D01*
X740103Y85042D01*
X740255Y84931D01*
X740380Y84834D01*
X740477Y84751D01*
X740546Y84682D01*
X740588Y84640D01*
X740602Y84626D01*
X740824Y84363D01*
X741004Y84085D01*
X741171Y83794D01*
X741309Y83489D01*
X741434Y83170D01*
X741531Y82865D01*
X741614Y82560D01*
X741684Y82268D01*
X741739Y81977D01*
X741767Y81728D01*
X741795Y81492D01*
X741822Y81298D01*
Y81131D01*
X741836Y81006D01*
Y80923D01*
Y80909D01*
Y80896D01*
X741822Y80479D01*
X741781Y80091D01*
X741725Y79717D01*
X741642Y79384D01*
X741559Y79065D01*
X741448Y78760D01*
X741337Y78496D01*
X741226Y78260D01*
X741115Y78039D01*
X741004Y77845D01*
X740893Y77692D01*
X740810Y77553D01*
X740727Y77456D01*
X740671Y77373D01*
X740630Y77331D01*
X740616Y77318D01*
X740380Y77082D01*
X740130Y76888D01*
X739867Y76707D01*
X739603Y76569D01*
X739340Y76444D01*
X739076Y76333D01*
X738827Y76250D01*
X738591Y76180D01*
X738355Y76125D01*
X738147Y76083D01*
X737953Y76055D01*
X737801Y76042D01*
X737662Y76028D01*
X737565Y76014D01*
X737482D01*
X737190Y76028D01*
X736927Y76042D01*
X736663Y76083D01*
X736428Y76139D01*
X736206Y76194D01*
X735998Y76250D01*
X735804Y76319D01*
X735623Y76402D01*
X735471Y76472D01*
X735332Y76541D01*
X735207Y76596D01*
X735110Y76652D01*
X735027Y76707D01*
X734971Y76749D01*
X734944Y76763D01*
X734930Y76777D01*
X734750Y76929D01*
X734583Y77096D01*
X734278Y77470D01*
X734028Y77858D01*
X733834Y78233D01*
X733751Y78413D01*
X733682Y78580D01*
X733626Y78732D01*
X733571Y78857D01*
X733529Y78968D01*
X733501Y79051D01*
X733487Y79106D01*
Y79120D01*
X735374Y79703D01*
X735484Y79328D01*
X735609Y79009D01*
X735734Y78746D01*
X735873Y78524D01*
X735984Y78358D01*
X736081Y78247D01*
X736150Y78177D01*
X736178Y78150D01*
X736400Y77983D01*
X736622Y77872D01*
X736844Y77789D01*
X737038Y77720D01*
X737218Y77692D01*
X737371Y77678D01*
X737426Y77664D01*
X737495D01*
X737690Y77678D01*
X737870Y77692D01*
X738203Y77789D01*
X738494Y77900D01*
X738730Y78053D01*
X738924Y78191D01*
X739063Y78302D01*
X739118Y78358D01*
X739160Y78399D01*
X739174Y78413D01*
X739187Y78427D01*
X739298Y78580D01*
X739395Y78760D01*
X739492Y78954D01*
X739562Y79162D01*
X739673Y79592D01*
X739756Y80022D01*
X739784Y80230D01*
X739798Y80410D01*
X739825Y80590D01*
Y80743D01*
X739839Y80854D01*
Y80951D01*
Y81020D01*
Y81034D01*
X739825Y81353D01*
X739811Y81644D01*
X739784Y81908D01*
X739742Y82158D01*
X739687Y82380D01*
X739631Y82587D01*
X739576Y82768D01*
X739506Y82934D01*
X739451Y83073D01*
X739395Y83198D01*
X739340Y83295D01*
X739284Y83378D01*
X739243Y83447D01*
X739215Y83489D01*
X739187Y83517D01*
Y83531D01*
X739063Y83669D01*
X738924Y83794D01*
X738785Y83891D01*
X738633Y83974D01*
X738341Y84113D01*
X738064Y84210D01*
X737828Y84266D01*
X737717Y84279D01*
X737634Y84293D01*
X737551Y84307D01*
X737454D01*
X737177Y84293D01*
X736927Y84238D01*
X736705Y84169D01*
X736511Y84085D01*
X736358Y84002D01*
X736247Y83933D01*
X736178Y83877D01*
X736150Y83863D01*
X735970Y83697D01*
X735804Y83503D01*
X735679Y83309D01*
X735582Y83115D01*
X735512Y82948D01*
X735471Y82823D01*
X735443Y82768D01*
Y82726D01*
X735429Y82712D01*
Y82698D01*
X733515Y83156D01*
X733654Y83558D01*
X733806Y83905D01*
X733973Y84210D01*
X734125Y84460D01*
X734278Y84654D01*
X734333Y84737D01*
X734389Y84806D01*
X734430Y84848D01*
X734472Y84890D01*
X734486Y84917D01*
X734500D01*
X734708Y85098D01*
X734944Y85264D01*
X735165Y85403D01*
X735401Y85514D01*
X735651Y85625D01*
X735887Y85708D01*
X736123Y85777D01*
X736344Y85833D01*
X736552Y85874D01*
X736747Y85902D01*
X736913Y85930D01*
X737066Y85944D01*
X737190Y85957D01*
X737357D01*
X737717Y85944D01*
D02*
G37*
G36*
X731768Y76180D02*
X725000D01*
Y77803D01*
X729826D01*
Y85708D01*
X731768D01*
Y76180D01*
D02*
G37*
G36*
X747495Y85944D02*
X747855Y85902D01*
X748174Y85847D01*
X748452Y85791D01*
X748576Y85750D01*
X748687Y85722D01*
X748770Y85694D01*
X748854Y85666D01*
X748909Y85639D01*
X748951Y85625D01*
X748979Y85611D01*
X748992D01*
X749270Y85472D01*
X749505Y85320D01*
X749714Y85153D01*
X749880Y85001D01*
X750019Y84862D01*
X750102Y84751D01*
X750171Y84668D01*
X750185Y84654D01*
Y84640D01*
X750324Y84404D01*
X750421Y84155D01*
X750490Y83919D01*
X750532Y83711D01*
X750559Y83531D01*
X750587Y83392D01*
Y83336D01*
Y83295D01*
Y83281D01*
Y83267D01*
X750573Y83059D01*
X750546Y82851D01*
X750504Y82671D01*
X750449Y82490D01*
X750310Y82158D01*
X750143Y81866D01*
X750074Y81742D01*
X749991Y81644D01*
X749921Y81547D01*
X749852Y81464D01*
X749797Y81409D01*
X749755Y81367D01*
X749727Y81339D01*
X749714Y81326D01*
X749589Y81228D01*
X749436Y81131D01*
X749284Y81034D01*
X749103Y80951D01*
X748757Y80785D01*
X748396Y80646D01*
X748216Y80590D01*
X748063Y80535D01*
X747911Y80493D01*
X747786Y80452D01*
X747689Y80424D01*
X747606Y80396D01*
X747550Y80382D01*
X747536D01*
X747314Y80327D01*
X747120Y80272D01*
X746940Y80230D01*
X746773Y80188D01*
X746635Y80147D01*
X746510Y80119D01*
X746399Y80077D01*
X746302Y80050D01*
X746219Y80036D01*
X746149Y80008D01*
X746052Y79980D01*
X745997Y79953D01*
X745983D01*
X745803Y79883D01*
X745664Y79814D01*
X745539Y79745D01*
X745442Y79675D01*
X745373Y79620D01*
X745331Y79578D01*
X745303Y79550D01*
X745290Y79536D01*
X745220Y79439D01*
X745165Y79342D01*
X745137Y79245D01*
X745109Y79162D01*
X745095Y79079D01*
X745081Y79009D01*
Y78968D01*
Y78954D01*
X745095Y78760D01*
X745151Y78593D01*
X745234Y78427D01*
X745317Y78288D01*
X745414Y78177D01*
X745484Y78094D01*
X745539Y78039D01*
X745567Y78025D01*
X745761Y77900D01*
X745983Y77803D01*
X746219Y77734D01*
X746441Y77692D01*
X746649Y77664D01*
X746815Y77636D01*
X746967D01*
X747287Y77650D01*
X747564Y77706D01*
X747800Y77775D01*
X748008Y77858D01*
X748174Y77942D01*
X748285Y78011D01*
X748354Y78066D01*
X748382Y78080D01*
X748562Y78274D01*
X748701Y78482D01*
X748826Y78718D01*
X748909Y78954D01*
X748979Y79162D01*
X749034Y79328D01*
X749048Y79384D01*
Y79439D01*
X749062Y79467D01*
Y79481D01*
X750948Y79301D01*
X750906Y79009D01*
X750851Y78732D01*
X750768Y78469D01*
X750698Y78233D01*
X750601Y78011D01*
X750504Y77803D01*
X750407Y77623D01*
X750310Y77456D01*
X750213Y77318D01*
X750116Y77193D01*
X750033Y77082D01*
X749949Y76985D01*
X749894Y76915D01*
X749838Y76874D01*
X749811Y76846D01*
X749797Y76832D01*
X749603Y76680D01*
X749395Y76555D01*
X749173Y76444D01*
X748937Y76347D01*
X748715Y76277D01*
X748479Y76208D01*
X748021Y76111D01*
X747813Y76069D01*
X747619Y76042D01*
X747453Y76028D01*
X747300Y76014D01*
X747176Y76000D01*
X746995D01*
X746552Y76014D01*
X746149Y76055D01*
X745789Y76111D01*
X745636Y76139D01*
X745484Y76180D01*
X745359Y76208D01*
X745248Y76236D01*
X745151Y76263D01*
X745068Y76291D01*
X744998Y76319D01*
X744957Y76333D01*
X744929Y76347D01*
X744915D01*
X744610Y76499D01*
X744360Y76666D01*
X744125Y76832D01*
X743944Y77012D01*
X743805Y77165D01*
X743695Y77304D01*
X743639Y77387D01*
X743611Y77401D01*
Y77415D01*
X743459Y77692D01*
X743334Y77955D01*
X743251Y78219D01*
X743195Y78469D01*
X743168Y78663D01*
X743154Y78760D01*
X743140Y78829D01*
Y78885D01*
Y78926D01*
Y78954D01*
Y78968D01*
X743154Y79301D01*
X743195Y79592D01*
X743265Y79855D01*
X743334Y80077D01*
X743403Y80258D01*
X743473Y80382D01*
X743514Y80466D01*
X743528Y80493D01*
X743681Y80715D01*
X743861Y80909D01*
X744041Y81076D01*
X744208Y81215D01*
X744360Y81326D01*
X744485Y81409D01*
X744568Y81464D01*
X744582Y81478D01*
X744596D01*
X744735Y81547D01*
X744873Y81617D01*
X745206Y81742D01*
X745553Y81853D01*
X745886Y81963D01*
X746038Y82005D01*
X746191Y82047D01*
X746330Y82088D01*
X746441Y82116D01*
X746538Y82144D01*
X746607Y82158D01*
X746662Y82171D01*
X746676D01*
X746926Y82241D01*
X747148Y82296D01*
X747356Y82352D01*
X747550Y82407D01*
X747703Y82463D01*
X747855Y82518D01*
X747980Y82574D01*
X748091Y82615D01*
X748188Y82657D01*
X748257Y82698D01*
X748327Y82726D01*
X748368Y82754D01*
X748438Y82795D01*
X748452Y82809D01*
X748549Y82907D01*
X748618Y83004D01*
X748660Y83101D01*
X748687Y83198D01*
X748715Y83267D01*
X748729Y83336D01*
Y83378D01*
Y83392D01*
X748715Y83531D01*
X748687Y83642D01*
X748632Y83752D01*
X748576Y83836D01*
X748521Y83905D01*
X748465Y83947D01*
X748438Y83974D01*
X748424Y83988D01*
X748230Y84113D01*
X748021Y84196D01*
X747800Y84266D01*
X747592Y84307D01*
X747411Y84335D01*
X747259Y84349D01*
X747120D01*
X746829Y84335D01*
X746579Y84293D01*
X746371Y84238D01*
X746205Y84182D01*
X746066Y84127D01*
X745969Y84071D01*
X745913Y84030D01*
X745900Y84016D01*
X745761Y83877D01*
X745636Y83711D01*
X745539Y83544D01*
X745470Y83364D01*
X745414Y83212D01*
X745387Y83087D01*
X745359Y82990D01*
Y82976D01*
Y82962D01*
X743417Y83031D01*
X743431Y83281D01*
X743473Y83503D01*
X743528Y83725D01*
X743597Y83919D01*
X743667Y84113D01*
X743750Y84293D01*
X743833Y84446D01*
X743916Y84598D01*
X744014Y84723D01*
X744097Y84834D01*
X744180Y84931D01*
X744249Y85014D01*
X744305Y85070D01*
X744346Y85112D01*
X744374Y85139D01*
X744388Y85153D01*
X744568Y85292D01*
X744762Y85417D01*
X744970Y85528D01*
X745192Y85625D01*
X745414Y85694D01*
X745636Y85763D01*
X746080Y85860D01*
X746288Y85888D01*
X746468Y85916D01*
X746649Y85930D01*
X746801Y85944D01*
X746926Y85957D01*
X747092D01*
X747495Y85944D01*
D02*
G37*
G36*
X403240Y12180D02*
X401451D01*
Y18504D01*
X397554Y12180D01*
X395612D01*
Y21777D01*
X397401D01*
Y15315D01*
X401367Y21777D01*
X403240D01*
Y12180D01*
D02*
G37*
G36*
X393559D02*
X391618D01*
Y16188D01*
X390994D01*
X390800Y16174D01*
X390633Y16161D01*
X390494Y16133D01*
X390384Y16119D01*
X390314Y16091D01*
X390273Y16077D01*
X390259D01*
X390148Y16022D01*
X390037Y15966D01*
X389940Y15897D01*
X389843Y15841D01*
X389773Y15772D01*
X389718Y15717D01*
X389690Y15689D01*
X389676Y15675D01*
X389621Y15606D01*
X389552Y15536D01*
X389399Y15328D01*
X389232Y15107D01*
X389052Y14857D01*
X388900Y14635D01*
X388830Y14524D01*
X388775Y14441D01*
X388719Y14372D01*
X388678Y14316D01*
X388664Y14274D01*
X388650Y14261D01*
X387263Y12180D01*
X384933D01*
X386112Y14052D01*
X386237Y14247D01*
X386362Y14441D01*
X386473Y14607D01*
X386584Y14760D01*
X386681Y14899D01*
X386764Y15037D01*
X386930Y15245D01*
X387055Y15412D01*
X387138Y15523D01*
X387208Y15592D01*
X387222Y15606D01*
X387374Y15772D01*
X387554Y15925D01*
X387721Y16050D01*
X387887Y16174D01*
X388026Y16272D01*
X388137Y16341D01*
X388220Y16396D01*
X388234Y16410D01*
X388248D01*
X388012Y16452D01*
X387804Y16507D01*
X387610Y16563D01*
X387416Y16632D01*
X387249Y16701D01*
X387097Y16771D01*
X386944Y16840D01*
X386819Y16923D01*
X386708Y16993D01*
X386611Y17062D01*
X386528Y17131D01*
X386473Y17187D01*
X386417Y17228D01*
X386376Y17270D01*
X386362Y17284D01*
X386348Y17298D01*
X386237Y17436D01*
X386140Y17575D01*
X385973Y17880D01*
X385863Y18171D01*
X385793Y18463D01*
X385738Y18712D01*
X385724Y18809D01*
Y18907D01*
X385710Y18976D01*
Y19045D01*
Y19073D01*
Y19087D01*
X385724Y19392D01*
X385779Y19683D01*
X385849Y19933D01*
X385918Y20155D01*
X386001Y20335D01*
X386071Y20474D01*
X386098Y20515D01*
X386126Y20557D01*
X386140Y20571D01*
Y20584D01*
X386306Y20820D01*
X386487Y21014D01*
X386667Y21167D01*
X386847Y21306D01*
X387014Y21389D01*
X387138Y21458D01*
X387222Y21500D01*
X387235Y21514D01*
X387249D01*
X387388Y21555D01*
X387541Y21597D01*
X387887Y21666D01*
X388262Y21708D01*
X388622Y21749D01*
X388803D01*
X388955Y21763D01*
X389108D01*
X389232Y21777D01*
X393559D01*
Y12180D01*
D02*
G37*
G36*
X375614Y20155D02*
X372771D01*
Y12180D01*
X370829D01*
Y20155D01*
X368000D01*
Y21777D01*
X375614D01*
Y20155D01*
D02*
G37*
G36*
X380939Y21944D02*
X381300Y21902D01*
X381619Y21847D01*
X381896Y21791D01*
X382021Y21749D01*
X382132Y21722D01*
X382215Y21694D01*
X382298Y21666D01*
X382354Y21639D01*
X382395Y21625D01*
X382423Y21611D01*
X382437D01*
X382714Y21472D01*
X382950Y21320D01*
X383158Y21153D01*
X383325Y21001D01*
X383463Y20862D01*
X383546Y20751D01*
X383616Y20668D01*
X383630Y20654D01*
Y20640D01*
X383768Y20404D01*
X383866Y20155D01*
X383935Y19919D01*
X383976Y19711D01*
X384004Y19531D01*
X384032Y19392D01*
Y19336D01*
Y19295D01*
Y19281D01*
Y19267D01*
X384018Y19059D01*
X383990Y18851D01*
X383949Y18671D01*
X383893Y18490D01*
X383755Y18158D01*
X383588Y17866D01*
X383519Y17742D01*
X383436Y17644D01*
X383366Y17547D01*
X383297Y17464D01*
X383241Y17409D01*
X383200Y17367D01*
X383172Y17339D01*
X383158Y17326D01*
X383033Y17228D01*
X382881Y17131D01*
X382728Y17034D01*
X382548Y16951D01*
X382201Y16785D01*
X381841Y16646D01*
X381660Y16590D01*
X381508Y16535D01*
X381355Y16493D01*
X381231Y16452D01*
X381133Y16424D01*
X381050Y16396D01*
X380995Y16382D01*
X380981D01*
X380759Y16327D01*
X380565Y16272D01*
X380384Y16230D01*
X380218Y16188D01*
X380079Y16147D01*
X379955Y16119D01*
X379844Y16077D01*
X379747Y16050D01*
X379663Y16036D01*
X379594Y16008D01*
X379497Y15980D01*
X379441Y15953D01*
X379428D01*
X379247Y15883D01*
X379109Y15814D01*
X378984Y15745D01*
X378887Y15675D01*
X378817Y15620D01*
X378776Y15578D01*
X378748Y15550D01*
X378734Y15536D01*
X378665Y15439D01*
X378609Y15342D01*
X378582Y15245D01*
X378554Y15162D01*
X378540Y15079D01*
X378526Y15009D01*
Y14968D01*
Y14954D01*
X378540Y14760D01*
X378596Y14593D01*
X378679Y14427D01*
X378762Y14288D01*
X378859Y14177D01*
X378928Y14094D01*
X378984Y14039D01*
X379011Y14025D01*
X379206Y13900D01*
X379428Y13803D01*
X379663Y13734D01*
X379885Y13692D01*
X380093Y13664D01*
X380260Y13636D01*
X380412D01*
X380731Y13650D01*
X381009Y13706D01*
X381244Y13775D01*
X381452Y13858D01*
X381619Y13942D01*
X381730Y14011D01*
X381799Y14066D01*
X381827Y14080D01*
X382007Y14274D01*
X382146Y14482D01*
X382271Y14718D01*
X382354Y14954D01*
X382423Y15162D01*
X382479Y15328D01*
X382492Y15384D01*
Y15439D01*
X382506Y15467D01*
Y15481D01*
X384392Y15301D01*
X384351Y15009D01*
X384295Y14732D01*
X384212Y14469D01*
X384143Y14233D01*
X384046Y14011D01*
X383949Y13803D01*
X383852Y13623D01*
X383755Y13456D01*
X383657Y13318D01*
X383560Y13193D01*
X383477Y13082D01*
X383394Y12985D01*
X383339Y12915D01*
X383283Y12874D01*
X383255Y12846D01*
X383241Y12832D01*
X383047Y12680D01*
X382839Y12555D01*
X382617Y12444D01*
X382382Y12347D01*
X382160Y12277D01*
X381924Y12208D01*
X381466Y12111D01*
X381258Y12069D01*
X381064Y12042D01*
X380898Y12028D01*
X380745Y12014D01*
X380620Y12000D01*
X380440D01*
X379996Y12014D01*
X379594Y12055D01*
X379233Y12111D01*
X379081Y12139D01*
X378928Y12180D01*
X378803Y12208D01*
X378693Y12236D01*
X378596Y12263D01*
X378512Y12291D01*
X378443Y12319D01*
X378401Y12333D01*
X378374Y12347D01*
X378360D01*
X378055Y12499D01*
X377805Y12666D01*
X377569Y12832D01*
X377389Y13012D01*
X377250Y13165D01*
X377139Y13304D01*
X377084Y13387D01*
X377056Y13401D01*
Y13415D01*
X376903Y13692D01*
X376779Y13955D01*
X376696Y14219D01*
X376640Y14469D01*
X376612Y14663D01*
X376598Y14760D01*
X376585Y14829D01*
Y14885D01*
Y14926D01*
Y14954D01*
Y14968D01*
X376598Y15301D01*
X376640Y15592D01*
X376709Y15855D01*
X376779Y16077D01*
X376848Y16258D01*
X376917Y16382D01*
X376959Y16466D01*
X376973Y16493D01*
X377125Y16715D01*
X377306Y16909D01*
X377486Y17076D01*
X377652Y17214D01*
X377805Y17326D01*
X377930Y17409D01*
X378013Y17464D01*
X378027Y17478D01*
X378041D01*
X378179Y17547D01*
X378318Y17617D01*
X378651Y17742D01*
X378998Y17852D01*
X379330Y17963D01*
X379483Y18005D01*
X379636Y18047D01*
X379774Y18088D01*
X379885Y18116D01*
X379982Y18144D01*
X380052Y18158D01*
X380107Y18171D01*
X380121D01*
X380371Y18241D01*
X380592Y18296D01*
X380801Y18352D01*
X380995Y18407D01*
X381147Y18463D01*
X381300Y18518D01*
X381425Y18574D01*
X381536Y18615D01*
X381633Y18657D01*
X381702Y18698D01*
X381771Y18726D01*
X381813Y18754D01*
X381882Y18795D01*
X381896Y18809D01*
X381993Y18907D01*
X382063Y19003D01*
X382104Y19101D01*
X382132Y19198D01*
X382160Y19267D01*
X382174Y19336D01*
Y19378D01*
Y19392D01*
X382160Y19531D01*
X382132Y19641D01*
X382076Y19752D01*
X382021Y19836D01*
X381965Y19905D01*
X381910Y19947D01*
X381882Y19974D01*
X381868Y19988D01*
X381674Y20113D01*
X381466Y20196D01*
X381244Y20266D01*
X381036Y20307D01*
X380856Y20335D01*
X380704Y20349D01*
X380565D01*
X380274Y20335D01*
X380024Y20293D01*
X379816Y20238D01*
X379650Y20182D01*
X379511Y20127D01*
X379414Y20071D01*
X379358Y20030D01*
X379344Y20016D01*
X379206Y19877D01*
X379081Y19711D01*
X378984Y19544D01*
X378914Y19364D01*
X378859Y19212D01*
X378831Y19087D01*
X378803Y18990D01*
Y18976D01*
Y18962D01*
X376862Y19031D01*
X376876Y19281D01*
X376917Y19503D01*
X376973Y19725D01*
X377042Y19919D01*
X377112Y20113D01*
X377195Y20293D01*
X377278Y20446D01*
X377361Y20598D01*
X377458Y20723D01*
X377542Y20834D01*
X377625Y20931D01*
X377694Y21014D01*
X377749Y21070D01*
X377791Y21112D01*
X377819Y21139D01*
X377833Y21153D01*
X378013Y21292D01*
X378207Y21417D01*
X378415Y21528D01*
X378637Y21625D01*
X378859Y21694D01*
X379081Y21763D01*
X379525Y21860D01*
X379733Y21888D01*
X379913Y21916D01*
X380093Y21930D01*
X380246Y21944D01*
X380371Y21957D01*
X380537D01*
X380939Y21944D01*
D02*
G37*
%LPC*%
G36*
X826162Y449236D02*
X819706D01*
Y447954D01*
X819720Y447770D01*
Y447601D01*
X819734Y447460D01*
Y447333D01*
X819748Y447206D01*
Y447108D01*
X819776Y446953D01*
X819790Y446840D01*
X819804Y446769D01*
Y446755D01*
X819861Y446558D01*
X819931Y446389D01*
X820002Y446234D01*
X820086Y446093D01*
X820157Y445994D01*
X820213Y445910D01*
X820255Y445867D01*
X820269Y445853D01*
X820410Y445726D01*
X820565Y445614D01*
X820721Y445515D01*
X820862Y445430D01*
X821003Y445374D01*
X821115Y445331D01*
X821186Y445303D01*
X821200Y445289D01*
X821214D01*
X821468Y445219D01*
X821736Y445162D01*
X822032Y445134D01*
X822314Y445106D01*
X822553Y445092D01*
X822666Y445078D01*
X822765D01*
X822835D01*
X822891D01*
X822934D01*
X822948D01*
X823343Y445092D01*
X823709Y445106D01*
X824005Y445148D01*
X824259Y445177D01*
X824470Y445219D01*
X824555Y445233D01*
X824611Y445261D01*
X824668Y445275D01*
X824710D01*
X824724Y445289D01*
X824738D01*
X824964Y445374D01*
X825161Y445444D01*
X825316Y445543D01*
X825443Y445614D01*
X825542Y445684D01*
X825612Y445740D01*
X825655Y445783D01*
X825669Y445797D01*
X825767Y445924D01*
X825852Y446050D01*
X825922Y446177D01*
X825979Y446304D01*
X826021Y446417D01*
X826049Y446502D01*
X826077Y446558D01*
Y446586D01*
X826106Y446741D01*
X826120Y446925D01*
X826148Y447122D01*
Y447319D01*
X826162Y447503D01*
Y449236D01*
D02*
G37*
G36*
X838714Y446579D02*
X835091Y445254D01*
X838714Y443887D01*
Y446579D01*
D02*
G37*
G36*
X823681Y439989D02*
X823413Y439975D01*
X823174Y439932D01*
X822962Y439876D01*
X822793Y439791D01*
X822652Y439721D01*
X822553Y439650D01*
X822483Y439608D01*
X822469Y439594D01*
X822314Y439439D01*
X822201Y439270D01*
X822130Y439101D01*
X822074Y438946D01*
X822046Y438805D01*
X822018Y438692D01*
Y438593D01*
X822032Y438382D01*
X822088Y438198D01*
X822159Y438029D01*
X822229Y437888D01*
X822314Y437775D01*
X822384Y437691D01*
X822440Y437635D01*
X822455Y437621D01*
X822624Y437494D01*
X822821Y437381D01*
X823033Y437310D01*
X823230Y437254D01*
X823399Y437226D01*
X823554Y437212D01*
X823611Y437198D01*
X823639D01*
X823667D01*
X823681D01*
Y439989D01*
D02*
G37*
G36*
X840927Y437247D02*
X834471D01*
Y435964D01*
X834485Y435781D01*
Y435612D01*
X834499Y435471D01*
Y435344D01*
X834513Y435217D01*
Y435118D01*
X834541Y434963D01*
X834555Y434850D01*
X834569Y434780D01*
Y434766D01*
X834626Y434568D01*
X834696Y434399D01*
X834767Y434244D01*
X834851Y434103D01*
X834922Y434005D01*
X834978Y433920D01*
X835021Y433878D01*
X835035Y433864D01*
X835176Y433737D01*
X835331Y433624D01*
X835486Y433525D01*
X835627Y433441D01*
X835768Y433384D01*
X835881Y433342D01*
X835951Y433314D01*
X835965Y433300D01*
X835979D01*
X836233Y433229D01*
X836501Y433173D01*
X836797Y433145D01*
X837079Y433116D01*
X837318Y433102D01*
X837431Y433088D01*
X837530D01*
X837600D01*
X837657D01*
X837699D01*
X837713D01*
X838108Y433102D01*
X838474Y433116D01*
X838770Y433159D01*
X839024Y433187D01*
X839236Y433229D01*
X839320Y433243D01*
X839377Y433271D01*
X839433Y433286D01*
X839475D01*
X839489Y433300D01*
X839503D01*
X839729Y433384D01*
X839926Y433455D01*
X840081Y433554D01*
X840208Y433624D01*
X840307Y433694D01*
X840377Y433751D01*
X840420Y433793D01*
X840434Y433807D01*
X840533Y433934D01*
X840617Y434061D01*
X840688Y434188D01*
X840744Y434315D01*
X840786Y434427D01*
X840814Y434512D01*
X840843Y434568D01*
Y434597D01*
X840871Y434752D01*
X840885Y434935D01*
X840913Y435132D01*
Y435330D01*
X840927Y435513D01*
Y437247D01*
D02*
G37*
G36*
X824259Y420930D02*
X824188D01*
X824160D01*
X824146D01*
X823765Y420915D01*
X823441Y420859D01*
X823174Y420789D01*
X822948Y420718D01*
X822779Y420634D01*
X822652Y420577D01*
X822581Y420521D01*
X822553Y420507D01*
X822370Y420337D01*
X822243Y420154D01*
X822144Y419957D01*
X822088Y419788D01*
X822046Y419633D01*
X822032Y419506D01*
X822018Y419421D01*
Y419393D01*
X822046Y419139D01*
X822102Y418928D01*
X822187Y418731D01*
X822285Y418561D01*
X822384Y418434D01*
X822469Y418336D01*
X822525Y418265D01*
X822553Y418251D01*
X822779Y418096D01*
X823033Y417983D01*
X823300Y417913D01*
X823568Y417856D01*
X823808Y417828D01*
X823921Y417814D01*
X824005Y417800D01*
X824090D01*
X824146D01*
X824174D01*
X824188D01*
X824555Y417814D01*
X824879Y417871D01*
X825147Y417955D01*
X825373Y418040D01*
X825542Y418124D01*
X825669Y418209D01*
X825739Y418265D01*
X825767Y418279D01*
X825951Y418463D01*
X826077Y418660D01*
X826176Y418843D01*
X826233Y419026D01*
X826275Y419196D01*
X826289Y419323D01*
X826303Y419407D01*
Y419435D01*
X826275Y419661D01*
X826218Y419872D01*
X826134Y420056D01*
X826035Y420211D01*
X825951Y420337D01*
X825866Y420422D01*
X825810Y420493D01*
X825781Y420507D01*
X825556Y420648D01*
X825302Y420746D01*
X825034Y420831D01*
X824766Y420873D01*
X824527Y420901D01*
X824414Y420915D01*
X824329D01*
X824259Y420930D01*
D02*
G37*
G36*
X823681Y404366D02*
X823413Y404352D01*
X823174Y404309D01*
X822962Y404253D01*
X822793Y404168D01*
X822652Y404098D01*
X822553Y404027D01*
X822483Y403985D01*
X822469Y403971D01*
X822314Y403816D01*
X822201Y403647D01*
X822130Y403478D01*
X822074Y403322D01*
X822046Y403181D01*
X822018Y403069D01*
Y402970D01*
X822032Y402759D01*
X822088Y402575D01*
X822159Y402406D01*
X822229Y402265D01*
X822314Y402152D01*
X822384Y402068D01*
X822440Y402011D01*
X822455Y401997D01*
X822624Y401870D01*
X822821Y401758D01*
X823033Y401687D01*
X823230Y401631D01*
X823399Y401603D01*
X823554Y401589D01*
X823611Y401574D01*
X823639D01*
X823667D01*
X823681D01*
Y404366D01*
D02*
G37*
G36*
X824315Y396683D02*
X824245D01*
X824174D01*
X824146D01*
X824132D01*
X823765Y396669D01*
X823441Y396612D01*
X823174Y396542D01*
X822948Y396457D01*
X822779Y396387D01*
X822652Y396316D01*
X822581Y396260D01*
X822553Y396246D01*
X822370Y396063D01*
X822243Y395879D01*
X822144Y395696D01*
X822088Y395513D01*
X822046Y395372D01*
X822032Y395245D01*
X822018Y395160D01*
Y395132D01*
X822046Y394893D01*
X822102Y394667D01*
X822187Y394484D01*
X822285Y394314D01*
X822384Y394188D01*
X822469Y394103D01*
X822525Y394033D01*
X822553Y394018D01*
X822666Y393934D01*
X822779Y393863D01*
X823061Y393751D01*
X823343Y393680D01*
X823639Y393624D01*
X823892Y393596D01*
X824019Y393581D01*
X824118Y393567D01*
X824202D01*
X824259D01*
X824301D01*
X824315D01*
X824696Y393581D01*
X825034Y393638D01*
X825316Y393708D01*
X825542Y393793D01*
X825725Y393877D01*
X825852Y393948D01*
X825922Y394004D01*
X825951Y394018D01*
X826134Y394202D01*
X826261Y394385D01*
X826359Y394568D01*
X826416Y394737D01*
X826458Y394893D01*
X826472Y395005D01*
X826486Y395090D01*
Y395118D01*
X826472Y395259D01*
X826458Y395400D01*
X826374Y395654D01*
X826261Y395865D01*
X826120Y396048D01*
X825993Y396189D01*
X825880Y396288D01*
X825796Y396344D01*
X825781Y396373D01*
X825767D01*
X825669Y396429D01*
X825556Y396471D01*
X825302Y396556D01*
X825020Y396612D01*
X824752Y396641D01*
X824513Y396669D01*
X824414D01*
X824315Y396683D01*
D02*
G37*
G36*
Y384291D02*
X824231D01*
X824174D01*
X824146D01*
X824132D01*
X823751Y384277D01*
X823427Y384221D01*
X823159Y384151D01*
X822934Y384066D01*
X822765Y383996D01*
X822638Y383925D01*
X822567Y383869D01*
X822539Y383854D01*
X822370Y383671D01*
X822243Y383488D01*
X822144Y383291D01*
X822088Y383107D01*
X822046Y382952D01*
X822032Y382825D01*
X822018Y382741D01*
Y382713D01*
X822046Y382459D01*
X822102Y382247D01*
X822187Y382050D01*
X822285Y381895D01*
X822384Y381754D01*
X822469Y381670D01*
X822525Y381599D01*
X822553Y381585D01*
X822666Y381500D01*
X822779Y381430D01*
X823047Y381317D01*
X823343Y381247D01*
X823625Y381190D01*
X823892Y381162D01*
X824005Y381148D01*
X824104Y381134D01*
X824188D01*
X824245D01*
X824287D01*
X824301D01*
X824513D01*
X824696Y381148D01*
X824879Y381176D01*
X825048Y381204D01*
X825330Y381275D01*
X825556Y381359D01*
X825739Y381444D01*
X825866Y381514D01*
X825937Y381571D01*
X825965Y381585D01*
X826134Y381754D01*
X826261Y381937D01*
X826359Y382107D01*
X826416Y382276D01*
X826458Y382417D01*
X826472Y382543D01*
X826486Y382614D01*
Y382642D01*
X826472Y382797D01*
X826458Y382938D01*
X826374Y383192D01*
X826261Y383418D01*
X826120Y383601D01*
X825979Y383756D01*
X825866Y383869D01*
X825781Y383925D01*
X825767Y383953D01*
X825753D01*
X825528Y384066D01*
X825274Y384151D01*
X825006Y384207D01*
X824752Y384249D01*
X824513Y384277D01*
X824400D01*
X824315Y384291D01*
D02*
G37*
G36*
X836952Y345588D02*
X834471D01*
Y343333D01*
X834485Y343206D01*
Y342896D01*
X834499Y342769D01*
Y342684D01*
X834513Y342642D01*
Y342628D01*
X834555Y342459D01*
X834612Y342304D01*
X834668Y342177D01*
X834739Y342078D01*
X834809Y341993D01*
X834851Y341923D01*
X834894Y341895D01*
X834908Y341881D01*
X835021Y341796D01*
X835162Y341726D01*
X835288Y341683D01*
X835415Y341641D01*
X835528Y341627D01*
X835613Y341613D01*
X835669D01*
X835697D01*
X835852Y341627D01*
X835993Y341641D01*
X836120Y341683D01*
X836233Y341712D01*
X836318Y341754D01*
X836374Y341796D01*
X836416Y341810D01*
X836430Y341824D01*
X836529Y341909D01*
X836613Y341993D01*
X836740Y342177D01*
X836783Y342247D01*
X836811Y342318D01*
X836839Y342360D01*
Y342374D01*
X836853Y342445D01*
X836881Y342557D01*
X836896Y342670D01*
X836910Y342797D01*
X836924Y343093D01*
X836938Y343389D01*
X836952Y343671D01*
Y345588D01*
D02*
G37*
G36*
X823427Y330681D02*
X823286D01*
X823174D01*
X823075D01*
X823018D01*
X823004D01*
X822694D01*
X822398Y330667D01*
X822144D01*
X821891Y330652D01*
X821679Y330638D01*
X821468Y330624D01*
X821299Y330610D01*
X821129Y330582D01*
X820988Y330568D01*
X820876Y330554D01*
X820777Y330540D01*
X820692Y330526D01*
X820636Y330512D01*
X820580D01*
X820565Y330497D01*
X820551D01*
X820354Y330441D01*
X820185Y330370D01*
X820058Y330314D01*
X819945Y330244D01*
X819875Y330187D01*
X819818Y330145D01*
X819790Y330117D01*
X819776Y330103D01*
X819706Y330004D01*
X819649Y329891D01*
X819607Y329793D01*
X819579Y329694D01*
X819565Y329623D01*
X819550Y329553D01*
Y329496D01*
X819565Y329370D01*
X819579Y329257D01*
X819621Y329158D01*
X819663Y329074D01*
X819706Y329003D01*
X819734Y328947D01*
X819762Y328918D01*
X819776Y328904D01*
X819875Y328820D01*
X820002Y328735D01*
X820143Y328665D01*
X820284Y328594D01*
X820424Y328552D01*
X820537Y328510D01*
X820608Y328496D01*
X820622Y328481D01*
X820636D01*
X820763Y328453D01*
X820918Y328425D01*
X821101Y328397D01*
X821284Y328369D01*
X821665Y328340D01*
X822060Y328326D01*
X822243Y328312D01*
X822426D01*
X822581Y328298D01*
X822722D01*
X822835D01*
X822934D01*
X822990D01*
X823004D01*
X823314D01*
X823611Y328312D01*
X823878D01*
X824118Y328326D01*
X824343Y328340D01*
X824541Y328355D01*
X824724Y328383D01*
X824879Y328397D01*
X825020Y328411D01*
X825133Y328439D01*
X825232Y328453D01*
X825316Y328467D01*
X825373Y328481D01*
X825429D01*
X825443Y328496D01*
X825457D01*
X825655Y328552D01*
X825810Y328623D01*
X825951Y328693D01*
X826049Y328749D01*
X826134Y328806D01*
X826190Y328862D01*
X826218Y328890D01*
X826233Y328904D01*
X826303Y329003D01*
X826359Y329102D01*
X826388Y329200D01*
X826416Y329299D01*
X826430Y329370D01*
X826444Y329440D01*
Y329496D01*
X826430Y329623D01*
X826416Y329736D01*
X826374Y329835D01*
X826331Y329919D01*
X826303Y329990D01*
X826261Y330046D01*
X826247Y330074D01*
X826233Y330089D01*
X826134Y330173D01*
X826007Y330258D01*
X825866Y330328D01*
X825725Y330399D01*
X825598Y330441D01*
X825485Y330483D01*
X825415Y330497D01*
X825387Y330512D01*
X825246Y330540D01*
X825091Y330568D01*
X824921Y330596D01*
X824738Y330610D01*
X824343Y330638D01*
X823949Y330652D01*
X823765Y330667D01*
X823582D01*
X823427Y330681D01*
D02*
G37*
G36*
X838714Y326910D02*
X835091Y325585D01*
X838714Y324217D01*
Y326910D01*
D02*
G37*
G36*
X824217Y316076D02*
X820862Y313806D01*
X824217D01*
Y316076D01*
D02*
G37*
G36*
X840927Y307738D02*
X834471D01*
Y306455D01*
X834485Y306272D01*
Y306103D01*
X834499Y305961D01*
Y305835D01*
X834513Y305708D01*
Y305609D01*
X834541Y305454D01*
X834555Y305341D01*
X834569Y305271D01*
Y305257D01*
X834626Y305059D01*
X834696Y304890D01*
X834767Y304735D01*
X834851Y304594D01*
X834922Y304496D01*
X834978Y304411D01*
X835021Y304369D01*
X835035Y304354D01*
X835176Y304228D01*
X835331Y304115D01*
X835486Y304016D01*
X835627Y303932D01*
X835768Y303875D01*
X835881Y303833D01*
X835951Y303805D01*
X835965Y303791D01*
X835979D01*
X836233Y303720D01*
X836501Y303664D01*
X836797Y303636D01*
X837079Y303607D01*
X837318Y303593D01*
X837431Y303579D01*
X837530D01*
X837600D01*
X837657D01*
X837699D01*
X837713D01*
X838108Y303593D01*
X838474Y303607D01*
X838770Y303650D01*
X839024Y303678D01*
X839236Y303720D01*
X839320Y303734D01*
X839377Y303762D01*
X839433Y303776D01*
X839475D01*
X839489Y303791D01*
X839503D01*
X839729Y303875D01*
X839926Y303946D01*
X840081Y304044D01*
X840208Y304115D01*
X840307Y304185D01*
X840377Y304242D01*
X840420Y304284D01*
X840434Y304298D01*
X840533Y304425D01*
X840617Y304552D01*
X840688Y304679D01*
X840744Y304806D01*
X840786Y304918D01*
X840814Y305003D01*
X840843Y305059D01*
Y305088D01*
X840871Y305243D01*
X840885Y305426D01*
X840913Y305623D01*
Y305821D01*
X840927Y306004D01*
Y307738D01*
D02*
G37*
G36*
X838187Y157026D02*
X835706D01*
Y154771D01*
X835720Y154644D01*
Y154334D01*
X835734Y154207D01*
Y154122D01*
X835748Y154080D01*
Y154066D01*
X835790Y153897D01*
X835847Y153742D01*
X835903Y153615D01*
X835974Y153516D01*
X836044Y153432D01*
X836086Y153361D01*
X836129Y153333D01*
X836143Y153319D01*
X836255Y153234D01*
X836396Y153164D01*
X836523Y153122D01*
X836650Y153079D01*
X836763Y153065D01*
X836848Y153051D01*
X836904D01*
X836932D01*
X837087Y153065D01*
X837228Y153079D01*
X837355Y153122D01*
X837468Y153150D01*
X837552Y153192D01*
X837609Y153234D01*
X837651Y153248D01*
X837665Y153263D01*
X837764Y153347D01*
X837849Y153432D01*
X837975Y153615D01*
X838018Y153685D01*
X838046Y153756D01*
X838074Y153798D01*
Y153812D01*
X838088Y153883D01*
X838116Y153996D01*
X838130Y154108D01*
X838145Y154235D01*
X838159Y154531D01*
X838173Y154827D01*
X838187Y155109D01*
Y157026D01*
D02*
G37*
G36*
X839681Y147779D02*
X839413Y147765D01*
X839174Y147722D01*
X838962Y147666D01*
X838793Y147581D01*
X838652Y147511D01*
X838553Y147441D01*
X838483Y147398D01*
X838469Y147384D01*
X838314Y147229D01*
X838201Y147060D01*
X838130Y146891D01*
X838074Y146736D01*
X838046Y146595D01*
X838018Y146482D01*
Y146383D01*
X838032Y146172D01*
X838088Y145989D01*
X838159Y145819D01*
X838229Y145678D01*
X838314Y145566D01*
X838384Y145481D01*
X838441Y145425D01*
X838455Y145410D01*
X838624Y145284D01*
X838821Y145171D01*
X839033Y145100D01*
X839230Y145044D01*
X839399Y145016D01*
X839554Y145002D01*
X839611Y144988D01*
X839639D01*
X839667D01*
X839681D01*
Y147779D01*
D02*
G37*
G36*
X840372Y117358D02*
X840315D01*
X840287D01*
X840273D01*
X839907Y117329D01*
X839582Y117273D01*
X839301Y117202D01*
X839075Y117104D01*
X838906Y117019D01*
X838765Y116935D01*
X838694Y116878D01*
X838666Y116864D01*
X838483Y116667D01*
X838342Y116455D01*
X838243Y116244D01*
X838173Y116046D01*
X838130Y115877D01*
X838116Y115750D01*
X838102Y115694D01*
Y115624D01*
X838130Y115356D01*
X838187Y115116D01*
X838286Y114919D01*
X838384Y114735D01*
X838483Y114594D01*
X838581Y114482D01*
X838638Y114425D01*
X838666Y114397D01*
X838892Y114228D01*
X839159Y114101D01*
X839427Y114017D01*
X839681Y113946D01*
X839907Y113918D01*
X840019Y113904D01*
X840104D01*
X840174Y113890D01*
X840231D01*
X840259D01*
X840273D01*
X840640Y113918D01*
X840978Y113974D01*
X841246Y114045D01*
X841486Y114143D01*
X841655Y114242D01*
X841796Y114312D01*
X841866Y114369D01*
X841894Y114397D01*
X842078Y114594D01*
X842219Y114792D01*
X842303Y115003D01*
X842374Y115201D01*
X842416Y115370D01*
X842430Y115497D01*
X842444Y115553D01*
Y115624D01*
X842416Y115891D01*
X842359Y116131D01*
X842275Y116342D01*
X842162Y116512D01*
X842064Y116667D01*
X841979Y116779D01*
X841923Y116836D01*
X841894Y116864D01*
X841669Y117033D01*
X841401Y117146D01*
X841133Y117231D01*
X840865Y117301D01*
X840640Y117329D01*
X840541Y117343D01*
X840442D01*
X840372Y117358D01*
D02*
G37*
G36*
X837933Y85019D02*
X835678D01*
Y83060D01*
X835692Y82904D01*
Y82538D01*
X835706Y82453D01*
Y82298D01*
X835720Y82242D01*
Y82228D01*
X835748Y82059D01*
X835790Y81903D01*
X835847Y81777D01*
X835903Y81664D01*
X835959Y81593D01*
X836016Y81523D01*
X836044Y81495D01*
X836058Y81481D01*
X836171Y81396D01*
X836298Y81340D01*
X836411Y81283D01*
X836523Y81255D01*
X836636Y81241D01*
X836721Y81227D01*
X836777D01*
X836791D01*
X836960Y81241D01*
X837115Y81269D01*
X837242Y81326D01*
X837355Y81368D01*
X837454Y81424D01*
X837510Y81481D01*
X837552Y81509D01*
X837567Y81523D01*
X837665Y81636D01*
X837736Y81763D01*
X837792Y81889D01*
X837834Y82016D01*
X837877Y82143D01*
X837891Y82228D01*
X837905Y82284D01*
Y82369D01*
X837919Y82453D01*
Y82890D01*
X837933Y83130D01*
Y85019D01*
D02*
G37*
G36*
X842162D02*
X839554D01*
Y82975D01*
X839568Y82778D01*
X839582Y82608D01*
Y82439D01*
X839596Y82298D01*
X839611Y82171D01*
X839625Y82073D01*
X839639Y81974D01*
X839653Y81903D01*
X839667Y81791D01*
X839695Y81720D01*
Y81706D01*
X839752Y81565D01*
X839822Y81438D01*
X839893Y81326D01*
X839977Y81241D01*
X840033Y81171D01*
X840090Y81128D01*
X840132Y81100D01*
X840146Y81086D01*
X840273Y81015D01*
X840400Y80959D01*
X840513Y80917D01*
X840640Y80889D01*
X840738Y80874D01*
X840823Y80860D01*
X840879D01*
X840893D01*
X841077Y80874D01*
X841246Y80903D01*
X841387Y80945D01*
X841500Y81001D01*
X841598Y81058D01*
X841669Y81100D01*
X841711Y81128D01*
X841725Y81142D01*
X841824Y81255D01*
X841908Y81368D01*
X841979Y81495D01*
X842035Y81608D01*
X842064Y81706D01*
X842092Y81791D01*
X842106Y81847D01*
Y81861D01*
X842120Y81918D01*
Y82002D01*
X842134Y82185D01*
X842148Y82411D01*
Y82637D01*
X842162Y82848D01*
Y85019D01*
D02*
G37*
G36*
X808459Y428712D02*
D01*
X788903Y424648D01*
Y421065D01*
X790398Y421347D01*
X790342Y421290D01*
X790229Y421149D01*
X790060Y420924D01*
X789862Y420641D01*
X789637Y420303D01*
X789411Y419936D01*
X789185Y419569D01*
X789016Y419174D01*
X788987Y419117D01*
X788959Y419005D01*
X788875Y418779D01*
X788790Y418525D01*
X788734Y418186D01*
X788649Y417819D01*
X788621Y417396D01*
X788592Y416973D01*
Y428712D01*
D01*
Y416747D01*
X788621Y416606D01*
X788649Y416408D01*
X788677Y416183D01*
X788790Y415675D01*
X788959Y415110D01*
X789241Y414518D01*
X789411Y414235D01*
X789637Y413925D01*
X789862Y413643D01*
X790144Y413389D01*
X790173Y413361D01*
X790201Y413332D01*
X790314Y413248D01*
X790427Y413163D01*
X790596Y413078D01*
X790794Y412937D01*
X791019Y412825D01*
X791273Y412683D01*
X791584Y412570D01*
X791922Y412429D01*
X792317Y412317D01*
X792712Y412232D01*
X793164Y412119D01*
X793644Y412063D01*
X794152Y412034D01*
X794716Y412006D01*
X788592D01*
D01*
X808459D01*
D01*
X794885D01*
X795083Y412034D01*
X795365D01*
X795675Y412091D01*
X796070Y412119D01*
X796494Y412204D01*
X796973Y412288D01*
X797453Y412429D01*
X797989Y412570D01*
X798526Y412768D01*
X799062Y412994D01*
X799626Y413276D01*
X800162Y413586D01*
X800698Y413953D01*
X801206Y414377D01*
X801235Y414405D01*
X801291Y414461D01*
X801404Y414574D01*
X801545Y414743D01*
X801714Y414913D01*
X801912Y415167D01*
X802110Y415421D01*
X802307Y415731D01*
X802533Y416070D01*
X802730Y416408D01*
X802928Y416803D01*
X803097Y417227D01*
X803238Y417678D01*
X803351Y418158D01*
X803408Y418638D01*
X803436Y419146D01*
Y419258D01*
X803408Y419428D01*
Y419597D01*
X803379Y419851D01*
X803323Y420105D01*
X803238Y420415D01*
X803154Y420726D01*
X803041Y421093D01*
X802871Y421431D01*
X802702Y421798D01*
X802476Y422137D01*
X802222Y422504D01*
X801912Y422842D01*
X801573Y423153D01*
X801178Y423435D01*
X808459Y424931D01*
Y428712D01*
D02*
G37*
G36*
X803069Y410765D02*
D01*
X788903Y407801D01*
Y403992D01*
X803069Y406983D01*
Y402891D01*
X783541D01*
X786984Y403597D01*
Y407406D01*
X783541Y406673D01*
Y410765D01*
Y402891D01*
X803069D01*
Y410765D01*
D02*
G37*
G36*
X797397Y395046D02*
X797171D01*
X797002Y395018D01*
X796804D01*
X796550Y394990D01*
X796296Y394962D01*
X795986Y394933D01*
X795309Y394821D01*
X794575Y394651D01*
X793813Y394397D01*
X793023Y394087D01*
X792995D01*
X792938Y394030D01*
X792825Y393974D01*
X792684Y393918D01*
X792515Y393805D01*
X792317Y393692D01*
X791838Y393353D01*
X791330Y392958D01*
X790794Y392478D01*
X790257Y391886D01*
X789778Y391208D01*
X789749Y391180D01*
X789721Y391124D01*
X789665Y391011D01*
X789580Y390870D01*
X789495Y390672D01*
X789411Y390475D01*
X789298Y390221D01*
X789185Y389939D01*
X788959Y389318D01*
X788790Y388612D01*
X788649Y387822D01*
X788592Y386976D01*
Y395046D01*
D01*
Y381275D01*
X803436D01*
D01*
X793390D01*
X793756Y384916D01*
X793700D01*
X793559Y384944D01*
X793362Y385000D01*
X793079Y385057D01*
X792797Y385169D01*
X792515Y385282D01*
X792233Y385452D01*
X792007Y385649D01*
X791979Y385677D01*
X791922Y385762D01*
X791809Y385875D01*
X791696Y386073D01*
X791612Y386298D01*
X791499Y386552D01*
X791442Y386863D01*
X791414Y387201D01*
Y387399D01*
X791471Y387596D01*
X791527Y387878D01*
X791612Y388189D01*
X791781Y388528D01*
X791979Y388894D01*
X792261Y389261D01*
X792289Y389290D01*
X792402Y389431D01*
X792599Y389600D01*
X792882Y389798D01*
X793220Y390051D01*
X793644Y390277D01*
X794152Y390531D01*
X794744Y390729D01*
X794772D01*
X794829Y390757D01*
X794913Y390785D01*
X795026Y390813D01*
X795337Y390898D01*
X795732Y390983D01*
X796212Y391067D01*
X796748Y391152D01*
X797284Y391208D01*
X797848Y391237D01*
X797905D01*
X798046D01*
X798272Y391208D01*
X798554Y391152D01*
X798864Y391096D01*
X799175Y390983D01*
X799485Y390842D01*
X799767Y390644D01*
X799796Y390616D01*
X799880Y390531D01*
X799993Y390390D01*
X800106Y390221D01*
X800219Y389995D01*
X800332Y389713D01*
X800416Y389431D01*
X800444Y389092D01*
Y388923D01*
X800416Y388753D01*
X800360Y388528D01*
X800275Y388274D01*
X800162Y387963D01*
X800021Y387653D01*
X799796Y387342D01*
X799767Y387314D01*
X799654Y387201D01*
X799513Y387032D01*
X799287Y386834D01*
X799005Y386637D01*
X798667Y386411D01*
X798272Y386185D01*
X797792Y385988D01*
X798413Y382263D01*
X798441D01*
X798526Y382319D01*
X798639Y382347D01*
X798808Y382432D01*
X799034Y382545D01*
X799259Y382658D01*
X799796Y382940D01*
X800416Y383335D01*
X801037Y383815D01*
X801630Y384351D01*
X802166Y385000D01*
Y385028D01*
X802222Y385085D01*
X802279Y385169D01*
X802363Y385311D01*
X802448Y385480D01*
X802561Y385706D01*
X802674Y385931D01*
X802787Y386185D01*
X803041Y386806D01*
X803238Y387512D01*
X803379Y388302D01*
X803408Y388725D01*
X803436Y389177D01*
Y389431D01*
X803408Y389628D01*
X803379Y389854D01*
X803351Y390108D01*
X803295Y390418D01*
X803238Y390729D01*
X803041Y391406D01*
X802900Y391773D01*
X802758Y392140D01*
X802561Y392478D01*
X802363Y392817D01*
X802110Y393156D01*
X801827Y393466D01*
X801799Y393494D01*
X801743Y393522D01*
X801658Y393607D01*
X801517Y393720D01*
X801376Y393833D01*
X801178Y393974D01*
X800924Y394115D01*
X800670Y394256D01*
X800360Y394397D01*
X800050Y394538D01*
X799683Y394679D01*
X799287Y394792D01*
X798864Y394905D01*
X798384Y394990D01*
X797905Y395018D01*
X797397Y395046D01*
D02*
G37*
G36*
X803069Y380429D02*
D01*
X783541Y376337D01*
Y372555D01*
X803069Y376647D01*
Y372555D01*
X783541D01*
D01*
X803069D01*
Y380429D01*
D02*
G37*
G36*
X797227Y372245D02*
X797058D01*
X796861Y372217D01*
X796579D01*
X796240Y372189D01*
X795873Y372132D01*
X795422Y372048D01*
X794970Y371963D01*
X794490Y371850D01*
X793982Y371709D01*
X793446Y371539D01*
X792938Y371314D01*
X792402Y371060D01*
X791894Y370778D01*
X791414Y370439D01*
X790963Y370044D01*
X790935Y370016D01*
X790850Y369931D01*
X790737Y369818D01*
X790596Y369649D01*
X790398Y369423D01*
X790201Y369141D01*
X790003Y368830D01*
X789778Y368464D01*
X789552Y368069D01*
X789354Y367645D01*
X789128Y367165D01*
X788959Y366629D01*
X788818Y366093D01*
X788705Y365501D01*
X788621Y364851D01*
X788592Y364202D01*
Y364936D01*
Y363892D01*
X788621Y363694D01*
X788649Y363412D01*
X788677Y363130D01*
X788734Y362791D01*
X788818Y362425D01*
X789016Y361634D01*
X789157Y361239D01*
X789326Y360816D01*
X789524Y360421D01*
X789778Y360026D01*
X790032Y359659D01*
X790342Y359320D01*
X790370Y359292D01*
X790427Y359236D01*
X790511Y359151D01*
X790652Y359038D01*
X790822Y358897D01*
X791048Y358756D01*
X791273Y358587D01*
X791555Y358418D01*
X791894Y358276D01*
X792233Y358107D01*
X792628Y357966D01*
X793023Y357825D01*
X793474Y357712D01*
X793954Y357627D01*
X794462Y357571D01*
X794998Y357543D01*
X788592D01*
D01*
X803436D01*
Y365980D01*
X803408Y366150D01*
X803379Y366347D01*
X803323Y366827D01*
X803238Y367391D01*
X803097Y367984D01*
X802900Y368605D01*
X802646Y369197D01*
Y369226D01*
X802617Y369254D01*
X802561Y369338D01*
X802505Y369451D01*
X802307Y369734D01*
X802053Y370072D01*
X801743Y370439D01*
X801348Y370834D01*
X800896Y371201D01*
X800388Y371511D01*
X800360D01*
X800332Y371539D01*
X800247Y371568D01*
X800134Y371624D01*
X799824Y371737D01*
X799429Y371878D01*
X798977Y372019D01*
X798441Y372132D01*
X797848Y372217D01*
X797227Y372245D01*
D02*
G37*
G36*
X803436Y355596D02*
Y349980D01*
X803408Y350177D01*
X803379Y350403D01*
X803351Y350657D01*
X803295Y350968D01*
X803238Y351278D01*
X803041Y351955D01*
X802900Y352322D01*
X802758Y352689D01*
X802561Y353028D01*
X802363Y353366D01*
X802110Y353705D01*
X801827Y354015D01*
X801799Y354044D01*
X801743Y354072D01*
X801658Y354156D01*
X801517Y354269D01*
X801376Y354382D01*
X801178Y354523D01*
X800924Y354664D01*
X800670Y354805D01*
X800360Y354947D01*
X800050Y355088D01*
X799683Y355229D01*
X799287Y355342D01*
X798864Y355454D01*
X798384Y355539D01*
X797905Y355567D01*
X797397Y355596D01*
X797171D01*
X797002Y355567D01*
X796804D01*
X796550Y355539D01*
X796296Y355511D01*
X795986Y355483D01*
X795309Y355370D01*
X794575Y355201D01*
X793813Y354947D01*
X793023Y354636D01*
X792995D01*
X792938Y354580D01*
X792825Y354523D01*
X792684Y354467D01*
X792515Y354354D01*
X792317Y354241D01*
X791838Y353902D01*
X791330Y353507D01*
X790794Y353028D01*
X790257Y352435D01*
X789778Y351758D01*
X789749Y351730D01*
X789721Y351673D01*
X789665Y351560D01*
X789580Y351419D01*
X789495Y351222D01*
X789411Y351024D01*
X789298Y350770D01*
X789185Y350488D01*
X788959Y349867D01*
X788790Y349161D01*
X788649Y348371D01*
X788592Y347525D01*
Y347581D01*
Y347271D01*
X788621Y347102D01*
Y346904D01*
X788649Y346650D01*
X788762Y346086D01*
X788903Y345437D01*
X789157Y344787D01*
X789467Y344110D01*
X789693Y343800D01*
X789919Y343518D01*
X789947Y343489D01*
X789975Y343461D01*
X790060Y343377D01*
X790144Y343292D01*
X790455Y343038D01*
X790850Y342756D01*
X791358Y342445D01*
X791951Y342163D01*
X792628Y341966D01*
X792995Y341881D01*
X793390Y341824D01*
X788592D01*
D01*
X803436D01*
Y355596D01*
D02*
G37*
G36*
X803069Y341034D02*
D01*
X783541Y336942D01*
Y333161D01*
X793728Y335278D01*
X788903Y330255D01*
Y325288D01*
X783541D01*
D01*
X803069D01*
Y341034D01*
D02*
G37*
%LPD*%
G36*
X797623Y422363D02*
X797989Y422306D01*
X798413Y422222D01*
X798864Y422080D01*
X799259Y421883D01*
X799654Y421601D01*
X799683Y421572D01*
X799796Y421460D01*
X799937Y421290D01*
X800106Y421036D01*
X800275Y420754D01*
X800416Y420444D01*
X800529Y420049D01*
X800557Y419654D01*
Y419484D01*
X800529Y419315D01*
X800473Y419061D01*
X800388Y418779D01*
X800275Y418468D01*
X800106Y418158D01*
X799880Y417819D01*
X799852Y417791D01*
X799739Y417678D01*
X799570Y417509D01*
X799344Y417283D01*
X799034Y417057D01*
X798639Y416803D01*
X798159Y416549D01*
X797594Y416324D01*
X797566D01*
X797510Y416296D01*
X797425Y416267D01*
X797312Y416239D01*
X797002Y416126D01*
X796607Y416013D01*
X796155Y415929D01*
X795675Y415816D01*
X795139Y415759D01*
X794631Y415731D01*
X794603D01*
X794575D01*
X794490D01*
X794377D01*
X794095Y415759D01*
X793728Y415816D01*
X793333Y415929D01*
X792938Y416070D01*
X792543Y416267D01*
X792205Y416521D01*
X792176Y416549D01*
X792063Y416662D01*
X791922Y416832D01*
X791753Y417057D01*
X791612Y417340D01*
X791471Y417650D01*
X791358Y418045D01*
X791330Y418468D01*
Y418666D01*
X791358Y418863D01*
X791414Y419146D01*
X791527Y419456D01*
X791668Y419795D01*
X791866Y420133D01*
X792120Y420500D01*
X792148Y420528D01*
X792261Y420641D01*
X792458Y420811D01*
X792712Y421008D01*
X793023Y421234D01*
X793418Y421488D01*
X793869Y421714D01*
X794406Y421911D01*
X794434D01*
X794462Y421939D01*
X794547Y421968D01*
X794660Y421996D01*
X794942Y422080D01*
X795280Y422165D01*
X795704Y422250D01*
X796155Y422334D01*
X796579Y422391D01*
X797030Y422419D01*
X797058D01*
X797115D01*
X797199D01*
X797312D01*
X797623Y422363D01*
D02*
G37*
G36*
X793390Y381275D02*
D01*
D01*
D01*
D02*
G37*
G36*
X788621Y386552D02*
Y386355D01*
X788649Y386101D01*
X788762Y385536D01*
X788903Y384887D01*
X789157Y384238D01*
X789467Y383561D01*
X789693Y383251D01*
X789919Y382968D01*
X789947Y382940D01*
X789975Y382912D01*
X790060Y382827D01*
X790144Y382743D01*
X790455Y382489D01*
X790850Y382206D01*
X791358Y381896D01*
X791951Y381614D01*
X792628Y381416D01*
X792995Y381332D01*
X793390Y381275D01*
X788592D01*
Y386722D01*
X788621Y386552D01*
D02*
G37*
G36*
X797707Y368351D02*
X798046Y368294D01*
X798441Y368210D01*
X798836Y368069D01*
X799231Y367871D01*
X799598Y367589D01*
X799626Y367561D01*
X799739Y367448D01*
X799880Y367250D01*
X800021Y367024D01*
X800191Y366714D01*
X800332Y366375D01*
X800444Y365980D01*
X800473Y365529D01*
Y365388D01*
X800444Y365275D01*
X800388Y364964D01*
X800303Y364598D01*
X800134Y364174D01*
X799908Y363751D01*
X799570Y363299D01*
X799372Y363074D01*
X799146Y362876D01*
X799118Y362848D01*
X799062Y362820D01*
X798949Y362735D01*
X798808Y362650D01*
X798610Y362509D01*
X798384Y362396D01*
X798130Y362255D01*
X797848Y362114D01*
X797510Y361973D01*
X797171Y361832D01*
X796776Y361691D01*
X796381Y361578D01*
X795478Y361409D01*
X794998Y361381D01*
X794490Y361352D01*
X794462D01*
X794434D01*
X794265D01*
X794010Y361381D01*
X793700Y361465D01*
X793362Y361550D01*
X792995Y361691D01*
X792656Y361889D01*
X792317Y362171D01*
X792289Y362199D01*
X792176Y362312D01*
X792035Y362481D01*
X791894Y362707D01*
X791725Y363017D01*
X791612Y363356D01*
X791499Y363751D01*
X791471Y364202D01*
Y364400D01*
X791499Y364654D01*
X791555Y364936D01*
X791668Y365275D01*
X791809Y365642D01*
X792007Y366037D01*
X792261Y366404D01*
X792289Y366432D01*
X792402Y366573D01*
X792571Y366742D01*
X792825Y366940D01*
X793136Y367194D01*
X793531Y367448D01*
X793982Y367673D01*
X794490Y367899D01*
X794519D01*
X794547Y367927D01*
X794631Y367956D01*
X794744Y367984D01*
X795026Y368069D01*
X795365Y368153D01*
X795788Y368238D01*
X796240Y368322D01*
X796720Y368379D01*
X797171Y368407D01*
X797199D01*
X797227D01*
X797312D01*
X797425D01*
X797707Y368351D01*
D02*
G37*
G36*
X803436Y357543D02*
X795337D01*
X795563Y357571D01*
X795873Y357599D01*
X796212Y357656D01*
X796607Y357740D01*
X797030Y357825D01*
X797482Y357938D01*
X797961Y358079D01*
X798469Y358248D01*
X798949Y358474D01*
X799457Y358728D01*
X799965Y359010D01*
X800473Y359349D01*
X800953Y359744D01*
X800981Y359772D01*
X801065Y359857D01*
X801178Y359970D01*
X801348Y360139D01*
X801517Y360365D01*
X801743Y360647D01*
X801968Y360957D01*
X802194Y361296D01*
X802420Y361719D01*
X802646Y362142D01*
X802871Y362622D01*
X803041Y363158D01*
X803210Y363723D01*
X803323Y364315D01*
X803408Y364964D01*
X803436Y365642D01*
Y357543D01*
D02*
G37*
G36*
X798272Y351758D02*
X798554Y351701D01*
X798864Y351645D01*
X799175Y351532D01*
X799485Y351391D01*
X799767Y351193D01*
X799796Y351165D01*
X799880Y351081D01*
X799993Y350939D01*
X800106Y350770D01*
X800219Y350544D01*
X800332Y350262D01*
X800416Y349980D01*
X800444Y349641D01*
Y349472D01*
X800416Y349303D01*
X800360Y349077D01*
X800275Y348823D01*
X800162Y348512D01*
X800021Y348202D01*
X799796Y347892D01*
X799767Y347863D01*
X799654Y347751D01*
X799513Y347581D01*
X799287Y347384D01*
X799005Y347186D01*
X798667Y346960D01*
X798272Y346735D01*
X797792Y346537D01*
X798413Y342812D01*
X798441D01*
X798526Y342869D01*
X798639Y342897D01*
X798808Y342981D01*
X799034Y343094D01*
X799259Y343207D01*
X799796Y343489D01*
X800416Y343885D01*
X801037Y344364D01*
X801630Y344900D01*
X802166Y345549D01*
Y345578D01*
X802222Y345634D01*
X802279Y345719D01*
X802363Y345860D01*
X802448Y346029D01*
X802561Y346255D01*
X802674Y346481D01*
X802787Y346735D01*
X803041Y347355D01*
X803238Y348061D01*
X803379Y348851D01*
X803408Y349274D01*
X803436Y349726D01*
Y341824D01*
X793390D01*
X793756Y345465D01*
X793700D01*
X793559Y345493D01*
X793362Y345549D01*
X793079Y345606D01*
X792797Y345719D01*
X792515Y345832D01*
X792233Y346001D01*
X792007Y346199D01*
X791979Y346227D01*
X791922Y346311D01*
X791809Y346424D01*
X791696Y346622D01*
X791612Y346847D01*
X791499Y347102D01*
X791442Y347412D01*
X791414Y347751D01*
Y347948D01*
X791471Y348146D01*
X791527Y348428D01*
X791612Y348738D01*
X791781Y349077D01*
X791979Y349444D01*
X792261Y349811D01*
X792289Y349839D01*
X792402Y349980D01*
X792599Y350149D01*
X792882Y350347D01*
X793220Y350601D01*
X793644Y350826D01*
X794152Y351081D01*
X794744Y351278D01*
X794772D01*
X794829Y351306D01*
X794913Y351334D01*
X795026Y351363D01*
X795337Y351447D01*
X795732Y351532D01*
X796212Y351617D01*
X796748Y351701D01*
X797284Y351758D01*
X797848Y351786D01*
X797905D01*
X798046D01*
X798272Y351758D01*
D02*
G37*
G36*
X793390Y341824D02*
D01*
D01*
D01*
D02*
G37*
G36*
X803069Y331750D02*
X796494Y333726D01*
X798864Y336350D01*
X803069Y337253D01*
Y331750D01*
D02*
G37*
G36*
Y327912D02*
Y325288D01*
X788903D01*
D01*
D01*
D01*
X794010Y330988D01*
X803069Y327912D01*
D02*
G37*
%LPC*%
G36*
X62618Y137785D02*
X60399D01*
X60274Y137771D01*
X59969D01*
X59844Y137758D01*
X59761D01*
X59719Y137744D01*
X59706D01*
X59539Y137702D01*
X59387Y137647D01*
X59262Y137591D01*
X59165Y137522D01*
X59081Y137452D01*
X59012Y137411D01*
X58984Y137369D01*
X58970Y137355D01*
X58887Y137244D01*
X58818Y137106D01*
X58776Y136981D01*
X58735Y136856D01*
X58721Y136745D01*
X58707Y136662D01*
Y136607D01*
Y136579D01*
X58721Y136426D01*
X58735Y136287D01*
X58776Y136163D01*
X58804Y136052D01*
X58846Y135969D01*
X58887Y135913D01*
X58901Y135871D01*
X58915Y135858D01*
X58998Y135760D01*
X59081Y135677D01*
X59262Y135553D01*
X59331Y135511D01*
X59400Y135483D01*
X59442Y135455D01*
X59456D01*
X59525Y135442D01*
X59636Y135414D01*
X59747Y135400D01*
X59872Y135386D01*
X60163Y135372D01*
X60454Y135358D01*
X60732Y135344D01*
X62618D01*
Y137785D01*
D02*
G37*
G36*
X43757Y126061D02*
X43646D01*
X43424Y126047D01*
X43216Y126019D01*
X43022Y125992D01*
X42842Y125936D01*
X42523Y125797D01*
X42370Y125728D01*
X42245Y125659D01*
X42120Y125576D01*
X42023Y125506D01*
X41940Y125437D01*
X41857Y125367D01*
X41801Y125312D01*
X41760Y125284D01*
X41746Y125257D01*
X41732Y125243D01*
X41607Y125076D01*
X41482Y124896D01*
X41385Y124716D01*
X41302Y124508D01*
X41177Y124092D01*
X41094Y123689D01*
X41052Y123509D01*
X41039Y123329D01*
X41025Y123176D01*
X41011Y123038D01*
X40997Y122913D01*
Y122830D01*
Y122774D01*
Y122760D01*
X41011Y122455D01*
X41025Y122164D01*
X41066Y121900D01*
X41108Y121665D01*
X41164Y121429D01*
X41233Y121221D01*
X41302Y121041D01*
X41371Y120874D01*
X41441Y120722D01*
X41510Y120597D01*
X41566Y120486D01*
X41635Y120389D01*
X41677Y120319D01*
X41718Y120278D01*
X41732Y120250D01*
X41746Y120236D01*
X41885Y120084D01*
X42037Y119959D01*
X42204Y119848D01*
X42356Y119751D01*
X42523Y119682D01*
X42675Y119612D01*
X42980Y119515D01*
X43244Y119446D01*
X43355Y119432D01*
X43452Y119418D01*
X43535Y119404D01*
X43646D01*
X43854Y119418D01*
X44062Y119446D01*
X44256Y119487D01*
X44436Y119543D01*
X44769Y119668D01*
X45033Y119834D01*
X45158Y119903D01*
X45255Y119987D01*
X45352Y120056D01*
X45421Y120125D01*
X45476Y120167D01*
X45518Y120209D01*
X45546Y120236D01*
X45560Y120250D01*
X45685Y120416D01*
X45809Y120597D01*
X45907Y120791D01*
X45990Y120999D01*
X46128Y121401D01*
X46212Y121803D01*
X46239Y121997D01*
X46267Y122164D01*
X46281Y122330D01*
X46295Y122469D01*
X46309Y122580D01*
Y122663D01*
Y122719D01*
Y122732D01*
X46295Y123038D01*
X46281Y123315D01*
X46239Y123579D01*
X46198Y123828D01*
X46142Y124050D01*
X46087Y124258D01*
X46017Y124438D01*
X45948Y124605D01*
X45879Y124757D01*
X45809Y124882D01*
X45754Y124979D01*
X45698Y125076D01*
X45657Y125146D01*
X45615Y125187D01*
X45601Y125215D01*
X45588Y125229D01*
X45449Y125381D01*
X45296Y125506D01*
X45130Y125617D01*
X44977Y125714D01*
X44811Y125797D01*
X44644Y125853D01*
X44339Y125964D01*
X44062Y126019D01*
X43951Y126033D01*
X43840Y126047D01*
X43757Y126061D01*
D02*
G37*
G36*
X59373Y102155D02*
X58111D01*
X57930Y102141D01*
X57764D01*
X57625Y102127D01*
X57500D01*
X57376Y102113D01*
X57278D01*
X57126Y102085D01*
X57015Y102071D01*
X56946Y102058D01*
X56932D01*
X56738Y102002D01*
X56571Y101933D01*
X56419Y101863D01*
X56280Y101780D01*
X56183Y101711D01*
X56100Y101655D01*
X56058Y101614D01*
X56044Y101600D01*
X55919Y101461D01*
X55809Y101309D01*
X55711Y101156D01*
X55628Y101017D01*
X55573Y100879D01*
X55531Y100768D01*
X55503Y100698D01*
X55490Y100685D01*
Y100671D01*
X55420Y100421D01*
X55365Y100158D01*
X55337Y99866D01*
X55309Y99589D01*
X55295Y99353D01*
X55282Y99242D01*
Y99145D01*
Y99076D01*
Y99020D01*
Y98979D01*
Y98965D01*
X55295Y98577D01*
X55309Y98216D01*
X55351Y97925D01*
X55379Y97675D01*
X55420Y97467D01*
X55434Y97384D01*
X55462Y97328D01*
X55476Y97273D01*
Y97231D01*
X55490Y97218D01*
Y97204D01*
X55573Y96982D01*
X55642Y96788D01*
X55739Y96635D01*
X55809Y96510D01*
X55878Y96413D01*
X55933Y96344D01*
X55975Y96302D01*
X55989Y96288D01*
X56114Y96191D01*
X56238Y96108D01*
X56363Y96039D01*
X56488Y95983D01*
X56599Y95942D01*
X56682Y95914D01*
X56738Y95886D01*
X56765D01*
X56918Y95858D01*
X57098Y95844D01*
X57292Y95817D01*
X57487D01*
X57667Y95803D01*
X59373D01*
Y102155D01*
D02*
G37*
G36*
X43757Y102307D02*
X43646D01*
X43424Y102293D01*
X43216Y102266D01*
X43022Y102238D01*
X42842Y102182D01*
X42523Y102044D01*
X42370Y101974D01*
X42245Y101905D01*
X42120Y101822D01*
X42023Y101752D01*
X41940Y101683D01*
X41857Y101614D01*
X41801Y101558D01*
X41760Y101531D01*
X41746Y101503D01*
X41732Y101489D01*
X41607Y101322D01*
X41482Y101142D01*
X41385Y100962D01*
X41302Y100754D01*
X41177Y100338D01*
X41094Y99936D01*
X41052Y99755D01*
X41039Y99575D01*
X41025Y99423D01*
X41011Y99284D01*
X40997Y99159D01*
Y99076D01*
Y99020D01*
Y99007D01*
X41011Y98701D01*
X41025Y98410D01*
X41066Y98147D01*
X41108Y97911D01*
X41164Y97675D01*
X41233Y97467D01*
X41302Y97287D01*
X41371Y97120D01*
X41441Y96968D01*
X41510Y96843D01*
X41566Y96732D01*
X41635Y96635D01*
X41677Y96566D01*
X41718Y96524D01*
X41732Y96496D01*
X41746Y96482D01*
X41885Y96330D01*
X42037Y96205D01*
X42204Y96094D01*
X42356Y95997D01*
X42523Y95928D01*
X42675Y95858D01*
X42980Y95761D01*
X43244Y95692D01*
X43355Y95678D01*
X43452Y95664D01*
X43535Y95650D01*
X43646D01*
X43854Y95664D01*
X44062Y95692D01*
X44256Y95733D01*
X44436Y95789D01*
X44769Y95914D01*
X45033Y96080D01*
X45158Y96150D01*
X45255Y96233D01*
X45352Y96302D01*
X45421Y96371D01*
X45476Y96413D01*
X45518Y96455D01*
X45546Y96482D01*
X45560Y96496D01*
X45685Y96663D01*
X45809Y96843D01*
X45907Y97037D01*
X45990Y97245D01*
X46128Y97647D01*
X46212Y98050D01*
X46239Y98244D01*
X46267Y98410D01*
X46281Y98577D01*
X46295Y98715D01*
X46309Y98826D01*
Y98909D01*
Y98965D01*
Y98979D01*
X46295Y99284D01*
X46281Y99561D01*
X46239Y99825D01*
X46198Y100074D01*
X46142Y100296D01*
X46087Y100504D01*
X46017Y100685D01*
X45948Y100851D01*
X45879Y101004D01*
X45809Y101128D01*
X45754Y101225D01*
X45698Y101322D01*
X45657Y101392D01*
X45615Y101433D01*
X45601Y101461D01*
X45588Y101475D01*
X45449Y101628D01*
X45296Y101752D01*
X45130Y101863D01*
X44977Y101960D01*
X44811Y102044D01*
X44644Y102099D01*
X44339Y102210D01*
X44062Y102266D01*
X43951Y102279D01*
X43840Y102293D01*
X43757Y102307D01*
D02*
G37*
G36*
X58088Y474155D02*
X56826D01*
X56646Y474141D01*
X56480D01*
X56341Y474127D01*
X56216D01*
X56091Y474113D01*
X55994D01*
X55841Y474085D01*
X55731Y474071D01*
X55661Y474058D01*
X55647D01*
X55453Y474002D01*
X55287Y473933D01*
X55134Y473863D01*
X54996Y473780D01*
X54899Y473711D01*
X54815Y473655D01*
X54774Y473614D01*
X54760Y473600D01*
X54635Y473461D01*
X54524Y473309D01*
X54427Y473156D01*
X54344Y473017D01*
X54288Y472879D01*
X54247Y472768D01*
X54219Y472698D01*
X54205Y472685D01*
Y472671D01*
X54136Y472421D01*
X54080Y472158D01*
X54053Y471866D01*
X54025Y471589D01*
X54011Y471353D01*
X53997Y471242D01*
Y471145D01*
Y471076D01*
Y471020D01*
Y470979D01*
Y470965D01*
X54011Y470577D01*
X54025Y470216D01*
X54066Y469925D01*
X54094Y469675D01*
X54136Y469467D01*
X54150Y469384D01*
X54177Y469328D01*
X54191Y469273D01*
Y469231D01*
X54205Y469217D01*
Y469204D01*
X54288Y468982D01*
X54358Y468788D01*
X54455Y468635D01*
X54524Y468510D01*
X54593Y468413D01*
X54649Y468344D01*
X54690Y468302D01*
X54704Y468288D01*
X54829Y468191D01*
X54954Y468108D01*
X55079Y468039D01*
X55204Y467983D01*
X55314Y467942D01*
X55398Y467914D01*
X55453Y467886D01*
X55481D01*
X55634Y467858D01*
X55814Y467845D01*
X56008Y467817D01*
X56202D01*
X56382Y467803D01*
X58088D01*
Y474155D01*
D02*
G37*
G36*
X7176Y474307D02*
X7120D01*
X6996Y474293D01*
X6885Y474279D01*
X6787Y474238D01*
X6704Y474196D01*
X6635Y474155D01*
X6579Y474127D01*
X6552Y474099D01*
X6538Y474085D01*
X6455Y473988D01*
X6371Y473863D01*
X6302Y473725D01*
X6233Y473586D01*
X6191Y473447D01*
X6150Y473336D01*
X6136Y473267D01*
X6122Y473253D01*
Y473239D01*
X6094Y473115D01*
X6066Y472962D01*
X6039Y472782D01*
X6011Y472601D01*
X5983Y472227D01*
X5969Y471839D01*
X5955Y471658D01*
Y471478D01*
X5942Y471325D01*
Y471187D01*
Y471076D01*
Y470979D01*
Y470923D01*
Y470909D01*
Y470604D01*
X5955Y470313D01*
Y470050D01*
X5969Y469814D01*
X5983Y469592D01*
X5997Y469398D01*
X6025Y469217D01*
X6039Y469065D01*
X6053Y468926D01*
X6080Y468815D01*
X6094Y468718D01*
X6108Y468635D01*
X6122Y468579D01*
Y468524D01*
X6136Y468510D01*
Y468496D01*
X6191Y468302D01*
X6260Y468150D01*
X6330Y468011D01*
X6385Y467914D01*
X6441Y467831D01*
X6496Y467775D01*
X6524Y467747D01*
X6538Y467734D01*
X6635Y467664D01*
X6732Y467609D01*
X6829Y467581D01*
X6926Y467553D01*
X6996Y467539D01*
X7065Y467525D01*
X7120D01*
X7245Y467539D01*
X7356Y467553D01*
X7453Y467595D01*
X7536Y467636D01*
X7606Y467664D01*
X7661Y467706D01*
X7689Y467720D01*
X7703Y467734D01*
X7786Y467831D01*
X7869Y467956D01*
X7939Y468094D01*
X8008Y468233D01*
X8050Y468358D01*
X8091Y468469D01*
X8105Y468538D01*
X8119Y468566D01*
X8147Y468704D01*
X8174Y468857D01*
X8202Y469023D01*
X8216Y469204D01*
X8244Y469592D01*
X8258Y469980D01*
X8271Y470160D01*
Y470341D01*
X8285Y470493D01*
Y470632D01*
Y470743D01*
Y470840D01*
Y470896D01*
Y470909D01*
Y471214D01*
X8271Y471506D01*
Y471755D01*
X8258Y472005D01*
X8244Y472213D01*
X8230Y472421D01*
X8216Y472588D01*
X8188Y472754D01*
X8174Y472893D01*
X8160Y473004D01*
X8147Y473101D01*
X8133Y473184D01*
X8119Y473239D01*
Y473295D01*
X8105Y473309D01*
Y473322D01*
X8050Y473517D01*
X7980Y473683D01*
X7925Y473808D01*
X7855Y473919D01*
X7800Y473988D01*
X7758Y474044D01*
X7731Y474071D01*
X7717Y474085D01*
X7620Y474155D01*
X7509Y474210D01*
X7412Y474252D01*
X7315Y474279D01*
X7245Y474293D01*
X7176Y474307D01*
D02*
G37*
G36*
X520671Y421974D02*
X518452D01*
X518327Y421960D01*
X518022D01*
X517898Y421947D01*
X517814D01*
X517773Y421933D01*
X517759D01*
X517593Y421891D01*
X517440Y421836D01*
X517315Y421780D01*
X517218Y421711D01*
X517135Y421642D01*
X517066Y421600D01*
X517038Y421558D01*
X517024Y421544D01*
X516941Y421433D01*
X516871Y421295D01*
X516830Y421170D01*
X516788Y421045D01*
X516774Y420934D01*
X516760Y420851D01*
Y420796D01*
Y420768D01*
X516774Y420615D01*
X516788Y420477D01*
X516830Y420352D01*
X516857Y420241D01*
X516899Y420158D01*
X516941Y420102D01*
X516955Y420061D01*
X516968Y420047D01*
X517052Y419950D01*
X517135Y419866D01*
X517315Y419742D01*
X517384Y419700D01*
X517454Y419672D01*
X517495Y419644D01*
X517509D01*
X517579Y419631D01*
X517690Y419603D01*
X517800Y419589D01*
X517925Y419575D01*
X518217Y419561D01*
X518508Y419547D01*
X518785Y419534D01*
X520671D01*
Y421974D01*
D02*
G37*
G36*
X739548Y42155D02*
X738286D01*
X738106Y42141D01*
X737939D01*
X737801Y42127D01*
X737676D01*
X737551Y42113D01*
X737454D01*
X737301Y42085D01*
X737190Y42071D01*
X737121Y42057D01*
X737107D01*
X736913Y42002D01*
X736747Y41933D01*
X736594Y41863D01*
X736455Y41780D01*
X736358Y41711D01*
X736275Y41655D01*
X736233Y41614D01*
X736219Y41600D01*
X736095Y41461D01*
X735984Y41309D01*
X735887Y41156D01*
X735804Y41017D01*
X735748Y40879D01*
X735706Y40768D01*
X735679Y40698D01*
X735665Y40685D01*
Y40671D01*
X735595Y40421D01*
X735540Y40158D01*
X735512Y39866D01*
X735484Y39589D01*
X735471Y39353D01*
X735457Y39242D01*
Y39145D01*
Y39076D01*
Y39020D01*
Y38979D01*
Y38965D01*
X735471Y38577D01*
X735484Y38216D01*
X735526Y37925D01*
X735554Y37675D01*
X735595Y37467D01*
X735609Y37384D01*
X735637Y37328D01*
X735651Y37273D01*
Y37231D01*
X735665Y37218D01*
Y37204D01*
X735748Y36982D01*
X735817Y36788D01*
X735914Y36635D01*
X735984Y36510D01*
X736053Y36413D01*
X736109Y36344D01*
X736150Y36302D01*
X736164Y36288D01*
X736289Y36191D01*
X736414Y36108D01*
X736538Y36039D01*
X736663Y35983D01*
X736774Y35942D01*
X736858Y35914D01*
X736913Y35886D01*
X736941D01*
X737093Y35858D01*
X737273Y35845D01*
X737468Y35817D01*
X737662D01*
X737842Y35803D01*
X739548D01*
Y42155D01*
D02*
G37*
G36*
X728065Y41544D02*
X726720Y37980D01*
X729369D01*
X728065Y41544D01*
D02*
G37*
G36*
X391618Y20155D02*
X389399D01*
X389274Y20141D01*
X388969D01*
X388844Y20127D01*
X388761D01*
X388719Y20113D01*
X388705D01*
X388539Y20071D01*
X388386Y20016D01*
X388262Y19961D01*
X388165Y19891D01*
X388081Y19822D01*
X388012Y19780D01*
X387984Y19739D01*
X387971Y19725D01*
X387887Y19614D01*
X387818Y19475D01*
X387776Y19350D01*
X387735Y19225D01*
X387721Y19115D01*
X387707Y19031D01*
Y18976D01*
Y18948D01*
X387721Y18795D01*
X387735Y18657D01*
X387776Y18532D01*
X387804Y18421D01*
X387846Y18338D01*
X387887Y18282D01*
X387901Y18241D01*
X387915Y18227D01*
X387998Y18130D01*
X388081Y18047D01*
X388262Y17922D01*
X388331Y17880D01*
X388400Y17852D01*
X388442Y17825D01*
X388456D01*
X388525Y17811D01*
X388636Y17783D01*
X388747Y17769D01*
X388872Y17755D01*
X389163Y17742D01*
X389454Y17728D01*
X389732Y17714D01*
X391618D01*
Y20155D01*
D02*
G37*
%LPD*%
M02*
