G04*
G04 #@! TF.GenerationSoftware,Altium Limited,Altium Designer,23.9.2 (47)*
G04*
G04 Layer_Physical_Order=2*
G04 Layer_Color=36540*
%FSLAX44Y44*%
%MOMM*%
G71*
G04*
G04 #@! TF.SameCoordinates,77EFA038-BFC7-4AA8-AC78-54DD78BCB62B*
G04*
G04*
G04 #@! TF.FilePolarity,Positive*
G04*
G01*
G75*
%ADD13O,3.5000X2.0000*%
%ADD19C,0.3000*%
%ADD20C,0.2000*%
%ADD21C,0.5000*%
%ADD23R,2.0000X2.0000*%
%ADD24C,2.0000*%
%ADD25C,1.4000*%
%ADD26C,0.6000*%
%ADD27C,1.0000*%
G36*
X638942Y557961D02*
X639282Y556691D01*
X636618Y555153D01*
X634197Y552732D01*
X632486Y549768D01*
X631600Y546461D01*
Y543038D01*
X632486Y539732D01*
X634197Y536768D01*
X636618Y534347D01*
X639582Y532636D01*
X642888Y531750D01*
X646311D01*
X649618Y532636D01*
X652582Y534347D01*
X653698Y535463D01*
X654943Y535215D01*
X655051Y534956D01*
X656317Y533690D01*
X657971Y533005D01*
X659761D01*
X661415Y533690D01*
X662681Y534956D01*
X663366Y536610D01*
Y538400D01*
X662681Y540054D01*
X661415Y541320D01*
X659761Y542005D01*
X658638D01*
X657664Y542975D01*
X657600Y543178D01*
Y546461D01*
X656714Y549768D01*
X655003Y552732D01*
X652582Y555153D01*
X649918Y556691D01*
X650258Y557961D01*
X696092D01*
X696432Y556691D01*
X693768Y555153D01*
X691347Y552732D01*
X689636Y549768D01*
X688750Y546461D01*
Y543038D01*
X689636Y539732D01*
X691347Y536768D01*
X693768Y534347D01*
X696732Y532636D01*
X700039Y531750D01*
X703462D01*
X706768Y532636D01*
X709732Y534347D01*
X712153Y536768D01*
X713864Y539732D01*
X714750Y543038D01*
Y546461D01*
X713864Y549768D01*
X712153Y552732D01*
X709732Y555153D01*
X707068Y556691D01*
X707408Y557961D01*
X780000D01*
Y554261D01*
X779891Y554224D01*
X778066Y553171D01*
X777865Y552995D01*
X777644Y552846D01*
X776153Y551356D01*
X776005Y551134D01*
X775829Y550934D01*
X774776Y549109D01*
X774690Y548856D01*
X774572Y548617D01*
X774026Y546581D01*
X774009Y546315D01*
X773957Y546054D01*
Y523946D01*
X774009Y523685D01*
X774026Y523419D01*
X774572Y521383D01*
X774690Y521144D01*
X774776Y520891D01*
X775829Y519066D01*
X776005Y518865D01*
X776153Y518644D01*
X777644Y517153D01*
X777865Y517005D01*
X778066Y516829D01*
X779891Y515776D01*
X780000Y515739D01*
Y509261D01*
X779891Y509224D01*
X778066Y508171D01*
X777865Y507995D01*
X777644Y507846D01*
X776153Y506356D01*
X776005Y506134D01*
X775829Y505934D01*
X774776Y504109D01*
X774690Y503856D01*
X774572Y503617D01*
X774026Y501581D01*
X774009Y501315D01*
X773957Y501054D01*
Y498946D01*
X774009Y498685D01*
X774026Y498419D01*
X774572Y496383D01*
X774690Y496144D01*
X774776Y495891D01*
X775829Y494066D01*
X776005Y493865D01*
X776153Y493644D01*
X777644Y492153D01*
X777865Y492005D01*
X778066Y491829D01*
X779891Y490776D01*
X780144Y490690D01*
X780383Y490572D01*
X782419Y490027D01*
X782685Y490009D01*
X782946Y489957D01*
X792419D01*
X793098Y488687D01*
X793006Y488549D01*
X736815D01*
X736815Y488549D01*
X735549Y489815D01*
X733895Y490500D01*
X732105D01*
X730451Y489815D01*
X729185Y488549D01*
X728500Y486895D01*
Y485105D01*
X729185Y483451D01*
X729288Y483348D01*
X728762Y482078D01*
X709641D01*
X709313Y483305D01*
X709732Y483547D01*
X712153Y485968D01*
X713864Y488932D01*
X714750Y492239D01*
Y495662D01*
X713864Y498968D01*
X712153Y501932D01*
X709732Y504353D01*
X706768Y506064D01*
X703462Y506950D01*
X700039D01*
X696732Y506064D01*
X693768Y504353D01*
X691347Y501932D01*
X689636Y498968D01*
X688750Y495662D01*
Y492239D01*
X689636Y488932D01*
X691347Y485968D01*
X693768Y483547D01*
X694187Y483305D01*
X693859Y482078D01*
X666913D01*
X665895Y482500D01*
X664105D01*
X663087Y482078D01*
X652491D01*
X652162Y483305D01*
X652582Y483547D01*
X655003Y485968D01*
X656714Y488932D01*
X657600Y492239D01*
Y495662D01*
X656714Y498968D01*
X655003Y501932D01*
X652582Y504353D01*
X649618Y506064D01*
X646311Y506950D01*
X642888D01*
X639582Y506064D01*
X636618Y504353D01*
X634197Y501932D01*
X632486Y498968D01*
X631600Y495662D01*
Y492239D01*
X632486Y488932D01*
X634197Y485968D01*
X636618Y483547D01*
X637038Y483305D01*
X636709Y482078D01*
X530742D01*
X530741Y482078D01*
X529181Y481768D01*
X527858Y480884D01*
X523052Y476078D01*
X517035D01*
X516187Y477348D01*
X516500Y478105D01*
Y479895D01*
X515815Y481549D01*
X514549Y482815D01*
X512895Y483500D01*
X511105D01*
X511105Y483500D01*
X506802Y487802D01*
X505975Y488355D01*
X505000Y488549D01*
X442815D01*
X442815Y488549D01*
X441549Y489815D01*
X439895Y490500D01*
X438105D01*
X436451Y489815D01*
X435185Y488549D01*
X434500Y486895D01*
Y485105D01*
X435185Y483451D01*
X435288Y483348D01*
X434762Y482078D01*
X290978D01*
Y501487D01*
X291339Y501584D01*
X293961Y503098D01*
X296102Y505239D01*
X297616Y507861D01*
X298400Y510786D01*
Y513814D01*
X297616Y516739D01*
X296102Y519361D01*
X293961Y521502D01*
X291339Y523016D01*
X288414Y523800D01*
X285386D01*
X282461Y523016D01*
X279839Y521502D01*
X277698Y519361D01*
X276184Y516739D01*
X275400Y513814D01*
Y510786D01*
X276184Y507861D01*
X277698Y505239D01*
X279839Y503098D01*
X282461Y501584D01*
X282822Y501487D01*
Y482078D01*
X275072D01*
X274799Y482648D01*
X274683Y483348D01*
X275800Y484465D01*
X276485Y486119D01*
Y487910D01*
X275800Y489564D01*
X274534Y490830D01*
X272880Y491515D01*
X271090D01*
X269436Y490830D01*
X268171Y489564D01*
X268171Y489563D01*
X214223D01*
X213815Y490549D01*
X212549Y491815D01*
X210895Y492500D01*
X209105D01*
X207451Y491815D01*
X206185Y490549D01*
X205500Y488895D01*
Y487105D01*
X206185Y485451D01*
X207451Y484185D01*
X209105Y483500D01*
X210895D01*
X212549Y484185D01*
X212830Y484466D01*
X268171D01*
X268171Y484465D01*
X269288Y483348D01*
X269172Y482648D01*
X268898Y482078D01*
X96689D01*
X87778Y490989D01*
Y501487D01*
X88139Y501584D01*
X90761Y503098D01*
X92902Y505239D01*
X94416Y507861D01*
X95200Y510786D01*
Y513814D01*
X94416Y516739D01*
X92902Y519361D01*
X90761Y521502D01*
X88139Y523016D01*
X85214Y523800D01*
X82186D01*
X79261Y523016D01*
X76639Y521502D01*
X74498Y519361D01*
X72984Y516739D01*
X72200Y513814D01*
Y510786D01*
X72984Y507861D01*
X74498Y505239D01*
X76639Y503098D01*
X79261Y501584D01*
X79622Y501487D01*
Y489300D01*
X79622Y489300D01*
X79932Y487739D01*
X80816Y486416D01*
X92116Y475116D01*
X92116Y475116D01*
X93439Y474232D01*
X95000Y473922D01*
X180965D01*
X181813Y472652D01*
X181500Y471895D01*
Y470105D01*
X182185Y468451D01*
X183451Y467185D01*
X185105Y466500D01*
X186895D01*
X186895Y466500D01*
X187730Y465665D01*
X188557Y465113D01*
X189533Y464919D01*
X191189D01*
X191230Y464927D01*
X192423Y464624D01*
X192738Y464030D01*
X193185Y462951D01*
X194451Y461685D01*
X196105Y461000D01*
X197895D01*
X199549Y461685D01*
X200815Y462951D01*
X201500Y464605D01*
Y464951D01*
X467944D01*
X469698Y463198D01*
X470525Y462645D01*
X471500Y462451D01*
X477185D01*
X477185Y462451D01*
X478451Y461185D01*
X480105Y460500D01*
X481895D01*
X483549Y461185D01*
X483794Y461430D01*
X485526Y459698D01*
X486353Y459145D01*
X487328Y458951D01*
X526262D01*
X527238Y459145D01*
X528065Y459698D01*
X535318Y466951D01*
X654428D01*
X655033Y465681D01*
X654500Y464395D01*
Y462605D01*
X655185Y460951D01*
X656451Y459685D01*
X658105Y459000D01*
X659895D01*
X661549Y459685D01*
X662815Y460951D01*
X663500Y462605D01*
Y464395D01*
X662815Y466049D01*
X661549Y467315D01*
X661549Y467315D01*
Y468329D01*
X661426Y468948D01*
X662083Y469795D01*
X662408Y470013D01*
X662722Y469951D01*
X664327D01*
X665500Y469895D01*
Y468105D01*
X666185Y466451D01*
X667451Y465185D01*
X669105Y464500D01*
X670895D01*
X672549Y465185D01*
X673815Y466451D01*
X674500Y468105D01*
Y469895D01*
X673815Y471549D01*
X672712Y472652D01*
X672852Y473423D01*
X673102Y473922D01*
X756087D01*
X757105Y473500D01*
X758895D01*
X759913Y473922D01*
X813087D01*
X814105Y473500D01*
X815895D01*
X817549Y474185D01*
X818815Y475451D01*
X819500Y477105D01*
Y478895D01*
X818815Y480549D01*
X817549Y481815D01*
X815895Y482500D01*
X814105D01*
X813087Y482078D01*
X802238D01*
X801712Y483348D01*
X801815Y483451D01*
X802500Y485105D01*
Y486895D01*
X801815Y488549D01*
X801677Y488687D01*
X802203Y489957D01*
X830788D01*
X830985Y489996D01*
X831186D01*
X832732Y490304D01*
X832918Y490381D01*
X833115Y490420D01*
X834572Y491023D01*
X834739Y491135D01*
X834924Y491212D01*
X836235Y492088D01*
X836377Y492230D01*
X836544Y492341D01*
X837659Y493456D01*
X837770Y493623D01*
X837912Y493765D01*
X838788Y495076D01*
X838865Y495261D01*
X838977Y495428D01*
X839580Y496885D01*
X839619Y497082D01*
X839696Y497267D01*
X840004Y498814D01*
Y499015D01*
X840043Y499212D01*
Y500000D01*
X847961D01*
Y472062D01*
X847270Y471753D01*
X846691Y471673D01*
X845549Y472815D01*
X843895Y473500D01*
X842105D01*
X840451Y472815D01*
X839185Y471549D01*
X838500Y469895D01*
Y468105D01*
X839185Y466451D01*
X840451Y465185D01*
X842105Y464500D01*
X843895D01*
X845549Y465185D01*
X846691Y466327D01*
X847270Y466247D01*
X847961Y465938D01*
X847961Y30000D01*
X847961Y28167D01*
X847483Y24533D01*
X846534Y20993D01*
X845131Y17607D01*
X843298Y14432D01*
X841067Y11525D01*
X838475Y8933D01*
X835567Y6701D01*
X832393Y4869D01*
X829007Y3466D01*
X825467Y2517D01*
X821833Y2039D01*
X820000D01*
X702218Y2039D01*
X701692Y3309D01*
X705302Y6920D01*
X705855Y7746D01*
X706049Y8722D01*
Y10451D01*
X794185D01*
X794185Y10451D01*
X795451Y9185D01*
X797105Y8500D01*
X798895D01*
X800549Y9185D01*
X801815Y10451D01*
X802500Y12105D01*
Y13895D01*
X801815Y15549D01*
X800549Y16815D01*
X798895Y17500D01*
X797210D01*
X796807Y17860D01*
X796260Y18525D01*
X796500Y19105D01*
Y20895D01*
X795815Y22549D01*
X794549Y23815D01*
X792895Y24500D01*
X791105D01*
X789451Y23815D01*
X788185Y22549D01*
X787500Y20895D01*
Y19549D01*
X695722D01*
X694747Y19355D01*
X693920Y18802D01*
X689166Y14049D01*
X366506D01*
X363752Y16802D01*
X362925Y17355D01*
X361950Y17549D01*
X358815D01*
X358815Y17549D01*
X357549Y18815D01*
X355895Y19500D01*
X354105D01*
X352451Y18815D01*
X351185Y17549D01*
X350500Y15895D01*
Y14105D01*
X351185Y12451D01*
X351817Y11819D01*
X351291Y10549D01*
X307556D01*
X303802Y14302D01*
X302976Y14855D01*
X302000Y15049D01*
X294861D01*
X294399Y14957D01*
X293445Y15972D01*
X293500Y16105D01*
Y17895D01*
X292815Y19549D01*
X291659Y20705D01*
X291664Y20727D01*
X292659Y21722D01*
X576073D01*
X576185Y21451D01*
X577451Y20185D01*
X579105Y19500D01*
X580895D01*
X582549Y20185D01*
X583815Y21451D01*
X584500Y23105D01*
Y24895D01*
X583815Y26549D01*
X582549Y27815D01*
X580895Y28500D01*
X579105D01*
X577451Y27815D01*
X576456Y26820D01*
X293042D01*
X292930Y27091D01*
X291664Y28357D01*
X290010Y29042D01*
X288220D01*
X286566Y28357D01*
X285300Y27091D01*
X284615Y25437D01*
Y23647D01*
X285300Y21993D01*
X286455Y20838D01*
X286451Y20815D01*
X285185Y19549D01*
X284625Y18196D01*
X283618Y17711D01*
X283518Y17691D01*
X283000Y18022D01*
Y19395D01*
X282315Y21049D01*
X281049Y22315D01*
X279436Y22983D01*
X279089Y23162D01*
X278500Y24043D01*
Y25833D01*
X277815Y27487D01*
X276549Y28753D01*
X274895Y29438D01*
X273105D01*
X271451Y28753D01*
X270185Y27487D01*
X269500Y25833D01*
Y24555D01*
X262495Y17549D01*
X226521D01*
X226136Y18819D01*
X226163Y18837D01*
X230055Y22729D01*
X230055Y22730D01*
X230718Y23722D01*
X230951Y24892D01*
X230951Y24893D01*
Y30587D01*
X231707Y31343D01*
X232392Y32997D01*
Y34788D01*
X231707Y36442D01*
X230441Y37707D01*
X228788Y38393D01*
X226997D01*
X225343Y37707D01*
X224078Y36442D01*
X223393Y34788D01*
Y32997D01*
X224078Y31343D01*
X224834Y30587D01*
Y26159D01*
X222733Y24059D01*
X215305D01*
X214549Y24815D01*
X212895Y25500D01*
X211105D01*
X209451Y24815D01*
X208695Y24059D01*
X170267D01*
X164500Y29826D01*
Y30895D01*
X163815Y32549D01*
X162549Y33815D01*
X160895Y34500D01*
X159105D01*
X157451Y33815D01*
X156185Y32549D01*
X155500Y30895D01*
Y29105D01*
X156185Y27451D01*
X156678Y26958D01*
X156451Y25815D01*
X155185Y24549D01*
X154500Y22895D01*
Y22160D01*
X153230Y21634D01*
X152549Y22315D01*
X150895Y23000D01*
X149105D01*
X147451Y22315D01*
X146185Y21049D01*
X145500Y19395D01*
Y17605D01*
X146185Y15951D01*
X147451Y14685D01*
X149105Y14000D01*
X150895D01*
X152549Y14685D01*
X152755Y14891D01*
X156923Y10722D01*
X156437Y9549D01*
X146833D01*
X144080Y12302D01*
X143254Y12854D01*
X142278Y13048D01*
X107400D01*
X106425Y12854D01*
X105598Y12302D01*
X102795Y9499D01*
X102795Y9499D01*
X101005D01*
X99351Y8814D01*
X98085Y7549D01*
X97400Y5895D01*
Y4104D01*
X97730Y3309D01*
X96881Y2039D01*
X84019D01*
X83170Y3309D01*
X83500Y4105D01*
Y5895D01*
X82815Y7549D01*
X81549Y8815D01*
X79895Y9500D01*
X78105D01*
X76451Y8815D01*
X75185Y7549D01*
X74500Y5895D01*
Y4105D01*
X74830Y3309D01*
X73981Y2039D01*
X30000Y2039D01*
X28168D01*
X24534Y2517D01*
X20993Y3466D01*
X17607Y4868D01*
X14432Y6701D01*
X11525Y8932D01*
X8933Y11524D01*
X6701Y14432D01*
X4869Y17606D01*
X3466Y20993D01*
X2517Y24533D01*
X2039Y28167D01*
X2039Y30000D01*
X2039Y530000D01*
X2039Y531832D01*
X2517Y535466D01*
X3466Y539007D01*
X4868Y542393D01*
X6701Y545567D01*
X8932Y548475D01*
X11524Y551067D01*
X14432Y553298D01*
X17606Y555131D01*
X20993Y556534D01*
X24533Y557482D01*
X28167Y557961D01*
X30000Y557961D01*
X638942Y557961D01*
D02*
G37*
%LPC*%
G36*
X110614Y549200D02*
X107586D01*
X104661Y548416D01*
X102039Y546902D01*
X99898Y544761D01*
X99606Y544256D01*
X95200D01*
Y549200D01*
X72200D01*
Y526200D01*
X95200D01*
Y531144D01*
X99606D01*
X99898Y530639D01*
X102039Y528498D01*
X104661Y526984D01*
X107586Y526200D01*
X110614D01*
X113539Y526984D01*
X116161Y528498D01*
X118302Y530639D01*
X119816Y533261D01*
X120600Y536186D01*
Y539214D01*
X119816Y542139D01*
X118302Y544761D01*
X116161Y546902D01*
X113539Y548416D01*
X110614Y549200D01*
D02*
G37*
G36*
X491751Y550240D02*
X491370D01*
Y538970D01*
X502640D01*
Y539351D01*
X501785Y542540D01*
X500135Y545400D01*
X497800Y547734D01*
X494940Y549385D01*
X491751Y550240D01*
D02*
G37*
G36*
X488830D02*
X488449D01*
X485260Y549385D01*
X482400Y547734D01*
X480065Y545400D01*
X478415Y542540D01*
X477560Y539351D01*
Y538970D01*
X488830D01*
Y550240D01*
D02*
G37*
G36*
X440951D02*
X440570D01*
Y538970D01*
X451840D01*
Y539351D01*
X450985Y542540D01*
X449334Y545400D01*
X447000Y547734D01*
X444140Y549385D01*
X440951Y550240D01*
D02*
G37*
G36*
X438030D02*
X437649D01*
X434460Y549385D01*
X431600Y547734D01*
X429266Y545400D01*
X427615Y542540D01*
X426760Y539351D01*
Y538970D01*
X438030D01*
Y550240D01*
D02*
G37*
G36*
X313951D02*
X313570D01*
Y538970D01*
X324840D01*
Y539351D01*
X323985Y542540D01*
X322335Y545400D01*
X320000Y547734D01*
X317140Y549385D01*
X313951Y550240D01*
D02*
G37*
G36*
X311030D02*
X310649D01*
X307460Y549385D01*
X304600Y547734D01*
X302265Y545400D01*
X300615Y542540D01*
X299760Y539351D01*
Y538970D01*
X311030D01*
Y550240D01*
D02*
G37*
G36*
X237751D02*
X237370D01*
Y538970D01*
X248640D01*
Y539351D01*
X247785Y542540D01*
X246134Y545400D01*
X243800Y547734D01*
X240940Y549385D01*
X237751Y550240D01*
D02*
G37*
G36*
X234830D02*
X234449D01*
X231260Y549385D01*
X228400Y547734D01*
X226066Y545400D01*
X224415Y542540D01*
X223560Y539351D01*
Y538970D01*
X234830D01*
Y550240D01*
D02*
G37*
G36*
X136151D02*
X135770D01*
Y538970D01*
X147040D01*
Y539351D01*
X146185Y542540D01*
X144535Y545400D01*
X142200Y547734D01*
X139340Y549385D01*
X136151Y550240D01*
D02*
G37*
G36*
X133230D02*
X132849D01*
X129660Y549385D01*
X126800Y547734D01*
X124466Y545400D01*
X122815Y542540D01*
X121960Y539351D01*
Y538970D01*
X133230D01*
Y550240D01*
D02*
G37*
G36*
X670895Y542500D02*
X669105D01*
X667451Y541815D01*
X666185Y540549D01*
X665500Y538895D01*
Y537105D01*
X666185Y535451D01*
X667451Y534185D01*
X669105Y533500D01*
X670895D01*
X672549Y534185D01*
X673815Y535451D01*
X674500Y537105D01*
Y538895D01*
X673815Y540549D01*
X672549Y541815D01*
X670895Y542500D01*
D02*
G37*
G36*
X683895Y541500D02*
X682105D01*
X680451Y540815D01*
X679185Y539549D01*
X678500Y537895D01*
Y536105D01*
X679185Y534451D01*
X680451Y533185D01*
X682105Y532500D01*
X683895D01*
X685549Y533185D01*
X686815Y534451D01*
X687500Y536105D01*
Y537895D01*
X686815Y539549D01*
X685549Y540815D01*
X683895Y541500D01*
D02*
G37*
G36*
X567814Y549200D02*
X564786D01*
X561861Y548416D01*
X559239Y546902D01*
X557098Y544761D01*
X555584Y542139D01*
X554800Y539214D01*
Y536186D01*
X555584Y533261D01*
X557098Y530639D01*
X559239Y528498D01*
X561861Y526984D01*
X564786Y526200D01*
X567814D01*
X570739Y526984D01*
X573361Y528498D01*
X575502Y530639D01*
X577016Y533261D01*
X577800Y536186D01*
Y539214D01*
X577016Y542139D01*
X575502Y544761D01*
X573361Y546902D01*
X570739Y548416D01*
X567814Y549200D01*
D02*
G37*
G36*
X542414D02*
X539386D01*
X536461Y548416D01*
X533839Y546902D01*
X531698Y544761D01*
X530184Y542139D01*
X529400Y539214D01*
Y536186D01*
X530184Y533261D01*
X531698Y530639D01*
X533839Y528498D01*
X536461Y526984D01*
X539386Y526200D01*
X542414D01*
X545339Y526984D01*
X547961Y528498D01*
X550102Y530639D01*
X551616Y533261D01*
X552400Y536186D01*
Y539214D01*
X551616Y542139D01*
X550102Y544761D01*
X547961Y546902D01*
X545339Y548416D01*
X542414Y549200D01*
D02*
G37*
G36*
X517014D02*
X513986D01*
X511061Y548416D01*
X508439Y546902D01*
X506298Y544761D01*
X504784Y542139D01*
X504000Y539214D01*
Y536186D01*
X504784Y533261D01*
X506298Y530639D01*
X508439Y528498D01*
X511061Y526984D01*
X513986Y526200D01*
X517014D01*
X519939Y526984D01*
X522561Y528498D01*
X524702Y530639D01*
X526216Y533261D01*
X527000Y536186D01*
Y539214D01*
X526216Y542139D01*
X524702Y544761D01*
X522561Y546902D01*
X519939Y548416D01*
X517014Y549200D01*
D02*
G37*
G36*
X466214D02*
X463186D01*
X460261Y548416D01*
X457639Y546902D01*
X455498Y544761D01*
X453984Y542139D01*
X453200Y539214D01*
Y536186D01*
X453984Y533261D01*
X455498Y530639D01*
X457639Y528498D01*
X460261Y526984D01*
X463186Y526200D01*
X466214D01*
X469139Y526984D01*
X471761Y528498D01*
X473902Y530639D01*
X475416Y533261D01*
X476200Y536186D01*
Y539214D01*
X475416Y542139D01*
X473902Y544761D01*
X471761Y546902D01*
X469139Y548416D01*
X466214Y549200D01*
D02*
G37*
G36*
X415414D02*
X412386D01*
X409461Y548416D01*
X406839Y546902D01*
X404698Y544761D01*
X403184Y542139D01*
X402400Y539214D01*
Y536186D01*
X403184Y533261D01*
X404698Y530639D01*
X406839Y528498D01*
X409461Y526984D01*
X412386Y526200D01*
X415414D01*
X418339Y526984D01*
X420961Y528498D01*
X423102Y530639D01*
X424616Y533261D01*
X425400Y536186D01*
Y539214D01*
X424616Y542139D01*
X423102Y544761D01*
X420961Y546902D01*
X418339Y548416D01*
X415414Y549200D01*
D02*
G37*
G36*
X390014D02*
X386986D01*
X384061Y548416D01*
X381439Y546902D01*
X379298Y544761D01*
X377784Y542139D01*
X377000Y539214D01*
Y536186D01*
X377784Y533261D01*
X379298Y530639D01*
X381439Y528498D01*
X384061Y526984D01*
X386986Y526200D01*
X390014D01*
X392939Y526984D01*
X395561Y528498D01*
X397702Y530639D01*
X399216Y533261D01*
X400000Y536186D01*
Y539214D01*
X399216Y542139D01*
X397702Y544761D01*
X395561Y546902D01*
X392939Y548416D01*
X390014Y549200D01*
D02*
G37*
G36*
X364614D02*
X361586D01*
X358661Y548416D01*
X356039Y546902D01*
X353898Y544761D01*
X352384Y542139D01*
X351600Y539214D01*
Y536186D01*
X352384Y533261D01*
X353898Y530639D01*
X356039Y528498D01*
X358661Y526984D01*
X361586Y526200D01*
X364614D01*
X367539Y526984D01*
X370161Y528498D01*
X372302Y530639D01*
X373816Y533261D01*
X374600Y536186D01*
Y539214D01*
X373816Y542139D01*
X372302Y544761D01*
X370161Y546902D01*
X367539Y548416D01*
X364614Y549200D01*
D02*
G37*
G36*
X339214D02*
X336186D01*
X333261Y548416D01*
X330639Y546902D01*
X328498Y544761D01*
X326984Y542139D01*
X326200Y539214D01*
Y536186D01*
X326984Y533261D01*
X328498Y530639D01*
X330639Y528498D01*
X333261Y526984D01*
X336186Y526200D01*
X339214D01*
X342139Y526984D01*
X344761Y528498D01*
X346902Y530639D01*
X348416Y533261D01*
X349200Y536186D01*
Y539214D01*
X348416Y542139D01*
X346902Y544761D01*
X344761Y546902D01*
X342139Y548416D01*
X339214Y549200D01*
D02*
G37*
G36*
X288414D02*
X285386D01*
X282461Y548416D01*
X279839Y546902D01*
X277698Y544761D01*
X276184Y542139D01*
X275400Y539214D01*
Y536186D01*
X276184Y533261D01*
X277698Y530639D01*
X279839Y528498D01*
X282461Y526984D01*
X285386Y526200D01*
X288414D01*
X291339Y526984D01*
X293961Y528498D01*
X296102Y530639D01*
X297616Y533261D01*
X298400Y536186D01*
Y539214D01*
X297616Y542139D01*
X296102Y544761D01*
X293961Y546902D01*
X291339Y548416D01*
X288414Y549200D01*
D02*
G37*
G36*
X263014D02*
X259986D01*
X257061Y548416D01*
X254439Y546902D01*
X252298Y544761D01*
X250784Y542139D01*
X250000Y539214D01*
Y536186D01*
X250784Y533261D01*
X252298Y530639D01*
X254439Y528498D01*
X257061Y526984D01*
X259986Y526200D01*
X263014D01*
X265939Y526984D01*
X268561Y528498D01*
X270702Y530639D01*
X272216Y533261D01*
X273000Y536186D01*
Y539214D01*
X272216Y542139D01*
X270702Y544761D01*
X268561Y546902D01*
X265939Y548416D01*
X263014Y549200D01*
D02*
G37*
G36*
X212214D02*
X209186D01*
X206261Y548416D01*
X203639Y546902D01*
X201498Y544761D01*
X199984Y542139D01*
X199200Y539214D01*
Y536186D01*
X199984Y533261D01*
X201498Y530639D01*
X203639Y528498D01*
X206261Y526984D01*
X209186Y526200D01*
X212214D01*
X215139Y526984D01*
X217761Y528498D01*
X219902Y530639D01*
X221416Y533261D01*
X222200Y536186D01*
Y539214D01*
X221416Y542139D01*
X219902Y544761D01*
X217761Y546902D01*
X215139Y548416D01*
X212214Y549200D01*
D02*
G37*
G36*
X186814D02*
X183786D01*
X180861Y548416D01*
X178239Y546902D01*
X176098Y544761D01*
X174584Y542139D01*
X173800Y539214D01*
Y536186D01*
X174584Y533261D01*
X176098Y530639D01*
X178239Y528498D01*
X180861Y526984D01*
X183786Y526200D01*
X186814D01*
X189739Y526984D01*
X192361Y528498D01*
X194502Y530639D01*
X196016Y533261D01*
X196800Y536186D01*
Y539214D01*
X196016Y542139D01*
X194502Y544761D01*
X192361Y546902D01*
X189739Y548416D01*
X186814Y549200D01*
D02*
G37*
G36*
X161414D02*
X158386D01*
X155461Y548416D01*
X152839Y546902D01*
X150698Y544761D01*
X149184Y542139D01*
X148400Y539214D01*
Y536186D01*
X149184Y533261D01*
X150698Y530639D01*
X152839Y528498D01*
X155461Y526984D01*
X158386Y526200D01*
X161414D01*
X164339Y526984D01*
X166961Y528498D01*
X169102Y530639D01*
X170616Y533261D01*
X171400Y536186D01*
Y539214D01*
X170616Y542139D01*
X169102Y544761D01*
X166961Y546902D01*
X164339Y548416D01*
X161414Y549200D01*
D02*
G37*
G36*
X502640Y536430D02*
X491370D01*
Y525160D01*
X491751D01*
X494940Y526015D01*
X497800Y527665D01*
X500135Y530000D01*
X501785Y532860D01*
X502640Y536049D01*
Y536430D01*
D02*
G37*
G36*
X488830D02*
X477560D01*
Y536049D01*
X478415Y532860D01*
X480065Y530000D01*
X482400Y527665D01*
X485260Y526015D01*
X488449Y525160D01*
X488830D01*
Y536430D01*
D02*
G37*
G36*
X451840D02*
X440570D01*
Y525160D01*
X440951D01*
X444140Y526015D01*
X447000Y527665D01*
X449334Y530000D01*
X450985Y532860D01*
X451840Y536049D01*
Y536430D01*
D02*
G37*
G36*
X438030D02*
X426760D01*
Y536049D01*
X427615Y532860D01*
X429266Y530000D01*
X431600Y527665D01*
X434460Y526015D01*
X437649Y525160D01*
X438030D01*
Y536430D01*
D02*
G37*
G36*
X324840D02*
X313570D01*
Y525160D01*
X313951D01*
X317140Y526015D01*
X320000Y527665D01*
X322335Y530000D01*
X323985Y532860D01*
X324840Y536049D01*
Y536430D01*
D02*
G37*
G36*
X311030D02*
X299760D01*
Y536049D01*
X300615Y532860D01*
X302265Y530000D01*
X304600Y527665D01*
X307460Y526015D01*
X310649Y525160D01*
X311030D01*
Y536430D01*
D02*
G37*
G36*
X248640D02*
X237370D01*
Y525160D01*
X237751D01*
X240940Y526015D01*
X243800Y527665D01*
X246134Y530000D01*
X247785Y532860D01*
X248640Y536049D01*
Y536430D01*
D02*
G37*
G36*
X234830D02*
X223560D01*
Y536049D01*
X224415Y532860D01*
X226066Y530000D01*
X228400Y527665D01*
X231260Y526015D01*
X234449Y525160D01*
X234830D01*
Y536430D01*
D02*
G37*
G36*
X147040D02*
X135770D01*
Y525160D01*
X136151D01*
X139340Y526015D01*
X142200Y527665D01*
X144535Y530000D01*
X146185Y532860D01*
X147040Y536049D01*
Y536430D01*
D02*
G37*
G36*
X133230D02*
X121960D01*
Y536049D01*
X122815Y532860D01*
X124466Y530000D01*
X126800Y527665D01*
X129660Y526015D01*
X132849Y525160D01*
X133230D01*
Y536430D01*
D02*
G37*
G36*
X721722Y536510D02*
X719878D01*
X718098Y536033D01*
X716502Y535111D01*
X715199Y533808D01*
X714277Y532212D01*
X713800Y530432D01*
Y528588D01*
X714277Y526808D01*
X715199Y525212D01*
X716502Y523909D01*
X718098Y522987D01*
X719878Y522510D01*
X721722D01*
X723502Y522987D01*
X725098Y523909D01*
X726401Y525212D01*
X727323Y526808D01*
X727800Y528588D01*
Y530432D01*
X727323Y532212D01*
X726401Y533808D01*
X725098Y535111D01*
X723502Y536033D01*
X721722Y536510D01*
D02*
G37*
G36*
X733895Y525500D02*
X732105D01*
X730451Y524815D01*
X729185Y523549D01*
X728500Y521895D01*
Y520105D01*
X729185Y518451D01*
X730451Y517185D01*
X732105Y516500D01*
X733895D01*
X735549Y517185D01*
X736815Y518451D01*
X737500Y520105D01*
Y521895D01*
X736815Y523549D01*
X735549Y524815D01*
X733895Y525500D01*
D02*
G37*
G36*
X567951Y524840D02*
X567570D01*
Y513570D01*
X578840D01*
Y513951D01*
X577985Y517140D01*
X576334Y520000D01*
X574000Y522335D01*
X571140Y523985D01*
X567951Y524840D01*
D02*
G37*
G36*
X565030D02*
X564649D01*
X561460Y523985D01*
X558600Y522335D01*
X556265Y520000D01*
X554615Y517140D01*
X553760Y513951D01*
Y513570D01*
X565030D01*
Y524840D01*
D02*
G37*
G36*
X390151D02*
X389770D01*
Y513570D01*
X401040D01*
Y513951D01*
X400185Y517140D01*
X398535Y520000D01*
X396200Y522335D01*
X393340Y523985D01*
X390151Y524840D01*
D02*
G37*
G36*
X387230D02*
X386849D01*
X383660Y523985D01*
X380800Y522335D01*
X378465Y520000D01*
X376815Y517140D01*
X375960Y513951D01*
Y513570D01*
X387230D01*
Y524840D01*
D02*
G37*
G36*
X186951D02*
X186570D01*
Y513570D01*
X197840D01*
Y513951D01*
X196985Y517140D01*
X195334Y520000D01*
X193000Y522335D01*
X190140Y523985D01*
X186951Y524840D01*
D02*
G37*
G36*
X184030D02*
X183649D01*
X180460Y523985D01*
X177600Y522335D01*
X175266Y520000D01*
X173615Y517140D01*
X172760Y513951D01*
Y513570D01*
X184030D01*
Y524840D01*
D02*
G37*
G36*
X645522Y526350D02*
X643678D01*
X641898Y525873D01*
X640302Y524951D01*
X638999Y523648D01*
X638077Y522052D01*
X637600Y520272D01*
Y518428D01*
X638077Y516648D01*
X638999Y515052D01*
X640302Y513749D01*
X641898Y512827D01*
X643678Y512350D01*
X645522D01*
X647302Y512827D01*
X648898Y513749D01*
X650201Y515052D01*
X651123Y516648D01*
X651600Y518428D01*
Y520272D01*
X651123Y522052D01*
X650201Y523648D01*
X648898Y524951D01*
X647302Y525873D01*
X645522Y526350D01*
D02*
G37*
G36*
X616354Y540789D02*
X613646D01*
X613449Y540750D01*
X613248D01*
X610591Y540222D01*
X610406Y540145D01*
X610209Y540106D01*
X607706Y539069D01*
X607539Y538957D01*
X607354Y538881D01*
X605102Y537376D01*
X604960Y537234D01*
X604793Y537122D01*
X602878Y535207D01*
X602766Y535040D01*
X602624Y534898D01*
X601119Y532646D01*
X601043Y532460D01*
X600931Y532293D01*
X599894Y529791D01*
X599855Y529594D01*
X599778Y529408D01*
X599250Y526752D01*
Y526551D01*
X599211Y526354D01*
Y523646D01*
X599250Y523449D01*
Y523248D01*
X599778Y520591D01*
X599855Y520406D01*
X599894Y520209D01*
X600931Y517706D01*
X601043Y517539D01*
X601119Y517354D01*
X602624Y515102D01*
X602766Y514960D01*
X602878Y514793D01*
X604793Y512878D01*
X604960Y512766D01*
X605102Y512624D01*
X607354Y511119D01*
X607540Y511043D01*
X607706Y510931D01*
X610209Y509894D01*
X610406Y509855D01*
X610591Y509778D01*
X613248Y509250D01*
X613449D01*
X613646Y509211D01*
X616354D01*
X616551Y509250D01*
X616752D01*
X619408Y509778D01*
X619594Y509855D01*
X619791Y509894D01*
X622293Y510931D01*
X622460Y511043D01*
X622646Y511119D01*
X624898Y512624D01*
X625040Y512766D01*
X625207Y512878D01*
X627122Y514793D01*
X627234Y514960D01*
X627376Y515102D01*
X628881Y517354D01*
X628957Y517540D01*
X629069Y517706D01*
X630106Y520209D01*
X630145Y520406D01*
X630222Y520591D01*
X630750Y523248D01*
Y523449D01*
X630789Y523646D01*
Y526354D01*
X630750Y526551D01*
Y526752D01*
X630222Y529408D01*
X630145Y529594D01*
X630106Y529791D01*
X629069Y532293D01*
X628957Y532460D01*
X628881Y532646D01*
X627376Y534898D01*
X627234Y535040D01*
X627122Y535207D01*
X625207Y537122D01*
X625040Y537234D01*
X624898Y537376D01*
X622646Y538881D01*
X622460Y538957D01*
X622293Y539069D01*
X619791Y540106D01*
X619594Y540145D01*
X619408Y540222D01*
X616752Y540750D01*
X616551D01*
X616354Y540789D01*
D02*
G37*
G36*
X36354D02*
X33646D01*
X33449Y540750D01*
X33248D01*
X30591Y540222D01*
X30406Y540145D01*
X30209Y540106D01*
X27706Y539069D01*
X27540Y538957D01*
X27354Y538881D01*
X25102Y537376D01*
X24960Y537234D01*
X24793Y537122D01*
X22878Y535207D01*
X22766Y535040D01*
X22624Y534898D01*
X21119Y532646D01*
X21042Y532460D01*
X20931Y532293D01*
X19894Y529791D01*
X19855Y529594D01*
X19778Y529408D01*
X19250Y526752D01*
Y526551D01*
X19211Y526354D01*
Y523646D01*
X19250Y523449D01*
Y523248D01*
X19778Y520591D01*
X19855Y520406D01*
X19894Y520209D01*
X20931Y517706D01*
X21042Y517539D01*
X21119Y517354D01*
X22624Y515102D01*
X22766Y514960D01*
X22878Y514793D01*
X24793Y512878D01*
X24960Y512766D01*
X25102Y512624D01*
X27354Y511119D01*
X27540Y511043D01*
X27706Y510931D01*
X30209Y509894D01*
X30406Y509855D01*
X30591Y509778D01*
X33248Y509250D01*
X33449D01*
X33646Y509211D01*
X36354D01*
X36551Y509250D01*
X36752D01*
X39409Y509778D01*
X39594Y509855D01*
X39791Y509894D01*
X42293Y510931D01*
X42460Y511043D01*
X42646Y511119D01*
X44898Y512624D01*
X45040Y512766D01*
X45207Y512878D01*
X47122Y514793D01*
X47234Y514960D01*
X47376Y515102D01*
X48881Y517354D01*
X48958Y517540D01*
X49069Y517706D01*
X50106Y520209D01*
X50145Y520406D01*
X50222Y520591D01*
X50750Y523248D01*
Y523449D01*
X50789Y523646D01*
Y526354D01*
X50750Y526551D01*
Y526752D01*
X50222Y529408D01*
X50145Y529594D01*
X50106Y529791D01*
X49069Y532293D01*
X48958Y532460D01*
X48881Y532646D01*
X47376Y534898D01*
X47234Y535040D01*
X47122Y535207D01*
X45207Y537122D01*
X45040Y537234D01*
X44898Y537376D01*
X42646Y538881D01*
X42460Y538957D01*
X42293Y539069D01*
X39791Y540106D01*
X39594Y540145D01*
X39409Y540222D01*
X36752Y540750D01*
X36551D01*
X36354Y540789D01*
D02*
G37*
G36*
X759895Y515500D02*
X758105D01*
X756451Y514815D01*
X755185Y513549D01*
X754500Y511895D01*
Y510105D01*
X755185Y508451D01*
X756451Y507185D01*
X758105Y506500D01*
X759895D01*
X761549Y507185D01*
X762815Y508451D01*
X763500Y510105D01*
Y511895D01*
X762815Y513549D01*
X761549Y514815D01*
X759895Y515500D01*
D02*
G37*
G36*
X721722Y516190D02*
X719878D01*
X718098Y515713D01*
X716502Y514791D01*
X715199Y513488D01*
X714277Y511892D01*
X713800Y510112D01*
Y508268D01*
X714277Y506488D01*
X715199Y504892D01*
X716502Y503589D01*
X718098Y502667D01*
X719878Y502190D01*
X721722D01*
X723502Y502667D01*
X725098Y503589D01*
X726401Y504892D01*
X727323Y506488D01*
X727800Y508268D01*
Y510112D01*
X727323Y511892D01*
X726401Y513488D01*
X725098Y514791D01*
X723502Y515713D01*
X721722Y516190D01*
D02*
G37*
G36*
X542414Y523800D02*
X539386D01*
X536461Y523016D01*
X533839Y521502D01*
X531698Y519361D01*
X530184Y516739D01*
X529400Y513814D01*
Y510786D01*
X530184Y507861D01*
X531698Y505239D01*
X533839Y503098D01*
X536461Y501584D01*
X539386Y500800D01*
X542414D01*
X545339Y501584D01*
X547961Y503098D01*
X550102Y505239D01*
X551616Y507861D01*
X552400Y510786D01*
Y513814D01*
X551616Y516739D01*
X550102Y519361D01*
X547961Y521502D01*
X545339Y523016D01*
X542414Y523800D01*
D02*
G37*
G36*
X517014D02*
X513986D01*
X511061Y523016D01*
X508439Y521502D01*
X506298Y519361D01*
X504784Y516739D01*
X504000Y513814D01*
Y510786D01*
X504784Y507861D01*
X506298Y505239D01*
X508439Y503098D01*
X511061Y501584D01*
X513986Y500800D01*
X517014D01*
X519939Y501584D01*
X522561Y503098D01*
X524702Y505239D01*
X526216Y507861D01*
X527000Y510786D01*
Y513814D01*
X526216Y516739D01*
X524702Y519361D01*
X522561Y521502D01*
X519939Y523016D01*
X517014Y523800D01*
D02*
G37*
G36*
X491614D02*
X488586D01*
X485661Y523016D01*
X483039Y521502D01*
X480898Y519361D01*
X479384Y516739D01*
X478600Y513814D01*
Y510786D01*
X479384Y507861D01*
X480898Y505239D01*
X483039Y503098D01*
X485661Y501584D01*
X488586Y500800D01*
X491614D01*
X494539Y501584D01*
X497161Y503098D01*
X499302Y505239D01*
X500816Y507861D01*
X501600Y510786D01*
Y513814D01*
X500816Y516739D01*
X499302Y519361D01*
X497161Y521502D01*
X494539Y523016D01*
X491614Y523800D01*
D02*
G37*
G36*
X466214D02*
X463186D01*
X460261Y523016D01*
X457639Y521502D01*
X455498Y519361D01*
X453984Y516739D01*
X453200Y513814D01*
Y510786D01*
X453984Y507861D01*
X455498Y505239D01*
X457639Y503098D01*
X460261Y501584D01*
X463186Y500800D01*
X466214D01*
X469139Y501584D01*
X471761Y503098D01*
X473902Y505239D01*
X475416Y507861D01*
X476200Y510786D01*
Y513814D01*
X475416Y516739D01*
X473902Y519361D01*
X471761Y521502D01*
X469139Y523016D01*
X466214Y523800D01*
D02*
G37*
G36*
X440814D02*
X437786D01*
X434861Y523016D01*
X432239Y521502D01*
X430098Y519361D01*
X428584Y516739D01*
X427800Y513814D01*
Y510786D01*
X428584Y507861D01*
X430098Y505239D01*
X432239Y503098D01*
X434861Y501584D01*
X437786Y500800D01*
X440814D01*
X443739Y501584D01*
X446361Y503098D01*
X448502Y505239D01*
X450016Y507861D01*
X450800Y510786D01*
Y513814D01*
X450016Y516739D01*
X448502Y519361D01*
X446361Y521502D01*
X443739Y523016D01*
X440814Y523800D01*
D02*
G37*
G36*
X415414D02*
X412386D01*
X409461Y523016D01*
X406839Y521502D01*
X404698Y519361D01*
X403184Y516739D01*
X402400Y513814D01*
Y510786D01*
X403184Y507861D01*
X404698Y505239D01*
X406839Y503098D01*
X409461Y501584D01*
X412386Y500800D01*
X415414D01*
X418339Y501584D01*
X420961Y503098D01*
X423102Y505239D01*
X424616Y507861D01*
X425400Y510786D01*
Y513814D01*
X424616Y516739D01*
X423102Y519361D01*
X420961Y521502D01*
X418339Y523016D01*
X415414Y523800D01*
D02*
G37*
G36*
X364614D02*
X361586D01*
X358661Y523016D01*
X356039Y521502D01*
X353898Y519361D01*
X352384Y516739D01*
X351600Y513814D01*
Y510786D01*
X352384Y507861D01*
X353898Y505239D01*
X356039Y503098D01*
X358661Y501584D01*
X361586Y500800D01*
X364614D01*
X367539Y501584D01*
X370161Y503098D01*
X372302Y505239D01*
X373816Y507861D01*
X374600Y510786D01*
Y513814D01*
X373816Y516739D01*
X372302Y519361D01*
X370161Y521502D01*
X367539Y523016D01*
X364614Y523800D01*
D02*
G37*
G36*
X339214D02*
X336186D01*
X333261Y523016D01*
X330639Y521502D01*
X328498Y519361D01*
X326984Y516739D01*
X326200Y513814D01*
Y510786D01*
X326984Y507861D01*
X328498Y505239D01*
X330639Y503098D01*
X333261Y501584D01*
X336186Y500800D01*
X339214D01*
X342139Y501584D01*
X344761Y503098D01*
X346902Y505239D01*
X348416Y507861D01*
X349200Y510786D01*
Y513814D01*
X348416Y516739D01*
X346902Y519361D01*
X344761Y521502D01*
X342139Y523016D01*
X339214Y523800D01*
D02*
G37*
G36*
X313814D02*
X310786D01*
X307861Y523016D01*
X305239Y521502D01*
X303098Y519361D01*
X301584Y516739D01*
X300800Y513814D01*
Y510786D01*
X301584Y507861D01*
X303098Y505239D01*
X305239Y503098D01*
X307861Y501584D01*
X310786Y500800D01*
X313814D01*
X316739Y501584D01*
X319361Y503098D01*
X321502Y505239D01*
X323016Y507861D01*
X323800Y510786D01*
Y513814D01*
X323016Y516739D01*
X321502Y519361D01*
X319361Y521502D01*
X316739Y523016D01*
X313814Y523800D01*
D02*
G37*
G36*
X263014D02*
X259986D01*
X257061Y523016D01*
X254439Y521502D01*
X252298Y519361D01*
X250784Y516739D01*
X250000Y513814D01*
Y510786D01*
X250784Y507861D01*
X252298Y505239D01*
X254439Y503098D01*
X257061Y501584D01*
X259986Y500800D01*
X263014D01*
X265939Y501584D01*
X268561Y503098D01*
X270702Y505239D01*
X272216Y507861D01*
X273000Y510786D01*
Y513814D01*
X272216Y516739D01*
X270702Y519361D01*
X268561Y521502D01*
X265939Y523016D01*
X263014Y523800D01*
D02*
G37*
G36*
X237614D02*
X234586D01*
X231661Y523016D01*
X229039Y521502D01*
X226898Y519361D01*
X225384Y516739D01*
X224600Y513814D01*
Y510786D01*
X225384Y507861D01*
X226898Y505239D01*
X229039Y503098D01*
X231661Y501584D01*
X234586Y500800D01*
X237614D01*
X240539Y501584D01*
X243161Y503098D01*
X245302Y505239D01*
X246816Y507861D01*
X247600Y510786D01*
Y513814D01*
X246816Y516739D01*
X245302Y519361D01*
X243161Y521502D01*
X240539Y523016D01*
X237614Y523800D01*
D02*
G37*
G36*
X212214D02*
X209186D01*
X206261Y523016D01*
X203639Y521502D01*
X201498Y519361D01*
X199984Y516739D01*
X199200Y513814D01*
Y510786D01*
X199984Y507861D01*
X201498Y505239D01*
X203639Y503098D01*
X206261Y501584D01*
X209186Y500800D01*
X212214D01*
X215139Y501584D01*
X217761Y503098D01*
X219902Y505239D01*
X221416Y507861D01*
X222200Y510786D01*
Y513814D01*
X221416Y516739D01*
X219902Y519361D01*
X217761Y521502D01*
X215139Y523016D01*
X212214Y523800D01*
D02*
G37*
G36*
X161414D02*
X158386D01*
X155461Y523016D01*
X152839Y521502D01*
X150698Y519361D01*
X149184Y516739D01*
X148400Y513814D01*
Y510786D01*
X149184Y507861D01*
X150698Y505239D01*
X152839Y503098D01*
X155461Y501584D01*
X158386Y500800D01*
X161414D01*
X164339Y501584D01*
X166961Y503098D01*
X169102Y505239D01*
X170616Y507861D01*
X171400Y510786D01*
Y513814D01*
X170616Y516739D01*
X169102Y519361D01*
X166961Y521502D01*
X164339Y523016D01*
X161414Y523800D01*
D02*
G37*
G36*
X136014D02*
X132986D01*
X130061Y523016D01*
X127439Y521502D01*
X125298Y519361D01*
X123784Y516739D01*
X123000Y513814D01*
Y510786D01*
X123784Y507861D01*
X125298Y505239D01*
X127439Y503098D01*
X130061Y501584D01*
X132986Y500800D01*
X136014D01*
X138939Y501584D01*
X141561Y503098D01*
X143702Y505239D01*
X145216Y507861D01*
X146000Y510786D01*
Y513814D01*
X145216Y516739D01*
X143702Y519361D01*
X141561Y521502D01*
X138939Y523016D01*
X136014Y523800D01*
D02*
G37*
G36*
X110614D02*
X107586D01*
X104661Y523016D01*
X102039Y521502D01*
X99898Y519361D01*
X98384Y516739D01*
X97600Y513814D01*
Y510786D01*
X98384Y507861D01*
X99898Y505239D01*
X102039Y503098D01*
X104661Y501584D01*
X107586Y500800D01*
X110614D01*
X113539Y501584D01*
X116161Y503098D01*
X118302Y505239D01*
X119816Y507861D01*
X120600Y510786D01*
Y513814D01*
X119816Y516739D01*
X118302Y519361D01*
X116161Y521502D01*
X113539Y523016D01*
X110614Y523800D01*
D02*
G37*
G36*
X578840Y511030D02*
X567570D01*
Y499760D01*
X567951D01*
X571140Y500615D01*
X574000Y502266D01*
X576334Y504600D01*
X577985Y507460D01*
X578840Y510649D01*
Y511030D01*
D02*
G37*
G36*
X565030D02*
X553760D01*
Y510649D01*
X554615Y507460D01*
X556265Y504600D01*
X558600Y502266D01*
X561460Y500615D01*
X564649Y499760D01*
X565030D01*
Y511030D01*
D02*
G37*
G36*
X401040D02*
X389770D01*
Y499760D01*
X390151D01*
X393340Y500615D01*
X396200Y502266D01*
X398535Y504600D01*
X400185Y507460D01*
X401040Y510649D01*
Y511030D01*
D02*
G37*
G36*
X387230D02*
X375960D01*
Y510649D01*
X376815Y507460D01*
X378465Y504600D01*
X380800Y502266D01*
X383660Y500615D01*
X386849Y499760D01*
X387230D01*
Y511030D01*
D02*
G37*
G36*
X197840D02*
X186570D01*
Y499760D01*
X186951D01*
X190140Y500615D01*
X193000Y502266D01*
X195334Y504600D01*
X196985Y507460D01*
X197840Y510649D01*
Y511030D01*
D02*
G37*
G36*
X184030D02*
X172760D01*
Y510649D01*
X173615Y507460D01*
X175266Y504600D01*
X177600Y502266D01*
X180460Y500615D01*
X183649Y499760D01*
X184030D01*
Y511030D01*
D02*
G37*
G36*
X806895Y472500D02*
X805105D01*
X803451Y471815D01*
X802185Y470549D01*
X802185Y470549D01*
X685815D01*
X685815Y470549D01*
X684549Y471815D01*
X682895Y472500D01*
X681105D01*
X679451Y471815D01*
X678185Y470549D01*
X677500Y468895D01*
Y467105D01*
X678185Y465451D01*
X679451Y464185D01*
X679856Y464017D01*
X680004Y463273D01*
X679319Y461619D01*
Y459829D01*
X680004Y458175D01*
X681270Y456909D01*
X682924Y456224D01*
X684714D01*
X686368Y456909D01*
X687634Y458175D01*
X688319Y459829D01*
Y460686D01*
X689584Y461951D01*
X787500D01*
Y461605D01*
X788185Y459951D01*
X789451Y458685D01*
X791105Y458000D01*
X792895D01*
X794549Y458685D01*
X795815Y459951D01*
X796500Y461605D01*
Y463395D01*
X796174Y464181D01*
X797023Y465451D01*
X802185D01*
X802185Y465451D01*
X803451Y464185D01*
X805105Y463500D01*
X806895D01*
X808549Y464185D01*
X809815Y465451D01*
X810500Y467105D01*
Y468895D01*
X809815Y470549D01*
X808549Y471815D01*
X806895Y472500D01*
D02*
G37*
G36*
X87895Y464500D02*
X86105D01*
X84451Y463815D01*
X83185Y462549D01*
X83185Y462549D01*
X41780D01*
X40805Y462355D01*
X39978Y461802D01*
X36517Y458342D01*
X35861Y458721D01*
X33699Y459300D01*
X31461D01*
X29299Y458721D01*
X27361Y457602D01*
X25778Y456019D01*
X24659Y454081D01*
X24080Y451919D01*
Y449681D01*
X24659Y447519D01*
X25778Y445581D01*
X27361Y443998D01*
X29299Y442879D01*
X31461Y442300D01*
X33699D01*
X35861Y442879D01*
X37799Y443998D01*
X39382Y445581D01*
X40501Y447519D01*
X41080Y449681D01*
Y451919D01*
X40501Y454081D01*
X40122Y454737D01*
X42836Y457451D01*
X83185D01*
X83185Y457451D01*
X84451Y456185D01*
X86105Y455500D01*
X87895D01*
X89549Y456185D01*
X90815Y457451D01*
X91500Y459105D01*
Y460895D01*
X90815Y462549D01*
X89549Y463815D01*
X87895Y464500D01*
D02*
G37*
G36*
X364219Y459300D02*
X361981D01*
X359819Y458721D01*
X357881Y457602D01*
X356298Y456019D01*
X355179Y454081D01*
X355010Y453449D01*
X308856D01*
X308815Y453549D01*
X307549Y454815D01*
X305895Y455500D01*
X304105D01*
X302451Y454815D01*
X301185Y453549D01*
X300500Y451895D01*
Y450105D01*
X301185Y448451D01*
X302451Y447185D01*
X304105Y446500D01*
X305895D01*
X307549Y447185D01*
X308715Y448351D01*
X354956D01*
X355179Y447519D01*
X356298Y445581D01*
X357881Y443998D01*
X358191Y443819D01*
X357851Y442549D01*
X298756D01*
X294442Y446863D01*
X294821Y447519D01*
X295400Y449681D01*
Y451919D01*
X294821Y454081D01*
X293702Y456019D01*
X292119Y457602D01*
X290181Y458721D01*
X288019Y459300D01*
X285781D01*
X283619Y458721D01*
X281681Y457602D01*
X280098Y456019D01*
X278979Y454081D01*
X278400Y451919D01*
Y449681D01*
X278979Y447519D01*
X280098Y445581D01*
X281681Y443998D01*
X283619Y442879D01*
X285781Y442300D01*
X288019D01*
X290181Y442879D01*
X290837Y443258D01*
X295898Y438198D01*
X296724Y437645D01*
X297700Y437451D01*
X370185D01*
X370185Y437451D01*
X371451Y436185D01*
X373105Y435500D01*
X374895D01*
X376549Y436185D01*
X377815Y437451D01*
X378500Y439105D01*
Y440895D01*
X377815Y442549D01*
X376549Y443815D01*
X374895Y444500D01*
X373105D01*
X371451Y443815D01*
X370185Y442549D01*
X370185Y442549D01*
X368349D01*
X368008Y443819D01*
X368319Y443998D01*
X369902Y445581D01*
X371021Y447519D01*
X371600Y449681D01*
Y451919D01*
X371021Y454081D01*
X369902Y456019D01*
X368319Y457602D01*
X366381Y458721D01*
X364219Y459300D01*
D02*
G37*
G36*
X209899D02*
X207661D01*
X205499Y458721D01*
X203561Y457602D01*
X201978Y456019D01*
X200859Y454081D01*
X200690Y453449D01*
X153856D01*
X153815Y453549D01*
X152549Y454815D01*
X150895Y455500D01*
X149105D01*
X147451Y454815D01*
X146185Y453549D01*
X145500Y451895D01*
Y450105D01*
X146185Y448451D01*
X147451Y447185D01*
X149105Y446500D01*
X150895D01*
X152549Y447185D01*
X153715Y448351D01*
X200636D01*
X200859Y447519D01*
X201348Y446673D01*
X201198Y446286D01*
X200558Y445500D01*
X199105D01*
X197451Y444815D01*
X196185Y443549D01*
X196185Y443549D01*
X143436D01*
X140122Y446863D01*
X140501Y447519D01*
X141080Y449681D01*
Y451919D01*
X140501Y454081D01*
X139382Y456019D01*
X137799Y457602D01*
X135861Y458721D01*
X133699Y459300D01*
X131461D01*
X129299Y458721D01*
X127361Y457602D01*
X125778Y456019D01*
X124659Y454081D01*
X124080Y451919D01*
Y449681D01*
X124659Y447519D01*
X125778Y445581D01*
X127361Y443998D01*
X129299Y442879D01*
X131461Y442300D01*
X133699D01*
X135861Y442879D01*
X136517Y443258D01*
X140578Y439198D01*
X141404Y438645D01*
X142380Y438451D01*
X196185D01*
X196185Y438451D01*
X197451Y437185D01*
X199105Y436500D01*
X200895D01*
X202549Y437185D01*
X203815Y438451D01*
X204500Y440105D01*
Y441895D01*
X204449Y442019D01*
X205457Y442904D01*
X205499Y442879D01*
X207661Y442300D01*
X209899D01*
X212061Y442879D01*
X213999Y443998D01*
X215582Y445581D01*
X216701Y447519D01*
X217280Y449681D01*
Y451919D01*
X216701Y454081D01*
X215582Y456019D01*
X213999Y457602D01*
X212061Y458721D01*
X209899Y459300D01*
D02*
G37*
G36*
X109899D02*
X107661D01*
X105499Y458721D01*
X103561Y457602D01*
X101978Y456019D01*
X100859Y454081D01*
X100690Y453449D01*
X54856D01*
X54815Y453549D01*
X53549Y454815D01*
X51895Y455500D01*
X50105D01*
X48451Y454815D01*
X47185Y453549D01*
X46500Y451895D01*
Y450105D01*
X47185Y448451D01*
X48451Y447185D01*
X50105Y446500D01*
X51895D01*
X53549Y447185D01*
X54715Y448351D01*
X100636D01*
X100859Y447519D01*
X101978Y445581D01*
X103561Y443998D01*
X105499Y442879D01*
X107661Y442300D01*
X109899D01*
X112061Y442879D01*
X113999Y443998D01*
X115582Y445581D01*
X116701Y447519D01*
X117280Y449681D01*
Y451919D01*
X116701Y454081D01*
X115582Y456019D01*
X113999Y457602D01*
X112061Y458721D01*
X109899Y459300D01*
D02*
G37*
G36*
X560895Y460500D02*
X559105D01*
X557451Y459815D01*
X556185Y458549D01*
X555500Y456895D01*
Y455105D01*
X555867Y454219D01*
X555028Y452949D01*
X549444D01*
X549141Y454081D01*
X548022Y456019D01*
X546439Y457602D01*
X544501Y458721D01*
X542339Y459300D01*
X540101D01*
X537939Y458721D01*
X536001Y457602D01*
X534418Y456019D01*
X533299Y454081D01*
X532720Y451919D01*
Y449681D01*
X533299Y447519D01*
X534418Y445581D01*
X536001Y443998D01*
X537939Y442879D01*
X540101Y442300D01*
X542339D01*
X544501Y442879D01*
X546439Y443998D01*
X548022Y445581D01*
X549141Y447519D01*
X549230Y447851D01*
X597019D01*
X597185Y447451D01*
X598451Y446185D01*
X600105Y445500D01*
X601895D01*
X603549Y446185D01*
X604815Y447451D01*
X605176Y448323D01*
X606416Y448988D01*
X606706Y448951D01*
X607420Y448809D01*
X609154D01*
X609499Y447519D01*
X610618Y445581D01*
X612201Y443998D01*
X614139Y442879D01*
X616301Y442300D01*
X618539D01*
X620701Y442879D01*
X622639Y443998D01*
X624222Y445581D01*
X625341Y447519D01*
X625920Y449681D01*
Y451919D01*
X625341Y454081D01*
X624222Y456019D01*
X622639Y457602D01*
X620701Y458721D01*
X618539Y459300D01*
X616301D01*
X614139Y458721D01*
X612201Y457602D01*
X610618Y456019D01*
X609601Y454257D01*
X608681Y454122D01*
X608238Y454145D01*
X604580Y457802D01*
X603754Y458355D01*
X602778Y458549D01*
X563815D01*
X563815Y458549D01*
X562549Y459815D01*
X560895Y460500D01*
D02*
G37*
G36*
X404895Y461500D02*
X403105D01*
X401451Y460815D01*
X400185Y459549D01*
X399500Y457895D01*
Y456105D01*
X400185Y454451D01*
X400417Y454219D01*
X399891Y452949D01*
X395124D01*
X394821Y454081D01*
X393702Y456019D01*
X392119Y457602D01*
X390181Y458721D01*
X388019Y459300D01*
X385781D01*
X383619Y458721D01*
X381681Y457602D01*
X380098Y456019D01*
X378979Y454081D01*
X378400Y451919D01*
Y449681D01*
X378979Y447519D01*
X380098Y445581D01*
X381681Y443998D01*
X383619Y442879D01*
X385781Y442300D01*
X388019D01*
X390181Y442879D01*
X392119Y443998D01*
X393702Y445581D01*
X394821Y447519D01*
X394910Y447851D01*
X431019D01*
X431185Y447451D01*
X432451Y446185D01*
X434105Y445500D01*
X435895D01*
X437549Y446185D01*
X438815Y447451D01*
X439500Y449105D01*
X440770Y449625D01*
X441398Y448998D01*
X442225Y448445D01*
X443200Y448251D01*
X454983D01*
X455179Y447519D01*
X456298Y445581D01*
X457881Y443998D01*
X459819Y442879D01*
X461981Y442300D01*
X464219D01*
X466381Y442879D01*
X468319Y443998D01*
X469902Y445581D01*
X471021Y447519D01*
X471600Y449681D01*
Y451919D01*
X471021Y454081D01*
X469902Y456019D01*
X468319Y457602D01*
X466381Y458721D01*
X464219Y459300D01*
X461981D01*
X459819Y458721D01*
X457881Y457602D01*
X456298Y456019D01*
X455179Y454081D01*
X454983Y453349D01*
X444256D01*
X438802Y458802D01*
X437976Y459355D01*
X437000Y459549D01*
X407815D01*
X407815Y459549D01*
X406549Y460815D01*
X404895Y461500D01*
D02*
G37*
G36*
X718539Y459300D02*
X716301D01*
X714139Y458721D01*
X712201Y457602D01*
X710618Y456019D01*
X709499Y454081D01*
X708920Y451919D01*
Y449681D01*
X709265Y448392D01*
X708222Y447349D01*
X678856D01*
X676300Y449905D01*
X676300Y449905D01*
Y451695D01*
X675615Y453349D01*
X674349Y454615D01*
X672695Y455300D01*
X670905D01*
X669251Y454615D01*
X667985Y453349D01*
X667300Y451695D01*
Y450101D01*
X666769Y449712D01*
X666127Y449478D01*
X663002Y452602D01*
X662176Y453155D01*
X661200Y453349D01*
X649337D01*
X649141Y454081D01*
X648022Y456019D01*
X646439Y457602D01*
X644501Y458721D01*
X642339Y459300D01*
X640101D01*
X637939Y458721D01*
X636001Y457602D01*
X634418Y456019D01*
X633299Y454081D01*
X632720Y451919D01*
Y449681D01*
X633299Y447519D01*
X634418Y445581D01*
X636001Y443998D01*
X637939Y442879D01*
X640101Y442300D01*
X642339D01*
X644501Y442879D01*
X646439Y443998D01*
X648022Y445581D01*
X649141Y447519D01*
X649337Y448251D01*
X660144D01*
X668898Y439498D01*
X669725Y438945D01*
X670700Y438751D01*
X716999D01*
X717678Y437481D01*
X717656Y437449D01*
X662900D01*
X661925Y437255D01*
X661098Y436702D01*
X652344Y427949D01*
X649337D01*
X649141Y428681D01*
X648022Y430619D01*
X646439Y432202D01*
X644501Y433321D01*
X642339Y433900D01*
X640101D01*
X637939Y433321D01*
X636001Y432202D01*
X634418Y430619D01*
X633299Y428681D01*
X632720Y426519D01*
Y424281D01*
X633299Y422119D01*
X634418Y420181D01*
X636001Y418598D01*
X637939Y417479D01*
X640101Y416900D01*
X642339D01*
X644501Y417479D01*
X646439Y418598D01*
X648022Y420181D01*
X649141Y422119D01*
X649337Y422851D01*
X653400D01*
X654376Y423045D01*
X655202Y423598D01*
X663956Y432351D01*
X710554D01*
X711080Y431081D01*
X710618Y430619D01*
X709499Y428681D01*
X709303Y427949D01*
X675482D01*
X674540Y427761D01*
X673562Y428167D01*
X671772D01*
X670118Y427481D01*
X668852Y426216D01*
X668167Y424562D01*
Y422771D01*
X668852Y421118D01*
X670118Y419852D01*
X671772Y419167D01*
X673562D01*
X675216Y419852D01*
X676482Y421118D01*
X677167Y422771D01*
Y422851D01*
X709303D01*
X709499Y422119D01*
X710618Y420181D01*
X712201Y418598D01*
X714139Y417479D01*
X716301Y416900D01*
X718539D01*
X720701Y417479D01*
X722639Y418598D01*
X724222Y420181D01*
X725341Y422119D01*
X725920Y424281D01*
Y426519D01*
X725341Y428681D01*
X724222Y430619D01*
X722639Y432202D01*
X722619Y432213D01*
X722410Y433801D01*
X724061Y435451D01*
X739862D01*
X741167Y434146D01*
Y433438D01*
X741852Y431784D01*
X743118Y430518D01*
X744771Y429833D01*
X746562D01*
X748216Y430518D01*
X749482Y431784D01*
X750167Y433438D01*
Y435229D01*
X749482Y436882D01*
X748883Y437481D01*
X749409Y438751D01*
X756885D01*
X757451Y438185D01*
X759105Y437500D01*
X760895D01*
X762549Y438185D01*
X763815Y439451D01*
X764500Y441105D01*
Y442895D01*
X763815Y444549D01*
X762549Y445815D01*
X760895Y446500D01*
X759105D01*
X757451Y445815D01*
X756185Y444549D01*
X755895Y443849D01*
X744434D01*
X744425Y443855D01*
X743450Y444049D01*
X724349D01*
X723863Y445222D01*
X724222Y445581D01*
X725341Y447519D01*
X725920Y449681D01*
Y451919D01*
X725341Y454081D01*
X724222Y456019D01*
X722639Y457602D01*
X720701Y458721D01*
X718539Y459300D01*
D02*
G37*
G36*
X184895Y436500D02*
X183105D01*
X181451Y435815D01*
X180185Y434549D01*
X180185Y434549D01*
X141653D01*
X140677Y434355D01*
X139850Y433802D01*
X138024Y431976D01*
X137799Y432202D01*
X135861Y433321D01*
X133699Y433900D01*
X131461D01*
X129299Y433321D01*
X127361Y432202D01*
X125778Y430619D01*
X124659Y428681D01*
X124080Y426519D01*
Y424281D01*
X124659Y422119D01*
X125778Y420181D01*
X127361Y418598D01*
X129299Y417479D01*
X131461Y416900D01*
X133699D01*
X135861Y417479D01*
X137799Y418598D01*
X139382Y420181D01*
X140501Y422119D01*
X141080Y424281D01*
Y426519D01*
X140805Y427547D01*
X142709Y429451D01*
X160291D01*
X160817Y428181D01*
X160185Y427549D01*
X159500Y425895D01*
Y424105D01*
X160185Y422451D01*
X161451Y421185D01*
X163105Y420500D01*
X164895D01*
X166549Y421185D01*
X167815Y422451D01*
X167898Y422651D01*
X200717D01*
X200859Y422119D01*
X201978Y420181D01*
X203561Y418598D01*
X205499Y417479D01*
X207661Y416900D01*
X209899D01*
X212061Y417479D01*
X213999Y418598D01*
X215582Y420181D01*
X216701Y422119D01*
X217280Y424281D01*
Y426519D01*
X216701Y428681D01*
X215582Y430619D01*
X213999Y432202D01*
X212061Y433321D01*
X209899Y433900D01*
X207661D01*
X205499Y433321D01*
X203561Y432202D01*
X201978Y430619D01*
X200859Y428681D01*
X200610Y427749D01*
X187909D01*
X187383Y429019D01*
X187815Y429451D01*
X188500Y431105D01*
Y432895D01*
X187815Y434549D01*
X186549Y435815D01*
X184895Y436500D01*
D02*
G37*
G36*
X74895D02*
X73105D01*
X71451Y435815D01*
X70185Y434549D01*
X70185Y434549D01*
X41653D01*
X40677Y434355D01*
X39850Y433802D01*
X38024Y431976D01*
X37799Y432202D01*
X35861Y433321D01*
X33699Y433900D01*
X31461D01*
X29299Y433321D01*
X27361Y432202D01*
X25778Y430619D01*
X24659Y428681D01*
X24080Y426519D01*
Y424281D01*
X24659Y422119D01*
X25778Y420181D01*
X27361Y418598D01*
X29299Y417479D01*
X31461Y416900D01*
X33699D01*
X35861Y417479D01*
X37799Y418598D01*
X39382Y420181D01*
X40501Y422119D01*
X41080Y424281D01*
Y426519D01*
X40805Y427547D01*
X42709Y429451D01*
X61291D01*
X61817Y428181D01*
X61185Y427549D01*
X60500Y425895D01*
Y424105D01*
X61185Y422451D01*
X62451Y421185D01*
X64105Y420500D01*
X65895D01*
X67549Y421185D01*
X68815Y422451D01*
X68898Y422651D01*
X100717D01*
X100859Y422119D01*
X101978Y420181D01*
X103561Y418598D01*
X105499Y417479D01*
X107661Y416900D01*
X109899D01*
X112061Y417479D01*
X113999Y418598D01*
X115582Y420181D01*
X116701Y422119D01*
X117280Y424281D01*
Y426519D01*
X116701Y428681D01*
X115582Y430619D01*
X113999Y432202D01*
X112061Y433321D01*
X109899Y433900D01*
X107661D01*
X105499Y433321D01*
X103561Y432202D01*
X101978Y430619D01*
X100859Y428681D01*
X100610Y427749D01*
X77909D01*
X77383Y429019D01*
X77815Y429451D01*
X78500Y431105D01*
Y432895D01*
X77815Y434549D01*
X76549Y435815D01*
X74895Y436500D01*
D02*
G37*
G36*
X364219Y433900D02*
X361981D01*
X359819Y433321D01*
X357881Y432202D01*
X356298Y430619D01*
X355179Y428681D01*
X354974Y427916D01*
X323115D01*
X321882Y429148D01*
X320228Y429833D01*
X318438D01*
X316784Y429148D01*
X315518Y427882D01*
X314833Y426228D01*
Y424438D01*
X315518Y422784D01*
X316784Y421518D01*
X318438Y420833D01*
X320228D01*
X321882Y421518D01*
X323148Y422784D01*
X323162Y422818D01*
X354992D01*
X355179Y422119D01*
X356298Y420181D01*
X357881Y418598D01*
X359231Y417819D01*
X358890Y416549D01*
X299356D01*
X294442Y421463D01*
X294821Y422119D01*
X295400Y424281D01*
Y426519D01*
X294821Y428681D01*
X293702Y430619D01*
X292119Y432202D01*
X290181Y433321D01*
X288019Y433900D01*
X285781D01*
X283619Y433321D01*
X281681Y432202D01*
X280098Y430619D01*
X278979Y428681D01*
X278400Y426519D01*
Y424281D01*
X278979Y422119D01*
X280098Y420181D01*
X281681Y418598D01*
X283619Y417479D01*
X285781Y416900D01*
X288019D01*
X290181Y417479D01*
X290837Y417858D01*
X296498Y412198D01*
X297325Y411645D01*
X298300Y411451D01*
X366185D01*
X366185Y411451D01*
X367451Y410185D01*
X369105Y409500D01*
X370895D01*
X372549Y410185D01*
X373815Y411451D01*
X374500Y413105D01*
Y414895D01*
X373815Y416549D01*
X372549Y417815D01*
X370895Y418500D01*
X370017D01*
X369491Y419770D01*
X369902Y420181D01*
X371021Y422119D01*
X371600Y424281D01*
Y426519D01*
X371021Y428681D01*
X369902Y430619D01*
X368319Y432202D01*
X366381Y433321D01*
X364219Y433900D01*
D02*
G37*
G36*
X567895Y436500D02*
X566105D01*
X564451Y435815D01*
X563185Y434549D01*
X562500Y432895D01*
Y431105D01*
X563185Y429451D01*
X563617Y429019D01*
X563091Y427749D01*
X549390D01*
X549141Y428681D01*
X548022Y430619D01*
X546439Y432202D01*
X544501Y433321D01*
X542339Y433900D01*
X540101D01*
X537939Y433321D01*
X536001Y432202D01*
X534418Y430619D01*
X533299Y428681D01*
X532720Y426519D01*
Y424281D01*
X533299Y422119D01*
X534418Y420181D01*
X536001Y418598D01*
X537939Y417479D01*
X540101Y416900D01*
X542339D01*
X544501Y417479D01*
X546439Y418598D01*
X548022Y420181D01*
X549141Y422119D01*
X549283Y422651D01*
X589102D01*
X589185Y422451D01*
X590451Y421185D01*
X592105Y420500D01*
X593895D01*
X595549Y421185D01*
X596815Y422451D01*
X597500Y424105D01*
Y425895D01*
X596815Y427549D01*
X596183Y428181D01*
X596709Y429451D01*
X607291D01*
X609196Y427547D01*
X608920Y426519D01*
Y424281D01*
X609499Y422119D01*
X610618Y420181D01*
X612201Y418598D01*
X614139Y417479D01*
X616301Y416900D01*
X618539D01*
X620701Y417479D01*
X622639Y418598D01*
X624222Y420181D01*
X625341Y422119D01*
X625920Y424281D01*
Y426519D01*
X625341Y428681D01*
X624222Y430619D01*
X622639Y432202D01*
X620701Y433321D01*
X618539Y433900D01*
X616301D01*
X614139Y433321D01*
X612201Y432202D01*
X611976Y431976D01*
X610150Y433802D01*
X609323Y434355D01*
X608347Y434549D01*
X570815D01*
X570815Y434549D01*
X569549Y435815D01*
X567895Y436500D01*
D02*
G37*
G36*
X421895Y437500D02*
X420105D01*
X418451Y436815D01*
X417185Y435549D01*
X416500Y433895D01*
Y432105D01*
X417185Y430451D01*
X418451Y429185D01*
X418852Y429019D01*
X418599Y427749D01*
X395070D01*
X394821Y428681D01*
X393702Y430619D01*
X392119Y432202D01*
X390181Y433321D01*
X388019Y433900D01*
X385781D01*
X383619Y433321D01*
X381681Y432202D01*
X380098Y430619D01*
X378979Y428681D01*
X378400Y426519D01*
Y424281D01*
X378979Y422119D01*
X380098Y420181D01*
X381681Y418598D01*
X383619Y417479D01*
X385781Y416900D01*
X388019D01*
X390181Y417479D01*
X392119Y418598D01*
X393702Y420181D01*
X394821Y422119D01*
X394963Y422651D01*
X428102D01*
X428185Y422451D01*
X429451Y421185D01*
X431105Y420500D01*
X432895D01*
X434549Y421185D01*
X435815Y422451D01*
X436500Y424105D01*
Y425895D01*
X435815Y427549D01*
X434549Y428815D01*
X433665Y429181D01*
X433918Y430451D01*
X453971D01*
X455385Y429037D01*
X455179Y428681D01*
X454600Y426519D01*
Y424281D01*
X455179Y422119D01*
X456298Y420181D01*
X457881Y418598D01*
X459819Y417479D01*
X461981Y416900D01*
X464219D01*
X466381Y417479D01*
X468319Y418598D01*
X469902Y420181D01*
X471021Y422119D01*
X471600Y424281D01*
Y426519D01*
X471021Y428681D01*
X469902Y430619D01*
X468319Y432202D01*
X466381Y433321D01*
X464219Y433900D01*
X461981D01*
X459819Y433321D01*
X458863Y432769D01*
X456829Y434802D01*
X456003Y435355D01*
X455027Y435549D01*
X424815D01*
X424815Y435549D01*
X423549Y436815D01*
X421895Y437500D01*
D02*
G37*
G36*
X732228Y415167D02*
X730438D01*
X728784Y414482D01*
X727518Y413216D01*
X727518Y413216D01*
X651887D01*
X650911Y413022D01*
X650084Y412469D01*
X645157Y407542D01*
X644501Y407921D01*
X642339Y408500D01*
X640101D01*
X637939Y407921D01*
X636001Y406802D01*
X634418Y405219D01*
X633299Y403281D01*
X632720Y401119D01*
Y398881D01*
X633299Y396719D01*
X634418Y394781D01*
X636001Y393198D01*
X637939Y392079D01*
X640101Y391500D01*
X642339D01*
X644501Y392079D01*
X646439Y393198D01*
X648022Y394781D01*
X649141Y396719D01*
X649720Y398881D01*
Y401119D01*
X649141Y403281D01*
X648762Y403937D01*
X652942Y408118D01*
X711940D01*
X712281Y406848D01*
X712201Y406802D01*
X710618Y405219D01*
X709499Y403281D01*
X709258Y402382D01*
X689982D01*
X688882Y403482D01*
X687228Y404167D01*
X685438D01*
X683784Y403482D01*
X682518Y402216D01*
X681833Y400562D01*
Y398772D01*
X682518Y397118D01*
X683784Y395852D01*
X685438Y395167D01*
X687228D01*
X688882Y395852D01*
X690148Y397118D01*
X690217Y397284D01*
X709348D01*
X709499Y396719D01*
X710618Y394781D01*
X712201Y393198D01*
X714139Y392079D01*
X716301Y391500D01*
X718539D01*
X720701Y392079D01*
X722639Y393198D01*
X724222Y394781D01*
X725341Y396719D01*
X725920Y398881D01*
Y401119D01*
X725341Y403281D01*
X724222Y405219D01*
X722639Y406802D01*
X722559Y406848D01*
X722899Y408118D01*
X727518D01*
X727518Y408118D01*
X728784Y406852D01*
X730438Y406167D01*
X732228D01*
X733882Y406852D01*
X735148Y408118D01*
X735833Y409772D01*
Y411562D01*
X735148Y413216D01*
X733882Y414482D01*
X732228Y415167D01*
D02*
G37*
G36*
X174895Y411500D02*
X173105D01*
X171451Y410815D01*
X170185Y409549D01*
X169500Y407895D01*
Y406105D01*
X169500Y406105D01*
X165944Y402549D01*
X140697D01*
X140501Y403281D01*
X139382Y405219D01*
X137799Y406802D01*
X135861Y407921D01*
X133699Y408500D01*
X131461D01*
X129299Y407921D01*
X127361Y406802D01*
X125778Y405219D01*
X124659Y403281D01*
X124080Y401119D01*
Y398881D01*
X124659Y396719D01*
X125778Y394781D01*
X127361Y393198D01*
X129299Y392079D01*
X131461Y391500D01*
X133699D01*
X135861Y392079D01*
X137799Y393198D01*
X139382Y394781D01*
X140501Y396719D01*
X140697Y397451D01*
X167000D01*
X167976Y397645D01*
X168802Y398198D01*
X172479Y401874D01*
X173039Y401826D01*
X174167Y401228D01*
Y399438D01*
X174852Y397784D01*
X176118Y396518D01*
X177772Y395833D01*
X179562D01*
X181216Y396518D01*
X182315Y397618D01*
X200618D01*
X200859Y396719D01*
X201978Y394781D01*
X203561Y393198D01*
X205499Y392079D01*
X207661Y391500D01*
X209899D01*
X212061Y392079D01*
X213999Y393198D01*
X215582Y394781D01*
X216701Y396719D01*
X217280Y398881D01*
Y401119D01*
X216701Y403281D01*
X215582Y405219D01*
X213999Y406802D01*
X212061Y407921D01*
X209899Y408500D01*
X207661D01*
X205499Y407921D01*
X203561Y406802D01*
X201978Y405219D01*
X200859Y403281D01*
X200708Y402716D01*
X182551D01*
X182482Y402882D01*
X181216Y404148D01*
X179562Y404833D01*
X179116D01*
X178411Y405889D01*
X178500Y406105D01*
Y407895D01*
X177815Y409549D01*
X176549Y410815D01*
X174895Y411500D01*
D02*
G37*
G36*
X464219Y408500D02*
X461981D01*
X459819Y407921D01*
X457881Y406802D01*
X456298Y405219D01*
X455179Y403281D01*
X454849Y402049D01*
X445315D01*
X444549Y402815D01*
X442895Y403500D01*
X441105D01*
X439451Y402815D01*
X438185Y401549D01*
X437500Y399895D01*
Y398105D01*
X438185Y396451D01*
X439451Y395185D01*
X441105Y394500D01*
X442895D01*
X444549Y395185D01*
X445815Y396451D01*
X446022Y396951D01*
X455117D01*
X455179Y396719D01*
X456298Y394781D01*
X457881Y393198D01*
X459819Y392079D01*
X461981Y391500D01*
X464219D01*
X466381Y392079D01*
X468319Y393198D01*
X469902Y394781D01*
X471021Y396719D01*
X471600Y398881D01*
Y401119D01*
X471021Y403281D01*
X469902Y405219D01*
X468319Y406802D01*
X466381Y407921D01*
X464219Y408500D01*
D02*
G37*
G36*
X109899D02*
X107661D01*
X105499Y407921D01*
X103561Y406802D01*
X101978Y405219D01*
X100859Y403281D01*
X100529Y402049D01*
X82315D01*
X81549Y402815D01*
X79895Y403500D01*
X78105D01*
X76451Y402815D01*
X75185Y401549D01*
X74500Y399895D01*
Y398105D01*
X75185Y396451D01*
X76451Y395185D01*
X78105Y394500D01*
X79895D01*
X81549Y395185D01*
X82815Y396451D01*
X83022Y396951D01*
X100797D01*
X100859Y396719D01*
X101978Y394781D01*
X103561Y393198D01*
X105499Y392079D01*
X107661Y391500D01*
X109899D01*
X112061Y392079D01*
X113999Y393198D01*
X115582Y394781D01*
X116701Y396719D01*
X117280Y398881D01*
Y401119D01*
X116701Y403281D01*
X115582Y405219D01*
X113999Y406802D01*
X112061Y407921D01*
X109899Y408500D01*
D02*
G37*
G36*
X364219D02*
X361981D01*
X359819Y407921D01*
X357881Y406802D01*
X356298Y405219D01*
X355179Y403281D01*
X354983Y402549D01*
X350778D01*
X349803Y402355D01*
X348976Y401802D01*
X348638Y401465D01*
X347140Y401763D01*
X346815Y402549D01*
X345549Y403815D01*
X343895Y404500D01*
X342105D01*
X340451Y403815D01*
X339185Y402549D01*
X339185Y402549D01*
X295017D01*
X294821Y403281D01*
X293702Y405219D01*
X292119Y406802D01*
X290181Y407921D01*
X288019Y408500D01*
X285781D01*
X283619Y407921D01*
X281681Y406802D01*
X280098Y405219D01*
X278979Y403281D01*
X278400Y401119D01*
Y398881D01*
X278979Y396719D01*
X280098Y394781D01*
X281681Y393198D01*
X283619Y392079D01*
X285781Y391500D01*
X288019D01*
X290181Y392079D01*
X292119Y393198D01*
X293702Y394781D01*
X294821Y396719D01*
X295017Y397451D01*
X325428D01*
X326033Y396181D01*
X325500Y394895D01*
Y393105D01*
X326185Y391451D01*
X327451Y390185D01*
X329105Y389500D01*
X330895D01*
X332549Y390185D01*
X333815Y391451D01*
X333815Y391451D01*
X344778D01*
X345754Y391645D01*
X346581Y392198D01*
X351834Y397451D01*
X354983D01*
X355179Y396719D01*
X356298Y394781D01*
X357881Y393198D01*
X359819Y392079D01*
X361981Y391500D01*
X364219D01*
X366381Y392079D01*
X368319Y393198D01*
X369902Y394781D01*
X371021Y396719D01*
X371600Y398881D01*
Y401119D01*
X371021Y403281D01*
X369902Y405219D01*
X368319Y406802D01*
X366381Y407921D01*
X364219Y408500D01*
D02*
G37*
G36*
X542339D02*
X540101D01*
X537939Y407921D01*
X536001Y406802D01*
X534418Y405219D01*
X533299Y403281D01*
X532720Y401119D01*
Y398881D01*
X533299Y396719D01*
X534418Y394781D01*
X536001Y393198D01*
X537939Y392079D01*
X540101Y391500D01*
X542339D01*
X544501Y392079D01*
X546439Y393198D01*
X548022Y394781D01*
X549141Y396719D01*
X549337Y397451D01*
X576185D01*
X576185Y397451D01*
X577451Y396185D01*
X579105Y395500D01*
X580895D01*
X582549Y396185D01*
X583815Y397451D01*
X584500Y399105D01*
Y400895D01*
X583815Y402549D01*
X582549Y403815D01*
X580895Y404500D01*
X579105D01*
X577451Y403815D01*
X576185Y402549D01*
X576185Y402549D01*
X549337D01*
X549141Y403281D01*
X548022Y405219D01*
X546439Y406802D01*
X544501Y407921D01*
X542339Y408500D01*
D02*
G37*
G36*
X33699D02*
X31461D01*
X29299Y407921D01*
X27361Y406802D01*
X25778Y405219D01*
X24659Y403281D01*
X24080Y401119D01*
Y398881D01*
X24659Y396719D01*
X25778Y394781D01*
X27361Y393198D01*
X29299Y392079D01*
X31461Y391500D01*
X33699D01*
X35861Y392079D01*
X37799Y393198D01*
X39382Y394781D01*
X40501Y396719D01*
X40697Y397451D01*
X54185D01*
X54185Y397451D01*
X55451Y396185D01*
X57105Y395500D01*
X58895D01*
X60549Y396185D01*
X61815Y397451D01*
X62500Y399105D01*
Y400895D01*
X61815Y402549D01*
X60549Y403815D01*
X58895Y404500D01*
X57105D01*
X55451Y403815D01*
X54185Y402549D01*
X54185Y402549D01*
X40697D01*
X40501Y403281D01*
X39382Y405219D01*
X37799Y406802D01*
X35861Y407921D01*
X33699Y408500D01*
D02*
G37*
G36*
X388019D02*
X385781D01*
X383619Y407921D01*
X381681Y406802D01*
X380098Y405219D01*
X378979Y403281D01*
X378400Y401119D01*
Y398881D01*
X378979Y396719D01*
X380098Y394781D01*
X381681Y393198D01*
X383619Y392079D01*
X385781Y391500D01*
X388019D01*
X390181Y392079D01*
X392119Y393198D01*
X393702Y394781D01*
X394821Y396719D01*
X394883Y396951D01*
X422978D01*
X423185Y396451D01*
X424451Y395185D01*
X426105Y394500D01*
X427895D01*
X429549Y395185D01*
X430815Y396451D01*
X431500Y398105D01*
Y399895D01*
X430815Y401549D01*
X429549Y402815D01*
X427895Y403500D01*
X426105D01*
X424451Y402815D01*
X423685Y402049D01*
X395151D01*
X394821Y403281D01*
X393702Y405219D01*
X392119Y406802D01*
X390181Y407921D01*
X388019Y408500D01*
D02*
G37*
G36*
X618539D02*
X616301D01*
X614139Y407921D01*
X612201Y406802D01*
X610618Y405219D01*
X609499Y403281D01*
X609303Y402549D01*
X595000D01*
X594025Y402355D01*
X593198Y401802D01*
X586895Y395500D01*
X586895Y395500D01*
X585105D01*
X583451Y394815D01*
X582185Y393549D01*
X581500Y391895D01*
Y390105D01*
X582185Y388451D01*
X583451Y387185D01*
X585105Y386500D01*
X586895D01*
X588549Y387185D01*
X589815Y388451D01*
X590500Y390105D01*
Y391895D01*
X590500Y391895D01*
X596056Y397451D01*
X609303D01*
X609499Y396719D01*
X610618Y394781D01*
X612201Y393198D01*
X614139Y392079D01*
X616301Y391500D01*
X618539D01*
X620701Y392079D01*
X622639Y393198D01*
X624222Y394781D01*
X625341Y396719D01*
X625920Y398881D01*
Y401119D01*
X625341Y403281D01*
X624222Y405219D01*
X622639Y406802D01*
X620701Y407921D01*
X618539Y408500D01*
D02*
G37*
G36*
X364219Y383100D02*
X361981D01*
X359819Y382521D01*
X357881Y381402D01*
X356298Y379819D01*
X355179Y377881D01*
X355037Y377349D01*
X339898D01*
X339815Y377549D01*
X338549Y378815D01*
X336895Y379500D01*
X335105D01*
X333451Y378815D01*
X332185Y377549D01*
X331500Y375895D01*
Y374105D01*
X332185Y372451D01*
X333451Y371185D01*
X335105Y370500D01*
X336895D01*
X338549Y371185D01*
X339615Y372251D01*
X354930D01*
X355179Y371319D01*
X356298Y369381D01*
X357881Y367798D01*
X359819Y366679D01*
X361981Y366100D01*
X364219D01*
X366381Y366679D01*
X368319Y367798D01*
X369902Y369381D01*
X371021Y371319D01*
X371600Y373481D01*
Y375719D01*
X371021Y377881D01*
X369902Y379819D01*
X368319Y381402D01*
X366381Y382521D01*
X364219Y383100D01*
D02*
G37*
G36*
X209899D02*
X207661D01*
X205499Y382521D01*
X203561Y381402D01*
X201978Y379819D01*
X200859Y377881D01*
X200717Y377349D01*
X161898D01*
X161815Y377549D01*
X160549Y378815D01*
X158895Y379500D01*
X157105D01*
X155451Y378815D01*
X154185Y377549D01*
X153500Y375895D01*
Y374105D01*
X154185Y372451D01*
X155451Y371185D01*
X157105Y370500D01*
X158895D01*
X160549Y371185D01*
X161615Y372251D01*
X200610D01*
X200859Y371319D01*
X201978Y369381D01*
X203561Y367798D01*
X205499Y366679D01*
X207661Y366100D01*
X209899D01*
X212061Y366679D01*
X213999Y367798D01*
X215582Y369381D01*
X216701Y371319D01*
X217280Y373481D01*
Y375719D01*
X216701Y377881D01*
X215582Y379819D01*
X213999Y381402D01*
X212061Y382521D01*
X209899Y383100D01*
D02*
G37*
G36*
X464219D02*
X461981D01*
X459819Y382521D01*
X457881Y381402D01*
X456298Y379819D01*
X455179Y377881D01*
X454903Y376849D01*
X416515D01*
X415549Y377815D01*
X413895Y378500D01*
X412105D01*
X410451Y377815D01*
X409185Y376549D01*
X408500Y374895D01*
Y373105D01*
X409185Y371451D01*
X410451Y370185D01*
X412105Y369500D01*
X413895D01*
X415549Y370185D01*
X416815Y371451D01*
X416939Y371751D01*
X455064D01*
X455179Y371319D01*
X456298Y369381D01*
X457881Y367798D01*
X459819Y366679D01*
X461981Y366100D01*
X464219D01*
X466381Y366679D01*
X468319Y367798D01*
X469902Y369381D01*
X471021Y371319D01*
X471600Y373481D01*
Y375719D01*
X471021Y377881D01*
X469902Y379819D01*
X468319Y381402D01*
X466381Y382521D01*
X464219Y383100D01*
D02*
G37*
G36*
X109899D02*
X107661D01*
X105499Y382521D01*
X103561Y381402D01*
X101978Y379819D01*
X100859Y377881D01*
X100583Y376849D01*
X60515D01*
X59549Y377815D01*
X57895Y378500D01*
X56105D01*
X54451Y377815D01*
X53185Y376549D01*
X52500Y374895D01*
Y373105D01*
X53185Y371451D01*
X54451Y370185D01*
X56105Y369500D01*
X57895D01*
X59549Y370185D01*
X60815Y371451D01*
X60939Y371751D01*
X100744D01*
X100859Y371319D01*
X101978Y369381D01*
X103561Y367798D01*
X105499Y366679D01*
X107661Y366100D01*
X109899D01*
X112061Y366679D01*
X113999Y367798D01*
X115582Y369381D01*
X116701Y371319D01*
X117280Y373481D01*
Y375719D01*
X116701Y377881D01*
X115582Y379819D01*
X113999Y381402D01*
X112061Y382521D01*
X109899Y383100D01*
D02*
G37*
G36*
X618539D02*
X616301D01*
X614139Y382521D01*
X612201Y381402D01*
X610618Y379819D01*
X609499Y377881D01*
X609080Y376314D01*
X576050D01*
X575549Y376815D01*
X573895Y377500D01*
X572105D01*
X570451Y376815D01*
X569185Y375549D01*
X568500Y373895D01*
Y372105D01*
X569185Y370451D01*
X570451Y369185D01*
X572105Y368500D01*
X573895D01*
X575549Y369185D01*
X576815Y370451D01*
X577132Y371216D01*
X609559D01*
X610618Y369381D01*
X612201Y367798D01*
X614139Y366679D01*
X616301Y366100D01*
X618539D01*
X620701Y366679D01*
X622639Y367798D01*
X624222Y369381D01*
X625341Y371319D01*
X625920Y373481D01*
Y375719D01*
X625341Y377881D01*
X624222Y379819D01*
X622639Y381402D01*
X620701Y382521D01*
X618539Y383100D01*
D02*
G37*
G36*
X718539D02*
X716301D01*
X714139Y382521D01*
X712201Y381402D01*
X710618Y379819D01*
X709499Y377881D01*
X708920Y375719D01*
Y373481D01*
X709499Y371319D01*
X710618Y369381D01*
X712201Y367798D01*
X714139Y366679D01*
X716301Y366100D01*
X718539D01*
X720701Y366679D01*
X722639Y367798D01*
X724222Y369381D01*
X725341Y371319D01*
X725920Y373481D01*
Y375719D01*
X725341Y377881D01*
X724222Y379819D01*
X722639Y381402D01*
X720701Y382521D01*
X718539Y383100D01*
D02*
G37*
G36*
X642339D02*
X640101D01*
X637939Y382521D01*
X636001Y381402D01*
X634418Y379819D01*
X633299Y377881D01*
X632720Y375719D01*
Y373481D01*
X633299Y371319D01*
X634418Y369381D01*
X636001Y367798D01*
X637939Y366679D01*
X640101Y366100D01*
X642339D01*
X644501Y366679D01*
X646439Y367798D01*
X648022Y369381D01*
X649141Y371319D01*
X649720Y373481D01*
Y375719D01*
X649141Y377881D01*
X648022Y379819D01*
X646439Y381402D01*
X644501Y382521D01*
X642339Y383100D01*
D02*
G37*
G36*
X542339D02*
X540101D01*
X537939Y382521D01*
X536001Y381402D01*
X534418Y379819D01*
X533299Y377881D01*
X532720Y375719D01*
Y373481D01*
X533299Y371319D01*
X534418Y369381D01*
X536001Y367798D01*
X537939Y366679D01*
X540101Y366100D01*
X542339D01*
X544501Y366679D01*
X546439Y367798D01*
X548022Y369381D01*
X549141Y371319D01*
X549720Y373481D01*
Y375719D01*
X549141Y377881D01*
X548022Y379819D01*
X546439Y381402D01*
X544501Y382521D01*
X542339Y383100D01*
D02*
G37*
G36*
X388019D02*
X385781D01*
X383619Y382521D01*
X381681Y381402D01*
X380098Y379819D01*
X378979Y377881D01*
X378400Y375719D01*
Y373481D01*
X378979Y371319D01*
X380098Y369381D01*
X381681Y367798D01*
X383619Y366679D01*
X385781Y366100D01*
X388019D01*
X390181Y366679D01*
X392119Y367798D01*
X393702Y369381D01*
X394821Y371319D01*
X395400Y373481D01*
Y375719D01*
X394821Y377881D01*
X393702Y379819D01*
X392119Y381402D01*
X390181Y382521D01*
X388019Y383100D01*
D02*
G37*
G36*
X288019D02*
X285781D01*
X283619Y382521D01*
X281681Y381402D01*
X280098Y379819D01*
X278979Y377881D01*
X278400Y375719D01*
Y373481D01*
X278979Y371319D01*
X280098Y369381D01*
X281681Y367798D01*
X283619Y366679D01*
X285781Y366100D01*
X288019D01*
X290181Y366679D01*
X292119Y367798D01*
X293702Y369381D01*
X294821Y371319D01*
X295400Y373481D01*
Y375719D01*
X294821Y377881D01*
X293702Y379819D01*
X292119Y381402D01*
X290181Y382521D01*
X288019Y383100D01*
D02*
G37*
G36*
X133699D02*
X131461D01*
X129299Y382521D01*
X127361Y381402D01*
X125778Y379819D01*
X124659Y377881D01*
X124080Y375719D01*
Y373481D01*
X124659Y371319D01*
X125778Y369381D01*
X127361Y367798D01*
X129299Y366679D01*
X131461Y366100D01*
X133699D01*
X135861Y366679D01*
X137799Y367798D01*
X139382Y369381D01*
X140501Y371319D01*
X141080Y373481D01*
Y375719D01*
X140501Y377881D01*
X139382Y379819D01*
X137799Y381402D01*
X135861Y382521D01*
X133699Y383100D01*
D02*
G37*
G36*
X33699D02*
X31461D01*
X29299Y382521D01*
X27361Y381402D01*
X25778Y379819D01*
X24659Y377881D01*
X24080Y375719D01*
Y373481D01*
X24659Y371319D01*
X25778Y369381D01*
X27361Y367798D01*
X29299Y366679D01*
X31461Y366100D01*
X33699D01*
X35861Y366679D01*
X37799Y367798D01*
X39382Y369381D01*
X40501Y371319D01*
X41080Y373481D01*
Y375719D01*
X40501Y377881D01*
X39382Y379819D01*
X37799Y381402D01*
X35861Y382521D01*
X33699Y383100D01*
D02*
G37*
G36*
X786895Y368500D02*
X785105D01*
X783451Y367815D01*
X782185Y366549D01*
X781500Y364895D01*
Y363105D01*
X782185Y361451D01*
X783451Y360185D01*
X785105Y359500D01*
X786895D01*
X788549Y360185D01*
X789815Y361451D01*
X790500Y363105D01*
Y364895D01*
X789815Y366549D01*
X788549Y367815D01*
X786895Y368500D01*
D02*
G37*
G36*
X344895Y360500D02*
X343105D01*
X341451Y359815D01*
X340185Y358549D01*
X340185Y358549D01*
X295242D01*
X294267Y358355D01*
X293440Y357802D01*
X291815Y356177D01*
X290181Y357121D01*
X288019Y357700D01*
X285781D01*
X283619Y357121D01*
X281681Y356002D01*
X280098Y354419D01*
X278979Y352481D01*
X278400Y350319D01*
Y348081D01*
X278979Y345919D01*
X280098Y343981D01*
X281681Y342398D01*
X283619Y341279D01*
X285781Y340700D01*
X288019D01*
X290181Y341279D01*
X292119Y342398D01*
X293702Y343981D01*
X294821Y345919D01*
X295400Y348081D01*
Y350319D01*
X294928Y352081D01*
X296298Y353451D01*
X300428D01*
X301033Y352181D01*
X300500Y350895D01*
Y349105D01*
X301185Y347451D01*
X302451Y346185D01*
X304105Y345500D01*
X305895D01*
X307549Y346185D01*
X308815Y347451D01*
X309500Y349105D01*
Y350895D01*
X308967Y352181D01*
X309572Y353451D01*
X315094D01*
X315580Y352278D01*
X315518Y352216D01*
X314833Y350562D01*
Y348772D01*
X315518Y347118D01*
X316784Y345852D01*
X318438Y345167D01*
X320228D01*
X321882Y345852D01*
X323148Y347118D01*
X323833Y348772D01*
Y350562D01*
X323148Y352216D01*
X323086Y352278D01*
X323572Y353451D01*
X325428D01*
X326033Y352181D01*
X325500Y350895D01*
Y349105D01*
X326185Y347451D01*
X327451Y346185D01*
X329105Y345500D01*
X330895D01*
X332549Y346185D01*
X333815Y347451D01*
X334500Y349105D01*
Y350895D01*
X333967Y352181D01*
X334572Y353451D01*
X340185D01*
X340185Y353451D01*
X341451Y352185D01*
X343105Y351500D01*
X344895D01*
X346549Y352185D01*
X347815Y353451D01*
X348500Y355105D01*
Y356895D01*
X347815Y358549D01*
X346549Y359815D01*
X344895Y360500D01*
D02*
G37*
G36*
X442895Y363500D02*
X441105D01*
X439451Y362815D01*
X438185Y361549D01*
X437500Y359895D01*
Y358105D01*
X438185Y356451D01*
X439451Y355185D01*
X441105Y354500D01*
X442895D01*
X444549Y355185D01*
X445815Y356451D01*
X446500Y358105D01*
Y359895D01*
X445815Y361549D01*
X444549Y362815D01*
X442895Y363500D01*
D02*
G37*
G36*
X560895Y361500D02*
X559105D01*
X557451Y360815D01*
X556185Y359549D01*
X555500Y357895D01*
Y356105D01*
X556185Y354451D01*
X556582Y354054D01*
X556056Y352784D01*
X548966D01*
X548022Y354419D01*
X546439Y356002D01*
X544501Y357121D01*
X542339Y357700D01*
X540101D01*
X537939Y357121D01*
X536001Y356002D01*
X534418Y354419D01*
X533299Y352481D01*
X532720Y350319D01*
Y348081D01*
X533299Y345919D01*
X534418Y343981D01*
X536001Y342398D01*
X537939Y341279D01*
X540101Y340700D01*
X542339D01*
X544501Y341279D01*
X546439Y342398D01*
X548022Y343981D01*
X549141Y345919D01*
X549614Y347686D01*
X583317D01*
X583825Y347585D01*
X588381D01*
X588888Y347686D01*
X588950D01*
X589451Y347185D01*
X591105Y346500D01*
X592895D01*
X594549Y347185D01*
X595815Y348451D01*
X596500Y350105D01*
Y351895D01*
X595815Y353549D01*
X594549Y354815D01*
X592895Y355500D01*
X591105D01*
X590603Y355836D01*
Y356529D01*
X589917Y358183D01*
X588652Y359449D01*
X586998Y360134D01*
X585207D01*
X583554Y359449D01*
X582288Y358183D01*
X581603Y356529D01*
Y354739D01*
X581886Y354054D01*
X581038Y352784D01*
X572807D01*
X572065Y354054D01*
X572500Y355105D01*
Y356895D01*
X571815Y358549D01*
X570549Y359815D01*
X568895Y360500D01*
X567105D01*
X565451Y359815D01*
X564958Y359322D01*
X563815Y359549D01*
X562549Y360815D01*
X560895Y361500D01*
D02*
G37*
G36*
X185895Y360500D02*
X184105D01*
X182451Y359815D01*
X181185Y358549D01*
X180500Y356895D01*
Y355105D01*
X180500Y355105D01*
X177144Y351749D01*
X140697D01*
X140501Y352481D01*
X139382Y354419D01*
X137799Y356002D01*
X135861Y357121D01*
X133699Y357700D01*
X131461D01*
X129299Y357121D01*
X127361Y356002D01*
X125778Y354419D01*
X124659Y352481D01*
X124080Y350319D01*
Y348081D01*
X124659Y345919D01*
X125778Y343981D01*
X127361Y342398D01*
X129299Y341279D01*
X131461Y340700D01*
X133699D01*
X135861Y341279D01*
X137799Y342398D01*
X139382Y343981D01*
X140501Y345919D01*
X140697Y346651D01*
X178200D01*
X179175Y346845D01*
X180002Y347398D01*
X184105Y351500D01*
X184105Y351500D01*
X185895D01*
X187549Y352185D01*
X188815Y353451D01*
X189500Y355105D01*
Y356895D01*
X188815Y358549D01*
X187549Y359815D01*
X185895Y360500D01*
D02*
G37*
G36*
X464219Y357700D02*
X461981D01*
X459819Y357121D01*
X457881Y356002D01*
X456298Y354419D01*
X455179Y352481D01*
X454770Y350953D01*
X453500Y351121D01*
Y351895D01*
X452815Y353549D01*
X451549Y354815D01*
X449895Y355500D01*
X448105D01*
X446451Y354815D01*
X445185Y353549D01*
X444500Y351895D01*
Y350105D01*
X444500Y350105D01*
X438944Y344549D01*
X424941D01*
X424516Y345819D01*
X425481Y346784D01*
X426167Y348438D01*
Y350229D01*
X425481Y351882D01*
X424216Y353148D01*
X422562Y353833D01*
X420771D01*
X419118Y353148D01*
X417852Y351882D01*
X417167Y350229D01*
Y348438D01*
X417852Y346784D01*
X418817Y345819D01*
X418392Y344549D01*
X405918D01*
X405665Y345819D01*
X406549Y346185D01*
X407815Y347451D01*
X408500Y349105D01*
Y350895D01*
X407815Y352549D01*
X406549Y353815D01*
X404895Y354500D01*
X403105D01*
X401451Y353815D01*
X400185Y352549D01*
X399500Y350895D01*
Y349105D01*
X400185Y347451D01*
X401451Y346185D01*
X402335Y345819D01*
X402082Y344549D01*
X395439D01*
X394639Y345605D01*
X394821Y345919D01*
X395400Y348081D01*
Y350319D01*
X394821Y352481D01*
X393702Y354419D01*
X392119Y356002D01*
X390181Y357121D01*
X388019Y357700D01*
X385781D01*
X383619Y357121D01*
X381681Y356002D01*
X380098Y354419D01*
X378979Y352481D01*
X378400Y350319D01*
Y348081D01*
X378979Y345919D01*
X380098Y343981D01*
X381681Y342398D01*
X383619Y341279D01*
X385781Y340700D01*
X388019D01*
X390181Y341279D01*
X390837Y341658D01*
X392298Y340198D01*
X393125Y339645D01*
X394100Y339451D01*
X440000D01*
X440975Y339645D01*
X441802Y340198D01*
X448105Y346500D01*
X448105Y346500D01*
X449895D01*
X451549Y347185D01*
X452815Y348451D01*
X453330Y349695D01*
X454600Y349442D01*
Y348081D01*
X455179Y345919D01*
X456298Y343981D01*
X457881Y342398D01*
X459819Y341279D01*
X461981Y340700D01*
X464219D01*
X466381Y341279D01*
X468319Y342398D01*
X469902Y343981D01*
X471021Y345919D01*
X471600Y348081D01*
Y350319D01*
X471021Y352481D01*
X469902Y354419D01*
X468319Y356002D01*
X466381Y357121D01*
X464219Y357700D01*
D02*
G37*
G36*
X33699D02*
X31461D01*
X29299Y357121D01*
X27361Y356002D01*
X25778Y354419D01*
X24659Y352481D01*
X24080Y350319D01*
Y348081D01*
X24659Y345919D01*
X25778Y343981D01*
X27361Y342398D01*
X29299Y341279D01*
X31461Y340700D01*
X33699D01*
X35861Y341279D01*
X37799Y342398D01*
X39382Y343981D01*
X40501Y345919D01*
X40697Y346651D01*
X90118D01*
X91093Y346845D01*
X91161Y346891D01*
X92105Y346500D01*
X93895D01*
X95549Y347185D01*
X96815Y348451D01*
X97500Y350105D01*
Y351895D01*
X96815Y353549D01*
X95549Y354815D01*
X93895Y355500D01*
X92105D01*
X90451Y354815D01*
X89185Y353549D01*
X88500Y351895D01*
Y351749D01*
X40697D01*
X40501Y352481D01*
X39382Y354419D01*
X37799Y356002D01*
X35861Y357121D01*
X33699Y357700D01*
D02*
G37*
G36*
X642339D02*
X640101D01*
X637939Y357121D01*
X636001Y356002D01*
X634418Y354419D01*
X633299Y352481D01*
X632720Y350319D01*
Y348081D01*
X633299Y345919D01*
X634418Y343981D01*
X636001Y342398D01*
X637939Y341279D01*
X640101Y340700D01*
X642339D01*
X644501Y341279D01*
X646439Y342398D01*
X648022Y343981D01*
X649141Y345919D01*
X649614Y347686D01*
X696950D01*
X697451Y347185D01*
X699105Y346500D01*
X700895D01*
X702549Y347185D01*
X703815Y348451D01*
X704500Y350105D01*
Y351895D01*
X703815Y353549D01*
X702549Y354815D01*
X700895Y355500D01*
X699105D01*
X697451Y354815D01*
X696185Y353549D01*
X695868Y352784D01*
X648966D01*
X648022Y354419D01*
X646439Y356002D01*
X644501Y357121D01*
X642339Y357700D01*
D02*
G37*
G36*
X718539D02*
X716301D01*
X714139Y357121D01*
X712201Y356002D01*
X710618Y354419D01*
X709499Y352481D01*
X708920Y350319D01*
Y348081D01*
X709499Y345919D01*
X710618Y343981D01*
X712201Y342398D01*
X714139Y341279D01*
X716301Y340700D01*
X718539D01*
X720701Y341279D01*
X722639Y342398D01*
X724222Y343981D01*
X725341Y345919D01*
X725920Y348081D01*
Y350319D01*
X725341Y352481D01*
X724222Y354419D01*
X722639Y356002D01*
X720701Y357121D01*
X718539Y357700D01*
D02*
G37*
G36*
X618539D02*
X616301D01*
X614139Y357121D01*
X612201Y356002D01*
X610618Y354419D01*
X609499Y352481D01*
X608920Y350319D01*
Y348081D01*
X609499Y345919D01*
X610618Y343981D01*
X612201Y342398D01*
X614139Y341279D01*
X616301Y340700D01*
X618539D01*
X620701Y341279D01*
X622639Y342398D01*
X624222Y343981D01*
X625341Y345919D01*
X625920Y348081D01*
Y350319D01*
X625341Y352481D01*
X624222Y354419D01*
X622639Y356002D01*
X620701Y357121D01*
X618539Y357700D01*
D02*
G37*
G36*
X364219D02*
X361981D01*
X359819Y357121D01*
X357881Y356002D01*
X356298Y354419D01*
X355179Y352481D01*
X354600Y350319D01*
Y348081D01*
X355179Y345919D01*
X356298Y343981D01*
X357881Y342398D01*
X359819Y341279D01*
X361981Y340700D01*
X364219D01*
X366381Y341279D01*
X368319Y342398D01*
X369902Y343981D01*
X371021Y345919D01*
X371600Y348081D01*
Y350319D01*
X371021Y352481D01*
X369902Y354419D01*
X368319Y356002D01*
X366381Y357121D01*
X364219Y357700D01*
D02*
G37*
G36*
X209899D02*
X207661D01*
X205499Y357121D01*
X203561Y356002D01*
X201978Y354419D01*
X200859Y352481D01*
X200280Y350319D01*
Y348081D01*
X200859Y345919D01*
X201978Y343981D01*
X203561Y342398D01*
X205499Y341279D01*
X207661Y340700D01*
X209899D01*
X212061Y341279D01*
X213999Y342398D01*
X215582Y343981D01*
X216701Y345919D01*
X217280Y348081D01*
Y350319D01*
X216701Y352481D01*
X215582Y354419D01*
X213999Y356002D01*
X212061Y357121D01*
X209899Y357700D01*
D02*
G37*
G36*
X109899D02*
X107661D01*
X105499Y357121D01*
X103561Y356002D01*
X101978Y354419D01*
X100859Y352481D01*
X100280Y350319D01*
Y348081D01*
X100859Y345919D01*
X101978Y343981D01*
X103561Y342398D01*
X105499Y341279D01*
X107661Y340700D01*
X109899D01*
X112061Y341279D01*
X113999Y342398D01*
X115582Y343981D01*
X116701Y345919D01*
X117280Y348081D01*
Y350319D01*
X116701Y352481D01*
X115582Y354419D01*
X113999Y356002D01*
X112061Y357121D01*
X109899Y357700D01*
D02*
G37*
G36*
X403895Y331500D02*
X402105D01*
X400451Y330815D01*
X399185Y329549D01*
X398500Y327895D01*
Y326105D01*
X398815Y325345D01*
X397738Y324626D01*
X397549Y324815D01*
X395895Y325500D01*
X394105D01*
X392451Y324815D01*
X391185Y323549D01*
X390500Y321895D01*
Y320105D01*
X391185Y318451D01*
X392451Y317185D01*
X394105Y316500D01*
X395895D01*
X397549Y317185D01*
X398815Y318451D01*
X399500Y320105D01*
Y321895D01*
X399185Y322655D01*
X400262Y323374D01*
X400451Y323185D01*
X402105Y322500D01*
X403895D01*
X405549Y323185D01*
X406815Y324451D01*
X407500Y326105D01*
Y327895D01*
X406815Y329549D01*
X405549Y330815D01*
X403895Y331500D01*
D02*
G37*
G36*
X282895Y332500D02*
X281105D01*
X279451Y331815D01*
X278185Y330549D01*
X277500Y328895D01*
Y327105D01*
X278185Y325451D01*
X279451Y324185D01*
X281105Y323500D01*
X282895D01*
X284549Y324185D01*
X285815Y325451D01*
X286500Y327105D01*
Y328895D01*
X285815Y330549D01*
X284549Y331815D01*
X282895Y332500D01*
D02*
G37*
G36*
X13895Y330500D02*
X12105D01*
X10451Y329815D01*
X9185Y328549D01*
X8500Y326895D01*
Y325105D01*
X9185Y323451D01*
X10451Y322185D01*
X12105Y321500D01*
X13895D01*
X15549Y322185D01*
X16815Y323451D01*
X17500Y325105D01*
Y326895D01*
X16815Y328549D01*
X15549Y329815D01*
X13895Y330500D01*
D02*
G37*
G36*
X132895Y329500D02*
X131105D01*
X129451Y328815D01*
X128185Y327549D01*
X127500Y325895D01*
Y324105D01*
X128185Y322451D01*
X129451Y321185D01*
X131105Y320500D01*
X132895D01*
X134549Y321185D01*
X135815Y322451D01*
X136500Y324105D01*
Y325895D01*
X135815Y327549D01*
X134549Y328815D01*
X132895Y329500D01*
D02*
G37*
G36*
X567215Y326180D02*
X565425D01*
X563771Y325495D01*
X562505Y324229D01*
X561820Y322575D01*
Y320785D01*
X562505Y319131D01*
X563771Y317865D01*
X565425Y317180D01*
X567215D01*
X568869Y317865D01*
X570135Y319131D01*
X570820Y320785D01*
Y322575D01*
X570135Y324229D01*
X568869Y325495D01*
X567215Y326180D01*
D02*
G37*
G36*
X158575D02*
X156785D01*
X155131Y325495D01*
X153865Y324229D01*
X153180Y322575D01*
Y320785D01*
X153865Y319131D01*
X155131Y317865D01*
X156785Y317180D01*
X158575D01*
X160229Y317865D01*
X161495Y319131D01*
X162180Y320785D01*
Y322575D01*
X161495Y324229D01*
X160229Y325495D01*
X158575Y326180D01*
D02*
G37*
G36*
X58575Y325820D02*
X56785D01*
X55131Y325135D01*
X53865Y323869D01*
X53180Y322215D01*
Y320425D01*
X53865Y318771D01*
X55131Y317505D01*
X56785Y316820D01*
X58575D01*
X60229Y317505D01*
X61495Y318771D01*
X62180Y320425D01*
Y322215D01*
X61495Y323869D01*
X60229Y325135D01*
X58575Y325820D01*
D02*
G37*
G36*
X550662Y325733D02*
X548871D01*
X547217Y325048D01*
X545952Y323783D01*
X545266Y322129D01*
Y320338D01*
X545952Y318685D01*
X547217Y317419D01*
X548871Y316733D01*
X550662D01*
X552315Y317419D01*
X553581Y318685D01*
X554267Y320338D01*
Y322129D01*
X553581Y323783D01*
X552315Y325048D01*
X550662Y325733D01*
D02*
G37*
G36*
X645895Y325500D02*
X644105D01*
X642451Y324815D01*
X641185Y323549D01*
X640500Y321895D01*
Y320105D01*
X641185Y318451D01*
X642451Y317185D01*
X644105Y316500D01*
X645895D01*
X647549Y317185D01*
X648815Y318451D01*
X649500Y320105D01*
Y321895D01*
X648815Y323549D01*
X647549Y324815D01*
X645895Y325500D01*
D02*
G37*
G36*
X291895Y324500D02*
X290105D01*
X288451Y323815D01*
X287185Y322549D01*
X286500Y320895D01*
Y319105D01*
X287185Y317451D01*
X288451Y316185D01*
X290105Y315500D01*
X291895D01*
X293549Y316185D01*
X294815Y317451D01*
X295500Y319105D01*
Y320895D01*
X294815Y322549D01*
X293549Y323815D01*
X291895Y324500D01*
D02*
G37*
G36*
X385895Y307500D02*
X384105D01*
X382451Y306815D01*
X381185Y305549D01*
X380500Y303895D01*
Y302105D01*
X380500Y302105D01*
X377444Y299049D01*
X213315D01*
X212549Y299815D01*
X210895Y300500D01*
X209105D01*
X207451Y299815D01*
X206185Y298549D01*
X205500Y296895D01*
Y295105D01*
X206185Y293451D01*
X207451Y292185D01*
X209105Y291500D01*
X210895D01*
X212549Y292185D01*
X213815Y293451D01*
X214022Y293951D01*
X233977D01*
X234825Y292681D01*
X234500Y291895D01*
Y290105D01*
X235185Y288451D01*
X236451Y287185D01*
X238105Y286500D01*
X239895D01*
X241549Y287185D01*
X242815Y288451D01*
X243500Y290105D01*
Y290451D01*
X374944D01*
X384500Y280895D01*
X384500Y280895D01*
Y279105D01*
X385185Y277451D01*
X385374Y277262D01*
X384655Y276185D01*
X383895Y276500D01*
X382105D01*
X380451Y275815D01*
X379185Y274549D01*
X378500Y272895D01*
Y271105D01*
X379185Y269451D01*
X380451Y268185D01*
X382105Y267500D01*
X383895D01*
X385549Y268185D01*
X386815Y269451D01*
X386815Y269451D01*
X551500D01*
X552476Y269645D01*
X553302Y270198D01*
X560605Y277500D01*
X560605Y277500D01*
X562395D01*
X564049Y278185D01*
X565315Y279451D01*
X566000Y281105D01*
Y282895D01*
X565315Y284549D01*
X564049Y285815D01*
X562395Y286500D01*
X560605D01*
X558951Y285815D01*
X557685Y284549D01*
X557000Y282895D01*
Y281105D01*
X557000Y281105D01*
X550444Y274549D01*
X390918D01*
X390665Y275819D01*
X391549Y276185D01*
X392815Y277451D01*
X393500Y279105D01*
Y280895D01*
X392815Y282549D01*
X391549Y283815D01*
X389895Y284500D01*
X388105D01*
X388105Y284500D01*
X379626Y292979D01*
X379943Y294458D01*
X380302Y294698D01*
X384105Y298500D01*
X384105Y298500D01*
X385895D01*
X387549Y299185D01*
X388815Y300451D01*
X389500Y302105D01*
Y303895D01*
X388815Y305549D01*
X387549Y306815D01*
X385895Y307500D01*
D02*
G37*
G36*
X507895D02*
X506105D01*
X504451Y306815D01*
X503185Y305549D01*
X502500Y303895D01*
Y302105D01*
X503185Y300451D01*
X504451Y299185D01*
X506105Y298500D01*
X507895D01*
X509549Y299185D01*
X510815Y300451D01*
X511500Y302105D01*
Y303895D01*
X510815Y305549D01*
X509549Y306815D01*
X507895Y307500D01*
D02*
G37*
G36*
X659471Y296561D02*
X657680D01*
X656026Y295876D01*
X654761Y294610D01*
X654075Y292956D01*
Y291166D01*
X654761Y289512D01*
X656026Y288246D01*
X657680Y287561D01*
X659471D01*
X661124Y288246D01*
X662390Y289512D01*
X663075Y291166D01*
Y292956D01*
X662390Y294610D01*
X661124Y295876D01*
X659471Y296561D01*
D02*
G37*
G36*
X251895Y281500D02*
X250105D01*
X248451Y280815D01*
X247185Y279549D01*
X247185Y279549D01*
X218815D01*
X218815Y279549D01*
X217549Y280815D01*
X215895Y281500D01*
X214105D01*
X212451Y280815D01*
X211185Y279549D01*
X210500Y277895D01*
Y276105D01*
X211185Y274451D01*
X212451Y273185D01*
X214105Y272500D01*
X215895D01*
X217549Y273185D01*
X218815Y274451D01*
X218815Y274451D01*
X247185D01*
X247185Y274451D01*
X248451Y273185D01*
X250105Y272500D01*
X251895D01*
X253549Y273185D01*
X254815Y274451D01*
X255500Y276105D01*
Y277895D01*
X254815Y279549D01*
X253549Y280815D01*
X251895Y281500D01*
D02*
G37*
G36*
X638895Y275500D02*
X637105D01*
X635451Y274815D01*
X634185Y273549D01*
X633500Y271895D01*
Y270105D01*
X634185Y268451D01*
X635451Y267185D01*
X637105Y266500D01*
X638895D01*
X640549Y267185D01*
X641815Y268451D01*
X642500Y270105D01*
Y271895D01*
X641815Y273549D01*
X640549Y274815D01*
X638895Y275500D01*
D02*
G37*
G36*
X158895Y272500D02*
X157105D01*
X155451Y271815D01*
X154185Y270549D01*
X153500Y268895D01*
Y267105D01*
X154185Y265451D01*
X155451Y264185D01*
X157105Y263500D01*
X158895D01*
X160549Y264185D01*
X161815Y265451D01*
X162500Y267105D01*
Y268895D01*
X161815Y270549D01*
X160549Y271815D01*
X158895Y272500D01*
D02*
G37*
G36*
X130895Y268500D02*
X129105D01*
X127451Y267815D01*
X126185Y266549D01*
X125500Y264895D01*
Y263105D01*
X126185Y261451D01*
X127451Y260185D01*
X129105Y259500D01*
X130895D01*
X132549Y260185D01*
X133815Y261451D01*
X134500Y263105D01*
Y264895D01*
X133815Y266549D01*
X132549Y267815D01*
X130895Y268500D01*
D02*
G37*
G36*
X375895Y251500D02*
X374105D01*
X372451Y250815D01*
X371185Y249549D01*
X370500Y247895D01*
Y246105D01*
X371185Y244451D01*
X372317Y243319D01*
X372224Y242691D01*
X371928Y242049D01*
X363315D01*
X363315Y242049D01*
X362049Y243315D01*
X360395Y244000D01*
X358605D01*
X356951Y243315D01*
X355685Y242049D01*
X355685Y242049D01*
X307500D01*
X306525Y241855D01*
X305698Y241302D01*
X301444Y237049D01*
X287023D01*
X286175Y238319D01*
X286500Y239105D01*
Y240895D01*
X285815Y242549D01*
X284549Y243815D01*
X282895Y244500D01*
X281105D01*
X279451Y243815D01*
X278185Y242549D01*
X277500Y240895D01*
Y239105D01*
X277826Y238319D01*
X276977Y237049D01*
X192972D01*
X188510Y241511D01*
X188510Y241511D01*
Y243302D01*
X187825Y244956D01*
X186559Y246221D01*
X184905Y246907D01*
X183115D01*
X181461Y246221D01*
X180195Y244956D01*
X180195Y244956D01*
X113406D01*
X112431Y244761D01*
X111604Y244209D01*
X100895Y233500D01*
X100895Y233500D01*
X99105D01*
X97451Y232815D01*
X96185Y231549D01*
X95500Y229895D01*
Y228105D01*
X96185Y226451D01*
X97451Y225185D01*
X99105Y224500D01*
X100895D01*
X102549Y225185D01*
X103815Y226451D01*
X104500Y228105D01*
Y229895D01*
X104500Y229895D01*
X114462Y239858D01*
X180195D01*
X180195Y239858D01*
X181461Y238592D01*
X183115Y237906D01*
X184905D01*
X184905Y237906D01*
X190114Y232698D01*
X190941Y232145D01*
X191916Y231951D01*
X202977D01*
X203826Y230681D01*
X203500Y229895D01*
Y228105D01*
X204185Y226451D01*
X205451Y225185D01*
X207105Y224500D01*
X208895D01*
X210549Y225185D01*
X211815Y226451D01*
X212500Y228105D01*
Y229895D01*
X212174Y230681D01*
X213023Y231951D01*
X302500D01*
X303475Y232145D01*
X304302Y232698D01*
X308556Y236951D01*
X355685D01*
X355685Y236951D01*
X356951Y235685D01*
X358605Y235000D01*
X360395D01*
X362049Y235685D01*
X363315Y236951D01*
X363315Y236951D01*
X394444D01*
X398698Y232698D01*
X399525Y232145D01*
X400500Y231951D01*
X433000D01*
X433975Y232145D01*
X434802Y232698D01*
X437105Y235000D01*
X437105Y235000D01*
X438895D01*
X440549Y235685D01*
X441815Y236951D01*
X442500Y238605D01*
Y239895D01*
X445556Y242951D01*
X489977D01*
X490826Y241681D01*
X490500Y240895D01*
Y239105D01*
X491185Y237451D01*
X492451Y236185D01*
X494105Y235500D01*
X495895D01*
X497549Y236185D01*
X498815Y237451D01*
X499500Y239105D01*
X500770Y239625D01*
X502198Y238198D01*
X503024Y237645D01*
X504000Y237451D01*
X555428D01*
X556033Y236181D01*
X555500Y234895D01*
Y233105D01*
X556185Y231451D01*
X557451Y230185D01*
X559105Y229500D01*
X560895D01*
X562549Y230185D01*
X563815Y231451D01*
X564500Y233105D01*
Y234895D01*
X563967Y236181D01*
X564572Y237451D01*
X589185D01*
X589185Y237451D01*
X590451Y236185D01*
X591907Y235582D01*
X592646Y234645D01*
Y232855D01*
X593331Y231201D01*
X594597Y229935D01*
X596250Y229250D01*
X598041D01*
X599695Y229935D01*
X600961Y231201D01*
X601646Y232855D01*
Y234645D01*
X600961Y236299D01*
X599695Y237565D01*
X598239Y238168D01*
X597500Y239105D01*
Y240895D01*
X597500Y240895D01*
X600056Y243451D01*
X631428D01*
X632033Y242181D01*
X631500Y240895D01*
Y239105D01*
X632185Y237451D01*
X633451Y236185D01*
X635105Y235500D01*
X636895D01*
X638549Y236185D01*
X639815Y237451D01*
X640500Y239105D01*
Y240895D01*
X639967Y242181D01*
X640572Y243451D01*
X686014D01*
X687820Y241645D01*
X687820Y241645D01*
Y239855D01*
X688505Y238201D01*
X689771Y236935D01*
X691425Y236250D01*
X693215D01*
X694869Y236935D01*
X696135Y238201D01*
X696820Y239855D01*
Y241645D01*
X696135Y243299D01*
X694869Y244565D01*
X693215Y245250D01*
X691425D01*
X691425Y245250D01*
X688872Y247802D01*
X688045Y248355D01*
X687070Y248549D01*
X599000D01*
X598025Y248355D01*
X597198Y247802D01*
X593895Y244500D01*
X593895Y244500D01*
X592105D01*
X590451Y243815D01*
X589185Y242549D01*
X589185Y242549D01*
X505056D01*
X500302Y247302D01*
X499476Y247855D01*
X498500Y248049D01*
X444500D01*
X443525Y247855D01*
X442698Y247302D01*
X439249Y243853D01*
X438895Y244000D01*
X437105D01*
X435451Y243315D01*
X434185Y242049D01*
X433500Y240395D01*
Y238605D01*
X433500Y238605D01*
X431944Y237049D01*
X408516D01*
X407667Y238319D01*
X407993Y239105D01*
Y240895D01*
X407308Y242549D01*
X406042Y243815D01*
X404388Y244500D01*
X402598D01*
X400943Y243815D01*
X399678Y242549D01*
X399143Y241258D01*
X397819Y240786D01*
X397302Y241302D01*
X396475Y241855D01*
X395500Y242049D01*
X378072D01*
X377776Y242691D01*
X377683Y243319D01*
X378815Y244451D01*
X379500Y246105D01*
Y247895D01*
X378815Y249549D01*
X377549Y250815D01*
X375895Y251500D01*
D02*
G37*
G36*
X708895Y246500D02*
X707105D01*
X705451Y245815D01*
X704185Y244549D01*
X703500Y242895D01*
Y241105D01*
X704185Y239451D01*
X705451Y238185D01*
X707105Y237500D01*
X708895D01*
X710549Y238185D01*
X711815Y239451D01*
X712500Y241105D01*
Y242895D01*
X711815Y244549D01*
X710549Y245815D01*
X708895Y246500D01*
D02*
G37*
G36*
X88895Y242500D02*
X87105D01*
X85451Y241815D01*
X84185Y240549D01*
X83500Y238895D01*
Y237105D01*
X84185Y235451D01*
X85451Y234185D01*
X87105Y233500D01*
X88895D01*
X90549Y234185D01*
X91815Y235451D01*
X92500Y237105D01*
Y238895D01*
X91815Y240549D01*
X90549Y241815D01*
X88895Y242500D01*
D02*
G37*
G36*
X23895Y244500D02*
X22105D01*
X20451Y243815D01*
X19185Y242549D01*
X18500Y240895D01*
Y239105D01*
X19185Y237451D01*
X20451Y236185D01*
X22105Y235500D01*
X23895D01*
X23968Y235530D01*
X24923Y234892D01*
X26094Y234659D01*
X26094Y234659D01*
X55407D01*
X56163Y233903D01*
X57817Y233218D01*
X59607D01*
X61261Y233903D01*
X62017Y234659D01*
X72015D01*
X92904Y213770D01*
X92378Y212500D01*
X92105D01*
X90451Y211815D01*
X89185Y210549D01*
X88500Y208895D01*
Y207105D01*
X89185Y205451D01*
X90451Y204185D01*
X92105Y203500D01*
X93895D01*
X95549Y204185D01*
X96815Y205451D01*
X97500Y207105D01*
Y207469D01*
X98770Y208148D01*
X99030Y207974D01*
X100200Y207741D01*
X100200Y207741D01*
X106720D01*
X107855Y205000D01*
X109698Y202598D01*
X112100Y200755D01*
X114898Y199596D01*
X117900Y199201D01*
X132900D01*
X135902Y199596D01*
X138700Y200755D01*
X141102Y202598D01*
X142945Y205000D01*
X143658Y206722D01*
X149602D01*
X150219Y206084D01*
X150489Y205544D01*
X150111Y204631D01*
Y202840D01*
X150796Y201187D01*
X152062Y199921D01*
X153715Y199235D01*
X155506D01*
X157160Y199921D01*
X158426Y201187D01*
X159111Y202840D01*
Y204631D01*
X158595Y205875D01*
X159225Y207145D01*
X164607D01*
X165133Y205875D01*
X164996Y205738D01*
X164311Y204084D01*
Y202294D01*
X164996Y200640D01*
X166262Y199374D01*
X167916Y198689D01*
X169706D01*
X171360Y199374D01*
X172626Y200640D01*
X173311Y202294D01*
Y204084D01*
X172626Y205738D01*
X172489Y205875D01*
X173015Y207145D01*
X178985D01*
X179511Y205875D01*
X179185Y205549D01*
X178500Y203895D01*
Y202105D01*
X179185Y200451D01*
X180451Y199185D01*
X182105Y198500D01*
X183895D01*
X185549Y199185D01*
X186815Y200451D01*
X187500Y202105D01*
Y203895D01*
X186815Y205549D01*
X186489Y205875D01*
X187015Y207145D01*
X198985D01*
X199511Y205875D01*
X199185Y205549D01*
X198500Y203895D01*
Y202105D01*
X199185Y200451D01*
X200451Y199185D01*
X202105Y198500D01*
X203895D01*
X205549Y199185D01*
X206815Y200451D01*
X207500Y202105D01*
Y203895D01*
X206815Y205549D01*
X206489Y205875D01*
X207015Y207145D01*
X248323D01*
X248491Y207032D01*
X250052Y206722D01*
X250052Y206722D01*
X290475D01*
X291188Y205000D01*
X293031Y202598D01*
X295434Y200755D01*
X298231Y199596D01*
X301233Y199201D01*
X316233D01*
X319235Y199596D01*
X322033Y200755D01*
X324435Y202598D01*
X326278Y205000D01*
X326992Y206722D01*
X331698D01*
X332145Y205452D01*
X331500Y203895D01*
Y202105D01*
X332185Y200451D01*
X333451Y199185D01*
X335105Y198500D01*
X336895D01*
X338549Y199185D01*
X339815Y200451D01*
X340500Y202105D01*
Y203895D01*
X339855Y205452D01*
X340302Y206722D01*
X347698D01*
X348340Y205452D01*
X347833Y204228D01*
Y202438D01*
X348518Y200784D01*
X349784Y199518D01*
X351438Y198833D01*
X353228D01*
X354882Y199518D01*
X356148Y200784D01*
X356833Y202438D01*
Y204228D01*
X356327Y205452D01*
X356968Y206722D01*
X359570D01*
X360105Y206500D01*
X361895D01*
X362430Y206722D01*
X364895D01*
X365421Y205452D01*
X364852Y204882D01*
X364167Y203228D01*
Y201438D01*
X364852Y199784D01*
X366118Y198519D01*
X367771Y197833D01*
X369562D01*
X371216Y198519D01*
X372481Y199784D01*
X373167Y201438D01*
Y203228D01*
X372481Y204882D01*
X371912Y205452D01*
X372438Y206722D01*
X396570D01*
X397105Y206500D01*
X398895D01*
X400549Y207185D01*
X401815Y208451D01*
X402237Y209469D01*
X407189Y214422D01*
X458271D01*
X459592Y213539D01*
X461153Y213228D01*
X466951D01*
X466952Y213228D01*
X466952Y213228D01*
X472263D01*
X473159Y212253D01*
X472967Y210800D01*
X473363Y207798D01*
X474521Y205000D01*
X476365Y202598D01*
X478767Y200755D01*
X481564Y199596D01*
X484567Y199201D01*
X499567D01*
X502569Y199596D01*
X505366Y200755D01*
X507769Y202598D01*
X509612Y205000D01*
X510771Y207798D01*
X511166Y210800D01*
X510771Y213802D01*
X510418Y214654D01*
X511685Y215922D01*
X612311D01*
X620316Y207916D01*
X620316Y207916D01*
X621639Y207032D01*
X623200Y206722D01*
X623200Y206722D01*
X632914D01*
X633451Y206185D01*
X635105Y205500D01*
X636895D01*
X638549Y206185D01*
X639086Y206722D01*
X657142D01*
X657855Y205000D01*
X659698Y202598D01*
X662100Y200755D01*
X664898Y199596D01*
X667900Y199201D01*
X682900D01*
X685902Y199596D01*
X688699Y200755D01*
X691102Y202598D01*
X692945Y205000D01*
X693658Y206722D01*
X713574D01*
X714088Y205452D01*
X713185Y204549D01*
X712500Y202895D01*
Y201105D01*
X713185Y199451D01*
X714451Y198185D01*
X716105Y197500D01*
X717895D01*
X719549Y198185D01*
X720815Y199451D01*
X721500Y201105D01*
Y202895D01*
X720815Y204549D01*
X719912Y205452D01*
X720426Y206722D01*
X727562D01*
X728088Y205452D01*
X727518Y204882D01*
X726833Y203228D01*
Y201438D01*
X727518Y199784D01*
X728784Y198518D01*
X730438Y197833D01*
X732228D01*
X733882Y198518D01*
X735148Y199784D01*
X735833Y201438D01*
Y203228D01*
X735148Y204882D01*
X734579Y205452D01*
X735105Y206722D01*
X743597D01*
X743850Y205452D01*
X743118Y205148D01*
X741852Y203882D01*
X741167Y202229D01*
Y200438D01*
X741852Y198784D01*
X743118Y197519D01*
X744771Y196833D01*
X746562D01*
X748216Y197519D01*
X749482Y198784D01*
X750167Y200438D01*
Y202229D01*
X749482Y203882D01*
X748216Y205148D01*
X747483Y205452D01*
X747736Y206722D01*
X756574D01*
X757088Y205452D01*
X756185Y204549D01*
X755500Y202895D01*
Y201105D01*
X756185Y199451D01*
X757451Y198185D01*
X759105Y197500D01*
X760895D01*
X762549Y198185D01*
X763815Y199451D01*
X764500Y201105D01*
Y202895D01*
X763815Y204549D01*
X762912Y205452D01*
X763426Y206722D01*
X813029D01*
X814047Y206300D01*
X815837D01*
X817491Y206985D01*
X818757Y208251D01*
X819442Y209905D01*
Y211695D01*
X818757Y213349D01*
X817491Y214615D01*
X815837Y215300D01*
X814047D01*
X813029Y214878D01*
X693658D01*
X692945Y216600D01*
X691102Y219002D01*
X688699Y220845D01*
X685902Y222004D01*
X682900Y222399D01*
X667900D01*
X664898Y222004D01*
X662100Y220845D01*
X659698Y219002D01*
X657855Y216600D01*
X657142Y214878D01*
X637071D01*
X637071Y214878D01*
X636000Y214665D01*
X634929Y214878D01*
X634929Y214878D01*
X624889D01*
X616884Y222884D01*
X615561Y223768D01*
X614000Y224078D01*
X614000Y224078D01*
X509996D01*
X509996Y224078D01*
X508435Y223768D01*
X507112Y222884D01*
X507112Y222884D01*
X505159Y220931D01*
X502569Y222004D01*
X499567Y222399D01*
X484567D01*
X481564Y222004D01*
X478767Y220845D01*
X477409Y219803D01*
X477021Y220191D01*
X475698Y221075D01*
X474138Y221385D01*
X474137Y221385D01*
X469087D01*
X468239Y222655D01*
X468552Y223412D01*
Y225202D01*
X467867Y226856D01*
X466601Y228122D01*
X464947Y228807D01*
X463157D01*
X461503Y228122D01*
X460237Y226856D01*
X460237Y226856D01*
X403307D01*
X402331Y226662D01*
X401504Y226109D01*
X395944Y220549D01*
X348815D01*
X348815Y220549D01*
X347549Y221815D01*
X345895Y222500D01*
X344105D01*
X342451Y221815D01*
X341185Y220549D01*
X340500Y218895D01*
Y217105D01*
X340896Y216148D01*
X340098Y214878D01*
X326992D01*
X326278Y216600D01*
X324435Y219002D01*
X322033Y220845D01*
X319235Y222004D01*
X316233Y222399D01*
X301233D01*
X298231Y222004D01*
X295434Y220845D01*
X293031Y219002D01*
X291188Y216600D01*
X290475Y214878D01*
X251358D01*
X251190Y214991D01*
X249629Y215301D01*
X249629Y215301D01*
X156123D01*
X156123Y215301D01*
X155001Y215078D01*
X150100D01*
X149095Y214878D01*
X143658D01*
X142945Y216600D01*
X141102Y219002D01*
X138700Y220845D01*
X135902Y222004D01*
X132900Y222399D01*
X117900D01*
X114898Y222004D01*
X112100Y220845D01*
X109698Y219002D01*
X107855Y216600D01*
X106720Y213859D01*
X101467D01*
X75445Y239881D01*
X74452Y240544D01*
X73282Y240777D01*
X73282Y240777D01*
X62017D01*
X61261Y241533D01*
X59607Y242218D01*
X57817D01*
X56163Y241533D01*
X55407Y240777D01*
X27500D01*
Y240895D01*
X26815Y242549D01*
X25549Y243815D01*
X23895Y244500D01*
D02*
G37*
G36*
X79895Y213500D02*
X78105D01*
X76451Y212815D01*
X75185Y211549D01*
X74500Y209895D01*
Y208105D01*
X75185Y206451D01*
X76451Y205185D01*
X78105Y204500D01*
X79895D01*
X81549Y205185D01*
X82815Y206451D01*
X83500Y208105D01*
Y209895D01*
X82815Y211549D01*
X81549Y212815D01*
X79895Y213500D01*
D02*
G37*
G36*
X65895D02*
X64105D01*
X62451Y212815D01*
X61185Y211549D01*
X60500Y209895D01*
Y208105D01*
X61185Y206451D01*
X62451Y205185D01*
X64105Y204500D01*
X65895D01*
X67549Y205185D01*
X68815Y206451D01*
X69500Y208105D01*
Y209895D01*
X68815Y211549D01*
X67549Y212815D01*
X65895Y213500D01*
D02*
G37*
G36*
X51895D02*
X50105D01*
X48451Y212815D01*
X47185Y211549D01*
X46500Y209895D01*
Y208105D01*
X47185Y206451D01*
X48451Y205185D01*
X50105Y204500D01*
X51895D01*
X53549Y205185D01*
X54815Y206451D01*
X55500Y208105D01*
Y209895D01*
X54815Y211549D01*
X53549Y212815D01*
X51895Y213500D01*
D02*
G37*
G36*
X594228Y208167D02*
X592438D01*
X590784Y207482D01*
X589518Y206216D01*
X588833Y204562D01*
Y202772D01*
X589518Y201118D01*
X590784Y199852D01*
X592438Y199167D01*
X594228D01*
X595882Y199852D01*
X597148Y201118D01*
X597833Y202772D01*
Y204562D01*
X597148Y206216D01*
X595882Y207482D01*
X594228Y208167D01*
D02*
G37*
G36*
X580562Y207833D02*
X578772D01*
X577118Y207148D01*
X575852Y205882D01*
X575167Y204228D01*
Y202438D01*
X575852Y200784D01*
X577118Y199518D01*
X578772Y198833D01*
X580562D01*
X582216Y199518D01*
X583482Y200784D01*
X584167Y202438D01*
Y204228D01*
X583482Y205882D01*
X582216Y207148D01*
X580562Y207833D01*
D02*
G37*
G36*
X566895Y207500D02*
X565105D01*
X563451Y206815D01*
X562185Y205549D01*
X561500Y203895D01*
Y202105D01*
X562185Y200451D01*
X563451Y199185D01*
X565105Y198500D01*
X566895D01*
X568549Y199185D01*
X569815Y200451D01*
X570500Y202105D01*
Y203895D01*
X569815Y205549D01*
X568549Y206815D01*
X566895Y207500D01*
D02*
G37*
G36*
X455895D02*
X454105D01*
X452451Y206815D01*
X451185Y205549D01*
X450500Y203895D01*
Y202105D01*
X451185Y200451D01*
X452451Y199185D01*
X454105Y198500D01*
X455895D01*
X457549Y199185D01*
X458815Y200451D01*
X459500Y202105D01*
Y203895D01*
X458815Y205549D01*
X457549Y206815D01*
X455895Y207500D01*
D02*
G37*
G36*
X441895D02*
X440105D01*
X438451Y206815D01*
X437185Y205549D01*
X436500Y203895D01*
Y202105D01*
X437185Y200451D01*
X438451Y199185D01*
X440105Y198500D01*
X441895D01*
X443549Y199185D01*
X444815Y200451D01*
X445500Y202105D01*
Y203895D01*
X444815Y205549D01*
X443549Y206815D01*
X441895Y207500D01*
D02*
G37*
G36*
X427895D02*
X426105D01*
X424451Y206815D01*
X423185Y205549D01*
X422500Y203895D01*
Y202105D01*
X423185Y200451D01*
X424451Y199185D01*
X426105Y198500D01*
X427895D01*
X429549Y199185D01*
X430815Y200451D01*
X431500Y202105D01*
Y203895D01*
X430815Y205549D01*
X429549Y206815D01*
X427895Y207500D01*
D02*
G37*
G36*
X413895Y206500D02*
X412105D01*
X410451Y205815D01*
X409185Y204549D01*
X408500Y202895D01*
Y201105D01*
X409185Y199451D01*
X410451Y198185D01*
X412105Y197500D01*
X413895D01*
X415549Y198185D01*
X416815Y199451D01*
X417500Y201105D01*
Y202895D01*
X416815Y204549D01*
X415549Y205815D01*
X413895Y206500D01*
D02*
G37*
G36*
X311895Y197500D02*
X310105D01*
X308451Y196815D01*
X307185Y195549D01*
X307185Y195549D01*
X287815D01*
X287815Y195549D01*
X286549Y196815D01*
X284895Y197500D01*
X283105D01*
X281451Y196815D01*
X280185Y195549D01*
X279500Y193895D01*
Y192105D01*
X280185Y190451D01*
X279857Y188983D01*
X279451Y188815D01*
X278185Y187549D01*
X277500Y185895D01*
Y184105D01*
X278110Y182633D01*
X277807Y181278D01*
X276932Y181104D01*
X272938Y179449D01*
X269343Y177047D01*
X266286Y173990D01*
X263884Y170396D01*
X262230Y166402D01*
X261386Y162162D01*
Y157838D01*
X262230Y153598D01*
X263884Y149604D01*
X266286Y146010D01*
X269343Y142953D01*
X271036Y141821D01*
X270939Y140359D01*
X269934Y139354D01*
X269249Y137700D01*
Y135910D01*
X268127Y135506D01*
X268105Y135500D01*
X268105D01*
X266451Y134815D01*
X265185Y133549D01*
X264860Y132763D01*
X263361Y132465D01*
X260352Y135475D01*
Y137007D01*
X261215Y137870D01*
X261900Y139524D01*
Y141314D01*
X261215Y142968D01*
X259949Y144234D01*
X258295Y144919D01*
X256505D01*
X254851Y144234D01*
X253585Y142968D01*
X253508Y142781D01*
X252133D01*
X251815Y143549D01*
X250549Y144815D01*
X248895Y145500D01*
X247105D01*
X245451Y144815D01*
X244185Y143549D01*
X244185Y143549D01*
X241838D01*
X238159Y147227D01*
X238645Y148401D01*
X240033D01*
X243035Y148796D01*
X245833Y149955D01*
X248235Y151798D01*
X250079Y154200D01*
X251237Y156998D01*
X251632Y160000D01*
X251237Y163002D01*
X250079Y165800D01*
X248235Y168202D01*
X245833Y170045D01*
X243035Y171204D01*
X240033Y171599D01*
X225033D01*
X222031Y171204D01*
X219234Y170045D01*
X216831Y168202D01*
X214988Y165800D01*
X213829Y163002D01*
X213434Y160000D01*
X213829Y156998D01*
X214988Y154200D01*
X216831Y151798D01*
X218107Y150819D01*
X217676Y149549D01*
X205229D01*
X204815Y150549D01*
X203549Y151815D01*
X201895Y152500D01*
X200105D01*
X198451Y151815D01*
X197185Y150549D01*
X196500Y148895D01*
Y147105D01*
X196826Y146319D01*
X195977Y145049D01*
X179315D01*
X178549Y145815D01*
X176895Y146500D01*
X175105D01*
X173451Y145815D01*
X172185Y144549D01*
X171500Y142895D01*
Y141105D01*
X172185Y139451D01*
X172317Y139319D01*
X171791Y138049D01*
X161334D01*
X160081Y139302D01*
X159254Y139855D01*
X158278Y140049D01*
X153722D01*
X152746Y139855D01*
X151919Y139302D01*
X144666Y132049D01*
X128334D01*
X121081Y139302D01*
X120254Y139855D01*
X119278Y140049D01*
X112722D01*
X111746Y139855D01*
X110920Y139302D01*
X109666Y138049D01*
X107674D01*
X107422Y139319D01*
X110396Y140551D01*
X113990Y142953D01*
X117047Y146010D01*
X119449Y149604D01*
X121104Y153598D01*
X121947Y157838D01*
Y162162D01*
X121104Y166402D01*
X119449Y170396D01*
X117047Y173990D01*
X113990Y177047D01*
X110396Y179449D01*
X106402Y181104D01*
X102162Y181947D01*
X97838D01*
X93598Y181104D01*
X89604Y179449D01*
X86010Y177047D01*
X82953Y173990D01*
X80551Y170396D01*
X78896Y166402D01*
X78053Y162162D01*
Y157838D01*
X78896Y153598D01*
X80551Y149604D01*
X82953Y146010D01*
X86010Y142953D01*
X89604Y140551D01*
X92578Y139319D01*
X92326Y138049D01*
X84556D01*
X81500Y141105D01*
X81500Y141105D01*
Y142895D01*
X80815Y144549D01*
X79549Y145815D01*
X77895Y146500D01*
X76105D01*
X74451Y145815D01*
X73185Y144549D01*
X72500Y142895D01*
Y141105D01*
X73185Y139451D01*
X74451Y138185D01*
X76105Y137500D01*
X77895D01*
X77895Y137500D01*
X79673Y135722D01*
X79187Y134549D01*
X28815D01*
X28815Y134549D01*
X27549Y135815D01*
X25895Y136500D01*
X24105D01*
X22451Y135815D01*
X21185Y134549D01*
X20500Y132895D01*
Y131105D01*
X21185Y129451D01*
X22451Y128185D01*
X24105Y127500D01*
X25895D01*
X27549Y128185D01*
X28815Y129451D01*
X28815Y129451D01*
X111185D01*
X111185Y129451D01*
X112288Y128348D01*
X112148Y127577D01*
X111898Y127078D01*
X90913D01*
X89895Y127500D01*
X88105D01*
X86451Y126815D01*
X85185Y125549D01*
X84500Y123895D01*
Y122105D01*
X84825Y121319D01*
X83977Y120049D01*
X75022D01*
X74815Y120549D01*
X73549Y121815D01*
X71895Y122500D01*
X70105D01*
X68451Y121815D01*
X67185Y120549D01*
X66500Y118895D01*
Y117105D01*
X67033Y115819D01*
X66428Y114549D01*
X25056D01*
X18802Y120802D01*
X17975Y121355D01*
X17000Y121549D01*
X16471D01*
X15549Y122471D01*
X13895Y123156D01*
X12105D01*
X10451Y122471D01*
X9185Y121205D01*
X8500Y119551D01*
Y117761D01*
X9185Y116107D01*
X10451Y114841D01*
X12105Y114156D01*
X13895D01*
X15549Y114841D01*
X16552Y115843D01*
X21148Y111247D01*
X20901Y110001D01*
X20451Y109815D01*
X19185Y108549D01*
X18500Y106895D01*
Y105105D01*
X19185Y103451D01*
X20451Y102185D01*
X22105Y101500D01*
X23895D01*
X25549Y102185D01*
X26815Y103451D01*
X26815Y103451D01*
X98185D01*
X98185Y103451D01*
X99451Y102185D01*
X101105Y101500D01*
X102895D01*
X104549Y102185D01*
X105815Y103451D01*
X106500Y105105D01*
Y106895D01*
X105967Y108181D01*
X106572Y109451D01*
X180428D01*
X181033Y108181D01*
X180500Y106895D01*
Y105105D01*
X181185Y103451D01*
X182451Y102185D01*
X184105Y101500D01*
X185895D01*
X187549Y102185D01*
X188815Y103451D01*
X188815Y103451D01*
X199944D01*
X206500Y96895D01*
X206500Y96895D01*
Y95105D01*
X207185Y93451D01*
X208451Y92185D01*
X210105Y91500D01*
X211895D01*
X213549Y92185D01*
X214815Y93451D01*
X215500Y95105D01*
Y96895D01*
X215321Y97327D01*
X216017Y98965D01*
X216549Y99185D01*
X217815Y100451D01*
X218500Y102105D01*
Y103895D01*
X218410Y104111D01*
X219122Y105711D01*
X219746Y105969D01*
X221012Y107235D01*
X221338Y108021D01*
X222836Y108319D01*
X233457Y97698D01*
X234284Y97145D01*
X235260Y96951D01*
X282444D01*
X285500Y93895D01*
X285500Y93895D01*
Y92105D01*
X286185Y90451D01*
X287451Y89185D01*
X289105Y88500D01*
X290895D01*
X292549Y89185D01*
X293815Y90451D01*
X294500Y92105D01*
Y93895D01*
X293815Y95549D01*
X292549Y96815D01*
X290895Y97500D01*
X289105D01*
X289105Y97500D01*
X285302Y101302D01*
X285245Y101881D01*
X285815Y102451D01*
X286500Y104105D01*
Y105895D01*
X285815Y107549D01*
X284549Y108815D01*
X282895Y109500D01*
X281105D01*
X279451Y108815D01*
X278185Y107549D01*
X277805Y106632D01*
X277593Y106590D01*
X276766Y106037D01*
X276278Y105549D01*
X237765D01*
X222252Y121062D01*
X221425Y121615D01*
X220882Y121723D01*
X215802Y126802D01*
X214975Y127355D01*
X214000Y127549D01*
X209815D01*
X209815Y127549D01*
X208549Y128815D01*
X206895Y129500D01*
X205105D01*
X203451Y128815D01*
X202185Y127549D01*
X201500Y125895D01*
Y124105D01*
X202185Y122451D01*
X203317Y121319D01*
X203223Y120691D01*
X202928Y120049D01*
X190023D01*
X189174Y121319D01*
X189500Y122105D01*
Y123895D01*
X188815Y125549D01*
X187549Y126815D01*
X185895Y127500D01*
X184105D01*
X182451Y126815D01*
X182185Y126549D01*
X157918D01*
X157665Y127819D01*
X158549Y128185D01*
X159815Y129451D01*
X159815Y129451D01*
X192185D01*
X192451Y129185D01*
X194105Y128500D01*
X195895D01*
X197549Y129185D01*
X198815Y130451D01*
X199500Y132105D01*
Y133895D01*
X199174Y134681D01*
X200023Y135951D01*
X226444D01*
X231198Y131198D01*
X232025Y130645D01*
X233000Y130451D01*
X235185D01*
X235185Y130451D01*
X236451Y129185D01*
X238105Y128500D01*
X239895D01*
X241549Y129185D01*
X242815Y130451D01*
X243500Y132105D01*
Y133895D01*
X242815Y135549D01*
X241549Y136815D01*
X240583Y137215D01*
X240782Y138451D01*
X244185D01*
X244185Y138451D01*
X245451Y137185D01*
X247105Y136500D01*
X248895D01*
X250549Y137185D01*
X251815Y138451D01*
X251892Y138638D01*
X253267D01*
X253585Y137870D01*
X254851Y136604D01*
X255254Y136437D01*
Y134419D01*
X255448Y133443D01*
X256001Y132616D01*
X269419Y119198D01*
X270246Y118645D01*
X271222Y118451D01*
X307185D01*
X307185Y118451D01*
X308451Y117185D01*
X310105Y116500D01*
X311895D01*
X313549Y117185D01*
X314815Y118451D01*
X315500Y120105D01*
Y121895D01*
X314815Y123549D01*
X314183Y124181D01*
X314709Y125451D01*
X363428D01*
X364033Y124181D01*
X363500Y122895D01*
Y121105D01*
X364185Y119451D01*
X365451Y118185D01*
X367105Y117500D01*
X368895D01*
X370549Y118185D01*
X371815Y119451D01*
X372500Y121105D01*
Y122895D01*
X371967Y124181D01*
X372572Y125451D01*
X390185D01*
X390185Y125451D01*
X391451Y124185D01*
X393105Y123500D01*
X394895D01*
X396549Y124185D01*
X397815Y125451D01*
X398140Y126237D01*
X399638Y126535D01*
X404976Y121198D01*
X405803Y120645D01*
X406778Y120451D01*
X557185D01*
X557185Y120451D01*
X558451Y119185D01*
X560105Y118500D01*
X561895D01*
X563549Y119185D01*
X564815Y120451D01*
X565500Y122105D01*
Y123895D01*
X564815Y125549D01*
X563549Y126815D01*
X561895Y127500D01*
X560105D01*
X558451Y126815D01*
X557185Y125549D01*
X557185Y125549D01*
X407834D01*
X403105Y130278D01*
X403591Y131451D01*
X431185D01*
X431185Y131451D01*
X432451Y130185D01*
X434105Y129500D01*
X435895D01*
X437549Y130185D01*
X438815Y131451D01*
X439500Y133105D01*
Y134895D01*
X438815Y136549D01*
X437549Y137815D01*
X435895Y138500D01*
X434105D01*
X432451Y137815D01*
X431185Y136549D01*
X431185Y136549D01*
X401784D01*
X399530Y138802D01*
X398703Y139355D01*
X397728Y139549D01*
X388000D01*
X387024Y139355D01*
X386198Y138802D01*
X385176Y137781D01*
X298832D01*
X297857Y137587D01*
X297684Y137472D01*
X297331Y137825D01*
X295677Y138510D01*
X293887D01*
X292233Y137825D01*
X291231Y138230D01*
X291579Y139660D01*
X293729Y140551D01*
X297324Y142953D01*
X300381Y146010D01*
X302782Y149604D01*
X304437Y153598D01*
X305280Y157838D01*
Y162162D01*
X304437Y166402D01*
X302782Y170396D01*
X300381Y173990D01*
X297324Y177047D01*
X293729Y179449D01*
X289735Y181104D01*
X289346Y181181D01*
X289471Y182451D01*
X369185D01*
X369185Y182451D01*
X370451Y181185D01*
X372105Y180500D01*
X373895D01*
X375549Y181185D01*
X376815Y182451D01*
X377500Y184105D01*
Y185895D01*
X376815Y187549D01*
X375549Y188815D01*
X373895Y189500D01*
X372105D01*
X370451Y188815D01*
X369185Y187549D01*
X369185Y187549D01*
X312918D01*
X312665Y188819D01*
X313549Y189185D01*
X314815Y190451D01*
X315500Y192105D01*
Y193895D01*
X314815Y195549D01*
X313549Y196815D01*
X311895Y197500D01*
D02*
G37*
G36*
X383491Y201081D02*
X381701D01*
X380047Y200396D01*
X378781Y199130D01*
X378096Y197476D01*
Y195686D01*
X378781Y194032D01*
X380047Y192766D01*
X381701Y192081D01*
X383491D01*
X385145Y192766D01*
X386411Y194032D01*
X387096Y195686D01*
Y197476D01*
X386411Y199130D01*
X385145Y200396D01*
X383491Y201081D01*
D02*
G37*
G36*
X272880Y202500D02*
X271090D01*
X269436Y201815D01*
X268171Y200549D01*
X268171Y200549D01*
X232656D01*
X231680Y200355D01*
X230853Y199802D01*
X229600Y198549D01*
X217277D01*
X216301Y198355D01*
X215474Y197802D01*
X200221Y182549D01*
X177918D01*
X177665Y183819D01*
X178549Y184185D01*
X179815Y185451D01*
X180500Y187105D01*
Y188895D01*
X179815Y190549D01*
X178549Y191815D01*
X176895Y192500D01*
X175105D01*
X173451Y191815D01*
X172185Y190549D01*
X172185Y190549D01*
X146815D01*
X146549Y190815D01*
X144895Y191500D01*
X143105D01*
X141451Y190815D01*
X140185Y189549D01*
X139500Y187895D01*
Y186105D01*
X140185Y184451D01*
X140817Y183819D01*
X140291Y182549D01*
X123056D01*
X113802Y191802D01*
X112975Y192355D01*
X112000Y192549D01*
X78871D01*
X78471Y192469D01*
X77602Y193602D01*
X75200Y195445D01*
X72402Y196604D01*
X69400Y196999D01*
X54400D01*
X51398Y196604D01*
X48600Y195445D01*
X46198Y193602D01*
X44355Y191200D01*
X43196Y188402D01*
X42801Y185400D01*
X43196Y182398D01*
X44355Y179600D01*
X46198Y177198D01*
X48600Y175355D01*
X51398Y174196D01*
X54400Y173801D01*
X69400D01*
X72402Y174196D01*
X75200Y175355D01*
X77602Y177198D01*
X79445Y179600D01*
X80604Y182398D01*
X80999Y185400D01*
X80855Y186496D01*
X81692Y187451D01*
X110944D01*
X120198Y178198D01*
X121025Y177645D01*
X122000Y177451D01*
X201277D01*
X202252Y177645D01*
X203079Y178198D01*
X218333Y193451D01*
X227980D01*
X228542Y192312D01*
X227688Y191200D01*
X226529Y188402D01*
X226134Y185400D01*
X226529Y182398D01*
X227688Y179600D01*
X229531Y177198D01*
X231934Y175355D01*
X234731Y174196D01*
X237733Y173801D01*
X252733D01*
X255735Y174196D01*
X258533Y175355D01*
X260935Y177198D01*
X262778Y179600D01*
X263937Y182398D01*
X264333Y185400D01*
X263937Y188402D01*
X262778Y191200D01*
X260935Y193602D01*
X260180Y194181D01*
X260612Y195451D01*
X268171D01*
X268171Y195451D01*
X269436Y194185D01*
X271090Y193500D01*
X272880D01*
X274534Y194185D01*
X275800Y195451D01*
X276485Y197105D01*
Y198895D01*
X275800Y200549D01*
X274534Y201815D01*
X272880Y202500D01*
D02*
G37*
G36*
X576895Y183500D02*
X575105D01*
X573451Y182815D01*
X572185Y181549D01*
X572185Y181549D01*
X538815D01*
X538815Y181549D01*
X537549Y182815D01*
X535895Y183500D01*
X534105D01*
X532451Y182815D01*
X531185Y181549D01*
X530500Y179895D01*
Y178105D01*
X531185Y176451D01*
X532451Y175185D01*
X534105Y174500D01*
X535895D01*
X537549Y175185D01*
X538815Y176451D01*
X538815Y176451D01*
X572185D01*
X572185Y176451D01*
X573451Y175185D01*
X575105Y174500D01*
X576895D01*
X578549Y175185D01*
X579815Y176451D01*
X580500Y178105D01*
Y179895D01*
X579815Y181549D01*
X578549Y182815D01*
X576895Y183500D01*
D02*
G37*
G36*
X607895Y206500D02*
X606105D01*
X604451Y205815D01*
X603185Y204549D01*
X602500Y202895D01*
Y201105D01*
X603185Y199451D01*
X604376Y198260D01*
X604382Y197950D01*
X604093Y196959D01*
X601398Y196604D01*
X598600Y195445D01*
X596198Y193602D01*
X594355Y191200D01*
X593196Y188402D01*
X592801Y185400D01*
X593196Y182398D01*
X594355Y179600D01*
X596198Y177198D01*
X598600Y175355D01*
X601398Y174196D01*
X604400Y173801D01*
X619400D01*
X622402Y174196D01*
X625200Y175355D01*
X627602Y177198D01*
X629445Y179600D01*
X630604Y182398D01*
X630999Y185400D01*
X630604Y188402D01*
X629445Y191200D01*
X627602Y193602D01*
X625200Y195445D01*
X622402Y196604D01*
X619400Y196999D01*
X610005D01*
X609671Y197869D01*
X609633Y198269D01*
X610815Y199451D01*
X611500Y201105D01*
Y202895D01*
X610815Y204549D01*
X609549Y205815D01*
X607895Y206500D01*
D02*
G37*
G36*
X436067Y196999D02*
X421067D01*
X418064Y196604D01*
X415267Y195445D01*
X412865Y193602D01*
X411021Y191200D01*
X409863Y188402D01*
X409467Y185400D01*
X409863Y182398D01*
X411021Y179600D01*
X412865Y177198D01*
X415267Y175355D01*
X418064Y174196D01*
X421067Y173801D01*
X436067D01*
X439069Y174196D01*
X441866Y175355D01*
X444268Y177198D01*
X446112Y179600D01*
X447271Y182398D01*
X447666Y185400D01*
X447271Y188402D01*
X446112Y191200D01*
X444268Y193602D01*
X441866Y195445D01*
X439069Y196604D01*
X436067Y196999D01*
D02*
G37*
G36*
X394895Y181500D02*
X393105D01*
X391451Y180815D01*
X390185Y179549D01*
X389500Y177895D01*
Y176105D01*
X390185Y174451D01*
X391451Y173185D01*
X393105Y172500D01*
X394895D01*
X396549Y173185D01*
X397815Y174451D01*
X398500Y176105D01*
Y177895D01*
X397815Y179549D01*
X396549Y180815D01*
X394895Y181500D01*
D02*
G37*
G36*
X24895Y162500D02*
X23105D01*
X21451Y161815D01*
X20185Y160549D01*
X19500Y158895D01*
Y157105D01*
X20185Y155451D01*
X21451Y154185D01*
X23105Y153500D01*
X24895D01*
X26549Y154185D01*
X27815Y155451D01*
X28500Y157105D01*
Y158895D01*
X27815Y160549D01*
X26549Y161815D01*
X24895Y162500D01*
D02*
G37*
G36*
X708300Y171599D02*
X693300D01*
X690298Y171204D01*
X687500Y170045D01*
X685098Y168202D01*
X683255Y165800D01*
X682096Y163002D01*
X681701Y160000D01*
X682096Y156998D01*
X683255Y154200D01*
X685098Y151798D01*
X687500Y149955D01*
X690298Y148796D01*
X693300Y148401D01*
X708300D01*
X711302Y148796D01*
X714100Y149955D01*
X716502Y151798D01*
X718345Y154200D01*
X719504Y156998D01*
X719899Y160000D01*
X719504Y163002D01*
X718345Y165800D01*
X716502Y168202D01*
X714100Y170045D01*
X711302Y171204D01*
X708300Y171599D01*
D02*
G37*
G36*
X606700D02*
X591700D01*
X588698Y171204D01*
X585900Y170045D01*
X583498Y168202D01*
X581655Y165800D01*
X580496Y163002D01*
X580101Y160000D01*
X580496Y156998D01*
X581655Y154200D01*
X583498Y151798D01*
X585900Y149955D01*
X588698Y148796D01*
X591700Y148401D01*
X606700D01*
X609702Y148796D01*
X612500Y149955D01*
X614902Y151798D01*
X616745Y154200D01*
X617904Y156998D01*
X618299Y160000D01*
X617904Y163002D01*
X616745Y165800D01*
X614902Y168202D01*
X612500Y170045D01*
X609702Y171204D01*
X606700Y171599D01*
D02*
G37*
G36*
X524967D02*
X509967D01*
X506964Y171204D01*
X504167Y170045D01*
X501765Y168202D01*
X499921Y165800D01*
X498763Y163002D01*
X498367Y160000D01*
X498763Y156998D01*
X499921Y154200D01*
X501765Y151798D01*
X504167Y149955D01*
X506964Y148796D01*
X509967Y148401D01*
X524967D01*
X527969Y148796D01*
X530766Y149955D01*
X533168Y151798D01*
X535012Y154200D01*
X536171Y156998D01*
X536566Y160000D01*
X536171Y163002D01*
X535012Y165800D01*
X533168Y168202D01*
X530766Y170045D01*
X527969Y171204D01*
X524967Y171599D01*
D02*
G37*
G36*
X423367D02*
X408367D01*
X405364Y171204D01*
X402567Y170045D01*
X400165Y168202D01*
X398321Y165800D01*
X397163Y163002D01*
X396767Y160000D01*
X397163Y156998D01*
X398321Y154200D01*
X400165Y151798D01*
X402567Y149955D01*
X405364Y148796D01*
X408367Y148401D01*
X423367D01*
X426369Y148796D01*
X429166Y149955D01*
X431568Y151798D01*
X433412Y154200D01*
X434571Y156998D01*
X434966Y160000D01*
X434571Y163002D01*
X433412Y165800D01*
X431568Y168202D01*
X429166Y170045D01*
X426369Y171204D01*
X423367Y171599D01*
D02*
G37*
G36*
X341633D02*
X326633D01*
X323631Y171204D01*
X320834Y170045D01*
X318431Y168202D01*
X316588Y165800D01*
X315429Y163002D01*
X315034Y160000D01*
X315429Y156998D01*
X316588Y154200D01*
X318431Y151798D01*
X320834Y149955D01*
X323631Y148796D01*
X326633Y148401D01*
X341633D01*
X344635Y148796D01*
X347433Y149955D01*
X349835Y151798D01*
X351679Y154200D01*
X352837Y156998D01*
X353232Y160000D01*
X352837Y163002D01*
X351679Y165800D01*
X349835Y168202D01*
X347433Y170045D01*
X344635Y171204D01*
X341633Y171599D01*
D02*
G37*
G36*
X158300D02*
X143300D01*
X140298Y171204D01*
X137500Y170045D01*
X135098Y168202D01*
X133255Y165800D01*
X132096Y163002D01*
X131701Y160000D01*
X132096Y156998D01*
X133255Y154200D01*
X135098Y151798D01*
X137500Y149955D01*
X140298Y148796D01*
X143300Y148401D01*
X158300D01*
X161302Y148796D01*
X164100Y149955D01*
X166502Y151798D01*
X168345Y154200D01*
X169504Y156998D01*
X169899Y160000D01*
X169504Y163002D01*
X168345Y165800D01*
X166502Y168202D01*
X164100Y170045D01*
X161302Y171204D01*
X158300Y171599D01*
D02*
G37*
G36*
X56700D02*
X41700D01*
X38698Y171204D01*
X35900Y170045D01*
X33498Y168202D01*
X31655Y165800D01*
X30496Y163002D01*
X30101Y160000D01*
X30496Y156998D01*
X31655Y154200D01*
X33498Y151798D01*
X35900Y149955D01*
X38698Y148796D01*
X41700Y148401D01*
X56700D01*
X59702Y148796D01*
X62500Y149955D01*
X64902Y151798D01*
X66745Y154200D01*
X67904Y156998D01*
X68299Y160000D01*
X67904Y163002D01*
X66745Y165800D01*
X64902Y168202D01*
X62500Y170045D01*
X59702Y171204D01*
X56700Y171599D01*
D02*
G37*
G36*
X652161Y181947D02*
X647838D01*
X643598Y181104D01*
X639604Y179449D01*
X636009Y177047D01*
X632953Y173990D01*
X630551Y170396D01*
X628896Y166402D01*
X628053Y162162D01*
Y157838D01*
X628896Y153598D01*
X630551Y149604D01*
X632953Y146010D01*
X636009Y142953D01*
X639604Y140551D01*
X643598Y138896D01*
X647838Y138053D01*
X652161D01*
X656402Y138896D01*
X660396Y140551D01*
X663990Y142953D01*
X667047Y146010D01*
X669449Y149604D01*
X671104Y153598D01*
X671947Y157838D01*
Y162162D01*
X671104Y166402D01*
X669449Y170396D01*
X667047Y173990D01*
X663990Y177047D01*
X660396Y179449D01*
X656402Y181104D01*
X652161Y181947D01*
D02*
G37*
G36*
X468828D02*
X464505D01*
X460265Y181104D01*
X456271Y179449D01*
X452676Y177047D01*
X449619Y173990D01*
X447217Y170396D01*
X445563Y166402D01*
X444720Y162162D01*
Y157838D01*
X445563Y153598D01*
X447217Y149604D01*
X449619Y146010D01*
X452676Y142953D01*
X456271Y140551D01*
X460265Y138896D01*
X464505Y138053D01*
X468828D01*
X473068Y138896D01*
X477062Y140551D01*
X480657Y142953D01*
X483714Y146010D01*
X486116Y149604D01*
X487770Y153598D01*
X488614Y157838D01*
Y162162D01*
X487770Y166402D01*
X486116Y170396D01*
X483714Y173990D01*
X480657Y177047D01*
X477062Y179449D01*
X473068Y181104D01*
X468828Y181947D01*
D02*
G37*
G36*
X362895Y116500D02*
X361105D01*
X359451Y115815D01*
X358185Y114549D01*
X357500Y112895D01*
Y111105D01*
X358104Y109647D01*
X357600Y108377D01*
X343228D01*
X338802Y112802D01*
X337975Y113355D01*
X337000Y113549D01*
X332000D01*
X331025Y113355D01*
X330198Y112802D01*
X326395Y109000D01*
X326395Y109000D01*
X324605D01*
X322951Y108315D01*
X321685Y107049D01*
X321000Y105395D01*
Y103605D01*
X321685Y101951D01*
X322951Y100685D01*
X324605Y100000D01*
X326395D01*
X328049Y100685D01*
X329170Y101806D01*
X329398Y101951D01*
X330688Y101948D01*
X331451Y101185D01*
X332335Y100819D01*
X332082Y99549D01*
X332074D01*
X331098Y99355D01*
X330271Y98802D01*
X329502Y98034D01*
X329502Y98034D01*
X327712D01*
X326058Y97348D01*
X324793Y96083D01*
X324107Y94429D01*
Y92639D01*
X324793Y90985D01*
X326058Y89719D01*
X327712Y89034D01*
X327782D01*
X328034Y87764D01*
X326951Y87315D01*
X325685Y86049D01*
X325000Y84395D01*
Y82605D01*
X325326Y81819D01*
X324477Y80549D01*
X217000D01*
X216025Y80355D01*
X215198Y79802D01*
X213330Y77934D01*
X212516D01*
X210862Y77249D01*
X209596Y75984D01*
X208911Y74330D01*
Y72539D01*
X209596Y70885D01*
X210862Y69620D01*
X212516Y68934D01*
X214306D01*
X215960Y69620D01*
X217226Y70885D01*
X217911Y72539D01*
Y74330D01*
X218821Y75451D01*
X340428D01*
X341033Y74181D01*
X340500Y72895D01*
Y71105D01*
X341185Y69451D01*
X342317Y68319D01*
X342224Y67691D01*
X341928Y67049D01*
X330315D01*
X330315Y67049D01*
X329049Y68315D01*
X327395Y69000D01*
X325605D01*
X323951Y68315D01*
X322685Y67049D01*
X322000Y65395D01*
Y63605D01*
X322685Y61951D01*
X323317Y61319D01*
X322791Y60049D01*
X256550D01*
X255575Y59855D01*
X254748Y59302D01*
X252994Y57549D01*
X221056D01*
X207802Y70802D01*
X206975Y71355D01*
X206000Y71549D01*
X147000D01*
X146025Y71355D01*
X145198Y70802D01*
X136944Y62549D01*
X81815D01*
X81815Y62549D01*
X80549Y63815D01*
X78895Y64500D01*
X77105D01*
X75451Y63815D01*
X74185Y62549D01*
X73500Y60895D01*
Y59105D01*
X74185Y57451D01*
X75451Y56185D01*
X77105Y55500D01*
X78895D01*
X80549Y56185D01*
X81815Y57451D01*
X81815Y57451D01*
X138000D01*
X138975Y57645D01*
X139802Y58198D01*
X148056Y66451D01*
X204944D01*
X218198Y53198D01*
X219025Y52645D01*
X220000Y52451D01*
X248428D01*
X249033Y51181D01*
X248500Y49895D01*
Y48105D01*
X249185Y46451D01*
X250451Y45185D01*
X252105Y44500D01*
X253895D01*
X255549Y45185D01*
X256519Y46155D01*
X257664Y46087D01*
X257977Y45954D01*
X258185Y45451D01*
X259451Y44185D01*
X261105Y43500D01*
X262895D01*
X264549Y44185D01*
X265815Y45451D01*
X266500Y47105D01*
Y47813D01*
X266638Y47951D01*
X337928D01*
X338223Y47309D01*
X338317Y46681D01*
X337185Y45549D01*
X336500Y43895D01*
Y42105D01*
X337185Y40451D01*
X338451Y39185D01*
X340105Y38500D01*
X341895D01*
X343549Y39185D01*
X344305Y39941D01*
X364695D01*
X365451Y39185D01*
X367105Y38500D01*
X368895D01*
X370549Y39185D01*
X371815Y40451D01*
X372500Y42105D01*
Y43895D01*
X371815Y45549D01*
X370549Y46815D01*
X368895Y47500D01*
X367105D01*
X365451Y46815D01*
X364695Y46059D01*
X344678D01*
X344118Y46681D01*
X344678Y47951D01*
X358450D01*
X359425Y48145D01*
X360252Y48698D01*
X365802Y54248D01*
X366355Y55075D01*
X366549Y56050D01*
Y61451D01*
X395045D01*
X399798Y56698D01*
X400625Y56145D01*
X401600Y55951D01*
X588767D01*
X590020Y54698D01*
X590847Y54145D01*
X591822Y53951D01*
X602178D01*
X603153Y54145D01*
X603980Y54698D01*
X604233Y54951D01*
X749944D01*
X752698Y52198D01*
X753525Y51645D01*
X754500Y51451D01*
X762185D01*
X762185Y51451D01*
X763451Y50185D01*
X765105Y49500D01*
X766895D01*
X768549Y50185D01*
X769815Y51451D01*
X769815Y51451D01*
X825891D01*
X826867Y51645D01*
X827694Y52198D01*
X829325Y53829D01*
X829325Y53829D01*
X831116D01*
X832770Y54514D01*
X834035Y55780D01*
X834721Y57434D01*
Y59224D01*
X834035Y60878D01*
X834144Y61299D01*
X834584Y62098D01*
X835432Y62204D01*
X836451Y61185D01*
X838105Y60500D01*
X839895D01*
X841549Y61185D01*
X842815Y62451D01*
X843500Y64105D01*
Y65895D01*
X842815Y67549D01*
X841549Y68815D01*
X839895Y69500D01*
X838105D01*
X836451Y68815D01*
X835185Y67549D01*
X835185Y67549D01*
X828000D01*
X827025Y67355D01*
X826198Y66802D01*
X819444Y60049D01*
X772556D01*
X770500Y62105D01*
X770500Y62105D01*
Y63895D01*
X769815Y65549D01*
X768549Y66815D01*
X766895Y67500D01*
X765105D01*
X763451Y66815D01*
X762185Y65549D01*
X761500Y63895D01*
Y63549D01*
X659088D01*
X658578Y64722D01*
X659209Y65500D01*
X660895D01*
X662549Y66185D01*
X663815Y67451D01*
X664500Y69105D01*
Y70895D01*
X664174Y71681D01*
X665023Y72951D01*
X729055D01*
X729809Y72198D01*
X730636Y71645D01*
X731611Y71451D01*
X804000D01*
X804976Y71645D01*
X805802Y72198D01*
X807105Y73500D01*
X807105Y73500D01*
X808895D01*
X810549Y74185D01*
X811815Y75451D01*
X812500Y77105D01*
Y78895D01*
X811815Y80549D01*
X810549Y81815D01*
X808895Y82500D01*
X807105D01*
X805451Y81815D01*
X804185Y80549D01*
X803500Y78895D01*
Y77105D01*
X802396Y76549D01*
X732667D01*
X731913Y77302D01*
X731086Y77855D01*
X730111Y78049D01*
X657722D01*
X656746Y77855D01*
X655919Y77302D01*
X652698Y74081D01*
X652697Y74080D01*
X649166Y70549D01*
X606834D01*
X601081Y76302D01*
X600254Y76855D01*
X599278Y77049D01*
X594722D01*
X593746Y76855D01*
X592920Y76302D01*
X591666Y75049D01*
X412227D01*
X409500Y77776D01*
Y78895D01*
X408815Y80549D01*
X407549Y81815D01*
X405895Y82500D01*
X404105D01*
X402451Y81815D01*
X401185Y80549D01*
X401185Y80549D01*
X391328D01*
X390842Y81722D01*
X392762Y83642D01*
X393105Y83500D01*
X394895D01*
X396549Y84185D01*
X397815Y85451D01*
X398500Y87105D01*
Y88895D01*
X397815Y90549D01*
X396549Y91815D01*
X394895Y92500D01*
X393105D01*
X391451Y91815D01*
X390185Y90549D01*
X389500Y88895D01*
Y87590D01*
X385959Y84049D01*
X334000D01*
Y84395D01*
X333315Y86049D01*
X332049Y87315D01*
X330395Y88000D01*
X330326D01*
X330073Y89270D01*
X331156Y89719D01*
X332422Y90985D01*
X333107Y92639D01*
Y94429D01*
X334281Y94451D01*
X336428D01*
X337033Y93181D01*
X336500Y91895D01*
Y90105D01*
X337185Y88451D01*
X338451Y87185D01*
X340105Y86500D01*
X341895D01*
X343549Y87185D01*
X344815Y88451D01*
X345500Y90105D01*
Y91895D01*
X344967Y93181D01*
X345572Y94451D01*
X784185D01*
X784185Y94451D01*
X785451Y93185D01*
X787105Y92500D01*
X788895D01*
X790549Y93185D01*
X791815Y94451D01*
X792500Y96105D01*
Y97895D01*
X791815Y99549D01*
X790549Y100815D01*
X788895Y101500D01*
X787105D01*
X785451Y100815D01*
X784185Y99549D01*
X784185Y99549D01*
X509667D01*
X509581Y99660D01*
X509202Y100819D01*
X510834Y102451D01*
X621185D01*
X621451Y102185D01*
X623105Y101500D01*
X624895D01*
X626549Y102185D01*
X627815Y103451D01*
X628500Y105105D01*
Y106895D01*
X627815Y108549D01*
X626549Y109815D01*
X624895Y110500D01*
X623105D01*
X621451Y109815D01*
X620185Y108549D01*
X619771Y107549D01*
X511998D01*
X511293Y108605D01*
X511500Y109105D01*
Y110895D01*
X510815Y112549D01*
X509549Y113815D01*
X507895Y114500D01*
X506105D01*
X504451Y113815D01*
X503185Y112549D01*
X502500Y110895D01*
Y109246D01*
X501631Y108377D01*
X389023D01*
X388175Y109647D01*
X388500Y110433D01*
Y112223D01*
X387815Y113877D01*
X386549Y115143D01*
X384895Y115828D01*
X383105D01*
X381451Y115143D01*
X380185Y113877D01*
X379500Y112223D01*
Y110433D01*
X379826Y109647D01*
X378977Y108377D01*
X366400D01*
X365896Y109647D01*
X366500Y111105D01*
Y112895D01*
X365815Y114549D01*
X364549Y115815D01*
X362895Y116500D01*
D02*
G37*
G36*
X126895Y102500D02*
X125105D01*
X123451Y101815D01*
X122185Y100549D01*
X121500Y98895D01*
Y97105D01*
X122185Y95451D01*
X123451Y94185D01*
X125105Y93500D01*
X126895D01*
X128549Y94185D01*
X129815Y95451D01*
X130500Y97105D01*
Y98895D01*
X129815Y100549D01*
X128549Y101815D01*
X126895Y102500D01*
D02*
G37*
G36*
X160895Y101500D02*
X159105D01*
X157451Y100815D01*
X156185Y99549D01*
X155500Y97895D01*
Y96105D01*
X156185Y94451D01*
X157451Y93185D01*
X159105Y92500D01*
X160895D01*
X162549Y93185D01*
X163815Y94451D01*
X164500Y96105D01*
Y97895D01*
X163815Y99549D01*
X162549Y100815D01*
X160895Y101500D01*
D02*
G37*
G36*
X79895Y80500D02*
X78105D01*
X76451Y79815D01*
X75185Y78549D01*
X75185Y78549D01*
X34815D01*
X34815Y78549D01*
X33549Y79815D01*
X31895Y80500D01*
X30105D01*
X28451Y79815D01*
X27185Y78549D01*
X26500Y76895D01*
Y75105D01*
X27185Y73451D01*
X28451Y72185D01*
X30105Y71500D01*
X31895D01*
X33549Y72185D01*
X34815Y73451D01*
X34815Y73451D01*
X75185D01*
X75185Y73451D01*
X76451Y72185D01*
X78105Y71500D01*
X79895D01*
X81549Y72185D01*
X82815Y73451D01*
X83500Y75105D01*
Y76895D01*
X82815Y78549D01*
X81549Y79815D01*
X79895Y80500D01*
D02*
G37*
G36*
X31895Y91500D02*
X30105D01*
X28451Y90815D01*
X27185Y89549D01*
X26500Y87895D01*
Y86105D01*
X27185Y84451D01*
X28451Y83185D01*
X30105Y82500D01*
X31895D01*
X33549Y83185D01*
X34815Y84451D01*
X34815Y84451D01*
X85291D01*
X85817Y83181D01*
X85385Y82749D01*
X84700Y81095D01*
Y79305D01*
X85385Y77651D01*
X86651Y76385D01*
X88305Y75700D01*
X90095D01*
X91749Y76385D01*
X93015Y77651D01*
X93700Y79305D01*
Y81095D01*
X93015Y82749D01*
X92583Y83181D01*
X93109Y84451D01*
X133944D01*
X135500Y82895D01*
X135500Y82895D01*
Y81105D01*
X136185Y79451D01*
X137451Y78185D01*
X139105Y77500D01*
X140895D01*
X142549Y78185D01*
X143815Y79451D01*
X144500Y81105D01*
Y82895D01*
X143815Y84549D01*
X142549Y85815D01*
X140895Y86500D01*
X139105D01*
X139105Y86500D01*
X136802Y88802D01*
X135975Y89355D01*
X135000Y89549D01*
X34815D01*
X34815Y89549D01*
X33549Y90815D01*
X31895Y91500D01*
D02*
G37*
G36*
X454895Y47500D02*
X453105D01*
X451451Y46815D01*
X450185Y45549D01*
X449500Y43895D01*
Y42105D01*
X450185Y40451D01*
X451451Y39185D01*
X453105Y38500D01*
X454895D01*
X456549Y39185D01*
X457815Y40451D01*
X458500Y42105D01*
Y43895D01*
X457815Y45549D01*
X456549Y46815D01*
X454895Y47500D01*
D02*
G37*
G36*
X201500Y64000D02*
X180500D01*
Y26000D01*
X201500D01*
Y64000D01*
D02*
G37*
G36*
X616354Y50789D02*
X613646D01*
X613449Y50750D01*
X613248D01*
X610591Y50222D01*
X610406Y50145D01*
X610209Y50106D01*
X607706Y49069D01*
X607539Y48958D01*
X607354Y48881D01*
X605102Y47376D01*
X604960Y47234D01*
X604793Y47122D01*
X602878Y45207D01*
X602766Y45040D01*
X602624Y44898D01*
X601119Y42646D01*
X601043Y42460D01*
X600931Y42293D01*
X599894Y39791D01*
X599855Y39594D01*
X599778Y39409D01*
X599250Y36752D01*
Y36551D01*
X599211Y36354D01*
Y33646D01*
X599250Y33449D01*
Y33248D01*
X599778Y30591D01*
X599855Y30406D01*
X599894Y30209D01*
X600931Y27706D01*
X601043Y27540D01*
X601119Y27354D01*
X602624Y25102D01*
X602766Y24960D01*
X602878Y24793D01*
X604793Y22878D01*
X604960Y22766D01*
X605102Y22624D01*
X607354Y21119D01*
X607540Y21042D01*
X607706Y20931D01*
X610209Y19894D01*
X610406Y19855D01*
X610591Y19778D01*
X613248Y19250D01*
X613449D01*
X613646Y19211D01*
X616354D01*
X616551Y19250D01*
X616752D01*
X619408Y19778D01*
X619594Y19855D01*
X619791Y19894D01*
X622293Y20931D01*
X622460Y21042D01*
X622646Y21119D01*
X624898Y22624D01*
X625040Y22766D01*
X625207Y22878D01*
X627122Y24793D01*
X627234Y24960D01*
X627376Y25102D01*
X628881Y27354D01*
X628957Y27540D01*
X629069Y27706D01*
X630106Y30209D01*
X630145Y30406D01*
X630222Y30591D01*
X630750Y33248D01*
Y33449D01*
X630789Y33646D01*
Y36354D01*
X630750Y36551D01*
Y36752D01*
X630222Y39409D01*
X630145Y39594D01*
X630106Y39791D01*
X629069Y42293D01*
X628957Y42460D01*
X628881Y42646D01*
X627376Y44898D01*
X627234Y45040D01*
X627122Y45207D01*
X625207Y47122D01*
X625040Y47234D01*
X624898Y47376D01*
X622646Y48881D01*
X622460Y48958D01*
X622293Y49069D01*
X619791Y50106D01*
X619594Y50145D01*
X619408Y50222D01*
X616752Y50750D01*
X616551D01*
X616354Y50789D01*
D02*
G37*
G36*
X36354D02*
X33646D01*
X33449Y50750D01*
X33248D01*
X30591Y50222D01*
X30406Y50145D01*
X30209Y50106D01*
X27706Y49069D01*
X27540Y48958D01*
X27354Y48881D01*
X25102Y47376D01*
X24960Y47234D01*
X24793Y47122D01*
X22878Y45207D01*
X22766Y45040D01*
X22624Y44898D01*
X21119Y42646D01*
X21042Y42460D01*
X20931Y42293D01*
X19894Y39791D01*
X19855Y39594D01*
X19778Y39409D01*
X19250Y36752D01*
Y36551D01*
X19211Y36354D01*
Y33646D01*
X19250Y33449D01*
Y33248D01*
X19778Y30591D01*
X19855Y30406D01*
X19894Y30209D01*
X20931Y27706D01*
X21042Y27540D01*
X21119Y27354D01*
X22624Y25102D01*
X22766Y24960D01*
X22878Y24793D01*
X24793Y22878D01*
X24960Y22766D01*
X25102Y22624D01*
X27354Y21119D01*
X27540Y21042D01*
X27706Y20931D01*
X30209Y19894D01*
X30406Y19855D01*
X30591Y19778D01*
X33248Y19250D01*
X33449D01*
X33646Y19211D01*
X36354D01*
X36551Y19250D01*
X36752D01*
X39409Y19778D01*
X39594Y19855D01*
X39791Y19894D01*
X42293Y20931D01*
X42460Y21042D01*
X42646Y21119D01*
X44898Y22624D01*
X45040Y22766D01*
X45207Y22878D01*
X47122Y24793D01*
X47234Y24960D01*
X47376Y25102D01*
X48881Y27354D01*
X48958Y27540D01*
X49069Y27706D01*
X50106Y30209D01*
X50145Y30406D01*
X50222Y30591D01*
X50750Y33248D01*
Y33449D01*
X50789Y33646D01*
Y36354D01*
X50750Y36551D01*
Y36752D01*
X50222Y39409D01*
X50145Y39594D01*
X50106Y39791D01*
X49069Y42293D01*
X48958Y42460D01*
X48881Y42646D01*
X47376Y44898D01*
X47234Y45040D01*
X47122Y45207D01*
X45207Y47122D01*
X45040Y47234D01*
X44898Y47376D01*
X42646Y48881D01*
X42460Y48958D01*
X42293Y49069D01*
X39791Y50106D01*
X39594Y50145D01*
X39409Y50222D01*
X36752Y50750D01*
X36551D01*
X36354Y50789D01*
D02*
G37*
%LPD*%
D13*
X675400Y210800D02*
D03*
X492067D02*
D03*
X308733D02*
D03*
X125400D02*
D03*
X61900Y185400D02*
D03*
D19*
X212000Y21000D02*
X224000D01*
X227892Y24892D02*
Y33893D01*
X224000Y21000D02*
X227892Y24892D01*
X169000Y21000D02*
X212000D01*
X73282Y237718D02*
X100200Y210800D01*
X58712Y237718D02*
X73282D01*
X23812Y240000D02*
X26094Y237718D01*
X23000Y240000D02*
X23812D01*
X26094Y237718D02*
X58712D01*
X160000Y30000D02*
X169000Y21000D01*
X100200Y210800D02*
X125400D01*
X341000Y43000D02*
X368000D01*
D20*
X820500Y57500D02*
X828000Y65000D01*
X771500Y57500D02*
X820500D01*
X828000Y65000D02*
X839000D01*
X766000Y63000D02*
X771500Y57500D01*
X601728Y61000D02*
X762918D01*
X764918Y63000D01*
X600728Y60000D02*
X601728Y61000D01*
X754500Y54000D02*
X825891D01*
X830220Y58329D01*
X751000Y57500D02*
X754500Y54000D01*
X603178Y57500D02*
X751000D01*
X505000Y486000D02*
X512000Y479000D01*
X439000Y486000D02*
X505000D01*
X526262Y461500D02*
X534262Y469500D01*
X487328Y461500D02*
X526262D01*
X484594Y464235D02*
X487328Y461500D01*
X481765Y464235D02*
X484594D01*
X481000Y465000D02*
X481765Y464235D01*
X471500Y465000D02*
X481000D01*
X486778Y467000D02*
X526812D01*
X482778Y471000D02*
X486778Y467000D01*
X194722Y471000D02*
X482778D01*
X189533Y467467D02*
X191189D01*
X194722Y471000D01*
X186000D02*
X189533Y467467D01*
X526812Y467000D02*
X532812Y473000D01*
X200082Y467500D02*
X469000D01*
X471500Y465000D01*
X403307Y224307D02*
X464052D01*
X345000Y218000D02*
X397000D01*
X403307Y224307D01*
X74271Y185400D02*
X78871Y190000D01*
X112000D01*
X122000Y180000D01*
X61900Y185400D02*
X74271D01*
X217277Y196000D02*
X230656D01*
X201277Y180000D02*
X217277Y196000D01*
X122000Y180000D02*
X201277D01*
X203722Y117500D02*
X211197Y110025D01*
X71500Y117500D02*
X203722D01*
X233000Y133000D02*
X239000D01*
X192722Y138500D02*
X227500D01*
X233000Y133000D01*
X176000Y142000D02*
X176500Y142500D01*
X203278D01*
X204278Y143500D02*
X230504D01*
X234761Y139243D01*
X203278Y142500D02*
X204278Y143500D01*
X287650Y125010D02*
X299010D01*
X302000Y128000D02*
X394000D01*
X299010Y125010D02*
X302000Y128000D01*
X280000Y132660D02*
X287650Y125010D01*
X396101Y64000D02*
X401600Y58500D01*
X589822D01*
X365172Y64000D02*
X396101D01*
X364000Y56050D02*
Y62828D01*
X365172Y64000D01*
X358450Y50500D02*
X364000Y56050D01*
X403050Y62000D02*
X591272D01*
X397550Y67500D02*
X403050Y62000D01*
X363500Y67500D02*
X397550D01*
X360500Y64500D02*
X363500Y67500D01*
X357000Y54222D02*
X360500Y57722D01*
Y64500D01*
X357000Y54000D02*
Y54222D01*
X326500Y64500D02*
X345500D01*
X352000Y71000D02*
X399000D01*
X345500Y64500D02*
X352000Y71000D01*
X399000D02*
X404500Y65500D01*
X592722D01*
X400722Y74500D02*
X406222Y69000D01*
X411000Y69000D02*
X597000D01*
X406222Y69000D02*
X411000D01*
X348172Y74500D02*
X400722D01*
X411000Y69000D02*
X411000Y69000D01*
X345000Y72000D02*
X345672D01*
X348172Y74500D01*
X396278Y133500D02*
X406778Y123000D01*
X561000D01*
X389450Y133500D02*
X396278D01*
X400728Y134000D02*
X435000D01*
X397728Y137000D02*
X400728Y134000D01*
X342172Y105828D02*
X502687D01*
X332000Y111000D02*
X337000D01*
X342172Y105828D01*
X334000Y105000D02*
X334499D01*
X337172Y102328D01*
X507106D01*
X328607Y93534D02*
X332074Y97000D01*
X788000D01*
X387015Y81500D02*
X393515Y88000D01*
X332582Y81500D02*
X387015D01*
X330582Y83500D02*
X332582Y81500D01*
X329500Y83500D02*
X330582D01*
X411172Y72500D02*
X592722D01*
X405672Y78000D02*
X411172Y72500D01*
X206000Y69000D02*
X220000Y55000D01*
X254050D01*
X256550Y57500D02*
X351828D01*
X254050Y55000D02*
X256550Y57500D01*
X351828D02*
X354328Y60000D01*
X355000D01*
X592722Y65500D02*
X594722Y63500D01*
X591272Y62000D02*
X593272Y60000D01*
X506859Y110000D02*
X507000D01*
X502687Y105828D02*
X506859Y110000D01*
X78000Y60000D02*
X138000D01*
X147000Y69000D01*
X206000D01*
X145722Y129500D02*
X153722Y137500D01*
X158278D01*
X127278Y129500D02*
X145722D01*
X158278Y137500D02*
X160278Y135500D01*
X83500Y135500D02*
X110722D01*
X119278Y137500D02*
X127278Y129500D01*
X112722Y137500D02*
X119278D01*
X189722Y135500D02*
X192722Y138500D01*
X160278Y135500D02*
X189722D01*
X110722Y135500D02*
X112722Y137500D01*
X77000Y142000D02*
X83500Y135500D01*
X589822Y58500D02*
X591822Y56500D01*
X657722Y75500D02*
X730111D01*
X731611Y74000D01*
X650222Y68000D02*
X654500Y72278D01*
X804000Y74000D02*
X808000Y78000D01*
X731611Y74000D02*
X804000D01*
X654500Y72278D02*
X657722Y75500D01*
X654500Y72278D02*
Y72278D01*
X605778Y68000D02*
X650222D01*
X599278Y74500D02*
X605778Y68000D01*
X592722Y72500D02*
X594722Y74500D01*
X599278D01*
X594722Y63500D02*
X599278D01*
X600278Y64500D01*
X654500D01*
X660000Y70000D01*
X217000Y78000D02*
X405672D01*
X703500Y11828D02*
X704671Y13000D01*
X703500Y8722D02*
Y11828D01*
X699278Y4500D02*
X703500Y8722D01*
X305050Y4500D02*
X699278D01*
X704671Y13000D02*
X798000D01*
X145778Y7000D02*
X302550D01*
X305050Y4500D01*
X696918Y11000D02*
X698000D01*
X693918Y8000D02*
X696918Y11000D01*
X306500Y8000D02*
X693918D01*
X831000Y536000D02*
X843000D01*
X831000Y518000D02*
Y536000D01*
X802000D02*
X831000D01*
X534262Y469500D02*
X657828D01*
X659000Y468329D01*
Y463500D02*
Y468329D01*
X532812Y473000D02*
X662222D01*
X666500Y472500D02*
X670000Y469000D01*
X662222Y473000D02*
X662722Y472500D01*
X666500D01*
X198082Y465500D02*
X200082Y467500D01*
X197000Y465500D02*
X198082D01*
X791828Y20000D02*
X792000D01*
X788828Y17000D02*
X791828Y20000D01*
X695722Y17000D02*
X788828D01*
X690222Y11500D02*
X695722Y17000D01*
X687070Y246000D02*
X692320Y240750D01*
X593000Y240000D02*
X599000Y246000D01*
X687070D01*
X383000Y272000D02*
X551500D01*
X561500Y282000D01*
X242082Y293000D02*
X376000D01*
X389000Y280000D01*
X239000Y291000D02*
X240082D01*
X242082Y293000D01*
X307500Y239500D02*
X359500D01*
X191916Y234500D02*
X302500D01*
X307500Y239500D01*
X359500D02*
X395500D01*
X400500Y234500D01*
X433000D01*
X278568Y104235D02*
X281235D01*
X277333Y103000D02*
X278568Y104235D01*
X281235D02*
X282000Y105000D01*
X236709Y103000D02*
X277333D01*
X214000Y125000D02*
X219740Y119260D01*
X220450D02*
X236709Y103000D01*
X206000Y125000D02*
X214000D01*
X219740Y119260D02*
X220450D01*
X235260Y99500D02*
X283500D01*
X386232Y135232D02*
X388000Y137000D01*
X300050Y131500D02*
X387450D01*
X298832Y135232D02*
X386232D01*
X388000Y137000D02*
X397728D01*
X387450Y131500D02*
X389450Y133500D01*
X295548Y134775D02*
X298376D01*
X287293Y133721D02*
Y134410D01*
X298376Y134775D02*
X298832Y135232D01*
X297060Y128510D02*
X300050Y131500D01*
X292504Y128510D02*
X297060D01*
X294782Y134010D02*
X295548Y134775D01*
X287293Y133721D02*
X292504Y128510D01*
X257803Y134419D02*
Y140015D01*
X271222Y121000D02*
X311000D01*
X257803Y134419D02*
X271222Y121000D01*
X257400Y140419D02*
X257803Y140015D01*
X507106Y102328D02*
X509778Y105000D01*
X623000D02*
X624000Y106000D01*
X509778Y105000D02*
X623000D01*
X184010Y242407D02*
X191916Y234500D01*
X433000D02*
X438000Y239500D01*
X282000Y185000D02*
X373000D01*
X232656Y198000D02*
X271985D01*
X230656Y196000D02*
X232656Y198000D01*
X202000Y147000D02*
X234782D01*
X201000Y148000D02*
X202000Y147000D01*
X234782D02*
X240782Y141000D01*
X248000D01*
X156000Y132000D02*
X194000D01*
X195000Y133000D01*
X71000Y118000D02*
X71500Y117500D01*
X24000Y112000D02*
X204272D01*
X17000Y119000D02*
X24000Y112000D01*
X204272D02*
X213272Y103000D01*
X211197Y110025D02*
X216957D01*
X217197Y109784D01*
X213272Y103000D02*
X214000D01*
X213000Y116000D02*
X213240Y115760D01*
X219000D01*
X235260Y99500D01*
X215000Y277000D02*
X251000D01*
X283500Y99500D02*
X290000Y93000D01*
X378500Y296500D02*
X385000Y303000D01*
X210500Y296500D02*
X378500D01*
X210000Y296000D02*
X210500Y296500D01*
X325500Y104500D02*
X332000Y111000D01*
X602178Y56500D02*
X603178Y57500D01*
X591822Y56500D02*
X602178D01*
X593272Y60000D02*
X600728D01*
X365450Y11500D02*
X690222D01*
X361950Y15000D02*
X365450Y11500D01*
X355000Y15000D02*
X361950D01*
X302000Y12500D02*
X306500Y8000D01*
X294861Y12500D02*
X302000D01*
X293861Y11500D02*
X294861Y12500D01*
X286722Y11500D02*
X293861D01*
X286487Y11735D02*
X286722Y11500D01*
X283765Y11735D02*
X286487D01*
X283000Y12500D02*
X283765Y11735D01*
X289115Y24542D02*
X289386Y24271D01*
X579729D01*
X580000Y24000D01*
X273488Y24938D02*
X274000D01*
X263550Y15000D02*
X273488Y24938D01*
X737000Y533000D02*
X756303D01*
X778300Y511004D02*
X797603D01*
X756303Y533000D02*
X778300Y511004D01*
X804599Y518000D02*
X831000D01*
X797603Y511004D02*
X804599Y518000D01*
X799000Y539000D02*
X802000Y536000D01*
X709278Y444800D02*
X715278Y450800D01*
X717420D01*
X677800Y444800D02*
X709278D01*
X671800Y450800D02*
X677800Y444800D01*
X101900Y4999D02*
X107400Y10500D01*
X142278D01*
X145778Y7000D01*
X265582Y50500D02*
X358450D01*
X263082Y48000D02*
X265582Y50500D01*
X262000Y48000D02*
X263082D01*
X673749Y423667D02*
X675482Y425400D01*
X717420D01*
X672667Y423667D02*
X673749D01*
X686333Y399667D02*
X686500Y399833D01*
X717253D02*
X717420Y400000D01*
X686500Y399833D02*
X717253D01*
X386900Y349200D02*
X394100Y342000D01*
X440000D01*
X449000Y351000D01*
X132580Y349200D02*
X178200D01*
X185000Y356000D01*
X286900Y349200D02*
X288442D01*
X295242Y356000D01*
X344000D01*
X462600Y399500D02*
X463100Y400000D01*
X442500Y399500D02*
X462600D01*
X442000Y399000D02*
X442500Y399500D01*
X462627Y425400D02*
X463100D01*
X455027Y433000D02*
X462627Y425400D01*
X421000Y433000D02*
X455027D01*
X443200Y450800D02*
X463100D01*
X437000Y457000D02*
X443200Y450800D01*
X404000Y457000D02*
X437000D01*
X344778Y394000D02*
X350778Y400000D01*
X330000Y394000D02*
X344778D01*
X350778Y400000D02*
X363100D01*
X286900D02*
X343000D01*
X298300Y414000D02*
X370000D01*
X319367Y425367D02*
X363067D01*
X319333Y425333D02*
X319367Y425367D01*
X363067D02*
X363100Y425400D01*
X305100Y450900D02*
X363000D01*
X363100Y450800D01*
X305000Y451000D02*
X305100Y450900D01*
X284000Y193000D02*
X311000D01*
X413300Y374300D02*
X462800D01*
X463100Y374600D01*
X413000Y374000D02*
X413300Y374300D01*
X641220Y400000D02*
X651887Y410667D01*
X731333D01*
X144000Y187000D02*
X145000Y188000D01*
X176000D01*
X602778Y456000D02*
X607420Y451358D01*
X616862D02*
X617420Y450800D01*
X607420Y451358D02*
X616862D01*
X560000Y456000D02*
X602778D01*
X614947Y425400D02*
X617420D01*
X608347Y432000D02*
X614947Y425400D01*
X567000Y432000D02*
X608347D01*
X542255Y350235D02*
X583723D01*
X586000Y391000D02*
X595000Y400000D01*
X617420D01*
X588482Y350235D02*
X591235D01*
X583723D02*
X583825Y350134D01*
X588381D02*
X588482Y350235D01*
X583825Y350134D02*
X588381D01*
X591235Y350235D02*
X592000Y351000D01*
X541220Y349200D02*
X542255Y350235D01*
X573000Y373000D02*
X573765Y373765D01*
X616585D02*
X617420Y374600D01*
X573765Y373765D02*
X616585D01*
X541220Y400000D02*
X580000D01*
X592800Y425200D02*
X593000Y425000D01*
X541220Y425400D02*
X541420Y425200D01*
X592800D01*
X600600Y450400D02*
X601000Y450000D01*
X541220Y450800D02*
X541620Y450400D01*
X600600D01*
X142380Y441000D02*
X200000D01*
X132580Y450800D02*
X142380Y441000D01*
X141653Y432000D02*
X184000D01*
X132580Y425400D02*
X135053D01*
X141653Y432000D01*
X132580Y400000D02*
X167000D01*
X174000Y407000D01*
X208580Y374800D02*
X208780Y374600D01*
X158200Y374800D02*
X208580D01*
X158000Y375000D02*
X158200Y374800D01*
X150100Y450900D02*
X208680D01*
X208780Y450800D01*
X150000Y451000D02*
X150100Y450900D01*
X208580Y425200D02*
X208780Y425400D01*
X164200Y425200D02*
X208580D01*
X164000Y425000D02*
X164200Y425200D01*
X178667Y400333D02*
X178833Y400167D01*
X208613D02*
X208780Y400000D01*
X178833Y400167D02*
X208613D01*
X434600Y450400D02*
X435000Y450000D01*
X386900Y450800D02*
X387300Y450400D01*
X434600D01*
X431800Y425200D02*
X432000Y425000D01*
X386900Y425400D02*
X387100Y425200D01*
X431800D01*
X426500Y399500D02*
X427000Y399000D01*
X386900Y400000D02*
X387400Y399500D01*
X426500D01*
X653400Y425400D02*
X662900Y434900D01*
X641220Y425400D02*
X653400D01*
X721555Y441500D02*
X743450D01*
X719905Y434900D02*
X723005Y438000D01*
X662900Y434900D02*
X719905D01*
X723005Y438000D02*
X740918D01*
X670700Y441300D02*
X721355D01*
X721555Y441500D01*
X743650Y441300D02*
X759300D01*
X743450Y441500D02*
X743650Y441300D01*
X740918Y438000D02*
X744584Y434333D01*
X745667D01*
X661200Y450800D02*
X670700Y441300D01*
X393515Y88000D02*
X394000D01*
X213411Y73435D02*
Y74411D01*
X217000Y78000D01*
X362900Y374800D02*
X363100Y374600D01*
X336200Y374800D02*
X362900D01*
X336000Y375000D02*
X336200Y374800D01*
X286900Y425400D02*
X298300Y414000D01*
X286900Y450800D02*
X297700Y440000D01*
X374000D01*
X641220Y450800D02*
X661200D01*
X759300Y441300D02*
X760000Y442000D01*
X641220Y349200D02*
X642254Y350235D01*
X699235D01*
X700000Y351000D01*
X13000Y118656D02*
X13344Y119000D01*
X17000D01*
X535000Y179000D02*
X576000D01*
X210000Y488000D02*
X210985Y487015D01*
X271985D01*
X100000Y229000D02*
X113406Y242407D01*
X184010D01*
X444500Y245500D02*
X498500D01*
X438000Y239500D02*
X438500D01*
X444500Y245500D01*
X498500D02*
X504000Y240000D01*
X593000D01*
X159000Y21000D02*
Y22000D01*
Y21000D02*
X165000Y15000D01*
X263550D01*
X258000Y54000D02*
X357000D01*
X253000Y49000D02*
X258000Y54000D01*
X790000Y464500D02*
X792000Y462500D01*
X688528Y464500D02*
X790000D01*
X684095Y461000D02*
X685028D01*
X688528Y464500D01*
X683819Y460724D02*
X684095Y461000D01*
X32580Y450800D02*
X41780Y460000D01*
X87000D01*
X184000Y124000D02*
X185000Y123000D01*
X150000Y124000D02*
X184000D01*
X153250Y18000D02*
X160750Y10500D01*
X264000D01*
X265235Y11735D01*
X270130D01*
X270896Y12500D01*
X733000Y486000D02*
X798000D01*
X185000Y106000D02*
X201000D01*
X211000Y96000D01*
X35053Y425400D02*
X41653Y432000D01*
X74000D01*
X32580Y425400D02*
X35053D01*
X32580Y400000D02*
X58000D01*
X57000Y374000D02*
X57300Y374300D01*
X108480D02*
X108780Y374600D01*
X57300Y374300D02*
X108480D01*
X108680Y450900D02*
X108780Y450800D01*
X51100Y450900D02*
X108680D01*
X51000Y451000D02*
X51100Y450900D01*
X108580Y425200D02*
X108780Y425400D01*
X65200Y425200D02*
X108580D01*
X65000Y425000D02*
X65200Y425200D01*
X90118Y349200D02*
X91918Y351000D01*
X93000D01*
X32580Y349200D02*
X90118D01*
X79000Y399000D02*
X79500Y399500D01*
X108280D02*
X108780Y400000D01*
X79500Y399500D02*
X108280D01*
X25000Y132000D02*
X115000D01*
X23000Y106000D02*
X102000D01*
X31000Y76000D02*
X79000D01*
X682000Y468000D02*
X806000D01*
X31000Y87000D02*
X135000D01*
X140000Y82000D01*
D21*
X524741Y472000D02*
X530741Y478000D01*
X502900D02*
X508899Y472000D01*
X524741D01*
X286900Y478000D02*
X502900D01*
X480644Y210800D02*
X500796D01*
X474138Y217307D02*
X480644Y210800D01*
X466952Y217307D02*
X474138D01*
X466952Y217307D02*
X466952Y217307D01*
X461153Y217307D02*
X466952D01*
X459959Y218500D02*
X461153Y217307D01*
X405500Y218500D02*
X459959D01*
X308733Y210800D02*
X398000D01*
Y211000D02*
X405500Y218500D01*
X614000Y220000D02*
X623200Y210800D01*
X500796D02*
X509996Y220000D01*
X614000D01*
X637071Y210800D02*
X675400D01*
X623200D02*
X634929D01*
X675400D02*
X814942D01*
X635729Y210000D02*
X636271D01*
X634929Y210800D02*
X635729Y210000D01*
X636271D02*
X637071Y210800D01*
X250052D02*
X308733D01*
X156123Y211223D02*
X249629D01*
X155899Y211000D02*
X156123Y211223D01*
X249629D02*
X250052Y210800D01*
X150100Y211000D02*
X155899D01*
X125400Y210800D02*
X149901D01*
X150100Y211000D01*
X530741Y478000D02*
X665000D01*
X89000Y123000D02*
X126000D01*
X665000Y478000D02*
X758000D01*
X815000D01*
X95000D02*
X286900D01*
Y512300D01*
X83700Y489300D02*
Y512300D01*
Y489300D02*
X95000Y478000D01*
D23*
X83700Y537700D02*
D03*
D24*
X109100D02*
D03*
X134500D02*
D03*
X236100D02*
D03*
X312300D02*
D03*
X439300D02*
D03*
X490100D02*
D03*
X83700Y512300D02*
D03*
X185300D02*
D03*
X286900D02*
D03*
X388500D02*
D03*
X566300D02*
D03*
D25*
X132580Y349200D02*
D03*
Y400000D02*
D03*
Y425400D02*
D03*
Y450800D02*
D03*
X208780Y374600D02*
D03*
Y400000D02*
D03*
Y425400D02*
D03*
Y450800D02*
D03*
X32580Y349200D02*
D03*
Y400000D02*
D03*
Y425400D02*
D03*
Y450800D02*
D03*
X108780Y374600D02*
D03*
Y400000D02*
D03*
Y425400D02*
D03*
Y450800D02*
D03*
X386900Y349200D02*
D03*
Y400000D02*
D03*
Y425400D02*
D03*
Y450800D02*
D03*
X463100Y374600D02*
D03*
Y400000D02*
D03*
Y425400D02*
D03*
Y450800D02*
D03*
X286900Y349200D02*
D03*
Y400000D02*
D03*
Y425400D02*
D03*
Y450800D02*
D03*
X363100Y374600D02*
D03*
Y400000D02*
D03*
Y425400D02*
D03*
Y450800D02*
D03*
X641220Y349200D02*
D03*
Y400000D02*
D03*
Y425400D02*
D03*
Y450800D02*
D03*
X717420Y400000D02*
D03*
Y425400D02*
D03*
Y450800D02*
D03*
X541220Y349200D02*
D03*
Y400000D02*
D03*
Y425400D02*
D03*
Y450800D02*
D03*
X617420Y374600D02*
D03*
Y400000D02*
D03*
Y425400D02*
D03*
Y450800D02*
D03*
D26*
X835001Y485001D02*
D03*
Y45000D02*
D03*
X815001Y165000D02*
D03*
Y125000D02*
D03*
Y85000D02*
D03*
X805001Y65000D02*
D03*
X815001Y45000D02*
D03*
X805001Y25000D02*
D03*
X785001Y425001D02*
D03*
Y385001D02*
D03*
Y65000D02*
D03*
Y25000D02*
D03*
X765001Y505001D02*
D03*
X775001Y445001D02*
D03*
Y405001D02*
D03*
Y325001D02*
D03*
Y285000D02*
D03*
Y245000D02*
D03*
X765001Y185000D02*
D03*
X775001Y165000D02*
D03*
X765001Y145000D02*
D03*
X775001Y125000D02*
D03*
X765001Y105000D02*
D03*
Y25000D02*
D03*
X755001Y525001D02*
D03*
X745001Y505001D02*
D03*
Y185000D02*
D03*
X755001Y165000D02*
D03*
X745001Y145000D02*
D03*
X755001Y125000D02*
D03*
X745001Y105000D02*
D03*
X755001Y85000D02*
D03*
Y45000D02*
D03*
X745001Y25000D02*
D03*
X725001Y545001D02*
D03*
Y385001D02*
D03*
Y185000D02*
D03*
X735001Y165000D02*
D03*
Y125000D02*
D03*
X725001Y105000D02*
D03*
X735001Y85000D02*
D03*
Y45000D02*
D03*
X725001Y25000D02*
D03*
X705001Y385001D02*
D03*
X715001Y325001D02*
D03*
Y285000D02*
D03*
X705001Y265000D02*
D03*
X715001Y245000D02*
D03*
X705001Y185000D02*
D03*
Y145000D02*
D03*
X715001Y125000D02*
D03*
Y85000D02*
D03*
Y45000D02*
D03*
X705001Y25000D02*
D03*
X685001Y545001D02*
D03*
X695001Y365001D02*
D03*
Y285000D02*
D03*
X685001Y265000D02*
D03*
Y185000D02*
D03*
Y145000D02*
D03*
X695001Y125000D02*
D03*
X685001Y105000D02*
D03*
Y25000D02*
D03*
X665001Y545001D02*
D03*
Y425001D02*
D03*
Y385001D02*
D03*
X675001Y285000D02*
D03*
X665001Y265000D02*
D03*
Y105000D02*
D03*
X675001Y45000D02*
D03*
X665001Y25000D02*
D03*
X655001Y445001D02*
D03*
X645001Y185000D02*
D03*
X655001Y125000D02*
D03*
X645001Y105000D02*
D03*
X655001Y85000D02*
D03*
Y45000D02*
D03*
X645001Y25000D02*
D03*
X625001Y545001D02*
D03*
X635001Y525001D02*
D03*
X625001Y505001D02*
D03*
Y385001D02*
D03*
Y305001D02*
D03*
X635001Y125000D02*
D03*
Y85000D02*
D03*
Y45000D02*
D03*
X605001Y545001D02*
D03*
Y505001D02*
D03*
X615001Y325001D02*
D03*
Y205000D02*
D03*
X605001Y145000D02*
D03*
X615001Y125000D02*
D03*
Y85000D02*
D03*
X585001Y545001D02*
D03*
X595001Y525001D02*
D03*
X585001Y505001D02*
D03*
Y145000D02*
D03*
X595001Y125000D02*
D03*
Y85000D02*
D03*
Y45000D02*
D03*
X565001Y185000D02*
D03*
Y145000D02*
D03*
X555001Y525001D02*
D03*
X545001Y305001D02*
D03*
Y265000D02*
D03*
X555001Y205000D02*
D03*
X545001Y185000D02*
D03*
X555001Y165000D02*
D03*
X545001Y145000D02*
D03*
X525001Y425001D02*
D03*
Y385001D02*
D03*
Y345001D02*
D03*
X535001Y325001D02*
D03*
X525001Y305001D02*
D03*
Y265000D02*
D03*
Y185000D02*
D03*
Y145000D02*
D03*
X535001Y85000D02*
D03*
Y45000D02*
D03*
X505001Y385001D02*
D03*
X515001Y285000D02*
D03*
X505001Y145000D02*
D03*
X515001Y85000D02*
D03*
Y45000D02*
D03*
X495001Y405001D02*
D03*
X485001Y385001D02*
D03*
X495001Y365001D02*
D03*
X485001Y305001D02*
D03*
X495001Y285000D02*
D03*
X485001Y265000D02*
D03*
Y185000D02*
D03*
X495001Y85000D02*
D03*
Y45000D02*
D03*
X475001Y525001D02*
D03*
Y445001D02*
D03*
Y405001D02*
D03*
Y365001D02*
D03*
Y325001D02*
D03*
X465001Y305001D02*
D03*
X475001Y285000D02*
D03*
X465001Y265000D02*
D03*
Y185000D02*
D03*
X475001Y85000D02*
D03*
Y45000D02*
D03*
X455001Y525001D02*
D03*
X445001Y425001D02*
D03*
X455001Y365001D02*
D03*
Y325001D02*
D03*
Y285000D02*
D03*
X445001Y265000D02*
D03*
Y145000D02*
D03*
X425001D02*
D03*
X405001D02*
D03*
X415001Y85000D02*
D03*
Y45000D02*
D03*
X395001Y365001D02*
D03*
X375001Y525001D02*
D03*
Y165000D02*
D03*
X355001Y525001D02*
D03*
X345001Y265000D02*
D03*
Y145000D02*
D03*
X325000Y505001D02*
D03*
Y265000D02*
D03*
Y145000D02*
D03*
X315000Y285000D02*
D03*
X305000Y265000D02*
D03*
Y145000D02*
D03*
X295000Y525001D02*
D03*
Y365001D02*
D03*
X275000Y525001D02*
D03*
X265000Y425001D02*
D03*
Y385001D02*
D03*
Y345001D02*
D03*
Y305001D02*
D03*
Y265000D02*
D03*
Y225000D02*
D03*
X255000Y445001D02*
D03*
Y405001D02*
D03*
Y365001D02*
D03*
Y245000D02*
D03*
X235000Y445001D02*
D03*
X225000Y425001D02*
D03*
X235000Y405001D02*
D03*
X225000Y385001D02*
D03*
X235000Y365001D02*
D03*
X225000Y305001D02*
D03*
Y265000D02*
D03*
X235000Y245000D02*
D03*
X225000Y225000D02*
D03*
X235000Y125000D02*
D03*
X215000Y325001D02*
D03*
X205000Y305001D02*
D03*
X185000Y385001D02*
D03*
Y265000D02*
D03*
X195000Y125000D02*
D03*
X165000Y465001D02*
D03*
Y145000D02*
D03*
Y105000D02*
D03*
X175000Y45000D02*
D03*
X145000Y465001D02*
D03*
Y145000D02*
D03*
X125000Y465001D02*
D03*
Y385001D02*
D03*
X105000Y465001D02*
D03*
Y305001D02*
D03*
Y265000D02*
D03*
X95000Y445001D02*
D03*
Y365001D02*
D03*
X85000Y265000D02*
D03*
X65000Y545001D02*
D03*
X75000Y445001D02*
D03*
X65000Y145000D02*
D03*
Y65000D02*
D03*
Y25000D02*
D03*
X45000Y545001D02*
D03*
Y425001D02*
D03*
Y385001D02*
D03*
Y265000D02*
D03*
Y145000D02*
D03*
X55000Y125000D02*
D03*
X45000Y65000D02*
D03*
X55000Y45000D02*
D03*
X25000Y545001D02*
D03*
Y465001D02*
D03*
Y385001D02*
D03*
Y305001D02*
D03*
X35000Y285000D02*
D03*
X25000Y265000D02*
D03*
Y225000D02*
D03*
X35000Y205000D02*
D03*
X25000Y145000D02*
D03*
X766000Y63000D02*
D03*
Y54000D02*
D03*
X512000Y479000D02*
D03*
X504000Y467000D02*
D03*
X481000Y465000D02*
D03*
X771000Y308000D02*
D03*
X752000Y325000D02*
D03*
Y382000D02*
D03*
X631000Y362000D02*
D03*
X549000Y333000D02*
D03*
X419000Y285000D02*
D03*
X385166Y330511D02*
D03*
X360000Y317000D02*
D03*
X297000Y305000D02*
D03*
X224000Y288000D02*
D03*
X204000Y270000D02*
D03*
X175000Y417000D02*
D03*
X143000Y385000D02*
D03*
X156000Y389000D02*
D03*
X142000Y412000D02*
D03*
X157000Y413000D02*
D03*
X11000Y521000D02*
D03*
X12000Y415000D02*
D03*
X15000Y351000D02*
D03*
X6000Y273000D02*
D03*
Y203000D02*
D03*
X26000Y173000D02*
D03*
X70000Y97000D02*
D03*
X90000Y41000D02*
D03*
X127000D02*
D03*
X140000Y106000D02*
D03*
X318000Y33000D02*
D03*
Y14000D02*
D03*
X449000Y18000D02*
D03*
X595000Y21000D02*
D03*
X748000Y7000D02*
D03*
X787000Y6000D02*
D03*
X717000D02*
D03*
X836000Y29000D02*
D03*
X769000Y554000D02*
D03*
X737000Y552000D02*
D03*
X677000Y551000D02*
D03*
X616000Y552000D02*
D03*
X455000Y553000D02*
D03*
X298000D02*
D03*
X149000Y492000D02*
D03*
X171000Y552000D02*
D03*
X552000Y489000D02*
D03*
X632000Y462000D02*
D03*
X593000D02*
D03*
X694000Y418000D02*
D03*
X740000Y375000D02*
D03*
X738000Y244000D02*
D03*
X779000Y222000D02*
D03*
X802000Y177000D02*
D03*
X801000Y117000D02*
D03*
X815000Y68000D02*
D03*
X685000Y85000D02*
D03*
X679000Y69000D02*
D03*
X718000Y68000D02*
D03*
X120000Y337000D02*
D03*
X121000Y300000D02*
D03*
X181000Y289000D02*
D03*
X329000Y196000D02*
D03*
X331000Y176000D02*
D03*
X476000Y234000D02*
D03*
X523000Y229000D02*
D03*
X504000D02*
D03*
X520000Y249000D02*
D03*
X547000Y228000D02*
D03*
X615000Y232000D02*
D03*
X640000Y333000D02*
D03*
X680000Y328000D02*
D03*
X752000Y405000D02*
D03*
X735000Y425000D02*
D03*
X696000Y391000D02*
D03*
X679000Y375000D02*
D03*
X665000Y365000D02*
D03*
X582000Y415000D02*
D03*
X577000Y441000D02*
D03*
X630000Y438000D02*
D03*
X359000Y493000D02*
D03*
X265000Y496000D02*
D03*
X225000Y497000D02*
D03*
X186000Y495000D02*
D03*
X60000Y439000D02*
D03*
X58000Y416000D02*
D03*
X57000Y360000D02*
D03*
X71000Y361000D02*
D03*
X72000Y274000D02*
D03*
X168000Y58000D02*
D03*
X381000Y53000D02*
D03*
X423000Y34000D02*
D03*
X552000Y33000D02*
D03*
X713000Y311000D02*
D03*
X738000Y312000D02*
D03*
X752000Y275000D02*
D03*
X803000Y399000D02*
D03*
X802000Y325000D02*
D03*
Y243000D02*
D03*
X820000Y189000D02*
D03*
X824000Y247000D02*
D03*
Y318000D02*
D03*
Y357000D02*
D03*
X823000Y413000D02*
D03*
X824000Y453000D02*
D03*
X765000Y534000D02*
D03*
X464000Y492000D02*
D03*
X428000Y495000D02*
D03*
X298000Y487000D02*
D03*
X101000D02*
D03*
X42000Y413000D02*
D03*
X14000Y381000D02*
D03*
X37000Y307000D02*
D03*
Y225000D02*
D03*
X55000Y96000D02*
D03*
X464052Y224307D02*
D03*
X636000Y210000D02*
D03*
X698000Y11000D02*
D03*
X383000Y272000D02*
D03*
X561500Y282000D02*
D03*
X58712Y237718D02*
D03*
X373000Y185000D02*
D03*
X282000D02*
D03*
X201000Y148000D02*
D03*
X234761Y139243D02*
D03*
X248000Y141000D02*
D03*
X257400Y140419D02*
D03*
X345000Y218000D02*
D03*
X77000Y142000D02*
D03*
X239000Y133000D02*
D03*
X71000Y118000D02*
D03*
X217197Y109784D02*
D03*
X251000Y277000D02*
D03*
X215000D02*
D03*
X213000Y116000D02*
D03*
X290000Y93000D02*
D03*
X385000Y303000D02*
D03*
X210000Y296000D02*
D03*
X206000Y125000D02*
D03*
X282000Y105000D02*
D03*
X507000Y110000D02*
D03*
X597000Y69000D02*
D03*
X624000Y106000D02*
D03*
X788000Y97000D02*
D03*
X283000Y12500D02*
D03*
X289115Y24542D02*
D03*
X274000Y24938D02*
D03*
X345000Y72000D02*
D03*
X328607Y93534D02*
D03*
X334000Y105000D02*
D03*
X325500Y104500D02*
D03*
X676000Y495000D02*
D03*
X737000Y533000D02*
D03*
X831000Y518000D02*
D03*
X799000Y539000D02*
D03*
X843000Y536000D02*
D03*
X171000Y38000D02*
D03*
X212000Y21000D02*
D03*
X671800Y450800D02*
D03*
X672667Y423667D02*
D03*
X686333Y399667D02*
D03*
X449000Y351000D02*
D03*
X185000Y356000D02*
D03*
X344000D02*
D03*
X442000Y399000D02*
D03*
X421000Y433000D02*
D03*
X404000Y457000D02*
D03*
X330000Y394000D02*
D03*
X319333Y425333D02*
D03*
X305000Y451000D02*
D03*
X435000Y134000D02*
D03*
X284000Y193000D02*
D03*
X311000D02*
D03*
Y121000D02*
D03*
X413000Y374000D02*
D03*
X271985Y198000D02*
D03*
X731333Y410667D02*
D03*
X144000Y187000D02*
D03*
X176000Y188000D02*
D03*
Y142000D02*
D03*
X560000Y456000D02*
D03*
X567000Y432000D02*
D03*
X586000Y391000D02*
D03*
X592000Y351000D02*
D03*
X573000Y373000D02*
D03*
X580000Y400000D02*
D03*
X593000Y425000D02*
D03*
X601000Y450000D02*
D03*
X200000Y441000D02*
D03*
X184000Y432000D02*
D03*
X174000Y407000D02*
D03*
X158000Y375000D02*
D03*
X150000Y451000D02*
D03*
X164000Y425000D02*
D03*
X178667Y400333D02*
D03*
X435000Y450000D02*
D03*
X432000Y425000D02*
D03*
X427000Y399000D02*
D03*
X745667Y434333D02*
D03*
X561000Y123000D02*
D03*
X394000Y88000D02*
D03*
X329500Y83500D02*
D03*
X336000Y375000D02*
D03*
X343000Y400000D02*
D03*
X370000Y414000D02*
D03*
X374000Y440000D02*
D03*
X760000Y442000D02*
D03*
X700000Y351000D02*
D03*
X13000Y118656D02*
D03*
X214000Y103000D02*
D03*
X239000Y291000D02*
D03*
X389000Y280000D02*
D03*
X197000Y465500D02*
D03*
X659000Y463500D02*
D03*
X535000Y179000D02*
D03*
X186000Y471000D02*
D03*
X670000Y469000D02*
D03*
X394000Y128000D02*
D03*
X660000Y70000D02*
D03*
X326500Y64500D02*
D03*
X293500Y107500D02*
D03*
X294782Y134010D02*
D03*
X287293Y134410D02*
D03*
X280000Y132660D02*
D03*
X210000Y488000D02*
D03*
X271985Y487015D02*
D03*
X184010Y242407D02*
D03*
X359500Y239500D02*
D03*
X438000D02*
D03*
X593000Y240000D02*
D03*
X692320Y240750D02*
D03*
X100000Y229000D02*
D03*
X439000Y486000D02*
D03*
X576000Y179000D02*
D03*
X580000Y24000D02*
D03*
X195000Y133000D02*
D03*
X156000Y132000D02*
D03*
X159000Y22000D02*
D03*
X160000Y30000D02*
D03*
X839000Y65000D02*
D03*
X253000Y49000D02*
D03*
X830220Y58329D02*
D03*
X262000Y48000D02*
D03*
X78000Y60000D02*
D03*
X355000D02*
D03*
Y15000D02*
D03*
X792000Y20000D02*
D03*
Y462500D02*
D03*
X683819Y460724D02*
D03*
X87000Y460000D02*
D03*
X185000Y123000D02*
D03*
X150000Y124000D02*
D03*
Y18500D02*
D03*
X270896Y12500D02*
D03*
X733000Y486000D02*
D03*
X798000D02*
D03*
Y13000D02*
D03*
X298000Y7000D02*
D03*
X193403Y96403D02*
D03*
X185000Y106000D02*
D03*
X211000Y96000D02*
D03*
X74000Y432000D02*
D03*
X58000Y400000D02*
D03*
X57000Y374000D02*
D03*
X51000Y451000D02*
D03*
X65000Y425000D02*
D03*
X93000Y351000D02*
D03*
X79000Y399000D02*
D03*
X25000Y132000D02*
D03*
X115000D02*
D03*
X23000Y106000D02*
D03*
X102000D02*
D03*
X101900Y4999D02*
D03*
X79000Y76000D02*
D03*
X31000D02*
D03*
X682000Y468000D02*
D03*
X806000D02*
D03*
X808000Y78000D02*
D03*
X31000Y87000D02*
D03*
X209050Y83009D02*
D03*
X213411Y73435D02*
D03*
X405000Y78000D02*
D03*
X248500Y23500D02*
D03*
X208356Y45334D02*
D03*
X140000Y82000D02*
D03*
X368000Y43000D02*
D03*
X341000D02*
D03*
X361000Y211000D02*
D03*
X227892Y33893D02*
D03*
X126000Y123000D02*
D03*
X89000D02*
D03*
X665000Y478000D02*
D03*
X758000D02*
D03*
X815000D02*
D03*
X814942Y210800D02*
D03*
X398000Y211000D02*
D03*
X23000Y240000D02*
D03*
D27*
X83700Y537700D02*
X109100D01*
M02*
