G04*
G04 #@! TF.GenerationSoftware,Altium Limited,Altium Designer,23.9.2 (47)*
G04*
G04 Layer_Color=16711935*
%FSLAX44Y44*%
%MOMM*%
G71*
G04*
G04 #@! TF.SameCoordinates,77EFA038-BFC7-4AA8-AC78-54DD78BCB62B*
G04*
G04*
G04 #@! TF.FilePolarity,Positive*
G04*
G01*
G75*
%ADD63C,0.1000*%
D63*
X850000Y530000D02*
G03*
X820000Y560000I-30000J0D01*
G01*
X628750Y525000D02*
G03*
X628750Y525000I-13750J0D01*
G01*
X48750D02*
G03*
X48750Y525000I-13750J0D01*
G01*
X628750Y35000D02*
G03*
X628750Y35000I-13750J0D01*
G01*
X48750D02*
G03*
X48750Y35000I-13750J0D01*
G01*
X820000Y0D02*
G03*
X850000Y30000I0J30000D01*
G01*
X0Y30000D02*
G03*
X30000Y-0I30000J0D01*
G01*
X30000Y560000D02*
G03*
X-0Y530000I0J-30000D01*
G01*
X792000Y545000D02*
G03*
X776000Y545000I-8000J0D01*
G01*
Y525000D02*
G03*
X792000Y525000I8000J0D01*
G01*
X830000Y492000D02*
G03*
X830000Y508000I0J8000D01*
G01*
X784000D02*
G03*
X784000Y492000I0J-8000D01*
G01*
X792004Y525000D02*
Y545000D01*
X775996Y525000D02*
Y545000D01*
X784000Y491996D02*
X830000D01*
X784000Y508004D02*
X830000D01*
X-0Y30000D02*
Y530000D01*
X30000Y560000D02*
X820000D01*
X30000Y-0D02*
X820000D01*
X850000Y30000D02*
Y530000D01*
M02*
