G04*
G04 #@! TF.GenerationSoftware,Altium Limited,Altium Designer,23.9.2 (47)*
G04*
G04 Layer_Color=32896*
%FSLAX44Y44*%
%MOMM*%
G71*
G04*
G04 #@! TF.SameCoordinates,755CF2AA-2F68-4FBA-815F-43BC2B140BDC*
G04*
G04*
G04 #@! TF.FilePolarity,Positive*
G04*
G01*
G75*
%ADD60C,0.2540*%
%ADD62C,0.3810*%
%ADD63C,0.0254*%
D60*
X-23049Y991618D02*
Y976383D01*
X-12892D01*
X-5275Y986539D02*
X-196D01*
X2343Y984000D01*
Y976383D01*
X-5275D01*
X-7814Y978922D01*
X-5275Y981461D01*
X2343D01*
X7421Y986539D02*
Y978922D01*
X9961Y976383D01*
X17578D01*
Y973843D01*
X15039Y971304D01*
X12500D01*
X17578Y976383D02*
Y986539D01*
X30274Y976383D02*
X25196D01*
X22656Y978922D01*
Y984000D01*
X25196Y986539D01*
X30274D01*
X32813Y984000D01*
Y981461D01*
X22656D01*
X37891Y986539D02*
Y976383D01*
Y981461D01*
X40431Y984000D01*
X42970Y986539D01*
X45509D01*
X-15431Y702063D02*
Y717298D01*
X-23049Y709680D01*
X-12892D01*
X-23049Y775718D02*
X-20510Y778258D01*
X-15431D01*
X-12892Y775718D01*
Y773179D01*
X-15431Y770640D01*
X-17970D01*
X-15431D01*
X-12892Y768101D01*
Y765562D01*
X-15431Y763023D01*
X-20510D01*
X-23049Y765562D01*
X-12892Y823982D02*
X-23049D01*
X-12892Y834139D01*
Y836678D01*
X-15431Y839218D01*
X-20510D01*
X-23049Y836678D01*
Y884942D02*
X-17970D01*
X-20510D01*
Y900178D01*
X-23049Y897638D01*
X81069Y976383D02*
Y991618D01*
X91226Y976383D01*
Y991618D01*
X98843Y986539D02*
X103922D01*
X106461Y984000D01*
Y976383D01*
X98843D01*
X96304Y978922D01*
X98843Y981461D01*
X106461D01*
X111539Y976383D02*
Y986539D01*
X114078D01*
X116617Y984000D01*
Y976383D01*
Y984000D01*
X119157Y986539D01*
X121696Y984000D01*
Y976383D01*
X134392D02*
X129313D01*
X126774Y978922D01*
Y984000D01*
X129313Y986539D01*
X134392D01*
X136931Y984000D01*
Y981461D01*
X126774D01*
X81069Y656338D02*
Y641103D01*
X88687D01*
X91226Y643642D01*
Y646181D01*
X88687Y648720D01*
X81069D01*
X88687D01*
X91226Y651259D01*
Y653798D01*
X88687Y656338D01*
X81069D01*
X98843Y641103D02*
X103922D01*
X106461Y643642D01*
Y648720D01*
X103922Y651259D01*
X98843D01*
X96304Y648720D01*
Y643642D01*
X98843Y641103D01*
X114078Y653798D02*
Y651259D01*
X111539D01*
X116617D01*
X114078D01*
Y643642D01*
X116617Y641103D01*
X126774Y653798D02*
Y651259D01*
X124235D01*
X129313D01*
X126774D01*
Y643642D01*
X129313Y641103D01*
X139470D02*
X144549D01*
X147088Y643642D01*
Y648720D01*
X144549Y651259D01*
X139470D01*
X136931Y648720D01*
Y643642D01*
X139470Y641103D01*
X152166D02*
Y651259D01*
X154705D01*
X157244Y648720D01*
Y641103D01*
Y648720D01*
X159784Y651259D01*
X162323Y648720D01*
Y641103D01*
X190254Y656338D02*
X185175D01*
X182636Y653798D01*
Y643642D01*
X185175Y641103D01*
X190254D01*
X192793Y643642D01*
Y653798D01*
X190254Y656338D01*
X197871Y651259D02*
X202950Y641103D01*
X208028Y651259D01*
X220724Y641103D02*
X215646D01*
X213106Y643642D01*
Y648720D01*
X215646Y651259D01*
X220724D01*
X223263Y648720D01*
Y646181D01*
X213106D01*
X228341Y651259D02*
Y641103D01*
Y646181D01*
X230881Y648720D01*
X233420Y651259D01*
X235959D01*
X243577Y641103D02*
X248655D01*
X246116D01*
Y656338D01*
X243577D01*
X258811Y651259D02*
X263890D01*
X266429Y648720D01*
Y641103D01*
X258811D01*
X256272Y643642D01*
X258811Y646181D01*
X266429D01*
X271507Y651259D02*
Y643642D01*
X274047Y641103D01*
X281664D01*
Y638563D01*
X279125Y636024D01*
X276586D01*
X281664Y641103D02*
Y651259D01*
X81069Y686817D02*
Y671582D01*
X88687D01*
X91226Y674122D01*
Y676661D01*
X88687Y679200D01*
X81069D01*
X88687D01*
X91226Y681739D01*
Y684278D01*
X88687Y686817D01*
X81069D01*
X98843Y671582D02*
X103922D01*
X106461Y674122D01*
Y679200D01*
X103922Y681739D01*
X98843D01*
X96304Y679200D01*
Y674122D01*
X98843Y671582D01*
X114078Y684278D02*
Y681739D01*
X111539D01*
X116617D01*
X114078D01*
Y674122D01*
X116617Y671582D01*
X126774Y684278D02*
Y681739D01*
X124235D01*
X129313D01*
X126774D01*
Y674122D01*
X129313Y671582D01*
X139470D02*
X144549D01*
X147088Y674122D01*
Y679200D01*
X144549Y681739D01*
X139470D01*
X136931Y679200D01*
Y674122D01*
X139470Y671582D01*
X152166D02*
Y681739D01*
X154705D01*
X157244Y679200D01*
Y671582D01*
Y679200D01*
X159784Y681739D01*
X162323Y679200D01*
Y671582D01*
X192793Y684278D02*
X190254Y686817D01*
X185175D01*
X182636Y684278D01*
Y681739D01*
X185175Y679200D01*
X190254D01*
X192793Y676661D01*
Y674122D01*
X190254Y671582D01*
X185175D01*
X182636Y674122D01*
X200410Y671582D02*
X205489D01*
X208028Y674122D01*
Y679200D01*
X205489Y681739D01*
X200410D01*
X197871Y679200D01*
Y674122D01*
X200410Y671582D01*
X213106D02*
X218185D01*
X215646D01*
Y686817D01*
X213106D01*
X235959D02*
Y671582D01*
X228341D01*
X225802Y674122D01*
Y679200D01*
X228341Y681739D01*
X235959D01*
X248655Y671582D02*
X243577D01*
X241037Y674122D01*
Y679200D01*
X243577Y681739D01*
X248655D01*
X251194Y679200D01*
Y676661D01*
X241037D01*
X256272Y681739D02*
Y671582D01*
Y676661D01*
X258811Y679200D01*
X261351Y681739D01*
X263890D01*
X81069Y717298D02*
Y702063D01*
X88687D01*
X91226Y704602D01*
Y707141D01*
X88687Y709680D01*
X81069D01*
X88687D01*
X91226Y712219D01*
Y714758D01*
X88687Y717298D01*
X81069D01*
X98843Y702063D02*
X103922D01*
X106461Y704602D01*
Y709680D01*
X103922Y712219D01*
X98843D01*
X96304Y709680D01*
Y704602D01*
X98843Y702063D01*
X114078Y714758D02*
Y712219D01*
X111539D01*
X116617D01*
X114078D01*
Y704602D01*
X116617Y702063D01*
X126774Y714758D02*
Y712219D01*
X124235D01*
X129313D01*
X126774D01*
Y704602D01*
X129313Y702063D01*
X139470D02*
X144549D01*
X147088Y704602D01*
Y709680D01*
X144549Y712219D01*
X139470D01*
X136931Y709680D01*
Y704602D01*
X139470Y702063D01*
X152166D02*
Y712219D01*
X154705D01*
X157244Y709680D01*
Y702063D01*
Y709680D01*
X159784Y712219D01*
X162323Y709680D01*
Y702063D01*
X182636Y717298D02*
Y702063D01*
X192793D01*
X200410Y712219D02*
X205489D01*
X208028Y709680D01*
Y702063D01*
X200410D01*
X197871Y704602D01*
X200410Y707141D01*
X208028D01*
X213106Y712219D02*
Y704602D01*
X215646Y702063D01*
X223263D01*
Y699523D01*
X220724Y696984D01*
X218185D01*
X223263Y702063D02*
Y712219D01*
X235959Y702063D02*
X230881D01*
X228341Y704602D01*
Y709680D01*
X230881Y712219D01*
X235959D01*
X238498Y709680D01*
Y707141D01*
X228341D01*
X243577Y712219D02*
Y702063D01*
Y707141D01*
X246116Y709680D01*
X248655Y712219D01*
X251194D01*
X81069Y747777D02*
Y732542D01*
X88687D01*
X91226Y735082D01*
Y745238D01*
X88687Y747777D01*
X81069D01*
X96304Y732542D02*
X101383D01*
X98843D01*
Y742699D01*
X96304D01*
X116617Y732542D02*
X111539D01*
X109000Y735082D01*
Y740160D01*
X111539Y742699D01*
X116617D01*
X119157Y740160D01*
Y737621D01*
X109000D01*
X124235Y732542D02*
X129313D01*
X126774D01*
Y747777D01*
X124235D01*
X144549Y732542D02*
X139470D01*
X136931Y735082D01*
Y740160D01*
X139470Y742699D01*
X144549D01*
X147088Y740160D01*
Y737621D01*
X136931D01*
X162323Y742699D02*
X154705D01*
X152166Y740160D01*
Y735082D01*
X154705Y732542D01*
X162323D01*
X169940Y745238D02*
Y742699D01*
X167401D01*
X172479D01*
X169940D01*
Y735082D01*
X172479Y732542D01*
X180097Y742699D02*
Y732542D01*
Y737621D01*
X182636Y740160D01*
X185175Y742699D01*
X187715D01*
X195332Y732542D02*
X200410D01*
X197871D01*
Y742699D01*
X195332D01*
X218185D02*
X210567D01*
X208028Y740160D01*
Y735082D01*
X210567Y732542D01*
X218185D01*
X248655D02*
X238498D01*
X248655Y742699D01*
Y745238D01*
X246116Y747777D01*
X241037D01*
X238498Y745238D01*
X81069Y778258D02*
Y763023D01*
X91226D01*
X98843Y773179D02*
X103922D01*
X106461Y770640D01*
Y763023D01*
X98843D01*
X96304Y765562D01*
X98843Y768101D01*
X106461D01*
X111539Y773179D02*
Y765562D01*
X114078Y763023D01*
X121696D01*
Y760483D01*
X119157Y757944D01*
X116617D01*
X121696Y763023D02*
Y773179D01*
X134392Y763023D02*
X129313D01*
X126774Y765562D01*
Y770640D01*
X129313Y773179D01*
X134392D01*
X136931Y770640D01*
Y768101D01*
X126774D01*
X142009Y773179D02*
Y763023D01*
Y768101D01*
X144549Y770640D01*
X147088Y773179D01*
X149627D01*
X172479Y775718D02*
X175019Y778258D01*
X180097D01*
X182636Y775718D01*
Y773179D01*
X180097Y770640D01*
X177558D01*
X180097D01*
X182636Y768101D01*
Y765562D01*
X180097Y763023D01*
X175019D01*
X172479Y765562D01*
X81069Y808737D02*
Y793503D01*
X88687D01*
X91226Y796042D01*
Y806198D01*
X88687Y808737D01*
X81069D01*
X96304Y793503D02*
X101383D01*
X98843D01*
Y803659D01*
X96304D01*
X116617Y793503D02*
X111539D01*
X109000Y796042D01*
Y801120D01*
X111539Y803659D01*
X116617D01*
X119157Y801120D01*
Y798581D01*
X109000D01*
X124235Y793503D02*
X129313D01*
X126774D01*
Y808737D01*
X124235D01*
X144549Y793503D02*
X139470D01*
X136931Y796042D01*
Y801120D01*
X139470Y803659D01*
X144549D01*
X147088Y801120D01*
Y798581D01*
X136931D01*
X162323Y803659D02*
X154705D01*
X152166Y801120D01*
Y796042D01*
X154705Y793503D01*
X162323D01*
X169940Y806198D02*
Y803659D01*
X167401D01*
X172479D01*
X169940D01*
Y796042D01*
X172479Y793503D01*
X180097Y803659D02*
Y793503D01*
Y798581D01*
X182636Y801120D01*
X185175Y803659D01*
X187715D01*
X195332Y793503D02*
X200410D01*
X197871D01*
Y803659D01*
X195332D01*
X218185D02*
X210567D01*
X208028Y801120D01*
Y796042D01*
X210567Y793503D01*
X218185D01*
X223263D02*
X228341D01*
X225802D01*
Y808737D01*
X223263Y806198D01*
X81069Y839218D02*
Y823982D01*
X91226D01*
X98843Y834139D02*
X103922D01*
X106461Y831600D01*
Y823982D01*
X98843D01*
X96304Y826522D01*
X98843Y829061D01*
X106461D01*
X111539Y834139D02*
Y826522D01*
X114078Y823982D01*
X121696D01*
Y821443D01*
X119157Y818904D01*
X116617D01*
X121696Y823982D02*
Y834139D01*
X134392Y823982D02*
X129313D01*
X126774Y826522D01*
Y831600D01*
X129313Y834139D01*
X134392D01*
X136931Y831600D01*
Y829061D01*
X126774D01*
X142009Y834139D02*
Y823982D01*
Y829061D01*
X144549Y831600D01*
X147088Y834139D01*
X149627D01*
X182636Y823982D02*
X172479D01*
X182636Y834139D01*
Y836678D01*
X180097Y839218D01*
X175019D01*
X172479Y836678D01*
X81069Y869697D02*
Y854463D01*
X88687D01*
X91226Y857002D01*
Y867158D01*
X88687Y869697D01*
X81069D01*
X96304Y854463D02*
X101383D01*
X98843D01*
Y864619D01*
X96304D01*
X116617Y854463D02*
X111539D01*
X109000Y857002D01*
Y862080D01*
X111539Y864619D01*
X116617D01*
X119157Y862080D01*
Y859541D01*
X109000D01*
X124235Y854463D02*
X129313D01*
X126774D01*
Y869697D01*
X124235D01*
X144549Y854463D02*
X139470D01*
X136931Y857002D01*
Y862080D01*
X139470Y864619D01*
X144549D01*
X147088Y862080D01*
Y859541D01*
X136931D01*
X162323Y864619D02*
X154705D01*
X152166Y862080D01*
Y857002D01*
X154705Y854463D01*
X162323D01*
X169940Y867158D02*
Y864619D01*
X167401D01*
X172479D01*
X169940D01*
Y857002D01*
X172479Y854463D01*
X180097Y864619D02*
Y854463D01*
Y859541D01*
X182636Y862080D01*
X185175Y864619D01*
X187715D01*
X195332Y854463D02*
X200410D01*
X197871D01*
Y864619D01*
X195332D01*
X218185D02*
X210567D01*
X208028Y862080D01*
Y857002D01*
X210567Y854463D01*
X218185D01*
X238498D02*
X243576D01*
X241037D01*
Y869697D01*
X238498Y867158D01*
X81069Y900178D02*
X91226D01*
X86147D01*
Y884942D01*
X98843D02*
X103922D01*
X106461Y887482D01*
Y892560D01*
X103922Y895099D01*
X98843D01*
X96304Y892560D01*
Y887482D01*
X98843Y884942D01*
X111539Y879864D02*
Y895099D01*
X119157D01*
X121696Y892560D01*
Y887482D01*
X119157Y884942D01*
X111539D01*
X142009Y900178D02*
Y884942D01*
X152166D01*
X159784Y895099D02*
X164862D01*
X167401Y892560D01*
Y884942D01*
X159784D01*
X157244Y887482D01*
X159784Y890021D01*
X167401D01*
X172479Y895099D02*
Y887482D01*
X175019Y884942D01*
X182636D01*
Y882403D01*
X180097Y879864D01*
X177558D01*
X182636Y884942D02*
Y895099D01*
X195332Y884942D02*
X190254D01*
X187715Y887482D01*
Y892560D01*
X190254Y895099D01*
X195332D01*
X197871Y892560D01*
Y890021D01*
X187715D01*
X202950Y895099D02*
Y884942D01*
Y890021D01*
X205489Y892560D01*
X208028Y895099D01*
X210567D01*
X81069Y930658D02*
X91226D01*
X86147D01*
Y915423D01*
X98843D02*
X103922D01*
X106461Y917962D01*
Y923040D01*
X103922Y925579D01*
X98843D01*
X96304Y923040D01*
Y917962D01*
X98843Y915423D01*
X111539Y910344D02*
Y925579D01*
X119157D01*
X121696Y923040D01*
Y917962D01*
X119157Y915423D01*
X111539D01*
X152166Y928118D02*
X149627Y930658D01*
X144549D01*
X142009Y928118D01*
Y925579D01*
X144549Y923040D01*
X149627D01*
X152166Y920501D01*
Y917962D01*
X149627Y915423D01*
X144549D01*
X142009Y917962D01*
X159784Y915423D02*
X164862D01*
X167401Y917962D01*
Y923040D01*
X164862Y925579D01*
X159784D01*
X157244Y923040D01*
Y917962D01*
X159784Y915423D01*
X172479D02*
X177558D01*
X175019D01*
Y930658D01*
X172479D01*
X195332D02*
Y915423D01*
X187715D01*
X185175Y917962D01*
Y923040D01*
X187715Y925579D01*
X195332D01*
X208028Y915423D02*
X202950D01*
X200410Y917962D01*
Y923040D01*
X202950Y925579D01*
X208028D01*
X210567Y923040D01*
Y920501D01*
X200410D01*
X215646Y925579D02*
Y915423D01*
Y920501D01*
X218185Y923040D01*
X220724Y925579D01*
X223263D01*
X81069Y961137D02*
X91226D01*
X86147D01*
Y945902D01*
X98843D02*
X103922D01*
X106461Y948442D01*
Y953520D01*
X103922Y956059D01*
X98843D01*
X96304Y953520D01*
Y948442D01*
X98843Y945902D01*
X111539Y940824D02*
Y956059D01*
X119157D01*
X121696Y953520D01*
Y948442D01*
X119157Y945902D01*
X111539D01*
X149627Y961137D02*
X144549D01*
X142009Y958598D01*
Y948442D01*
X144549Y945902D01*
X149627D01*
X152166Y948442D01*
Y958598D01*
X149627Y961137D01*
X157244Y956059D02*
X162323Y945902D01*
X167401Y956059D01*
X180097Y945902D02*
X175019D01*
X172479Y948442D01*
Y953520D01*
X175019Y956059D01*
X180097D01*
X182636Y953520D01*
Y950981D01*
X172479D01*
X187715Y956059D02*
Y945902D01*
Y950981D01*
X190254Y953520D01*
X192793Y956059D01*
X195332D01*
X202950Y945902D02*
X208028D01*
X205489D01*
Y961137D01*
X202950D01*
X218185Y956059D02*
X223263D01*
X225802Y953520D01*
Y945902D01*
X218185D01*
X215646Y948442D01*
X218185Y950981D01*
X225802D01*
X230881Y956059D02*
Y948442D01*
X233420Y945902D01*
X241037D01*
Y943363D01*
X238498Y940824D01*
X235959D01*
X241037Y945902D02*
Y956059D01*
X317224Y976383D02*
Y991618D01*
X322303Y986539D01*
X327381Y991618D01*
Y976383D01*
X334998Y986539D02*
X340077D01*
X342616Y984000D01*
Y976383D01*
X334998D01*
X332459Y978922D01*
X334998Y981461D01*
X342616D01*
X350233Y989078D02*
Y986539D01*
X347694D01*
X352773D01*
X350233D01*
Y978922D01*
X352773Y976383D01*
X368008D02*
X362929D01*
X360390Y978922D01*
Y984000D01*
X362929Y986539D01*
X368008D01*
X370547Y984000D01*
Y981461D01*
X360390D01*
X375625Y986539D02*
Y976383D01*
Y981461D01*
X378164Y984000D01*
X380704Y986539D01*
X383243D01*
X390860Y976383D02*
X395939D01*
X393400D01*
Y986539D01*
X390860D01*
X406095D02*
X411174D01*
X413713Y984000D01*
Y976383D01*
X406095D01*
X403556Y978922D01*
X406095Y981461D01*
X413713D01*
X418791Y976383D02*
X423870D01*
X421330D01*
Y991618D01*
X418791D01*
X327381Y684278D02*
X324842Y686817D01*
X319763D01*
X317224Y684278D01*
Y681739D01*
X319763Y679200D01*
X324842D01*
X327381Y676661D01*
Y674122D01*
X324842Y671582D01*
X319763D01*
X317224Y674122D01*
X334998Y671582D02*
X340077D01*
X342616Y674122D01*
Y679200D01*
X340077Y681739D01*
X334998D01*
X332459Y679200D01*
Y674122D01*
X334998Y671582D01*
X347694D02*
X352773D01*
X350233D01*
Y686817D01*
X347694D01*
X370547D02*
Y671582D01*
X362929D01*
X360390Y674122D01*
Y679200D01*
X362929Y681739D01*
X370547D01*
X383243Y671582D02*
X378164D01*
X375625Y674122D01*
Y679200D01*
X378164Y681739D01*
X383243D01*
X385782Y679200D01*
Y676661D01*
X375625D01*
X390860Y681739D02*
Y671582D01*
Y676661D01*
X393400Y679200D01*
X395939Y681739D01*
X398478D01*
X421330Y671582D02*
Y686817D01*
X428948D01*
X431487Y684278D01*
Y679200D01*
X428948Y676661D01*
X421330D01*
X426409D02*
X431487Y671582D01*
X444183D02*
X439105D01*
X436566Y674122D01*
Y679200D01*
X439105Y681739D01*
X444183D01*
X446722Y679200D01*
Y676661D01*
X436566D01*
X451801Y671582D02*
X459418D01*
X461957Y674122D01*
X459418Y676661D01*
X454340D01*
X451801Y679200D01*
X454340Y681739D01*
X461957D01*
X467036Y671582D02*
X472114D01*
X469575D01*
Y681739D01*
X467036D01*
X479732Y671582D02*
X487349D01*
X489888Y674122D01*
X487349Y676661D01*
X482271D01*
X479732Y679200D01*
X482271Y681739D01*
X489888D01*
X497506Y684278D02*
Y681739D01*
X494967D01*
X500045D01*
X497506D01*
Y674122D01*
X500045Y671582D01*
X317224Y732542D02*
Y747777D01*
X324842D01*
X327381Y745238D01*
Y740160D01*
X324842Y737621D01*
X317224D01*
X332459Y732542D02*
Y747777D01*
X340077D01*
X342616Y745238D01*
Y740160D01*
X340077Y737621D01*
X332459D01*
X347694Y740160D02*
X357851D01*
X362929Y745238D02*
X365469Y747777D01*
X370547D01*
X373086Y745238D01*
Y735082D01*
X370547Y732542D01*
X365469D01*
X362929Y735082D01*
Y745238D01*
X378164D02*
X380704Y747777D01*
X385782D01*
X388321Y745238D01*
Y735082D01*
X385782Y732542D01*
X380704D01*
X378164Y735082D01*
Y745238D01*
X403556Y747777D02*
X398478Y745238D01*
X393400Y740160D01*
Y735082D01*
X395939Y732542D01*
X401017D01*
X403556Y735082D01*
Y737621D01*
X401017Y740160D01*
X393400D01*
X327381Y775718D02*
X324842Y778258D01*
X319763D01*
X317224Y775718D01*
Y765562D01*
X319763Y763023D01*
X324842D01*
X327381Y765562D01*
X342616Y778258D02*
X332459D01*
Y770640D01*
X337538D01*
X332459D01*
Y763023D01*
X347694Y770640D02*
X357851D01*
X362929Y775718D02*
X365469Y778258D01*
X370547D01*
X373086Y775718D01*
Y765562D01*
X370547Y763023D01*
X365469D01*
X362929Y765562D01*
Y775718D01*
X378164D02*
X380704Y778258D01*
X385782D01*
X388321Y775718D01*
Y765562D01*
X385782Y763023D01*
X380704D01*
X378164Y765562D01*
Y775718D01*
X401017Y763023D02*
Y778258D01*
X393400Y770640D01*
X403556D01*
X327381Y808737D02*
X317224D01*
Y801120D01*
X322303D01*
X317224D01*
Y793503D01*
X332459D02*
Y808737D01*
X340077D01*
X342616Y806198D01*
Y801120D01*
X340077Y798581D01*
X332459D01*
X337538D02*
X342616Y793503D01*
X347694Y801120D02*
X357851D01*
X370547Y793503D02*
Y808737D01*
X362929Y801120D01*
X373086D01*
X327381Y836678D02*
X324842Y839218D01*
X319763D01*
X317224Y836678D01*
Y826522D01*
X319763Y823982D01*
X324842D01*
X327381Y826522D01*
X342616Y839218D02*
X332459D01*
Y831600D01*
X337538D01*
X332459D01*
Y823982D01*
X347694Y831600D02*
X357851D01*
X362929Y836678D02*
X365469Y839218D01*
X370547D01*
X373086Y836678D01*
Y826522D01*
X370547Y823982D01*
X365469D01*
X362929Y826522D01*
Y836678D01*
X378164D02*
X380704Y839218D01*
X385782D01*
X388321Y836678D01*
Y826522D01*
X385782Y823982D01*
X380704D01*
X378164Y826522D01*
Y836678D01*
X401017Y823982D02*
Y839218D01*
X393400Y831600D01*
X403556D01*
X317224Y854463D02*
Y869697D01*
X324842D01*
X327381Y867158D01*
Y862080D01*
X324842Y859541D01*
X317224D01*
X332459Y854463D02*
Y869697D01*
X340077D01*
X342616Y867158D01*
Y862080D01*
X340077Y859541D01*
X332459D01*
X347694Y862080D02*
X357851D01*
X362929Y867158D02*
X365469Y869697D01*
X370547D01*
X373086Y867158D01*
Y857002D01*
X370547Y854463D01*
X365469D01*
X362929Y857002D01*
Y867158D01*
X378164D02*
X380704Y869697D01*
X385782D01*
X388321Y867158D01*
Y857002D01*
X385782Y854463D01*
X380704D01*
X378164Y857002D01*
Y867158D01*
X403556Y869697D02*
X398478Y867158D01*
X393400Y862080D01*
Y857002D01*
X395939Y854463D01*
X401017D01*
X403556Y857002D01*
Y859541D01*
X401017Y862080D01*
X393400D01*
X327381Y928118D02*
X324842Y930658D01*
X319763D01*
X317224Y928118D01*
Y925579D01*
X319763Y923040D01*
X324842D01*
X327381Y920501D01*
Y917962D01*
X324842Y915423D01*
X319763D01*
X317224Y917962D01*
X334998Y915423D02*
X340077D01*
X342616Y917962D01*
Y923040D01*
X340077Y925579D01*
X334998D01*
X332459Y923040D01*
Y917962D01*
X334998Y915423D01*
X347694D02*
X352773D01*
X350233D01*
Y930658D01*
X347694D01*
X370547D02*
Y915423D01*
X362929D01*
X360390Y917962D01*
Y923040D01*
X362929Y925579D01*
X370547D01*
X383243Y915423D02*
X378164D01*
X375625Y917962D01*
Y923040D01*
X378164Y925579D01*
X383243D01*
X385782Y923040D01*
Y920501D01*
X375625D01*
X390860Y925579D02*
Y915423D01*
Y920501D01*
X393400Y923040D01*
X395939Y925579D01*
X398478D01*
X421330Y915423D02*
Y930658D01*
X428948D01*
X431487Y928118D01*
Y923040D01*
X428948Y920501D01*
X421330D01*
X426409D02*
X431487Y915423D01*
X444183D02*
X439105D01*
X436566Y917962D01*
Y923040D01*
X439105Y925579D01*
X444183D01*
X446722Y923040D01*
Y920501D01*
X436566D01*
X451801Y915423D02*
X459418D01*
X461957Y917962D01*
X459418Y920501D01*
X454340D01*
X451801Y923040D01*
X454340Y925579D01*
X461957D01*
X467036Y915423D02*
X472114D01*
X469575D01*
Y925579D01*
X467036D01*
X479732Y915423D02*
X487349D01*
X489888Y917962D01*
X487349Y920501D01*
X482271D01*
X479732Y923040D01*
X482271Y925579D01*
X489888D01*
X497506Y928118D02*
Y925579D01*
X494967D01*
X500045D01*
X497506D01*
Y917962D01*
X500045Y915423D01*
X535605Y991618D02*
X545762D01*
X540683D01*
Y976383D01*
X550840Y991618D02*
Y976383D01*
Y984000D01*
X553379Y986539D01*
X558458D01*
X560997Y984000D01*
Y976383D01*
X566075D02*
X571153D01*
X568614D01*
Y986539D01*
X566075D01*
X588928D02*
X581310D01*
X578771Y984000D01*
Y978922D01*
X581310Y976383D01*
X588928D01*
X594006D02*
Y991618D01*
Y981461D02*
X601624Y986539D01*
X594006Y981461D02*
X601624Y976383D01*
X609241D02*
Y986539D01*
X616859D01*
X619398Y984000D01*
Y976383D01*
X632094D02*
X627015D01*
X624476Y978922D01*
Y984000D01*
X627015Y986539D01*
X632094D01*
X634633Y984000D01*
Y981461D01*
X624476D01*
X639711Y976383D02*
X647329D01*
X649868Y978922D01*
X647329Y981461D01*
X642251D01*
X639711Y984000D01*
X642251Y986539D01*
X649868D01*
X654946Y976383D02*
X662564D01*
X665103Y978922D01*
X662564Y981461D01*
X657486D01*
X654946Y984000D01*
X657486Y986539D01*
X665103D01*
X535605Y684278D02*
X538144Y686817D01*
X543223D01*
X545762Y684278D01*
Y674122D01*
X543223Y671582D01*
X538144D01*
X535605Y674122D01*
Y684278D01*
X550840Y671582D02*
Y674122D01*
X553379D01*
Y671582D01*
X550840D01*
X563536Y684278D02*
X566075Y686817D01*
X571153D01*
X573693Y684278D01*
Y674122D01*
X571153Y671582D01*
X566075D01*
X563536Y674122D01*
Y684278D01*
X578771Y671582D02*
X583849D01*
X581310D01*
Y686817D01*
X578771Y684278D01*
X591467D02*
X594006Y686817D01*
X599085D01*
X601624Y684278D01*
Y674122D01*
X599085Y671582D01*
X594006D01*
X591467Y674122D01*
Y684278D01*
X606702Y671582D02*
Y681739D01*
X609241D01*
X611780Y679200D01*
Y671582D01*
Y679200D01*
X614319Y681739D01*
X616859Y679200D01*
Y671582D01*
X621937D02*
Y681739D01*
X624476D01*
X627015Y679200D01*
Y671582D01*
Y679200D01*
X629555Y681739D01*
X632094Y679200D01*
Y671582D01*
X535605Y714758D02*
X538144Y717298D01*
X543223D01*
X545762Y714758D01*
Y704602D01*
X543223Y702063D01*
X538144D01*
X535605Y704602D01*
Y714758D01*
X550840Y702063D02*
Y704602D01*
X553379D01*
Y702063D01*
X550840D01*
X563536Y714758D02*
X566075Y717298D01*
X571153D01*
X573693Y714758D01*
Y704602D01*
X571153Y702063D01*
X566075D01*
X563536Y704602D01*
Y714758D01*
X578771D02*
X581310Y717298D01*
X586389D01*
X588928Y714758D01*
Y712219D01*
X586389Y709680D01*
X583849D01*
X586389D01*
X588928Y707141D01*
Y704602D01*
X586389Y702063D01*
X581310D01*
X578771Y704602D01*
X604163Y717298D02*
X599085Y714758D01*
X594006Y709680D01*
Y704602D01*
X596545Y702063D01*
X601624D01*
X604163Y704602D01*
Y707141D01*
X601624Y709680D01*
X594006D01*
X609241Y702063D02*
Y712219D01*
X611780D01*
X614319Y709680D01*
Y702063D01*
Y709680D01*
X616859Y712219D01*
X619398Y709680D01*
Y702063D01*
X624476D02*
Y712219D01*
X627015D01*
X629555Y709680D01*
Y702063D01*
Y709680D01*
X632094Y712219D01*
X634633Y709680D01*
Y702063D01*
X535605Y745238D02*
X538144Y747777D01*
X543223D01*
X545762Y745238D01*
Y735082D01*
X543223Y732542D01*
X538144D01*
X535605Y735082D01*
Y745238D01*
X550840Y732542D02*
Y735082D01*
X553379D01*
Y732542D01*
X550840D01*
X563536Y745238D02*
X566075Y747777D01*
X571153D01*
X573693Y745238D01*
Y735082D01*
X571153Y732542D01*
X566075D01*
X563536Y735082D01*
Y745238D01*
X578771Y747777D02*
X588928D01*
Y745238D01*
X578771Y735082D01*
Y732542D01*
X594006D02*
X599085D01*
X596545D01*
Y747777D01*
X594006Y745238D01*
X606702Y732542D02*
Y742699D01*
X609241D01*
X611780Y740160D01*
Y732542D01*
Y740160D01*
X614319Y742699D01*
X616859Y740160D01*
Y732542D01*
X621937D02*
Y742699D01*
X624476D01*
X627015Y740160D01*
Y732542D01*
Y740160D01*
X629555Y742699D01*
X632094Y740160D01*
Y732542D01*
X535605Y775718D02*
X538144Y778258D01*
X543223D01*
X545762Y775718D01*
Y765562D01*
X543223Y763023D01*
X538144D01*
X535605Y765562D01*
Y775718D01*
X550840Y763023D02*
Y765562D01*
X553379D01*
Y763023D01*
X550840D01*
X563536Y775718D02*
X566075Y778258D01*
X571153D01*
X573693Y775718D01*
Y765562D01*
X571153Y763023D01*
X566075D01*
X563536Y765562D01*
Y775718D01*
X578771D02*
X581310Y778258D01*
X586389D01*
X588928Y775718D01*
Y773179D01*
X586389Y770640D01*
X583849D01*
X586389D01*
X588928Y768101D01*
Y765562D01*
X586389Y763023D01*
X581310D01*
X578771Y765562D01*
X604163Y778258D02*
X594006D01*
Y770640D01*
X599085Y773179D01*
X601624D01*
X604163Y770640D01*
Y765562D01*
X601624Y763023D01*
X596545D01*
X594006Y765562D01*
X609241Y763023D02*
Y773179D01*
X611780D01*
X614319Y770640D01*
Y763023D01*
Y770640D01*
X616859Y773179D01*
X619398Y770640D01*
Y763023D01*
X624476D02*
Y773179D01*
X627015D01*
X629555Y770640D01*
Y763023D01*
Y770640D01*
X632094Y773179D01*
X634633Y770640D01*
Y763023D01*
X535605Y806198D02*
X538144Y808737D01*
X543223D01*
X545762Y806198D01*
Y796042D01*
X543223Y793503D01*
X538144D01*
X535605Y796042D01*
Y806198D01*
X550840Y793503D02*
Y796042D01*
X553379D01*
Y793503D01*
X550840D01*
X563536Y808737D02*
X573693D01*
Y806198D01*
X563536Y796042D01*
Y793503D01*
X578771Y806198D02*
X581310Y808737D01*
X586389D01*
X588928Y806198D01*
Y796042D01*
X586389Y793503D01*
X581310D01*
X578771Y796042D01*
Y806198D01*
X594006D02*
X596545Y808737D01*
X601624D01*
X604163Y806198D01*
Y796042D01*
X601624Y793503D01*
X596545D01*
X594006Y796042D01*
Y806198D01*
X609241Y793503D02*
Y803659D01*
X611780D01*
X614319Y801120D01*
Y793503D01*
Y801120D01*
X616859Y803659D01*
X619398Y801120D01*
Y793503D01*
X624476D02*
Y803659D01*
X627015D01*
X629555Y801120D01*
Y793503D01*
Y801120D01*
X632094Y803659D01*
X634633Y801120D01*
Y793503D01*
X535605Y836678D02*
X538144Y839218D01*
X543223D01*
X545762Y836678D01*
Y826522D01*
X543223Y823982D01*
X538144D01*
X535605Y826522D01*
Y836678D01*
X550840Y823982D02*
Y826522D01*
X553379D01*
Y823982D01*
X550840D01*
X563536Y836678D02*
X566075Y839218D01*
X571153D01*
X573693Y836678D01*
Y826522D01*
X571153Y823982D01*
X566075D01*
X563536Y826522D01*
Y836678D01*
X578771D02*
X581310Y839218D01*
X586389D01*
X588928Y836678D01*
Y834139D01*
X586389Y831600D01*
X583849D01*
X586389D01*
X588928Y829061D01*
Y826522D01*
X586389Y823982D01*
X581310D01*
X578771Y826522D01*
X604163Y839218D02*
X594006D01*
Y831600D01*
X599085Y834139D01*
X601624D01*
X604163Y831600D01*
Y826522D01*
X601624Y823982D01*
X596545D01*
X594006Y826522D01*
X609241Y823982D02*
Y834139D01*
X611780D01*
X614319Y831600D01*
Y823982D01*
Y831600D01*
X616859Y834139D01*
X619398Y831600D01*
Y823982D01*
X624476D02*
Y834139D01*
X627015D01*
X629555Y831600D01*
Y823982D01*
Y831600D01*
X632094Y834139D01*
X634633Y831600D01*
Y823982D01*
X535605Y867158D02*
X538144Y869697D01*
X543223D01*
X545762Y867158D01*
Y857002D01*
X543223Y854463D01*
X538144D01*
X535605Y857002D01*
Y867158D01*
X550840Y854463D02*
Y857002D01*
X553379D01*
Y854463D01*
X550840D01*
X563536Y867158D02*
X566075Y869697D01*
X571153D01*
X573693Y867158D01*
Y857002D01*
X571153Y854463D01*
X566075D01*
X563536Y857002D01*
Y867158D01*
X578771Y869697D02*
X588928D01*
Y867158D01*
X578771Y857002D01*
Y854463D01*
X594006D02*
X599085D01*
X596545D01*
Y869697D01*
X594006Y867158D01*
X606702Y854463D02*
Y864619D01*
X609241D01*
X611780Y862080D01*
Y854463D01*
Y862080D01*
X614319Y864619D01*
X616859Y862080D01*
Y854463D01*
X621937D02*
Y864619D01*
X624476D01*
X627015Y862080D01*
Y854463D01*
Y862080D01*
X629555Y864619D01*
X632094Y862080D01*
Y854463D01*
X535605Y897638D02*
X538144Y900178D01*
X543223D01*
X545762Y897638D01*
Y887482D01*
X543223Y884942D01*
X538144D01*
X535605Y887482D01*
Y897638D01*
X550840Y884942D02*
Y887482D01*
X553379D01*
Y884942D01*
X550840D01*
X563536Y897638D02*
X566075Y900178D01*
X571153D01*
X573693Y897638D01*
Y887482D01*
X571153Y884942D01*
X566075D01*
X563536Y887482D01*
Y897638D01*
X578771D02*
X581310Y900178D01*
X586389D01*
X588928Y897638D01*
Y895099D01*
X586389Y892560D01*
X583849D01*
X586389D01*
X588928Y890021D01*
Y887482D01*
X586389Y884942D01*
X581310D01*
X578771Y887482D01*
X604163Y900178D02*
X599085Y897638D01*
X594006Y892560D01*
Y887482D01*
X596545Y884942D01*
X601624D01*
X604163Y887482D01*
Y890021D01*
X601624Y892560D01*
X594006D01*
X609241Y884942D02*
Y895099D01*
X611780D01*
X614319Y892560D01*
Y884942D01*
Y892560D01*
X616859Y895099D01*
X619398Y892560D01*
Y884942D01*
X624476D02*
Y895099D01*
X627015D01*
X629555Y892560D01*
Y884942D01*
Y892560D01*
X632094Y895099D01*
X634633Y892560D01*
Y884942D01*
X535605Y928118D02*
X538144Y930658D01*
X543223D01*
X545762Y928118D01*
Y917962D01*
X543223Y915423D01*
X538144D01*
X535605Y917962D01*
Y928118D01*
X550840Y915423D02*
Y917962D01*
X553379D01*
Y915423D01*
X550840D01*
X563536Y928118D02*
X566075Y930658D01*
X571153D01*
X573693Y928118D01*
Y917962D01*
X571153Y915423D01*
X566075D01*
X563536Y917962D01*
Y928118D01*
X578771Y915423D02*
X583849D01*
X581310D01*
Y930658D01*
X578771Y928118D01*
X591467D02*
X594006Y930658D01*
X599085D01*
X601624Y928118D01*
Y917962D01*
X599085Y915423D01*
X594006D01*
X591467Y917962D01*
Y928118D01*
X606702Y915423D02*
Y925579D01*
X609241D01*
X611780Y923040D01*
Y915423D01*
Y923040D01*
X614319Y925579D01*
X616859Y923040D01*
Y915423D01*
X621937D02*
Y925579D01*
X624476D01*
X627015Y923040D01*
Y915423D01*
Y923040D01*
X629555Y925579D01*
X632094Y923040D01*
Y915423D01*
X710820Y989078D02*
X708281Y991618D01*
X703202D01*
X700663Y989078D01*
Y978922D01*
X703202Y976383D01*
X708281D01*
X710820Y978922D01*
X718437Y976383D02*
X723516D01*
X726055Y978922D01*
Y984000D01*
X723516Y986539D01*
X718437D01*
X715898Y984000D01*
Y978922D01*
X718437Y976383D01*
X731133D02*
Y986539D01*
X738751D01*
X741290Y984000D01*
Y976383D01*
X746368D02*
X753986D01*
X756525Y978922D01*
X753986Y981461D01*
X748907D01*
X746368Y984000D01*
X748907Y986539D01*
X756525D01*
X764143Y989078D02*
Y986539D01*
X761603D01*
X766682D01*
X764143D01*
Y978922D01*
X766682Y976383D01*
X776839Y986539D02*
X781917D01*
X784456Y984000D01*
Y976383D01*
X776839D01*
X774299Y978922D01*
X776839Y981461D01*
X784456D01*
X789534Y976383D02*
Y986539D01*
X797152D01*
X799691Y984000D01*
Y976383D01*
X807309Y989078D02*
Y986539D01*
X804769D01*
X809848D01*
X807309D01*
Y978922D01*
X809848Y976383D01*
X700663Y684278D02*
X703202Y686817D01*
X708281D01*
X710820Y684278D01*
Y681739D01*
X708281Y679200D01*
X705742D01*
X708281D01*
X710820Y676661D01*
Y674122D01*
X708281Y671582D01*
X703202D01*
X700663Y674122D01*
X715898Y671582D02*
Y674122D01*
X718437D01*
Y671582D01*
X715898D01*
X738751Y686817D02*
X728594D01*
Y679200D01*
X733672Y681739D01*
X736212D01*
X738751Y679200D01*
Y674122D01*
X736212Y671582D01*
X731133D01*
X728594Y674122D01*
X708281Y732542D02*
Y747777D01*
X700663Y740160D01*
X710820D01*
X715898Y732542D02*
Y735082D01*
X718437D01*
Y732542D01*
X715898D01*
X728594D02*
X733672D01*
X731133D01*
Y747777D01*
X728594Y745238D01*
X708281Y793503D02*
Y808737D01*
X700663Y801120D01*
X710820D01*
X715898Y793503D02*
Y796042D01*
X718437D01*
Y793503D01*
X715898D01*
X728594Y806198D02*
X731133Y808737D01*
X736212D01*
X738751Y806198D01*
Y803659D01*
X736212Y801120D01*
X738751Y798581D01*
Y796042D01*
X736212Y793503D01*
X731133D01*
X728594Y796042D01*
Y798581D01*
X731133Y801120D01*
X728594Y803659D01*
Y806198D01*
X731133Y801120D02*
X736212D01*
X708281Y854463D02*
Y869697D01*
X700663Y862080D01*
X710820D01*
X715898Y854463D02*
Y857002D01*
X718437D01*
Y854463D01*
X715898D01*
X728594D02*
X733672D01*
X731133D01*
Y869697D01*
X728594Y867158D01*
X700663Y928118D02*
X703202Y930658D01*
X708281D01*
X710820Y928118D01*
Y925579D01*
X708281Y923040D01*
X705742D01*
X708281D01*
X710820Y920501D01*
Y917962D01*
X708281Y915423D01*
X703202D01*
X700663Y917962D01*
X715898Y915423D02*
Y917962D01*
X718437D01*
Y915423D01*
X715898D01*
X738751Y930658D02*
X728594D01*
Y923040D01*
X733672Y925579D01*
X736212D01*
X738751Y923040D01*
Y917962D01*
X736212Y915423D01*
X731133D01*
X728594Y917962D01*
X845408Y991618D02*
Y976383D01*
X853025D01*
X855564Y978922D01*
Y981461D01*
X853025Y984000D01*
X845408D01*
X853025D01*
X855564Y986539D01*
Y989078D01*
X853025Y991618D01*
X845408D01*
X863182Y976383D02*
X868260D01*
X870800Y978922D01*
Y984000D01*
X868260Y986539D01*
X863182D01*
X860643Y984000D01*
Y978922D01*
X863182Y976383D01*
X878417Y986539D02*
X883495D01*
X886035Y984000D01*
Y976383D01*
X878417D01*
X875878Y978922D01*
X878417Y981461D01*
X886035D01*
X891113Y986539D02*
Y976383D01*
Y981461D01*
X893652Y984000D01*
X896191Y986539D01*
X898730D01*
X916505Y991618D02*
Y976383D01*
X908887D01*
X906348Y978922D01*
Y984000D01*
X908887Y986539D01*
X916505D01*
X936818Y991618D02*
Y976383D01*
X946975D01*
X954593Y986539D02*
X959671D01*
X962210Y984000D01*
Y976383D01*
X954593D01*
X952053Y978922D01*
X954593Y981461D01*
X962210D01*
X967288Y986539D02*
Y978922D01*
X969827Y976383D01*
X977445D01*
Y973843D01*
X974906Y971304D01*
X972367D01*
X977445Y976383D02*
Y986539D01*
X990141Y976383D02*
X985063D01*
X982523Y978922D01*
Y984000D01*
X985063Y986539D01*
X990141D01*
X992680Y984000D01*
Y981461D01*
X982523D01*
X997758Y986539D02*
Y976383D01*
Y981461D01*
X1000298Y984000D01*
X1002837Y986539D01*
X1005376D01*
X1038385Y989078D02*
X1035846Y991618D01*
X1030768D01*
X1028229Y989078D01*
Y986539D01*
X1030768Y984000D01*
X1035846D01*
X1038385Y981461D01*
Y978922D01*
X1035846Y976383D01*
X1030768D01*
X1028229Y978922D01*
X1046003Y989078D02*
Y986539D01*
X1043464D01*
X1048542D01*
X1046003D01*
Y978922D01*
X1048542Y976383D01*
X1058699Y986539D02*
X1063777D01*
X1066316Y984000D01*
Y976383D01*
X1058699D01*
X1056160Y978922D01*
X1058699Y981461D01*
X1066316D01*
X1081551Y986539D02*
X1073934D01*
X1071395Y984000D01*
Y978922D01*
X1073934Y976383D01*
X1081551D01*
X1086630D02*
Y991618D01*
Y981461D02*
X1094247Y986539D01*
X1086630Y981461D02*
X1094247Y976383D01*
D62*
X-40829Y968763D02*
X1112027D01*
X-40829Y999242D02*
X1112027D01*
X-40829Y633483D02*
Y999242D01*
Y633483D02*
X63289D01*
X-40829Y663962D02*
X63289D01*
X-40829Y694443D02*
X63289D01*
X-40829Y724922D02*
X63289D01*
X-40829Y755403D02*
X63289D01*
X-40829Y785882D02*
X63289D01*
X-40829Y816363D02*
X63289D01*
X-40829Y846842D02*
X63289D01*
X-40829Y877322D02*
X63289D01*
X-40829Y907803D02*
X63289D01*
X-40829Y938282D02*
X63289D01*
Y633483D02*
Y999242D01*
Y633483D02*
X299444D01*
X63289Y663962D02*
X299444D01*
X63289Y694443D02*
X299444D01*
X63289Y724922D02*
X299444D01*
X63289Y755403D02*
X299444D01*
X63289Y785882D02*
X299444D01*
X63289Y816363D02*
X299444D01*
X63289Y846842D02*
X299444D01*
X63289Y877322D02*
X299444D01*
X63289Y907803D02*
X299444D01*
X63289Y938282D02*
X299444D01*
Y633483D02*
Y999242D01*
Y633483D02*
X517825D01*
X299444Y663962D02*
X517825D01*
X299444Y694443D02*
X517825D01*
X299444Y724922D02*
X517825D01*
X299444Y755403D02*
X517825D01*
X299444Y785882D02*
X517825D01*
X299444Y816363D02*
X517825D01*
X299444Y846842D02*
X517825D01*
X299444Y877322D02*
X517825D01*
X299444Y907803D02*
X517825D01*
X299444Y938282D02*
X517825D01*
Y633483D02*
Y999242D01*
Y633483D02*
X682883D01*
X517825Y663962D02*
X682883D01*
X517825Y694443D02*
X682883D01*
X517825Y724922D02*
X682883D01*
X517825Y755403D02*
X682883D01*
X517825Y785882D02*
X682883D01*
X517825Y816363D02*
X682883D01*
X517825Y846842D02*
X682883D01*
X517825Y877322D02*
X682883D01*
X517825Y907803D02*
X682883D01*
X517825Y938282D02*
X682883D01*
Y633483D02*
Y999242D01*
Y633483D02*
X827628D01*
X682883Y663962D02*
X827628D01*
X682883Y694443D02*
X827628D01*
X682883Y724922D02*
X827628D01*
X682883Y755403D02*
X827628D01*
X682883Y785882D02*
X827628D01*
X682883Y816363D02*
X827628D01*
X682883Y846842D02*
X827628D01*
X682883Y877322D02*
X827628D01*
X682883Y907803D02*
X827628D01*
X682883Y938282D02*
X827628D01*
Y633483D02*
Y999242D01*
Y633483D02*
X1112027D01*
X827628Y663962D02*
X1112027D01*
X827628Y694443D02*
X1112027D01*
X827628Y724922D02*
X1112027D01*
X827628Y755403D02*
X1112027D01*
X827628Y785882D02*
X1112027D01*
X827628Y816363D02*
X1112027D01*
X827628Y846842D02*
X1112027D01*
X827628Y877322D02*
X1112027D01*
X827628Y907803D02*
X1112027D01*
X827628Y938282D02*
X1112027D01*
Y633483D02*
Y999242D01*
D63*
X1096787Y633483D02*
X1112027Y648723D01*
X1081547Y633483D02*
X1112027Y663962D01*
X1066307Y633483D02*
X1096787Y663962D01*
X1051067Y633483D02*
X1081547Y663962D01*
X1035827Y633483D02*
X1066307Y663962D01*
X1020587Y633483D02*
X1051067Y663962D01*
X1005347Y633483D02*
X1035827Y663962D01*
X990107Y633483D02*
X1020587Y663962D01*
X974867Y633483D02*
X1005347Y663962D01*
X959627Y633483D02*
X990107Y663962D01*
X944387Y633483D02*
X974867Y663962D01*
X929147Y633483D02*
X959627Y663962D01*
X913907Y633483D02*
X944387Y663962D01*
X898667Y633483D02*
X929147Y663962D01*
X883427Y633483D02*
X913907Y663962D01*
X868187Y633483D02*
X898667Y663962D01*
X852947Y633483D02*
X883427Y663962D01*
X837707Y633483D02*
X868187Y663962D01*
X827628Y638643D02*
X852947Y663962D01*
X827628Y653883D02*
X837707Y663962D01*
X1096787D02*
X1112027Y679202D01*
X1081547Y663962D02*
X1112027Y694443D01*
X1066307Y663962D02*
X1096787Y694443D01*
X1051067Y663962D02*
X1081547Y694443D01*
X1035827Y663962D02*
X1066307Y694443D01*
X1020587Y663962D02*
X1051067Y694443D01*
X1005347Y663962D02*
X1035827Y694443D01*
X990107Y663962D02*
X1020587Y694443D01*
X974867Y663962D02*
X1005347Y694443D01*
X959627Y663962D02*
X990107Y694443D01*
X944387Y663962D02*
X974867Y694443D01*
X929147Y663962D02*
X959627Y694443D01*
X913907Y663962D02*
X944387Y694443D01*
X898667Y663962D02*
X929147Y694443D01*
X883427Y663962D02*
X913907Y694443D01*
X868187Y663962D02*
X898667Y694443D01*
X852947Y663962D02*
X883427Y694443D01*
X837707Y663962D02*
X868187Y694443D01*
X827628Y669123D02*
X852947Y694443D01*
X827628Y684363D02*
X837707Y694443D01*
X1096787D02*
X1112027Y709682D01*
X1081547Y694443D02*
X1112027Y724922D01*
X1066307Y694443D02*
X1096787Y724922D01*
X1051067Y694443D02*
X1081547Y724922D01*
X1035827Y694443D02*
X1066307Y724922D01*
X1020587Y694443D02*
X1051067Y724922D01*
X1005347Y694443D02*
X1035827Y724922D01*
X990107Y694443D02*
X1020587Y724922D01*
X974867Y694443D02*
X1005347Y724922D01*
X959627Y694443D02*
X990107Y724922D01*
X944387Y694443D02*
X974867Y724922D01*
X929147Y694443D02*
X959627Y724922D01*
X913907Y694443D02*
X944387Y724922D01*
X898667Y694443D02*
X929147Y724922D01*
X883427Y694443D02*
X913907Y724922D01*
X868187Y694443D02*
X898667Y724922D01*
X852947Y694443D02*
X883427Y724922D01*
X837707Y694443D02*
X868187Y724922D01*
X827628Y699603D02*
X852947Y724922D01*
X827628Y714843D02*
X837707Y724922D01*
X1096787D02*
X1112027Y740163D01*
X1081547Y724922D02*
X1112027Y755403D01*
X1066307Y724922D02*
X1096787Y755403D01*
X1051067Y724922D02*
X1081547Y755403D01*
X1035827Y724922D02*
X1066307Y755403D01*
X1020587Y724922D02*
X1051067Y755403D01*
X1005347Y724922D02*
X1035827Y755403D01*
X990107Y724922D02*
X1020587Y755403D01*
X974867Y724922D02*
X1005347Y755403D01*
X959627Y724922D02*
X990107Y755403D01*
X944387Y724922D02*
X974867Y755403D01*
X929147Y724922D02*
X959627Y755403D01*
X913907Y724922D02*
X944387Y755403D01*
X898667Y724922D02*
X929147Y755403D01*
X883427Y724922D02*
X913907Y755403D01*
X868187Y724922D02*
X898667Y755403D01*
X852947Y724922D02*
X883427Y755403D01*
X837707Y724922D02*
X868187Y755403D01*
X827628Y730083D02*
X852947Y755403D01*
X827628Y745323D02*
X837707Y755403D01*
X1096787D02*
X1112027Y770642D01*
X1081547Y755403D02*
X1112027Y785882D01*
X1066307Y755403D02*
X1096787Y785882D01*
X1051067Y755403D02*
X1081547Y785882D01*
X1035827Y755403D02*
X1066307Y785882D01*
X1020587Y755403D02*
X1051067Y785882D01*
X1005347Y755403D02*
X1035827Y785882D01*
X990107Y755403D02*
X1020587Y785882D01*
X974867Y755403D02*
X1005347Y785882D01*
X959627Y755403D02*
X990107Y785882D01*
X944387Y755403D02*
X974867Y785882D01*
X929147Y755403D02*
X959627Y785882D01*
X913907Y755403D02*
X944387Y785882D01*
X898667Y755403D02*
X929147Y785882D01*
X883427Y755403D02*
X913907Y785882D01*
X868187Y755403D02*
X898667Y785882D01*
X852947Y755403D02*
X883427Y785882D01*
X837707Y755403D02*
X868187Y785882D01*
X827628Y760563D02*
X852947Y785882D01*
X827628Y775803D02*
X837707Y785882D01*
X1096787D02*
X1112027Y801123D01*
X1081547Y785882D02*
X1112027Y816363D01*
X1066307Y785882D02*
X1096787Y816363D01*
X1051067Y785882D02*
X1081547Y816363D01*
X1035827Y785882D02*
X1066307Y816363D01*
X1020587Y785882D02*
X1051067Y816363D01*
X1005347Y785882D02*
X1035827Y816363D01*
X990107Y785882D02*
X1020587Y816363D01*
X974867Y785882D02*
X1005347Y816363D01*
X959627Y785882D02*
X990107Y816363D01*
X944387Y785882D02*
X974867Y816363D01*
X929147Y785882D02*
X959627Y816363D01*
X913907Y785882D02*
X944387Y816363D01*
X898667Y785882D02*
X929147Y816363D01*
X883427Y785882D02*
X913907Y816363D01*
X868187Y785882D02*
X898667Y816363D01*
X852947Y785882D02*
X883427Y816363D01*
X837707Y785882D02*
X868187Y816363D01*
X827628Y791043D02*
X852947Y816363D01*
X827628Y806283D02*
X837707Y816363D01*
X1096787D02*
X1112027Y831602D01*
X1081547Y816363D02*
X1112027Y846842D01*
X1066307Y816363D02*
X1096787Y846842D01*
X1051067Y816363D02*
X1081547Y846842D01*
X1035827Y816363D02*
X1066307Y846842D01*
X1020587Y816363D02*
X1051067Y846842D01*
X1005347Y816363D02*
X1035827Y846842D01*
X990107Y816363D02*
X1020587Y846842D01*
X974867Y816363D02*
X1005347Y846842D01*
X959627Y816363D02*
X990107Y846842D01*
X944387Y816363D02*
X974867Y846842D01*
X929147Y816363D02*
X959627Y846842D01*
X913907Y816363D02*
X944387Y846842D01*
X898667Y816363D02*
X929147Y846842D01*
X883427Y816363D02*
X913907Y846842D01*
X868187Y816363D02*
X898667Y846842D01*
X852947Y816363D02*
X883427Y846842D01*
X837707Y816363D02*
X868187Y846842D01*
X827628Y821523D02*
X852947Y846842D01*
X827628Y836763D02*
X837707Y846842D01*
X1096787D02*
X1112027Y862083D01*
X1081547Y846842D02*
X1112027Y877322D01*
X1066307Y846842D02*
X1096787Y877322D01*
X1051067Y846842D02*
X1081547Y877322D01*
X1035827Y846842D02*
X1066307Y877322D01*
X1020587Y846842D02*
X1051067Y877322D01*
X1005347Y846842D02*
X1035827Y877322D01*
X990107Y846842D02*
X1020587Y877322D01*
X974867Y846842D02*
X1005347Y877322D01*
X959627Y846842D02*
X990107Y877322D01*
X944387Y846842D02*
X974867Y877322D01*
X929147Y846842D02*
X959627Y877322D01*
X913907Y846842D02*
X944387Y877322D01*
X898667Y846842D02*
X929147Y877322D01*
X883427Y846842D02*
X913907Y877322D01*
X868187Y846842D02*
X898667Y877322D01*
X852947Y846842D02*
X883427Y877322D01*
X837707Y846842D02*
X868187Y877322D01*
X827628Y852003D02*
X852947Y877322D01*
X827628Y867243D02*
X837707Y877322D01*
X1096787D02*
X1112027Y892562D01*
X1081547Y877322D02*
X1112027Y907803D01*
X1066307Y877322D02*
X1096787Y907803D01*
X1051067Y877322D02*
X1081547Y907803D01*
X1035827Y877322D02*
X1066307Y907803D01*
X1020587Y877322D02*
X1051067Y907803D01*
X1005347Y877322D02*
X1035827Y907803D01*
X990107Y877322D02*
X1020587Y907803D01*
X974867Y877322D02*
X1005347Y907803D01*
X959627Y877322D02*
X990107Y907803D01*
X944387Y877322D02*
X974867Y907803D01*
X929147Y877322D02*
X959627Y907803D01*
X913907Y877322D02*
X944387Y907803D01*
X898667Y877322D02*
X929147Y907803D01*
X883427Y877322D02*
X913907Y907803D01*
X868187Y877322D02*
X898667Y907803D01*
X852947Y877322D02*
X883427Y907803D01*
X837707Y877322D02*
X868187Y907803D01*
X827628Y882483D02*
X852947Y907803D01*
X827628Y897723D02*
X837707Y907803D01*
X1096787D02*
X1112027Y923043D01*
X1081547Y907803D02*
X1112027Y938282D01*
X1066307Y907803D02*
X1096787Y938282D01*
X1051067Y907803D02*
X1081547Y938282D01*
X1035827Y907803D02*
X1066307Y938282D01*
X1020587Y907803D02*
X1051067Y938282D01*
X1005347Y907803D02*
X1035827Y938282D01*
X990107Y907803D02*
X1020587Y938282D01*
X974867Y907803D02*
X1005347Y938282D01*
X959627Y907803D02*
X990107Y938282D01*
X944387Y907803D02*
X974867Y938282D01*
X929147Y907803D02*
X959627Y938282D01*
X913907Y907803D02*
X944387Y938282D01*
X898667Y907803D02*
X929147Y938282D01*
X883427Y907803D02*
X913907Y938282D01*
X868187Y907803D02*
X898667Y938282D01*
X852947Y907803D02*
X883427Y938282D01*
X837707Y907803D02*
X868187Y938282D01*
X827628Y912963D02*
X852947Y938282D01*
X827628Y928203D02*
X837707Y938282D01*
X1096787D02*
X1112027Y953522D01*
X1081547Y938282D02*
X1112027Y968763D01*
X1066307Y938282D02*
X1096787Y968763D01*
X1051067Y938282D02*
X1081547Y968763D01*
X1035827Y938282D02*
X1066307Y968763D01*
X1020587Y938282D02*
X1051067Y968763D01*
X1005347Y938282D02*
X1035827Y968763D01*
X990107Y938282D02*
X1020587Y968763D01*
X974867Y938282D02*
X1005347Y968763D01*
X959627Y938282D02*
X990107Y968763D01*
X944387Y938282D02*
X974867Y968763D01*
X929147Y938282D02*
X959627Y968763D01*
X913907Y938282D02*
X944387Y968763D01*
X898667Y938282D02*
X929147Y968763D01*
X883427Y938282D02*
X913907Y968763D01*
X868187Y938282D02*
X898667Y968763D01*
X852947Y938282D02*
X883427Y968763D01*
X837707Y938282D02*
X868187Y968763D01*
X827628Y943443D02*
X852947Y968763D01*
X827628Y958683D02*
X837707Y968763D01*
M02*
