G04*
G04 #@! TF.GenerationSoftware,Altium Limited,Altium Designer,23.9.2 (47)*
G04*
G04 Layer_Color=128*
%FSLAX44Y44*%
%MOMM*%
G71*
G04*
G04 #@! TF.SameCoordinates,755CF2AA-2F68-4FBA-815F-43BC2B140BDC*
G04*
G04*
G04 #@! TF.FilePolarity,Positive*
G04*
G01*
G75*
%ADD10C,0.5000*%
%ADD28R,0.5500X0.2500*%
%ADD30R,0.5200X0.5200*%
%ADD31R,0.5500X0.4500*%
%ADD33R,0.5200X0.5200*%
%ADD34R,0.3500X1.2000*%
%ADD35R,1.2000X0.3500*%
%ADD36R,0.6500X2.7700*%
%ADD37R,1.9000X1.1000*%
%ADD38R,0.4500X0.5500*%
%ADD39R,1.0000X1.0000*%
%ADD40R,0.3500X1.4500*%
%ADD41O,0.3500X1.4500*%
%ADD42R,3.0000X6.0000*%
%ADD58R,0.9000X1.6000*%
D10*
X756000Y547000D02*
D03*
X14924Y60000D02*
D03*
X824000Y19000D02*
D03*
D28*
X829750Y544500D02*
D03*
Y539500D02*
D03*
Y534500D02*
D03*
Y529500D02*
D03*
X806250D02*
D03*
Y534500D02*
D03*
Y539500D02*
D03*
Y544500D02*
D03*
D30*
X822000Y518000D02*
D03*
X814000D02*
D03*
X227708Y25684D02*
D03*
X219708D02*
D03*
D31*
X26000Y194500D02*
D03*
Y185500D02*
D03*
X177137Y106639D02*
D03*
Y97639D02*
D03*
X187431Y79500D02*
D03*
Y88500D02*
D03*
X264000Y7500D02*
D03*
Y16500D02*
D03*
X51000Y342500D02*
D03*
Y333500D02*
D03*
X65000Y342500D02*
D03*
Y333500D02*
D03*
X79000Y342500D02*
D03*
Y333500D02*
D03*
X93000Y342500D02*
D03*
Y333500D02*
D03*
X150000Y342500D02*
D03*
Y333500D02*
D03*
X164333Y342500D02*
D03*
Y333500D02*
D03*
X178667Y342500D02*
D03*
Y333500D02*
D03*
X193000Y342500D02*
D03*
Y333500D02*
D03*
X305000Y342500D02*
D03*
Y333500D02*
D03*
X319333Y342500D02*
D03*
Y333500D02*
D03*
X333667Y342500D02*
D03*
Y333500D02*
D03*
X348000Y342500D02*
D03*
Y333500D02*
D03*
X409000Y342500D02*
D03*
Y333500D02*
D03*
X421667Y342500D02*
D03*
Y333500D02*
D03*
X434333Y342500D02*
D03*
Y333500D02*
D03*
X447000Y342500D02*
D03*
Y333500D02*
D03*
X51000Y215500D02*
D03*
Y224500D02*
D03*
X65000Y215500D02*
D03*
Y224500D02*
D03*
X79000Y215500D02*
D03*
Y224500D02*
D03*
X93000Y215500D02*
D03*
Y224500D02*
D03*
X153217Y215500D02*
D03*
Y224500D02*
D03*
X168811Y215500D02*
D03*
Y224500D02*
D03*
X184405Y215500D02*
D03*
Y224500D02*
D03*
X200000Y215500D02*
D03*
Y224500D02*
D03*
X210000Y194500D02*
D03*
Y185500D02*
D03*
X336000Y215500D02*
D03*
Y224500D02*
D03*
X352333Y215500D02*
D03*
Y224500D02*
D03*
X368667Y215500D02*
D03*
Y224500D02*
D03*
X385000Y215500D02*
D03*
Y224500D02*
D03*
X393000Y194500D02*
D03*
Y185500D02*
D03*
X413000Y214500D02*
D03*
Y223500D02*
D03*
X427000Y214500D02*
D03*
Y223500D02*
D03*
X441000Y214500D02*
D03*
Y223500D02*
D03*
X455000Y214500D02*
D03*
Y223500D02*
D03*
X560000Y342500D02*
D03*
Y333500D02*
D03*
X573667Y342500D02*
D03*
Y333500D02*
D03*
X587333Y342500D02*
D03*
Y333500D02*
D03*
X601000Y342500D02*
D03*
Y333500D02*
D03*
X659000Y343500D02*
D03*
Y334500D02*
D03*
X672667Y343500D02*
D03*
Y334500D02*
D03*
X686333Y343500D02*
D03*
Y334500D02*
D03*
X700000Y343500D02*
D03*
Y334500D02*
D03*
X566000Y214500D02*
D03*
Y223500D02*
D03*
X579667Y214500D02*
D03*
Y223500D02*
D03*
X593333Y214500D02*
D03*
Y223500D02*
D03*
X607000Y214500D02*
D03*
Y223500D02*
D03*
X576000Y194500D02*
D03*
Y185500D02*
D03*
X717000Y214500D02*
D03*
Y223500D02*
D03*
X731333Y214500D02*
D03*
Y223500D02*
D03*
X745667Y214500D02*
D03*
Y223500D02*
D03*
X760000Y214500D02*
D03*
Y223500D02*
D03*
D33*
X334000Y43000D02*
D03*
Y51000D02*
D03*
X177137Y79850D02*
D03*
Y87850D02*
D03*
X201941Y88403D02*
D03*
Y96403D02*
D03*
X208414Y58459D02*
D03*
Y50459D02*
D03*
X208299Y32208D02*
D03*
Y40209D02*
D03*
X339000Y122000D02*
D03*
Y130000D02*
D03*
X350000Y122000D02*
D03*
Y130000D02*
D03*
X37000Y240000D02*
D03*
Y248000D02*
D03*
X136618Y240000D02*
D03*
Y248000D02*
D03*
X291000Y240000D02*
D03*
Y248000D02*
D03*
X389000Y240000D02*
D03*
Y248000D02*
D03*
X545180Y240000D02*
D03*
Y248000D02*
D03*
X644000Y240000D02*
D03*
Y248000D02*
D03*
D34*
X243500Y34500D02*
D03*
X248500D02*
D03*
X253500D02*
D03*
X258500D02*
D03*
X263500D02*
D03*
X268500D02*
D03*
X273500D02*
D03*
X278500D02*
D03*
X283500D02*
D03*
X288500D02*
D03*
X293500D02*
D03*
X298500D02*
D03*
Y119500D02*
D03*
X293500D02*
D03*
X288500D02*
D03*
X283500D02*
D03*
X278500D02*
D03*
X273500D02*
D03*
X268500D02*
D03*
X263500D02*
D03*
X258500D02*
D03*
X253500D02*
D03*
X248500D02*
D03*
X243500D02*
D03*
D35*
X313500Y49500D02*
D03*
Y54500D02*
D03*
Y59500D02*
D03*
Y64500D02*
D03*
Y69500D02*
D03*
Y74500D02*
D03*
Y79500D02*
D03*
Y84500D02*
D03*
Y89500D02*
D03*
Y94500D02*
D03*
Y99500D02*
D03*
Y104500D02*
D03*
X228500D02*
D03*
Y99500D02*
D03*
Y94500D02*
D03*
Y89500D02*
D03*
Y84500D02*
D03*
Y79500D02*
D03*
Y74500D02*
D03*
Y69500D02*
D03*
Y64500D02*
D03*
Y59500D02*
D03*
Y54500D02*
D03*
Y49500D02*
D03*
D36*
X89200Y61300D02*
D03*
X101900D02*
D03*
X114600D02*
D03*
X127300D02*
D03*
X140000D02*
D03*
Y21000D02*
D03*
X127300D02*
D03*
X114600D02*
D03*
X101900D02*
D03*
X89200D02*
D03*
D37*
X191000Y32500D02*
D03*
Y57500D02*
D03*
D38*
X219208Y16684D02*
D03*
X228208D02*
D03*
X219208Y7684D02*
D03*
X228208D02*
D03*
D39*
X379000Y78000D02*
D03*
Y36000D02*
D03*
X395000Y78000D02*
D03*
Y36000D02*
D03*
D40*
X90180Y250500D02*
D03*
X83680D02*
D03*
X77180D02*
D03*
X70680D02*
D03*
X64180D02*
D03*
X57680D02*
D03*
X51180D02*
D03*
X90180Y309500D02*
D03*
X83680D02*
D03*
X77180D02*
D03*
X70680D02*
D03*
X64180D02*
D03*
X57680D02*
D03*
X190180Y250500D02*
D03*
X183680D02*
D03*
X177180D02*
D03*
X170680D02*
D03*
X164180D02*
D03*
X157680D02*
D03*
X151180D02*
D03*
X190180Y309500D02*
D03*
X183680D02*
D03*
X177180D02*
D03*
X170680D02*
D03*
X164180D02*
D03*
X157680D02*
D03*
X344500Y250500D02*
D03*
X338000D02*
D03*
X331500D02*
D03*
X325000D02*
D03*
X318500D02*
D03*
X312000D02*
D03*
X305500D02*
D03*
X344500Y309500D02*
D03*
X338000D02*
D03*
X331500D02*
D03*
X325000D02*
D03*
X318500D02*
D03*
X312000D02*
D03*
X444500Y250500D02*
D03*
X438000D02*
D03*
X431500D02*
D03*
X425000D02*
D03*
X418500D02*
D03*
X412000D02*
D03*
X405500D02*
D03*
X444500Y309500D02*
D03*
X438000D02*
D03*
X431500D02*
D03*
X425000D02*
D03*
X418500D02*
D03*
X412000D02*
D03*
X598820Y250500D02*
D03*
X592320D02*
D03*
X585820D02*
D03*
X579320D02*
D03*
X572820D02*
D03*
X566320D02*
D03*
X559820D02*
D03*
X598820Y309500D02*
D03*
X592320D02*
D03*
X585820D02*
D03*
X579320D02*
D03*
X572820D02*
D03*
X566320D02*
D03*
X698820Y250500D02*
D03*
X692320D02*
D03*
X685820D02*
D03*
X679320D02*
D03*
X672820D02*
D03*
X666320D02*
D03*
X659820D02*
D03*
X698820Y309500D02*
D03*
X692320D02*
D03*
X685820D02*
D03*
X679320D02*
D03*
X672820D02*
D03*
X666320D02*
D03*
D41*
X51180D02*
D03*
X151180D02*
D03*
X305500D02*
D03*
X405500D02*
D03*
X559820D02*
D03*
X659820D02*
D03*
D42*
X557000Y72000D02*
D03*
X437000D02*
D03*
D58*
X818000Y537000D02*
D03*
M02*
