G04*
G04 #@! TF.GenerationSoftware,Altium Limited,Altium Designer,23.9.2 (47)*
G04*
G04 Layer_Color=32768*
%FSLAX44Y44*%
%MOMM*%
G71*
G04*
G04 #@! TF.SameCoordinates,755CF2AA-2F68-4FBA-815F-43BC2B140BDC*
G04*
G04*
G04 #@! TF.FilePolarity,Positive*
G04*
G01*
G75*
G36*
X843811Y157026D02*
X839737D01*
Y156392D01*
X839752Y156195D01*
X839766Y156025D01*
X839794Y155885D01*
X839808Y155772D01*
X839836Y155701D01*
X839850Y155659D01*
Y155645D01*
X839907Y155532D01*
X839963Y155419D01*
X840033Y155321D01*
X840090Y155222D01*
X840160Y155152D01*
X840217Y155095D01*
X840245Y155067D01*
X840259Y155053D01*
X840330Y154997D01*
X840400Y154926D01*
X840611Y154771D01*
X840837Y154602D01*
X841091Y154418D01*
X841316Y154263D01*
X841429Y154193D01*
X841514Y154136D01*
X841584Y154080D01*
X841641Y154038D01*
X841683Y154024D01*
X841697Y154010D01*
X843811Y152600D01*
Y150232D01*
X841908Y151430D01*
X841711Y151557D01*
X841514Y151684D01*
X841345Y151796D01*
X841189Y151909D01*
X841049Y152008D01*
X840908Y152093D01*
X840696Y152262D01*
X840527Y152388D01*
X840414Y152473D01*
X840344Y152544D01*
X840330Y152558D01*
X840160Y152713D01*
X840005Y152896D01*
X839878Y153065D01*
X839752Y153234D01*
X839653Y153375D01*
X839582Y153488D01*
X839526Y153573D01*
X839512Y153587D01*
Y153601D01*
X839470Y153361D01*
X839413Y153150D01*
X839357Y152952D01*
X839286Y152755D01*
X839216Y152586D01*
X839145Y152431D01*
X839075Y152276D01*
X838990Y152149D01*
X838920Y152036D01*
X838849Y151937D01*
X838779Y151853D01*
X838723Y151796D01*
X838680Y151740D01*
X838638Y151698D01*
X838624Y151684D01*
X838610Y151670D01*
X838469Y151557D01*
X838328Y151458D01*
X838018Y151289D01*
X837722Y151176D01*
X837426Y151106D01*
X837172Y151049D01*
X837073Y151035D01*
X836974D01*
X836904Y151021D01*
X836833D01*
X836805D01*
X836791D01*
X836481Y151035D01*
X836185Y151092D01*
X835931Y151162D01*
X835706Y151233D01*
X835523Y151317D01*
X835381Y151388D01*
X835339Y151416D01*
X835297Y151444D01*
X835283Y151458D01*
X835269D01*
X835029Y151627D01*
X834832Y151811D01*
X834677Y151994D01*
X834536Y152177D01*
X834451Y152346D01*
X834381Y152473D01*
X834338Y152558D01*
X834324Y152572D01*
Y152586D01*
X834282Y152727D01*
X834240Y152882D01*
X834169Y153234D01*
X834127Y153615D01*
X834085Y153982D01*
Y154165D01*
X834071Y154320D01*
Y154475D01*
X834056Y154602D01*
Y159000D01*
X843811D01*
Y157026D01*
D02*
G37*
G36*
X840597Y149710D02*
X840865Y149696D01*
X841105Y149654D01*
X841330Y149611D01*
X841556Y149569D01*
X841753Y149499D01*
X841937Y149442D01*
X842106Y149372D01*
X842261Y149315D01*
X842388Y149245D01*
X842501Y149188D01*
X842599Y149146D01*
X842670Y149090D01*
X842726Y149062D01*
X842754Y149047D01*
X842768Y149033D01*
X842980Y148850D01*
X843163Y148667D01*
X843318Y148455D01*
X843459Y148230D01*
X843572Y148004D01*
X843671Y147779D01*
X843755Y147553D01*
X843811Y147328D01*
X843868Y147130D01*
X843896Y146933D01*
X843924Y146750D01*
X843952Y146595D01*
Y146468D01*
X843967Y146383D01*
Y146299D01*
X843938Y145890D01*
X843882Y145509D01*
X843797Y145185D01*
X843699Y144903D01*
X843642Y144776D01*
X843600Y144677D01*
X843558Y144579D01*
X843515Y144508D01*
X843473Y144452D01*
X843459Y144396D01*
X843431Y144381D01*
Y144367D01*
X843205Y144100D01*
X842966Y143860D01*
X842698Y143663D01*
X842444Y143507D01*
X842219Y143380D01*
X842120Y143338D01*
X842035Y143296D01*
X841965Y143268D01*
X841908Y143240D01*
X841880Y143225D01*
X841866D01*
X841556Y145086D01*
X841739Y145157D01*
X841908Y145227D01*
X842035Y145298D01*
X842148Y145382D01*
X842233Y145439D01*
X842289Y145495D01*
X842317Y145537D01*
X842331Y145552D01*
X842416Y145664D01*
X842472Y145791D01*
X842515Y145918D01*
X842543Y146031D01*
X842557Y146130D01*
X842571Y146214D01*
Y146285D01*
X842557Y146510D01*
X842501Y146721D01*
X842430Y146919D01*
X842345Y147074D01*
X842261Y147201D01*
X842190Y147285D01*
X842134Y147356D01*
X842120Y147370D01*
X841937Y147511D01*
X841725Y147610D01*
X841500Y147694D01*
X841302Y147751D01*
X841105Y147779D01*
X840964Y147793D01*
X840908Y147807D01*
X840865D01*
X840837D01*
X840823D01*
Y143127D01*
X840428D01*
X840076Y143155D01*
X839737Y143197D01*
X839427Y143254D01*
X839131Y143324D01*
X838878Y143395D01*
X838638Y143479D01*
X838427Y143564D01*
X838243Y143648D01*
X838074Y143733D01*
X837947Y143803D01*
X837834Y143874D01*
X837750Y143930D01*
X837679Y143973D01*
X837651Y144001D01*
X837637Y144015D01*
X837454Y144184D01*
X837285Y144381D01*
X837144Y144579D01*
X837031Y144776D01*
X836918Y144988D01*
X836833Y145199D01*
X836763Y145396D01*
X836707Y145594D01*
X836664Y145777D01*
X836636Y145946D01*
X836608Y146101D01*
X836594Y146228D01*
X836580Y146341D01*
Y146496D01*
X836594Y146750D01*
X836622Y146989D01*
X836678Y147229D01*
X836735Y147441D01*
X836805Y147652D01*
X836890Y147835D01*
X836989Y148018D01*
X837073Y148174D01*
X837172Y148315D01*
X837271Y148441D01*
X837355Y148554D01*
X837426Y148639D01*
X837482Y148709D01*
X837538Y148766D01*
X837567Y148794D01*
X837581Y148808D01*
X837778Y148963D01*
X837990Y149104D01*
X838201Y149231D01*
X838427Y149344D01*
X838666Y149428D01*
X838892Y149499D01*
X839329Y149611D01*
X839540Y149654D01*
X839723Y149682D01*
X839893Y149696D01*
X840033Y149710D01*
X840160Y149724D01*
X840259D01*
X840315D01*
X840330D01*
X840597Y149710D01*
D02*
G37*
G36*
X843811Y139673D02*
Y137981D01*
X836735Y135176D01*
Y137093D01*
X840358Y138447D01*
X840569Y138531D01*
X840767Y138588D01*
X840837Y138616D01*
X840893Y138630D01*
X840936Y138644D01*
X840950D01*
X841020Y138658D01*
X841105Y138686D01*
X841316Y138757D01*
X841401Y138785D01*
X841486Y138813D01*
X841542Y138827D01*
X841556Y138841D01*
X840358Y139222D01*
X836735Y140561D01*
Y142521D01*
X843811Y139673D01*
D02*
G37*
G36*
Y132145D02*
X836735D01*
Y134020D01*
X843811D01*
Y132145D01*
D02*
G37*
G36*
X835790D02*
X834056D01*
Y134020D01*
X835790D01*
Y132145D01*
D02*
G37*
G36*
X842148Y130750D02*
X842472Y130595D01*
X842740Y130425D01*
X842966Y130242D01*
X843149Y130073D01*
X843276Y129918D01*
X843332Y129876D01*
X843360Y129833D01*
X843374Y129805D01*
X843389Y129791D01*
X843487Y129622D01*
X843586Y129453D01*
X843727Y129072D01*
X843826Y128692D01*
X843896Y128325D01*
X843924Y128156D01*
X843938Y128001D01*
X843952Y127860D01*
Y127733D01*
X843967Y127634D01*
Y127493D01*
X843952Y127211D01*
X843938Y126943D01*
X843896Y126690D01*
X843854Y126450D01*
X843811Y126239D01*
X843741Y126041D01*
X843685Y125858D01*
X843614Y125703D01*
X843558Y125562D01*
X843487Y125435D01*
X843431Y125336D01*
X843389Y125252D01*
X843332Y125181D01*
X843304Y125139D01*
X843290Y125111D01*
X843276Y125097D01*
X843135Y124956D01*
X842994Y124829D01*
X842853Y124716D01*
X842712Y124617D01*
X842571Y124547D01*
X842430Y124476D01*
X842176Y124378D01*
X841937Y124321D01*
X841838Y124307D01*
X841768Y124293D01*
X841697Y124279D01*
X841641D01*
X841612D01*
X841598D01*
X841288Y124307D01*
X841006Y124378D01*
X840767Y124462D01*
X840569Y124575D01*
X840414Y124688D01*
X840301Y124773D01*
X840245Y124843D01*
X840217Y124871D01*
X840132Y124998D01*
X840033Y125125D01*
X839963Y125280D01*
X839878Y125449D01*
X839737Y125787D01*
X839611Y126140D01*
X839512Y126450D01*
X839484Y126591D01*
X839442Y126718D01*
X839413Y126817D01*
X839399Y126887D01*
X839385Y126943D01*
Y126958D01*
X839315Y127225D01*
X839258Y127465D01*
X839202Y127676D01*
X839145Y127860D01*
X839103Y128029D01*
X839061Y128170D01*
X839018Y128283D01*
X838990Y128395D01*
X838948Y128480D01*
X838920Y128551D01*
X838906Y128607D01*
X838878Y128635D01*
X838864Y128692D01*
X838849Y128706D01*
X838793Y128762D01*
X838737Y128804D01*
X838624Y128861D01*
X838539Y128889D01*
X838525D01*
X838511D01*
X838427Y128875D01*
X838356Y128861D01*
X838229Y128776D01*
X838159Y128706D01*
X838130Y128692D01*
Y128677D01*
X838060Y128536D01*
X838004Y128381D01*
X837975Y128212D01*
X837947Y128029D01*
X837933Y127874D01*
X837919Y127747D01*
Y127620D01*
X837933Y127409D01*
X837947Y127225D01*
X837990Y127070D01*
X838032Y126943D01*
X838074Y126845D01*
X838102Y126774D01*
X838130Y126732D01*
X838145Y126718D01*
X838229Y126605D01*
X838328Y126521D01*
X838427Y126436D01*
X838539Y126380D01*
X838624Y126337D01*
X838694Y126309D01*
X838751Y126281D01*
X838765D01*
X838441Y124519D01*
X838116Y124632D01*
X837834Y124787D01*
X837595Y124942D01*
X837411Y125111D01*
X837256Y125252D01*
X837144Y125379D01*
X837087Y125463D01*
X837059Y125477D01*
Y125491D01*
X836974Y125632D01*
X836904Y125787D01*
X836777Y126126D01*
X836693Y126478D01*
X836636Y126831D01*
X836622Y127000D01*
X836608Y127155D01*
X836594Y127296D01*
X836580Y127409D01*
Y127930D01*
X836608Y128184D01*
X836636Y128424D01*
X836678Y128649D01*
X836721Y128847D01*
X836777Y129030D01*
X836833Y129199D01*
X836890Y129354D01*
X836960Y129481D01*
X837017Y129594D01*
X837073Y129692D01*
X837115Y129763D01*
X837158Y129833D01*
X837186Y129876D01*
X837200Y129890D01*
X837214Y129904D01*
X837327Y130031D01*
X837454Y130143D01*
X837581Y130242D01*
X837722Y130313D01*
X837975Y130454D01*
X838215Y130538D01*
X838427Y130581D01*
X838525Y130595D01*
X838596Y130609D01*
X838666Y130623D01*
X838708D01*
X838737D01*
X838751D01*
X838934Y130609D01*
X839103Y130581D01*
X839272Y130552D01*
X839427Y130496D01*
X839695Y130355D01*
X839921Y130200D01*
X840104Y130059D01*
X840231Y129918D01*
X840287Y129861D01*
X840315Y129833D01*
X840330Y129805D01*
X840344Y129791D01*
X840414Y129664D01*
X840499Y129495D01*
X840583Y129298D01*
X840654Y129086D01*
X840738Y128861D01*
X840809Y128621D01*
X840950Y128128D01*
X841020Y127888D01*
X841077Y127662D01*
X841133Y127465D01*
X841175Y127282D01*
X841204Y127127D01*
X841232Y127014D01*
X841260Y126943D01*
Y126915D01*
X841302Y126746D01*
X841345Y126619D01*
X841387Y126506D01*
X841415Y126422D01*
X841457Y126365D01*
X841471Y126323D01*
X841500Y126295D01*
X841612Y126210D01*
X841725Y126168D01*
X841810Y126154D01*
X841838D01*
X841852D01*
X841965Y126168D01*
X842064Y126196D01*
X842148Y126239D01*
X842219Y126281D01*
X842275Y126323D01*
X842317Y126365D01*
X842345Y126394D01*
X842359Y126408D01*
X842444Y126563D01*
X842501Y126732D01*
X842557Y126915D01*
X842585Y127084D01*
X842599Y127240D01*
X842613Y127380D01*
Y127493D01*
X842599Y127733D01*
X842571Y127930D01*
X842529Y128113D01*
X842472Y128254D01*
X842430Y128367D01*
X842388Y128452D01*
X842359Y128508D01*
X842345Y128522D01*
X842233Y128649D01*
X842092Y128748D01*
X841965Y128832D01*
X841824Y128903D01*
X841697Y128945D01*
X841598Y128973D01*
X841542Y129002D01*
X841514D01*
X841796Y130877D01*
X842148Y130750D01*
D02*
G37*
G36*
X843811Y120769D02*
X836735D01*
Y122644D01*
X843811D01*
Y120769D01*
D02*
G37*
G36*
X835790D02*
X834056D01*
Y122644D01*
X835790D01*
Y120769D01*
D02*
G37*
G36*
X840611Y119261D02*
X841020Y119204D01*
X841373Y119134D01*
X841528Y119091D01*
X841669Y119049D01*
X841796Y119007D01*
X841908Y118965D01*
X842007Y118922D01*
X842092Y118894D01*
X842162Y118866D01*
X842205Y118838D01*
X842233Y118824D01*
X842247D01*
X842543Y118626D01*
X842796Y118415D01*
X843022Y118189D01*
X843205Y117978D01*
X843346Y117780D01*
X843445Y117625D01*
X843487Y117569D01*
X843515Y117527D01*
X843530Y117498D01*
Y117484D01*
X843671Y117146D01*
X843783Y116822D01*
X843854Y116512D01*
X843910Y116216D01*
X843938Y115976D01*
X843952Y115877D01*
Y115793D01*
X843967Y115722D01*
Y115624D01*
X843952Y115328D01*
X843924Y115060D01*
X843868Y114792D01*
X843797Y114552D01*
X843727Y114312D01*
X843642Y114101D01*
X843544Y113904D01*
X843445Y113720D01*
X843346Y113565D01*
X843248Y113424D01*
X843163Y113298D01*
X843093Y113199D01*
X843022Y113114D01*
X842966Y113058D01*
X842937Y113030D01*
X842923Y113016D01*
X842712Y112832D01*
X842501Y112677D01*
X842289Y112536D01*
X842064Y112409D01*
X841838Y112311D01*
X841612Y112226D01*
X841401Y112156D01*
X841189Y112099D01*
X841006Y112057D01*
X840823Y112029D01*
X840668Y112001D01*
X840527Y111987D01*
X840414Y111972D01*
X840330D01*
X840273D01*
X840259D01*
X839963Y111987D01*
X839681Y112015D01*
X839427Y112071D01*
X839174Y112128D01*
X838948Y112212D01*
X838723Y112297D01*
X838525Y112395D01*
X838342Y112480D01*
X838187Y112579D01*
X838032Y112677D01*
X837919Y112762D01*
X837806Y112846D01*
X837736Y112903D01*
X837665Y112959D01*
X837637Y112987D01*
X837623Y113001D01*
X837440Y113199D01*
X837285Y113410D01*
X837144Y113622D01*
X837017Y113847D01*
X836918Y114073D01*
X836833Y114284D01*
X836763Y114496D01*
X836707Y114707D01*
X836664Y114890D01*
X836636Y115074D01*
X836608Y115229D01*
X836594Y115370D01*
X836580Y115483D01*
Y115638D01*
X836594Y116018D01*
X836650Y116371D01*
X836721Y116695D01*
X836805Y116977D01*
X836862Y117090D01*
X836904Y117202D01*
X836932Y117301D01*
X836974Y117372D01*
X837003Y117442D01*
X837031Y117484D01*
X837045Y117513D01*
Y117527D01*
X837242Y117823D01*
X837454Y118076D01*
X837679Y118302D01*
X837891Y118485D01*
X838088Y118626D01*
X838243Y118739D01*
X838300Y118781D01*
X838342Y118795D01*
X838370Y118824D01*
X838384D01*
X838708Y118979D01*
X839033Y119077D01*
X839329Y119162D01*
X839596Y119218D01*
X839836Y119247D01*
X839935Y119261D01*
X840019D01*
X840076Y119275D01*
X840132D01*
X840160D01*
X840174D01*
X840611Y119261D01*
D02*
G37*
G36*
X843811Y108660D02*
X840626D01*
X840414D01*
X840217D01*
X840033Y108645D01*
X839878Y108631D01*
X839723D01*
X839596Y108617D01*
X839470Y108603D01*
X839371Y108589D01*
X839202Y108561D01*
X839089Y108547D01*
X839018Y108519D01*
X839004D01*
X838849Y108462D01*
X838694Y108378D01*
X838581Y108293D01*
X838469Y108209D01*
X838398Y108124D01*
X838328Y108054D01*
X838300Y108011D01*
X838286Y107997D01*
X838201Y107842D01*
X838130Y107687D01*
X838088Y107546D01*
X838046Y107405D01*
X838032Y107292D01*
X838018Y107208D01*
Y107123D01*
X838032Y106982D01*
X838046Y106855D01*
X838074Y106756D01*
X838116Y106658D01*
X838159Y106573D01*
X838187Y106517D01*
X838201Y106489D01*
X838215Y106475D01*
X838286Y106376D01*
X838370Y106305D01*
X838539Y106179D01*
X838624Y106136D01*
X838680Y106108D01*
X838723Y106080D01*
X838737D01*
X838807Y106052D01*
X838892Y106038D01*
X839103Y106009D01*
X839357Y105981D01*
X839596Y105967D01*
X839836Y105953D01*
X839935D01*
X840033D01*
X840104D01*
X840160D01*
X840203D01*
X840217D01*
X843811D01*
Y104078D01*
X839427D01*
X839131D01*
X838892Y104092D01*
X838666Y104106D01*
X838497Y104135D01*
X838356Y104149D01*
X838257Y104177D01*
X838187Y104191D01*
X838173D01*
X838004Y104233D01*
X837863Y104290D01*
X837722Y104346D01*
X837609Y104416D01*
X837510Y104473D01*
X837440Y104515D01*
X837397Y104543D01*
X837383Y104557D01*
X837256Y104670D01*
X837144Y104797D01*
X837045Y104924D01*
X836960Y105051D01*
X836890Y105164D01*
X836848Y105262D01*
X836819Y105319D01*
X836805Y105347D01*
X836735Y105544D01*
X836678Y105742D01*
X836636Y105925D01*
X836608Y106094D01*
X836594Y106249D01*
X836580Y106376D01*
Y106475D01*
X836594Y106728D01*
X836636Y106982D01*
X836693Y107208D01*
X836763Y107433D01*
X836862Y107645D01*
X836960Y107828D01*
X837073Y108011D01*
X837172Y108166D01*
X837285Y108307D01*
X837397Y108434D01*
X837496Y108547D01*
X837595Y108631D01*
X837665Y108702D01*
X837722Y108758D01*
X837764Y108786D01*
X837778Y108801D01*
X836735D01*
Y110534D01*
X843811D01*
Y108660D01*
D02*
G37*
G36*
X837961Y97791D02*
X837750Y97340D01*
X837637Y97128D01*
X837510Y96931D01*
X837397Y96748D01*
X837285Y96579D01*
X837172Y96423D01*
X837073Y96283D01*
X836989Y96170D01*
X836904Y96071D01*
X836833Y95986D01*
X836791Y95930D01*
X836763Y95902D01*
X836749Y95888D01*
X843811D01*
Y94013D01*
X834000D01*
Y95535D01*
X834324Y95676D01*
X834620Y95859D01*
X834902Y96057D01*
X835128Y96254D01*
X835311Y96423D01*
X835452Y96579D01*
X835508Y96635D01*
X835551Y96677D01*
X835565Y96705D01*
X835579Y96720D01*
X835804Y97030D01*
X836002Y97326D01*
X836157Y97593D01*
X836270Y97833D01*
X836354Y98031D01*
X836425Y98172D01*
X836439Y98228D01*
X836453Y98270D01*
X836467Y98284D01*
Y98298D01*
X838159D01*
X837961Y97791D01*
D02*
G37*
G36*
X843811Y88938D02*
X841937D01*
Y90813D01*
X843811D01*
Y88938D01*
D02*
G37*
G36*
Y85907D02*
X841598Y85104D01*
Y81185D01*
X843811Y80339D01*
Y78210D01*
X834056Y82129D01*
Y84215D01*
X843811Y87993D01*
Y85907D01*
D02*
G37*
G36*
X842577Y458632D02*
X834908D01*
X842577Y456715D01*
Y454812D01*
X834908Y452895D01*
X842577Y452881D01*
Y451062D01*
X832822D01*
Y454022D01*
X839489Y455756D01*
X832822Y457504D01*
Y460451D01*
X842577D01*
Y458632D01*
D02*
G37*
G36*
X827811Y447517D02*
X827797Y447136D01*
X827783Y446784D01*
X827755Y446488D01*
X827713Y446248D01*
X827671Y446050D01*
X827642Y445896D01*
X827628Y445853D01*
Y445811D01*
X827614Y445797D01*
Y445783D01*
X827501Y445472D01*
X827374Y445191D01*
X827247Y444965D01*
X827121Y444768D01*
X827008Y444613D01*
X826923Y444500D01*
X826867Y444429D01*
X826839Y444401D01*
X826571Y444161D01*
X826289Y443950D01*
X825993Y443767D01*
X825725Y443626D01*
X825471Y443513D01*
X825373Y443457D01*
X825288Y443428D01*
X825203Y443400D01*
X825147Y443372D01*
X825119Y443358D01*
X825105D01*
X824766Y443259D01*
X824414Y443175D01*
X824076Y443118D01*
X823752Y443090D01*
X823596Y443076D01*
X823456Y443062D01*
X823343D01*
X823230Y443048D01*
X823145D01*
X823089D01*
X823047D01*
X823033D01*
X822539Y443062D01*
X822102Y443104D01*
X821891Y443118D01*
X821707Y443147D01*
X821524Y443175D01*
X821369Y443203D01*
X821228Y443245D01*
X821101Y443273D01*
X820988Y443302D01*
X820904Y443316D01*
X820833Y443344D01*
X820777Y443358D01*
X820749Y443372D01*
X820735D01*
X820396Y443499D01*
X820086Y443654D01*
X819818Y443809D01*
X819593Y443964D01*
X819410Y444091D01*
X819269Y444204D01*
X819184Y444274D01*
X819156Y444288D01*
Y444302D01*
X818930Y444542D01*
X818747Y444782D01*
X818592Y445036D01*
X818465Y445261D01*
X818366Y445458D01*
X818296Y445628D01*
X818282Y445684D01*
X818268Y445726D01*
X818254Y445755D01*
Y445769D01*
X818183Y446036D01*
X818141Y446333D01*
X818099Y446643D01*
X818084Y446939D01*
X818070Y447206D01*
X818056Y447319D01*
Y451210D01*
X827811D01*
Y447517D01*
D02*
G37*
G36*
X842577Y447975D02*
X840363Y447171D01*
Y443252D01*
X842577Y442407D01*
Y440278D01*
X832822Y444197D01*
Y446283D01*
X842577Y450061D01*
Y447975D01*
D02*
G37*
G36*
X824597Y441920D02*
X824865Y441906D01*
X825105Y441864D01*
X825330Y441821D01*
X825556Y441779D01*
X825753Y441709D01*
X825937Y441652D01*
X826106Y441582D01*
X826261Y441525D01*
X826388Y441455D01*
X826500Y441399D01*
X826599Y441356D01*
X826670Y441300D01*
X826726Y441272D01*
X826754Y441258D01*
X826768Y441243D01*
X826980Y441060D01*
X827163Y440877D01*
X827318Y440666D01*
X827459Y440440D01*
X827572Y440214D01*
X827671Y439989D01*
X827755Y439763D01*
X827811Y439538D01*
X827868Y439340D01*
X827896Y439143D01*
X827924Y438960D01*
X827952Y438805D01*
Y438678D01*
X827967Y438593D01*
Y438509D01*
X827938Y438100D01*
X827882Y437719D01*
X827797Y437395D01*
X827699Y437113D01*
X827642Y436986D01*
X827600Y436888D01*
X827558Y436789D01*
X827515Y436718D01*
X827473Y436662D01*
X827459Y436605D01*
X827431Y436591D01*
Y436577D01*
X827205Y436310D01*
X826966Y436070D01*
X826698Y435872D01*
X826444Y435717D01*
X826218Y435591D01*
X826120Y435548D01*
X826035Y435506D01*
X825965Y435478D01*
X825908Y435450D01*
X825880Y435435D01*
X825866D01*
X825556Y437296D01*
X825739Y437367D01*
X825908Y437437D01*
X826035Y437508D01*
X826148Y437592D01*
X826233Y437649D01*
X826289Y437705D01*
X826317Y437747D01*
X826331Y437761D01*
X826416Y437874D01*
X826472Y438001D01*
X826515Y438128D01*
X826543Y438241D01*
X826557Y438340D01*
X826571Y438424D01*
Y438494D01*
X826557Y438720D01*
X826500Y438932D01*
X826430Y439129D01*
X826345Y439284D01*
X826261Y439411D01*
X826190Y439495D01*
X826134Y439566D01*
X826120Y439580D01*
X825937Y439721D01*
X825725Y439820D01*
X825499Y439904D01*
X825302Y439961D01*
X825105Y439989D01*
X824964Y440003D01*
X824907Y440017D01*
X824865D01*
X824837D01*
X824823D01*
Y435337D01*
X824428D01*
X824076Y435365D01*
X823737Y435407D01*
X823427Y435464D01*
X823131Y435534D01*
X822878Y435605D01*
X822638Y435689D01*
X822426Y435774D01*
X822243Y435858D01*
X822074Y435943D01*
X821947Y436013D01*
X821834Y436084D01*
X821750Y436140D01*
X821679Y436183D01*
X821651Y436211D01*
X821637Y436225D01*
X821454Y436394D01*
X821284Y436591D01*
X821143Y436789D01*
X821031Y436986D01*
X820918Y437198D01*
X820833Y437409D01*
X820763Y437606D01*
X820706Y437804D01*
X820664Y437987D01*
X820636Y438156D01*
X820608Y438311D01*
X820594Y438438D01*
X820580Y438551D01*
Y438706D01*
X820594Y438960D01*
X820622Y439199D01*
X820678Y439439D01*
X820735Y439650D01*
X820805Y439862D01*
X820890Y440045D01*
X820988Y440229D01*
X821073Y440383D01*
X821172Y440524D01*
X821270Y440651D01*
X821355Y440764D01*
X821425Y440849D01*
X821482Y440919D01*
X821538Y440976D01*
X821566Y441004D01*
X821581Y441018D01*
X821778Y441173D01*
X821989Y441314D01*
X822201Y441441D01*
X822426Y441554D01*
X822666Y441638D01*
X822892Y441709D01*
X823329Y441821D01*
X823540Y441864D01*
X823723Y441892D01*
X823893Y441906D01*
X824033Y441920D01*
X824160Y441934D01*
X824259D01*
X824315D01*
X824330D01*
X824597Y441920D01*
D02*
G37*
G36*
X842577Y435527D02*
X842562Y435146D01*
X842548Y434794D01*
X842520Y434498D01*
X842478Y434258D01*
X842436Y434061D01*
X842408Y433906D01*
X842393Y433864D01*
Y433821D01*
X842379Y433807D01*
Y433793D01*
X842266Y433483D01*
X842140Y433201D01*
X842013Y432976D01*
X841886Y432778D01*
X841773Y432623D01*
X841689Y432510D01*
X841632Y432440D01*
X841604Y432412D01*
X841336Y432172D01*
X841054Y431961D01*
X840758Y431777D01*
X840490Y431636D01*
X840237Y431524D01*
X840138Y431467D01*
X840053Y431439D01*
X839969Y431411D01*
X839912Y431383D01*
X839884Y431368D01*
X839870D01*
X839532Y431270D01*
X839179Y431185D01*
X838841Y431129D01*
X838517Y431101D01*
X838362Y431087D01*
X838221Y431073D01*
X838108D01*
X837995Y431058D01*
X837911D01*
X837854D01*
X837812D01*
X837798D01*
X837304Y431073D01*
X836867Y431115D01*
X836656Y431129D01*
X836473Y431157D01*
X836289Y431185D01*
X836134Y431213D01*
X835993Y431256D01*
X835866Y431284D01*
X835754Y431312D01*
X835669Y431326D01*
X835599Y431354D01*
X835542Y431368D01*
X835514Y431383D01*
X835500D01*
X835162Y431510D01*
X834852Y431665D01*
X834584Y431820D01*
X834358Y431975D01*
X834175Y432102D01*
X834034Y432214D01*
X833949Y432285D01*
X833921Y432299D01*
Y432313D01*
X833696Y432553D01*
X833512Y432792D01*
X833357Y433046D01*
X833230Y433272D01*
X833132Y433469D01*
X833061Y433638D01*
X833047Y433694D01*
X833033Y433737D01*
X833019Y433765D01*
Y433779D01*
X832948Y434047D01*
X832906Y434343D01*
X832864Y434653D01*
X832850Y434949D01*
X832836Y435217D01*
X832822Y435330D01*
Y439221D01*
X842577D01*
Y435527D01*
D02*
G37*
G36*
X826148Y434336D02*
X826472Y434181D01*
X826740Y434012D01*
X826966Y433828D01*
X827149Y433659D01*
X827276Y433504D01*
X827332Y433462D01*
X827360Y433420D01*
X827374Y433391D01*
X827389Y433377D01*
X827487Y433208D01*
X827586Y433039D01*
X827727Y432658D01*
X827825Y432278D01*
X827896Y431911D01*
X827924Y431742D01*
X827938Y431587D01*
X827952Y431446D01*
Y431319D01*
X827967Y431221D01*
Y431079D01*
X827952Y430798D01*
X827938Y430530D01*
X827896Y430276D01*
X827854Y430036D01*
X827811Y429825D01*
X827741Y429627D01*
X827685Y429444D01*
X827614Y429289D01*
X827558Y429148D01*
X827487Y429021D01*
X827431Y428923D01*
X827389Y428838D01*
X827332Y428768D01*
X827304Y428725D01*
X827290Y428697D01*
X827276Y428683D01*
X827135Y428542D01*
X826994Y428415D01*
X826853Y428302D01*
X826712Y428204D01*
X826571Y428133D01*
X826430Y428063D01*
X826176Y427964D01*
X825937Y427908D01*
X825838Y427894D01*
X825767Y427879D01*
X825697Y427865D01*
X825640D01*
X825612D01*
X825598D01*
X825288Y427894D01*
X825006Y427964D01*
X824766Y428049D01*
X824569Y428161D01*
X824414Y428274D01*
X824301Y428359D01*
X824245Y428429D01*
X824217Y428457D01*
X824132Y428584D01*
X824033Y428711D01*
X823963Y428866D01*
X823878Y429035D01*
X823737Y429374D01*
X823611Y429726D01*
X823512Y430036D01*
X823484Y430177D01*
X823441Y430304D01*
X823413Y430403D01*
X823399Y430473D01*
X823385Y430530D01*
Y430544D01*
X823315Y430812D01*
X823258Y431051D01*
X823202Y431263D01*
X823145Y431446D01*
X823103Y431615D01*
X823061Y431756D01*
X823018Y431869D01*
X822990Y431982D01*
X822948Y432066D01*
X822920Y432137D01*
X822906Y432193D01*
X822878Y432221D01*
X822863Y432278D01*
X822849Y432292D01*
X822793Y432348D01*
X822737Y432391D01*
X822624Y432447D01*
X822539Y432475D01*
X822525D01*
X822511D01*
X822426Y432461D01*
X822356Y432447D01*
X822229Y432362D01*
X822159Y432292D01*
X822130Y432278D01*
Y432264D01*
X822060Y432123D01*
X822003Y431968D01*
X821975Y431799D01*
X821947Y431615D01*
X821933Y431460D01*
X821919Y431333D01*
Y431206D01*
X821933Y430995D01*
X821947Y430812D01*
X821989Y430657D01*
X822032Y430530D01*
X822074Y430431D01*
X822102Y430361D01*
X822130Y430318D01*
X822144Y430304D01*
X822229Y430191D01*
X822328Y430107D01*
X822426Y430022D01*
X822539Y429966D01*
X822624Y429924D01*
X822694Y429895D01*
X822751Y429867D01*
X822765D01*
X822440Y428105D01*
X822116Y428218D01*
X821834Y428373D01*
X821595Y428528D01*
X821411Y428697D01*
X821256Y428838D01*
X821143Y428965D01*
X821087Y429049D01*
X821059Y429064D01*
Y429078D01*
X820974Y429219D01*
X820904Y429374D01*
X820777Y429712D01*
X820692Y430065D01*
X820636Y430417D01*
X820622Y430586D01*
X820608Y430741D01*
X820594Y430882D01*
X820580Y430995D01*
Y431516D01*
X820608Y431770D01*
X820636Y432010D01*
X820678Y432235D01*
X820721Y432433D01*
X820777Y432616D01*
X820833Y432785D01*
X820890Y432940D01*
X820960Y433067D01*
X821017Y433180D01*
X821073Y433279D01*
X821115Y433349D01*
X821158Y433420D01*
X821186Y433462D01*
X821200Y433476D01*
X821214Y433490D01*
X821327Y433617D01*
X821454Y433730D01*
X821581Y433828D01*
X821721Y433899D01*
X821975Y434040D01*
X822215Y434124D01*
X822426Y434167D01*
X822525Y434181D01*
X822596Y434195D01*
X822666Y434209D01*
X822708D01*
X822737D01*
X822751D01*
X822934Y434195D01*
X823103Y434167D01*
X823272Y434139D01*
X823427Y434082D01*
X823695Y433941D01*
X823921Y433786D01*
X824104Y433645D01*
X824231Y433504D01*
X824287Y433448D01*
X824315Y433420D01*
X824330Y433391D01*
X824344Y433377D01*
X824414Y433250D01*
X824499Y433081D01*
X824583Y432884D01*
X824654Y432673D01*
X824738Y432447D01*
X824809Y432207D01*
X824950Y431714D01*
X825020Y431474D01*
X825077Y431249D01*
X825133Y431051D01*
X825175Y430868D01*
X825203Y430713D01*
X825232Y430600D01*
X825260Y430530D01*
Y430502D01*
X825302Y430332D01*
X825344Y430205D01*
X825387Y430093D01*
X825415Y430008D01*
X825457Y429952D01*
X825471Y429910D01*
X825499Y429881D01*
X825612Y429797D01*
X825725Y429754D01*
X825810Y429740D01*
X825838D01*
X825852D01*
X825965Y429754D01*
X826063Y429783D01*
X826148Y429825D01*
X826218Y429867D01*
X826275Y429910D01*
X826317Y429952D01*
X826345Y429980D01*
X826359Y429994D01*
X826444Y430149D01*
X826500Y430318D01*
X826557Y430502D01*
X826585Y430671D01*
X826599Y430826D01*
X826613Y430967D01*
Y431079D01*
X826599Y431319D01*
X826571Y431516D01*
X826529Y431700D01*
X826472Y431841D01*
X826430Y431954D01*
X826388Y432038D01*
X826359Y432094D01*
X826345Y432109D01*
X826233Y432235D01*
X826092Y432334D01*
X825965Y432419D01*
X825824Y432489D01*
X825697Y432532D01*
X825598Y432560D01*
X825542Y432588D01*
X825514D01*
X825796Y434463D01*
X826148Y434336D01*
D02*
G37*
G36*
X827811Y424355D02*
X820735D01*
Y426230D01*
X827811D01*
Y424355D01*
D02*
G37*
G36*
X819790D02*
X818056D01*
Y426230D01*
X819790D01*
Y424355D01*
D02*
G37*
G36*
X842577Y421966D02*
X840927D01*
Y427407D01*
X838277D01*
Y422516D01*
X836628D01*
Y427407D01*
X834471D01*
Y422149D01*
X832822D01*
Y429381D01*
X842577D01*
Y421966D01*
D02*
G37*
G36*
X824499Y422833D02*
X824752Y422819D01*
X825203Y422748D01*
X825415Y422692D01*
X825612Y422635D01*
X825796Y422579D01*
X825951Y422523D01*
X826106Y422466D01*
X826233Y422410D01*
X826345Y422354D01*
X826444Y422297D01*
X826515Y422255D01*
X826571Y422227D01*
X826599Y422198D01*
X826613D01*
X826825Y422029D01*
X827008Y421860D01*
X827163Y421677D01*
X827304Y421493D01*
X827417Y421310D01*
X827515Y421113D01*
X827600Y420930D01*
X827656Y420760D01*
X827713Y420591D01*
X827741Y420436D01*
X827769Y420295D01*
X827797Y420182D01*
Y420084D01*
X827811Y419999D01*
Y419943D01*
X827797Y419703D01*
X827755Y419478D01*
X827699Y419266D01*
X827628Y419069D01*
X827445Y418716D01*
X827346Y418547D01*
X827233Y418406D01*
X827135Y418279D01*
X827036Y418153D01*
X826937Y418054D01*
X826853Y417983D01*
X826768Y417913D01*
X826712Y417871D01*
X826684Y417842D01*
X826670Y417828D01*
X827699D01*
X827910D01*
X828093Y417842D01*
X828234Y417856D01*
X828347Y417871D01*
X828446Y417899D01*
X828502Y417913D01*
X828530Y417927D01*
X828544D01*
X828657Y417983D01*
X828756Y418040D01*
X828840Y418096D01*
X828911Y418153D01*
X828967Y418209D01*
X828996Y418251D01*
X829010Y418279D01*
X829024Y418293D01*
X829094Y418449D01*
X829151Y418618D01*
X829193Y418801D01*
X829221Y418984D01*
X829235Y419139D01*
X829249Y419266D01*
Y419393D01*
X829235Y419590D01*
X829221Y419760D01*
X829179Y419901D01*
X829137Y420013D01*
X829108Y420112D01*
X829066Y420168D01*
X829052Y420211D01*
X829038Y420225D01*
X828981Y420295D01*
X828897Y420352D01*
X828728Y420422D01*
X828657Y420436D01*
X828587Y420450D01*
X828544Y420465D01*
X828530D01*
X828277Y422607D01*
X828361Y422621D01*
X828432D01*
X828488D01*
X828502D01*
X828671Y422607D01*
X828840Y422593D01*
X829151Y422509D01*
X829418Y422382D01*
X829644Y422241D01*
X829827Y422114D01*
X829954Y421987D01*
X830039Y421902D01*
X830053Y421888D01*
X830067Y421874D01*
X830180Y421719D01*
X830264Y421550D01*
X830349Y421353D01*
X830419Y421155D01*
X830532Y420732D01*
X830603Y420309D01*
X830631Y420112D01*
X830659Y419929D01*
X830673Y419760D01*
Y419619D01*
X830687Y419492D01*
Y419323D01*
X830673Y418984D01*
X830659Y418674D01*
X830617Y418406D01*
X830574Y418167D01*
X830546Y417983D01*
X830504Y417856D01*
X830490Y417772D01*
X830476Y417744D01*
X830391Y417518D01*
X830307Y417321D01*
X830208Y417152D01*
X830123Y417011D01*
X830053Y416912D01*
X829982Y416827D01*
X829940Y416771D01*
X829926Y416757D01*
X829785Y416616D01*
X829630Y416503D01*
X829461Y416404D01*
X829306Y416320D01*
X829165Y416250D01*
X829052Y416207D01*
X828981Y416179D01*
X828953Y416165D01*
X828826Y416123D01*
X828699Y416094D01*
X828403Y416038D01*
X828093Y416010D01*
X827783Y415982D01*
X827515Y415967D01*
X827403Y415953D01*
X827290D01*
X827205D01*
X827149D01*
X827107D01*
X827093D01*
X820735D01*
Y417701D01*
X821750D01*
X821538Y417871D01*
X821369Y418040D01*
X821200Y418223D01*
X821073Y418406D01*
X820960Y418590D01*
X820862Y418773D01*
X820791Y418942D01*
X820721Y419111D01*
X820678Y419266D01*
X820636Y419407D01*
X820622Y419548D01*
X820594Y419647D01*
Y419745D01*
X820580Y419816D01*
Y419872D01*
X820594Y420098D01*
X820622Y420323D01*
X820664Y420535D01*
X820721Y420746D01*
X820876Y421099D01*
X820960Y421268D01*
X821045Y421409D01*
X821143Y421550D01*
X821228Y421663D01*
X821299Y421761D01*
X821369Y421846D01*
X821440Y421917D01*
X821482Y421959D01*
X821510Y421987D01*
X821524Y422001D01*
X821707Y422156D01*
X821905Y422283D01*
X822130Y422396D01*
X822342Y422494D01*
X822567Y422565D01*
X822793Y422635D01*
X823244Y422734D01*
X823441Y422776D01*
X823639Y422805D01*
X823808Y422819D01*
X823949Y422833D01*
X824076Y422847D01*
X824160D01*
X824231D01*
X824245D01*
X824499Y422833D01*
D02*
G37*
G36*
X842577Y414593D02*
X832822D01*
Y416567D01*
X842577D01*
Y414593D01*
D02*
G37*
G36*
X827811Y412246D02*
X824625D01*
X824414D01*
X824217D01*
X824033Y412232D01*
X823878Y412218D01*
X823723D01*
X823596Y412204D01*
X823469Y412189D01*
X823371Y412175D01*
X823202Y412147D01*
X823089Y412133D01*
X823018Y412105D01*
X823004D01*
X822849Y412049D01*
X822694Y411964D01*
X822581Y411879D01*
X822469Y411795D01*
X822398Y411710D01*
X822328Y411640D01*
X822299Y411597D01*
X822285Y411583D01*
X822201Y411428D01*
X822130Y411273D01*
X822088Y411132D01*
X822046Y410991D01*
X822032Y410878D01*
X822018Y410794D01*
Y410709D01*
X822032Y410568D01*
X822046Y410442D01*
X822074Y410343D01*
X822116Y410244D01*
X822159Y410160D01*
X822187Y410103D01*
X822201Y410075D01*
X822215Y410061D01*
X822285Y409962D01*
X822370Y409892D01*
X822539Y409765D01*
X822624Y409723D01*
X822680Y409694D01*
X822722Y409666D01*
X822737D01*
X822807Y409638D01*
X822892Y409624D01*
X823103Y409596D01*
X823357Y409567D01*
X823596Y409553D01*
X823836Y409539D01*
X823935D01*
X824033D01*
X824104D01*
X824160D01*
X824203D01*
X824217D01*
X827811D01*
Y407664D01*
X823427D01*
X823131D01*
X822892Y407678D01*
X822666Y407693D01*
X822497Y407721D01*
X822356Y407735D01*
X822257Y407763D01*
X822187Y407777D01*
X822173D01*
X822003Y407820D01*
X821862Y407876D01*
X821721Y407932D01*
X821609Y408003D01*
X821510Y408059D01*
X821440Y408101D01*
X821397Y408130D01*
X821383Y408144D01*
X821256Y408256D01*
X821143Y408383D01*
X821045Y408510D01*
X820960Y408637D01*
X820890Y408750D01*
X820847Y408848D01*
X820819Y408905D01*
X820805Y408933D01*
X820735Y409131D01*
X820678Y409328D01*
X820636Y409511D01*
X820608Y409680D01*
X820594Y409835D01*
X820580Y409962D01*
Y410061D01*
X820594Y410315D01*
X820636Y410568D01*
X820692Y410794D01*
X820763Y411020D01*
X820862Y411231D01*
X820960Y411414D01*
X821073Y411597D01*
X821172Y411753D01*
X821284Y411894D01*
X821397Y412020D01*
X821496Y412133D01*
X821595Y412218D01*
X821665Y412288D01*
X821721Y412345D01*
X821764Y412373D01*
X821778Y412387D01*
X820735D01*
Y414121D01*
X827811D01*
Y412246D01*
D02*
G37*
G36*
X842577Y410886D02*
X836148D01*
X842577Y406924D01*
Y404951D01*
X832822D01*
Y406769D01*
X839391D01*
X832822Y410801D01*
Y412704D01*
X842577D01*
Y410886D01*
D02*
G37*
G36*
X824597Y406297D02*
X824865Y406283D01*
X825105Y406241D01*
X825330Y406198D01*
X825556Y406156D01*
X825753Y406086D01*
X825937Y406029D01*
X826106Y405959D01*
X826261Y405902D01*
X826388Y405832D01*
X826500Y405775D01*
X826599Y405733D01*
X826670Y405677D01*
X826726Y405648D01*
X826754Y405634D01*
X826768Y405620D01*
X826980Y405437D01*
X827163Y405254D01*
X827318Y405042D01*
X827459Y404817D01*
X827572Y404591D01*
X827671Y404366D01*
X827755Y404140D01*
X827811Y403915D01*
X827868Y403717D01*
X827896Y403520D01*
X827924Y403337D01*
X827952Y403181D01*
Y403055D01*
X827967Y402970D01*
Y402886D01*
X827938Y402477D01*
X827882Y402096D01*
X827797Y401772D01*
X827699Y401490D01*
X827642Y401363D01*
X827600Y401264D01*
X827558Y401166D01*
X827515Y401095D01*
X827473Y401039D01*
X827459Y400982D01*
X827431Y400968D01*
Y400954D01*
X827205Y400686D01*
X826966Y400447D01*
X826698Y400249D01*
X826444Y400094D01*
X826218Y399967D01*
X826120Y399925D01*
X826035Y399883D01*
X825965Y399855D01*
X825908Y399827D01*
X825880Y399812D01*
X825866D01*
X825556Y401673D01*
X825739Y401744D01*
X825908Y401814D01*
X826035Y401885D01*
X826148Y401969D01*
X826233Y402026D01*
X826289Y402082D01*
X826317Y402124D01*
X826331Y402138D01*
X826416Y402251D01*
X826472Y402378D01*
X826515Y402505D01*
X826543Y402618D01*
X826557Y402716D01*
X826571Y402801D01*
Y402871D01*
X826557Y403097D01*
X826500Y403308D01*
X826430Y403506D01*
X826345Y403661D01*
X826261Y403788D01*
X826190Y403872D01*
X826134Y403943D01*
X826120Y403957D01*
X825937Y404098D01*
X825725Y404197D01*
X825499Y404281D01*
X825302Y404338D01*
X825105Y404366D01*
X824964Y404380D01*
X824907Y404394D01*
X824865D01*
X824837D01*
X824823D01*
Y399714D01*
X824428D01*
X824076Y399742D01*
X823737Y399784D01*
X823427Y399841D01*
X823131Y399911D01*
X822878Y399981D01*
X822638Y400066D01*
X822426Y400151D01*
X822243Y400235D01*
X822074Y400320D01*
X821947Y400390D01*
X821834Y400461D01*
X821750Y400517D01*
X821679Y400560D01*
X821651Y400588D01*
X821637Y400602D01*
X821454Y400771D01*
X821284Y400968D01*
X821143Y401166D01*
X821031Y401363D01*
X820918Y401575D01*
X820833Y401786D01*
X820763Y401983D01*
X820706Y402181D01*
X820664Y402364D01*
X820636Y402533D01*
X820608Y402688D01*
X820594Y402815D01*
X820580Y402928D01*
Y403083D01*
X820594Y403337D01*
X820622Y403576D01*
X820678Y403816D01*
X820735Y404027D01*
X820805Y404239D01*
X820890Y404422D01*
X820988Y404605D01*
X821073Y404760D01*
X821172Y404901D01*
X821270Y405028D01*
X821355Y405141D01*
X821425Y405226D01*
X821482Y405296D01*
X821538Y405353D01*
X821566Y405381D01*
X821581Y405395D01*
X821778Y405550D01*
X821989Y405691D01*
X822201Y405818D01*
X822426Y405930D01*
X822666Y406015D01*
X822892Y406086D01*
X823329Y406198D01*
X823540Y406241D01*
X823723Y406269D01*
X823893Y406283D01*
X824033Y406297D01*
X824160Y406311D01*
X824259D01*
X824315D01*
X824330D01*
X824597Y406297D01*
D02*
G37*
G36*
X839701Y399552D02*
X839983Y399495D01*
X840251Y399411D01*
X840490Y399340D01*
X840716Y399241D01*
X840927Y399143D01*
X841111Y399044D01*
X841280Y398945D01*
X841421Y398847D01*
X841547Y398748D01*
X841660Y398663D01*
X841759Y398579D01*
X841830Y398522D01*
X841872Y398466D01*
X841900Y398438D01*
X841914Y398424D01*
X842069Y398227D01*
X842196Y398015D01*
X842309Y397789D01*
X842408Y397550D01*
X842478Y397324D01*
X842548Y397085D01*
X842647Y396619D01*
X842689Y396408D01*
X842718Y396211D01*
X842732Y396041D01*
X842746Y395886D01*
X842760Y395760D01*
Y395576D01*
X842746Y395125D01*
X842703Y394716D01*
X842647Y394350D01*
X842619Y394195D01*
X842577Y394040D01*
X842548Y393913D01*
X842520Y393800D01*
X842492Y393701D01*
X842464Y393617D01*
X842436Y393546D01*
X842422Y393504D01*
X842408Y393476D01*
Y393462D01*
X842252Y393152D01*
X842083Y392898D01*
X841914Y392658D01*
X841731Y392475D01*
X841576Y392334D01*
X841435Y392221D01*
X841350Y392165D01*
X841336Y392137D01*
X841322D01*
X841040Y391982D01*
X840772Y391855D01*
X840504Y391770D01*
X840251Y391714D01*
X840053Y391685D01*
X839955Y391671D01*
X839884Y391657D01*
X839828D01*
X839785D01*
X839757D01*
X839743D01*
X839405Y391671D01*
X839109Y391714D01*
X838841Y391784D01*
X838615Y391855D01*
X838432Y391925D01*
X838305Y391996D01*
X838221Y392038D01*
X838193Y392052D01*
X837967Y392207D01*
X837769Y392390D01*
X837600Y392574D01*
X837459Y392743D01*
X837347Y392898D01*
X837262Y393025D01*
X837206Y393109D01*
X837192Y393123D01*
Y393137D01*
X837121Y393278D01*
X837051Y393419D01*
X836924Y393758D01*
X836811Y394110D01*
X836698Y394449D01*
X836656Y394604D01*
X836614Y394759D01*
X836571Y394900D01*
X836543Y395012D01*
X836515Y395111D01*
X836501Y395182D01*
X836487Y395238D01*
Y395252D01*
X836416Y395506D01*
X836360Y395731D01*
X836303Y395943D01*
X836247Y396140D01*
X836191Y396295D01*
X836134Y396450D01*
X836078Y396577D01*
X836036Y396690D01*
X835993Y396789D01*
X835951Y396859D01*
X835923Y396930D01*
X835895Y396972D01*
X835852Y397042D01*
X835838Y397056D01*
X835740Y397155D01*
X835641Y397226D01*
X835542Y397268D01*
X835443Y397296D01*
X835373Y397324D01*
X835303Y397338D01*
X835260D01*
X835246D01*
X835105Y397324D01*
X834992Y397296D01*
X834880Y397240D01*
X834795Y397183D01*
X834725Y397127D01*
X834682Y397071D01*
X834654Y397042D01*
X834640Y397028D01*
X834513Y396831D01*
X834429Y396619D01*
X834358Y396394D01*
X834316Y396182D01*
X834288Y395999D01*
X834274Y395844D01*
Y395703D01*
X834288Y395407D01*
X834330Y395153D01*
X834386Y394942D01*
X834443Y394773D01*
X834499Y394632D01*
X834555Y394533D01*
X834598Y394477D01*
X834612Y394463D01*
X834753Y394322D01*
X834922Y394195D01*
X835091Y394096D01*
X835274Y394026D01*
X835429Y393969D01*
X835556Y393941D01*
X835655Y393913D01*
X835669D01*
X835683D01*
X835613Y391939D01*
X835359Y391953D01*
X835133Y391996D01*
X834908Y392052D01*
X834710Y392122D01*
X834513Y392193D01*
X834330Y392277D01*
X834175Y392362D01*
X834020Y392447D01*
X833893Y392545D01*
X833780Y392630D01*
X833681Y392715D01*
X833597Y392785D01*
X833540Y392841D01*
X833498Y392884D01*
X833470Y392912D01*
X833456Y392926D01*
X833315Y393109D01*
X833188Y393307D01*
X833075Y393518D01*
X832977Y393744D01*
X832906Y393969D01*
X832836Y394195D01*
X832737Y394646D01*
X832709Y394857D01*
X832681Y395041D01*
X832666Y395224D01*
X832652Y395379D01*
X832638Y395506D01*
Y395675D01*
X832652Y396084D01*
X832695Y396450D01*
X832751Y396774D01*
X832807Y397056D01*
X832850Y397183D01*
X832878Y397296D01*
X832906Y397381D01*
X832934Y397465D01*
X832962Y397522D01*
X832977Y397564D01*
X832991Y397592D01*
Y397606D01*
X833132Y397888D01*
X833287Y398128D01*
X833456Y398339D01*
X833611Y398508D01*
X833752Y398649D01*
X833865Y398734D01*
X833949Y398804D01*
X833963Y398819D01*
X833978D01*
X834217Y398960D01*
X834471Y399058D01*
X834710Y399129D01*
X834922Y399171D01*
X835105Y399199D01*
X835246Y399227D01*
X835303D01*
X835345D01*
X835359D01*
X835373D01*
X835584Y399213D01*
X835796Y399185D01*
X835979Y399143D01*
X836162Y399086D01*
X836501Y398945D01*
X836797Y398776D01*
X836924Y398706D01*
X837022Y398621D01*
X837121Y398551D01*
X837206Y398480D01*
X837262Y398424D01*
X837304Y398382D01*
X837333Y398353D01*
X837347Y398339D01*
X837445Y398212D01*
X837544Y398057D01*
X837643Y397902D01*
X837727Y397719D01*
X837896Y397366D01*
X838037Y397000D01*
X838094Y396817D01*
X838150Y396662D01*
X838193Y396507D01*
X838235Y396380D01*
X838263Y396281D01*
X838291Y396197D01*
X838305Y396140D01*
Y396126D01*
X838362Y395900D01*
X838418Y395703D01*
X838460Y395520D01*
X838503Y395351D01*
X838545Y395210D01*
X838573Y395083D01*
X838615Y394970D01*
X838644Y394871D01*
X838658Y394787D01*
X838686Y394716D01*
X838714Y394618D01*
X838742Y394561D01*
Y394547D01*
X838813Y394364D01*
X838883Y394223D01*
X838954Y394096D01*
X839024Y393997D01*
X839081Y393927D01*
X839123Y393885D01*
X839151Y393856D01*
X839165Y393842D01*
X839264Y393772D01*
X839362Y393715D01*
X839461Y393687D01*
X839546Y393659D01*
X839630Y393645D01*
X839701Y393631D01*
X839743D01*
X839757D01*
X839955Y393645D01*
X840124Y393701D01*
X840293Y393786D01*
X840434Y393871D01*
X840547Y393969D01*
X840631Y394040D01*
X840688Y394096D01*
X840702Y394124D01*
X840829Y394322D01*
X840927Y394547D01*
X840998Y394787D01*
X841040Y395012D01*
X841068Y395224D01*
X841096Y395393D01*
Y395548D01*
X841082Y395872D01*
X841026Y396154D01*
X840956Y396394D01*
X840871Y396605D01*
X840786Y396774D01*
X840716Y396887D01*
X840659Y396958D01*
X840645Y396986D01*
X840448Y397169D01*
X840237Y397310D01*
X839997Y397437D01*
X839757Y397522D01*
X839546Y397592D01*
X839377Y397649D01*
X839320Y397663D01*
X839264D01*
X839236Y397677D01*
X839221D01*
X839405Y399594D01*
X839701Y399552D01*
D02*
G37*
G36*
X824583Y398586D02*
X824879Y398558D01*
X825161Y398515D01*
X825429Y398459D01*
X825669Y398403D01*
X825894Y398332D01*
X826092Y398248D01*
X826275Y398163D01*
X826444Y398092D01*
X826585Y398008D01*
X826712Y397938D01*
X826811Y397867D01*
X826895Y397825D01*
X826952Y397782D01*
X826980Y397754D01*
X826994Y397740D01*
X827163Y397571D01*
X827318Y397402D01*
X827445Y397219D01*
X827558Y397049D01*
X827656Y396866D01*
X827727Y396697D01*
X827797Y396528D01*
X827840Y396373D01*
X827882Y396218D01*
X827910Y396077D01*
X827938Y395964D01*
X827952Y395851D01*
X827967Y395766D01*
Y395654D01*
X827952Y395428D01*
X827924Y395217D01*
X827882Y395005D01*
X827825Y394822D01*
X827769Y394681D01*
X827727Y394554D01*
X827699Y394484D01*
X827685Y394455D01*
X827558Y394244D01*
X827417Y394047D01*
X827262Y393863D01*
X827121Y393722D01*
X826994Y393596D01*
X826881Y393497D01*
X826811Y393441D01*
X826782Y393426D01*
X827811D01*
Y391693D01*
X818056D01*
Y393567D01*
X821566D01*
X821397Y393737D01*
X821242Y393906D01*
X821115Y394075D01*
X820988Y394258D01*
X820904Y394427D01*
X820819Y394596D01*
X820749Y394766D01*
X820706Y394921D01*
X820664Y395076D01*
X820636Y395203D01*
X820608Y395330D01*
X820594Y395428D01*
X820580Y395513D01*
Y395625D01*
X820594Y395865D01*
X820622Y396091D01*
X820664Y396302D01*
X820721Y396514D01*
X820876Y396866D01*
X820960Y397035D01*
X821045Y397176D01*
X821143Y397317D01*
X821228Y397430D01*
X821299Y397529D01*
X821369Y397613D01*
X821440Y397684D01*
X821482Y397726D01*
X821510Y397754D01*
X821524Y397768D01*
X821707Y397909D01*
X821905Y398036D01*
X822116Y398149D01*
X822342Y398248D01*
X822567Y398332D01*
X822793Y398403D01*
X823244Y398501D01*
X823441Y398530D01*
X823639Y398558D01*
X823808Y398572D01*
X823963Y398586D01*
X824090Y398600D01*
X824174D01*
X824245D01*
X824259D01*
X824583Y398586D01*
D02*
G37*
G36*
X827811Y384404D02*
X826782D01*
X826994Y384235D01*
X827177Y384066D01*
X827318Y383897D01*
X827445Y383742D01*
X827544Y383601D01*
X827614Y383488D01*
X827656Y383418D01*
X827671Y383389D01*
X827769Y383164D01*
X827840Y382952D01*
X827896Y382755D01*
X827924Y382572D01*
X827952Y382417D01*
X827967Y382290D01*
Y382191D01*
X827952Y381966D01*
X827924Y381740D01*
X827882Y381543D01*
X827811Y381345D01*
X827656Y380979D01*
X827572Y380824D01*
X827473Y380669D01*
X827389Y380542D01*
X827304Y380429D01*
X827219Y380330D01*
X827149Y380246D01*
X827078Y380175D01*
X827036Y380133D01*
X827008Y380105D01*
X826994Y380091D01*
X826796Y379936D01*
X826599Y379809D01*
X826374Y379682D01*
X826148Y379583D01*
X825908Y379499D01*
X825683Y379428D01*
X825232Y379329D01*
X825020Y379287D01*
X824823Y379259D01*
X824654Y379245D01*
X824499Y379231D01*
X824372Y379217D01*
X824287D01*
X824217D01*
X824203D01*
X823878Y379231D01*
X823582Y379259D01*
X823300Y379301D01*
X823047Y379343D01*
X822807Y379414D01*
X822581Y379484D01*
X822384Y379569D01*
X822201Y379640D01*
X822046Y379724D01*
X821905Y379809D01*
X821792Y379879D01*
X821693Y379936D01*
X821623Y379992D01*
X821566Y380034D01*
X821538Y380062D01*
X821524Y380077D01*
X821355Y380246D01*
X821214Y380415D01*
X821087Y380584D01*
X820974Y380767D01*
X820890Y380951D01*
X820805Y381120D01*
X820692Y381458D01*
X820664Y381627D01*
X820636Y381768D01*
X820608Y381895D01*
X820594Y382008D01*
X820580Y382092D01*
Y382219D01*
X820594Y382431D01*
X820622Y382642D01*
X820664Y382854D01*
X820735Y383037D01*
X820890Y383389D01*
X821073Y383685D01*
X821158Y383812D01*
X821256Y383925D01*
X821341Y384024D01*
X821411Y384108D01*
X821482Y384179D01*
X821524Y384221D01*
X821552Y384249D01*
X821566Y384263D01*
X818056D01*
Y386138D01*
X827811D01*
Y384404D01*
D02*
G37*
G36*
X842577Y388626D02*
Y386484D01*
X835288Y384538D01*
X842577Y382621D01*
Y380492D01*
X832822Y378138D01*
Y380126D01*
X839644Y381620D01*
X832822Y383312D01*
Y385680D01*
X839532Y387456D01*
X832822Y388922D01*
Y390938D01*
X842577Y388626D01*
D02*
G37*
G36*
Y375206D02*
X832822D01*
Y377180D01*
X842577D01*
Y375206D01*
D02*
G37*
G36*
X827825Y375932D02*
X828037Y376003D01*
X828220Y376073D01*
X828389Y376158D01*
X828530Y376228D01*
X828643Y376299D01*
X828728Y376355D01*
X828784Y376397D01*
X828798Y376411D01*
X828925Y376538D01*
X829024Y376693D01*
X829094Y376848D01*
X829137Y377003D01*
X829165Y377144D01*
X829193Y377257D01*
Y377370D01*
X829179Y377638D01*
X829165Y377779D01*
X829137Y377892D01*
X829122Y378004D01*
X829108Y378089D01*
X829094Y378145D01*
Y378159D01*
X830560Y377990D01*
X830631Y377610D01*
X830659Y377440D01*
X830673Y377271D01*
Y377144D01*
X830687Y377032D01*
Y376750D01*
X830673Y376566D01*
X830645Y376411D01*
X830617Y376270D01*
X830603Y376143D01*
X830574Y376059D01*
X830560Y376003D01*
Y375988D01*
X830518Y375833D01*
X830462Y375692D01*
X830405Y375580D01*
X830363Y375481D01*
X830321Y375396D01*
X830278Y375340D01*
X830264Y375298D01*
X830250Y375284D01*
X830081Y375072D01*
X829912Y374917D01*
X829827Y374861D01*
X829771Y374818D01*
X829729Y374790D01*
X829715Y374776D01*
X829574Y374692D01*
X829433Y374607D01*
X829277Y374522D01*
X829122Y374452D01*
X828981Y374395D01*
X828869Y374339D01*
X828798Y374311D01*
X828770Y374297D01*
X827558Y373846D01*
X820735Y371351D01*
Y373282D01*
X825767Y374945D01*
X820735Y376623D01*
Y378610D01*
X827825Y375932D01*
D02*
G37*
G36*
X834471Y371118D02*
X842577D01*
Y369144D01*
X834471D01*
Y366269D01*
X832822D01*
Y374008D01*
X834471D01*
Y371118D01*
D02*
G37*
G36*
X842577Y357909D02*
X840927D01*
Y363463D01*
X834358Y358120D01*
X832822D01*
Y365254D01*
X834471D01*
Y360700D01*
X840800Y365846D01*
X842577D01*
Y357909D01*
D02*
G37*
G36*
X823850Y366346D02*
X824118D01*
X824358Y366332D01*
X824583Y366318D01*
X824781Y366304D01*
X824964Y366290D01*
X825133Y366261D01*
X825274Y366247D01*
X825401Y366233D01*
X825514Y366219D01*
X825598Y366205D01*
X825669Y366191D01*
X825711D01*
X825739Y366177D01*
X825753D01*
X825965Y366106D01*
X826162Y366036D01*
X826345Y365937D01*
X826500Y365853D01*
X826641Y365768D01*
X826754Y365698D01*
X826811Y365641D01*
X826839Y365627D01*
X827022Y365458D01*
X827191Y365275D01*
X827332Y365077D01*
X827459Y364894D01*
X827558Y364739D01*
X827628Y364598D01*
X827671Y364514D01*
X827685Y364499D01*
Y364485D01*
X827741Y364344D01*
X827783Y364189D01*
X827868Y363837D01*
X827924Y363484D01*
X827952Y363146D01*
X827967Y362991D01*
X827981Y362836D01*
Y362709D01*
X827995Y362582D01*
Y362357D01*
X827981Y361948D01*
X827952Y361581D01*
X827896Y361257D01*
X827840Y360989D01*
X827825Y360876D01*
X827797Y360764D01*
X827769Y360679D01*
X827741Y360609D01*
X827727Y360552D01*
X827713Y360510D01*
X827699Y360496D01*
Y360482D01*
X827586Y360228D01*
X827445Y360002D01*
X827318Y359805D01*
X827191Y359636D01*
X827078Y359509D01*
X826994Y359410D01*
X826937Y359354D01*
X826909Y359340D01*
X826712Y359185D01*
X826500Y359058D01*
X826303Y358959D01*
X826106Y358875D01*
X825937Y358818D01*
X825796Y358776D01*
X825753Y358762D01*
X825711D01*
X825697Y358748D01*
X825683D01*
X825528Y358720D01*
X825359Y358691D01*
X825175Y358663D01*
X824992Y358649D01*
X824569Y358621D01*
X824160Y358593D01*
X823977D01*
X823794D01*
X823625Y358579D01*
X823484D01*
X823371D01*
X823272D01*
X823216D01*
X823202D01*
X818056D01*
Y360552D01*
X823469D01*
X823681D01*
X823878D01*
X824062Y360566D01*
X824231D01*
X824372Y360580D01*
X824513D01*
X824640Y360594D01*
X824752D01*
X824921Y360623D01*
X825048Y360637D01*
X825119Y360651D01*
X825147D01*
X825330Y360693D01*
X825485Y360764D01*
X825626Y360848D01*
X825753Y360933D01*
X825852Y361017D01*
X825922Y361088D01*
X825965Y361144D01*
X825979Y361158D01*
X826092Y361328D01*
X826176Y361539D01*
X826233Y361736D01*
X826275Y361948D01*
X826303Y362131D01*
X826317Y362272D01*
Y362413D01*
X826303Y362709D01*
X826261Y362963D01*
X826204Y363188D01*
X826134Y363386D01*
X826077Y363527D01*
X826021Y363639D01*
X825979Y363696D01*
X825965Y363724D01*
X825824Y363879D01*
X825655Y364006D01*
X825499Y364119D01*
X825344Y364189D01*
X825203Y364246D01*
X825091Y364288D01*
X825020Y364316D01*
X824992D01*
X824907Y364330D01*
X824823Y364344D01*
X824710D01*
X824583Y364358D01*
X824315Y364372D01*
X824033D01*
X823780Y364387D01*
X823667D01*
X823554D01*
X823469D01*
X823413D01*
X823371D01*
X823357D01*
X818056D01*
Y366360D01*
X823272D01*
X823568D01*
X823850Y366346D01*
D02*
G37*
G36*
X842577Y349239D02*
X840927D01*
Y354681D01*
X838277D01*
Y349789D01*
X836628D01*
Y354681D01*
X834471D01*
Y349423D01*
X832822D01*
Y356654D01*
X842577D01*
Y349239D01*
D02*
G37*
G36*
X827811Y349077D02*
X826162D01*
Y354519D01*
X823512D01*
Y349627D01*
X821862D01*
Y354519D01*
X819706D01*
Y349260D01*
X818056D01*
Y356492D01*
X827811D01*
Y349077D01*
D02*
G37*
G36*
X829982Y347259D02*
X829898Y347047D01*
X829799Y346850D01*
X829700Y346681D01*
X829602Y346540D01*
X829517Y346427D01*
X829447Y346342D01*
X829404Y346286D01*
X829390Y346272D01*
X829249Y346131D01*
X829108Y346018D01*
X828967Y345934D01*
X828826Y345849D01*
X828714Y345807D01*
X828629Y345765D01*
X828559Y345736D01*
X828544D01*
X828361Y345694D01*
X828150Y345652D01*
X827938Y345624D01*
X827741Y345609D01*
X827558Y345595D01*
X827403D01*
X827346D01*
X827304D01*
X827290D01*
X827276D01*
X825937D01*
Y347470D01*
X827811D01*
Y346554D01*
X828009Y346568D01*
X828178Y346596D01*
X828333Y346638D01*
X828460Y346695D01*
X828559Y346737D01*
X828629Y346779D01*
X828671Y346808D01*
X828685Y346822D01*
X828798Y346920D01*
X828897Y347047D01*
X828996Y347174D01*
X829066Y347315D01*
X829122Y347428D01*
X829165Y347527D01*
X829193Y347597D01*
X829207Y347625D01*
X829982Y347259D01*
D02*
G37*
G36*
X842577Y345588D02*
X838503D01*
Y344954D01*
X838517Y344757D01*
X838531Y344587D01*
X838559Y344446D01*
X838573Y344334D01*
X838601Y344263D01*
X838615Y344221D01*
Y344207D01*
X838672Y344094D01*
X838728Y343981D01*
X838799Y343882D01*
X838855Y343784D01*
X838925Y343713D01*
X838982Y343657D01*
X839010Y343629D01*
X839024Y343615D01*
X839095Y343558D01*
X839165Y343488D01*
X839377Y343333D01*
X839602Y343164D01*
X839856Y342980D01*
X840081Y342825D01*
X840194Y342755D01*
X840279Y342698D01*
X840349Y342642D01*
X840406Y342600D01*
X840448Y342586D01*
X840462Y342571D01*
X842577Y341162D01*
Y338793D01*
X840674Y339992D01*
X840476Y340119D01*
X840279Y340246D01*
X840110Y340358D01*
X839955Y340471D01*
X839814Y340570D01*
X839673Y340654D01*
X839461Y340824D01*
X839292Y340950D01*
X839179Y341035D01*
X839109Y341105D01*
X839095Y341119D01*
X838925Y341275D01*
X838770Y341458D01*
X838644Y341627D01*
X838517Y341796D01*
X838418Y341937D01*
X838347Y342050D01*
X838291Y342135D01*
X838277Y342149D01*
Y342163D01*
X838235Y341923D01*
X838178Y341712D01*
X838122Y341514D01*
X838052Y341317D01*
X837981Y341148D01*
X837911Y340993D01*
X837840Y340838D01*
X837755Y340711D01*
X837685Y340598D01*
X837615Y340499D01*
X837544Y340415D01*
X837488Y340358D01*
X837445Y340302D01*
X837403Y340260D01*
X837389Y340246D01*
X837375Y340231D01*
X837234Y340119D01*
X837093Y340020D01*
X836783Y339851D01*
X836487Y339738D01*
X836191Y339668D01*
X835937Y339611D01*
X835838Y339597D01*
X835740D01*
X835669Y339583D01*
X835599D01*
X835570D01*
X835556D01*
X835246Y339597D01*
X834950Y339653D01*
X834696Y339724D01*
X834471Y339794D01*
X834288Y339879D01*
X834147Y339949D01*
X834104Y339978D01*
X834062Y340006D01*
X834048Y340020D01*
X834034D01*
X833794Y340189D01*
X833597Y340372D01*
X833442Y340556D01*
X833301Y340739D01*
X833216Y340908D01*
X833146Y341035D01*
X833103Y341119D01*
X833089Y341134D01*
Y341148D01*
X833047Y341289D01*
X833005Y341444D01*
X832934Y341796D01*
X832892Y342177D01*
X832850Y342543D01*
Y342727D01*
X832836Y342882D01*
Y343037D01*
X832822Y343164D01*
Y347562D01*
X842577D01*
Y345588D01*
D02*
G37*
G36*
X827811Y333923D02*
X826077D01*
Y337645D01*
X825894Y337532D01*
X825739Y337405D01*
X825669Y337349D01*
X825612Y337306D01*
X825584Y337278D01*
X825570Y337264D01*
X825514Y337208D01*
X825443Y337151D01*
X825288Y336982D01*
X825105Y336799D01*
X824921Y336615D01*
X824752Y336432D01*
X824611Y336277D01*
X824555Y336221D01*
X824513Y336179D01*
X824499Y336150D01*
X824484Y336136D01*
X824189Y335826D01*
X823949Y335572D01*
X823723Y335361D01*
X823554Y335192D01*
X823413Y335065D01*
X823315Y334980D01*
X823244Y334924D01*
X823230Y334910D01*
X822990Y334726D01*
X822765Y334571D01*
X822553Y334445D01*
X822370Y334346D01*
X822215Y334261D01*
X822088Y334205D01*
X822018Y334177D01*
X821989Y334163D01*
X821764Y334078D01*
X821538Y334022D01*
X821327Y333979D01*
X821129Y333951D01*
X820974Y333937D01*
X820847Y333923D01*
X820763D01*
X820735D01*
X820523Y333937D01*
X820312Y333965D01*
X820115Y333993D01*
X819931Y334050D01*
X819607Y334191D01*
X819325Y334332D01*
X819198Y334416D01*
X819100Y334487D01*
X819001Y334557D01*
X818930Y334628D01*
X818874Y334684D01*
X818818Y334712D01*
X818803Y334741D01*
X818789Y334755D01*
X818648Y334910D01*
X818521Y335093D01*
X818423Y335262D01*
X818338Y335460D01*
X818197Y335826D01*
X818099Y336193D01*
X818070Y336362D01*
X818042Y336517D01*
X818028Y336658D01*
X818014Y336785D01*
X818000Y336883D01*
Y337024D01*
X818014Y337264D01*
X818028Y337490D01*
X818099Y337926D01*
X818211Y338293D01*
X818268Y338462D01*
X818338Y338617D01*
X818395Y338758D01*
X818465Y338871D01*
X818521Y338984D01*
X818564Y339068D01*
X818620Y339139D01*
X818648Y339181D01*
X818662Y339209D01*
X818677Y339224D01*
X818818Y339379D01*
X818959Y339520D01*
X819128Y339646D01*
X819311Y339759D01*
X819678Y339928D01*
X820030Y340069D01*
X820213Y340112D01*
X820368Y340154D01*
X820509Y340196D01*
X820636Y340210D01*
X820749Y340238D01*
X820819D01*
X820876Y340252D01*
X820890D01*
X821073Y338392D01*
X820791Y338363D01*
X820552Y338307D01*
X820340Y338251D01*
X820185Y338180D01*
X820058Y338124D01*
X819974Y338068D01*
X819917Y338025D01*
X819903Y338011D01*
X819790Y337870D01*
X819706Y337715D01*
X819635Y337560D01*
X819593Y337405D01*
X819565Y337278D01*
X819551Y337165D01*
Y337067D01*
X819565Y336855D01*
X819607Y336672D01*
X819663Y336517D01*
X819720Y336376D01*
X819776Y336277D01*
X819833Y336193D01*
X819875Y336150D01*
X819889Y336136D01*
X820030Y336023D01*
X820185Y335939D01*
X820340Y335882D01*
X820495Y335840D01*
X820636Y335812D01*
X820763Y335798D01*
X820833D01*
X820847D01*
X820862D01*
X821073Y335812D01*
X821270Y335854D01*
X821468Y335925D01*
X821637Y335995D01*
X821792Y336066D01*
X821905Y336136D01*
X821975Y336179D01*
X822003Y336193D01*
X822088Y336249D01*
X822187Y336334D01*
X822314Y336446D01*
X822426Y336559D01*
X822694Y336813D01*
X822962Y337067D01*
X823216Y337320D01*
X823329Y337433D01*
X823413Y337546D01*
X823498Y337631D01*
X823554Y337687D01*
X823596Y337729D01*
X823611Y337743D01*
X823878Y338025D01*
X824132Y338279D01*
X824372Y338519D01*
X824583Y338730D01*
X824795Y338927D01*
X824992Y339097D01*
X825161Y339252D01*
X825330Y339379D01*
X825471Y339491D01*
X825598Y339590D01*
X825697Y339675D01*
X825796Y339731D01*
X825852Y339787D01*
X825908Y339815D01*
X825937Y339844D01*
X825951D01*
X826275Y340027D01*
X826613Y340168D01*
X826923Y340281D01*
X827205Y340365D01*
X827459Y340422D01*
X827558Y340436D01*
X827642Y340450D01*
X827713Y340464D01*
X827769Y340478D01*
X827797D01*
X827811D01*
Y333923D01*
D02*
G37*
G36*
X842577Y330801D02*
X840927D01*
Y335706D01*
X832892D01*
Y337680D01*
X842577D01*
Y330801D01*
D02*
G37*
G36*
X823498Y332640D02*
X823963Y332612D01*
X824400Y332570D01*
X824795Y332513D01*
X825147Y332457D01*
X825471Y332386D01*
X825753Y332302D01*
X826007Y332217D01*
X826218Y332147D01*
X826416Y332062D01*
X826571Y331992D01*
X826698Y331921D01*
X826782Y331879D01*
X826853Y331837D01*
X826895Y331808D01*
X826909Y331794D01*
X827107Y331625D01*
X827262Y331442D01*
X827417Y331259D01*
X827530Y331061D01*
X827642Y330878D01*
X827727Y330681D01*
X827797Y330497D01*
X827854Y330314D01*
X827910Y330145D01*
X827938Y329990D01*
X827967Y329849D01*
X827981Y329736D01*
Y329637D01*
X827995Y329553D01*
Y329496D01*
X827981Y329243D01*
X827952Y329003D01*
X827896Y328764D01*
X827840Y328552D01*
X827769Y328355D01*
X827685Y328171D01*
X827586Y328016D01*
X827487Y327861D01*
X827403Y327734D01*
X827304Y327607D01*
X827219Y327509D01*
X827149Y327424D01*
X827093Y327368D01*
X827036Y327326D01*
X827008Y327297D01*
X826994Y327283D01*
X826754Y327114D01*
X826472Y326973D01*
X826176Y326832D01*
X825852Y326734D01*
X825528Y326635D01*
X825203Y326564D01*
X824865Y326494D01*
X824541Y326437D01*
X824231Y326409D01*
X823949Y326381D01*
X823681Y326353D01*
X823456Y326339D01*
X823272Y326325D01*
X823131D01*
X823075D01*
X823033D01*
X823018D01*
X823004D01*
X822497Y326339D01*
X822032Y326367D01*
X821609Y326409D01*
X821214Y326480D01*
X820847Y326550D01*
X820523Y326621D01*
X820227Y326719D01*
X819974Y326804D01*
X819734Y326889D01*
X819551Y326973D01*
X819381Y327058D01*
X819240Y327128D01*
X819142Y327199D01*
X819071Y327241D01*
X819029Y327269D01*
X819015Y327283D01*
X818832Y327438D01*
X818677Y327607D01*
X818550Y327791D01*
X818423Y327974D01*
X818324Y328157D01*
X818254Y328341D01*
X818183Y328510D01*
X818127Y328693D01*
X818084Y328862D01*
X818056Y329003D01*
X818028Y329144D01*
X818014Y329257D01*
X818000Y329356D01*
Y329496D01*
X818014Y329750D01*
X818042Y329990D01*
X818099Y330230D01*
X818155Y330441D01*
X818240Y330638D01*
X818324Y330822D01*
X818409Y330977D01*
X818507Y331132D01*
X818606Y331259D01*
X818691Y331385D01*
X818775Y331484D01*
X818860Y331555D01*
X818916Y331625D01*
X818973Y331668D01*
X819001Y331696D01*
X819015Y331710D01*
X819255Y331879D01*
X819537Y332020D01*
X819833Y332147D01*
X820143Y332259D01*
X820467Y332344D01*
X820805Y332429D01*
X821129Y332485D01*
X821454Y332542D01*
X821764Y332570D01*
X822046Y332598D01*
X822314Y332626D01*
X822539Y332640D01*
X822722Y332654D01*
X822863D01*
X822920D01*
X822962D01*
X822976D01*
X822990D01*
X823498Y332640D01*
D02*
G37*
G36*
X827811Y318755D02*
X826077D01*
Y322476D01*
X825894Y322363D01*
X825739Y322237D01*
X825669Y322180D01*
X825612Y322138D01*
X825584Y322110D01*
X825570Y322096D01*
X825514Y322039D01*
X825443Y321983D01*
X825288Y321814D01*
X825105Y321630D01*
X824921Y321447D01*
X824752Y321264D01*
X824611Y321109D01*
X824555Y321052D01*
X824513Y321010D01*
X824499Y320982D01*
X824484Y320968D01*
X824189Y320658D01*
X823949Y320404D01*
X823723Y320192D01*
X823554Y320023D01*
X823413Y319897D01*
X823315Y319812D01*
X823244Y319755D01*
X823230Y319741D01*
X822990Y319558D01*
X822765Y319403D01*
X822553Y319276D01*
X822370Y319177D01*
X822215Y319093D01*
X822088Y319037D01*
X822018Y319008D01*
X821989Y318994D01*
X821764Y318910D01*
X821538Y318853D01*
X821327Y318811D01*
X821129Y318783D01*
X820974Y318769D01*
X820847Y318755D01*
X820763D01*
X820735D01*
X820523Y318769D01*
X820312Y318797D01*
X820115Y318825D01*
X819931Y318881D01*
X819607Y319023D01*
X819325Y319163D01*
X819198Y319248D01*
X819100Y319319D01*
X819001Y319389D01*
X818930Y319459D01*
X818874Y319516D01*
X818818Y319544D01*
X818803Y319572D01*
X818789Y319586D01*
X818648Y319741D01*
X818521Y319925D01*
X818423Y320094D01*
X818338Y320291D01*
X818197Y320658D01*
X818099Y321024D01*
X818070Y321193D01*
X818042Y321348D01*
X818028Y321489D01*
X818014Y321616D01*
X818000Y321715D01*
Y321856D01*
X818014Y322096D01*
X818028Y322321D01*
X818099Y322758D01*
X818211Y323125D01*
X818268Y323294D01*
X818338Y323449D01*
X818395Y323590D01*
X818465Y323703D01*
X818521Y323815D01*
X818564Y323900D01*
X818620Y323970D01*
X818648Y324013D01*
X818662Y324041D01*
X818677Y324055D01*
X818818Y324210D01*
X818959Y324351D01*
X819128Y324478D01*
X819311Y324591D01*
X819678Y324760D01*
X820030Y324901D01*
X820213Y324943D01*
X820368Y324986D01*
X820509Y325028D01*
X820636Y325042D01*
X820749Y325070D01*
X820819D01*
X820876Y325084D01*
X820890D01*
X821073Y323223D01*
X820791Y323195D01*
X820552Y323139D01*
X820340Y323082D01*
X820185Y323012D01*
X820058Y322956D01*
X819974Y322899D01*
X819917Y322857D01*
X819903Y322843D01*
X819790Y322702D01*
X819706Y322547D01*
X819635Y322392D01*
X819593Y322237D01*
X819565Y322110D01*
X819551Y321997D01*
Y321898D01*
X819565Y321687D01*
X819607Y321503D01*
X819663Y321348D01*
X819720Y321208D01*
X819776Y321109D01*
X819833Y321024D01*
X819875Y320982D01*
X819889Y320968D01*
X820030Y320855D01*
X820185Y320770D01*
X820340Y320714D01*
X820495Y320672D01*
X820636Y320644D01*
X820763Y320630D01*
X820833D01*
X820847D01*
X820862D01*
X821073Y320644D01*
X821270Y320686D01*
X821468Y320756D01*
X821637Y320827D01*
X821792Y320897D01*
X821905Y320968D01*
X821975Y321010D01*
X822003Y321024D01*
X822088Y321081D01*
X822187Y321165D01*
X822314Y321278D01*
X822426Y321391D01*
X822694Y321645D01*
X822962Y321898D01*
X823216Y322152D01*
X823329Y322265D01*
X823413Y322378D01*
X823498Y322462D01*
X823554Y322519D01*
X823596Y322561D01*
X823611Y322575D01*
X823878Y322857D01*
X824132Y323111D01*
X824372Y323350D01*
X824583Y323562D01*
X824795Y323759D01*
X824992Y323928D01*
X825161Y324083D01*
X825330Y324210D01*
X825471Y324323D01*
X825598Y324422D01*
X825697Y324506D01*
X825796Y324563D01*
X825852Y324619D01*
X825908Y324647D01*
X825937Y324675D01*
X825951D01*
X826275Y324859D01*
X826613Y325000D01*
X826923Y325112D01*
X827205Y325197D01*
X827459Y325253D01*
X827558Y325267D01*
X827642Y325281D01*
X827713Y325296D01*
X827769Y325310D01*
X827797D01*
X827811D01*
Y318755D01*
D02*
G37*
G36*
X842577Y328305D02*
X840363Y327502D01*
Y323583D01*
X842577Y322737D01*
Y320608D01*
X832822Y324527D01*
Y326614D01*
X842577Y330392D01*
Y328305D01*
D02*
G37*
G36*
Y317733D02*
X836148D01*
X842577Y313771D01*
Y311798D01*
X832822D01*
Y313616D01*
X839391D01*
X832822Y317648D01*
Y319551D01*
X842577D01*
Y317733D01*
D02*
G37*
G36*
X825852Y313807D02*
X827811D01*
Y312002D01*
X825852D01*
Y310790D01*
X824217D01*
Y312002D01*
X818014D01*
Y313581D01*
X824231Y317810D01*
X825852D01*
Y313807D01*
D02*
G37*
G36*
X842577Y306018D02*
X842562Y305637D01*
X842548Y305285D01*
X842520Y304989D01*
X842478Y304749D01*
X842436Y304552D01*
X842408Y304397D01*
X842393Y304354D01*
Y304312D01*
X842379Y304298D01*
Y304284D01*
X842266Y303974D01*
X842140Y303692D01*
X842013Y303466D01*
X841886Y303269D01*
X841773Y303114D01*
X841689Y303001D01*
X841632Y302931D01*
X841604Y302903D01*
X841336Y302663D01*
X841054Y302451D01*
X840758Y302268D01*
X840490Y302127D01*
X840237Y302014D01*
X840138Y301958D01*
X840053Y301930D01*
X839969Y301902D01*
X839912Y301873D01*
X839884Y301859D01*
X839870D01*
X839532Y301761D01*
X839179Y301676D01*
X838841Y301620D01*
X838517Y301591D01*
X838362Y301577D01*
X838221Y301563D01*
X838108D01*
X837995Y301549D01*
X837911D01*
X837854D01*
X837812D01*
X837798D01*
X837304Y301563D01*
X836867Y301606D01*
X836656Y301620D01*
X836473Y301648D01*
X836289Y301676D01*
X836134Y301704D01*
X835993Y301747D01*
X835866Y301775D01*
X835754Y301803D01*
X835669Y301817D01*
X835599Y301845D01*
X835542Y301859D01*
X835514Y301873D01*
X835500D01*
X835162Y302000D01*
X834852Y302155D01*
X834584Y302311D01*
X834358Y302465D01*
X834175Y302592D01*
X834034Y302705D01*
X833949Y302776D01*
X833921Y302790D01*
Y302804D01*
X833696Y303043D01*
X833512Y303283D01*
X833357Y303537D01*
X833230Y303762D01*
X833132Y303960D01*
X833061Y304129D01*
X833047Y304185D01*
X833033Y304228D01*
X833019Y304256D01*
Y304270D01*
X832948Y304538D01*
X832906Y304834D01*
X832864Y305144D01*
X832850Y305440D01*
X832836Y305708D01*
X832822Y305821D01*
Y309711D01*
X842577D01*
Y306018D01*
D02*
G37*
%LPC*%
G36*
X838187Y157026D02*
X835706D01*
Y154771D01*
X835720Y154644D01*
Y154334D01*
X835734Y154207D01*
Y154122D01*
X835748Y154080D01*
Y154066D01*
X835790Y153897D01*
X835847Y153742D01*
X835903Y153615D01*
X835974Y153516D01*
X836044Y153432D01*
X836086Y153361D01*
X836129Y153333D01*
X836143Y153319D01*
X836255Y153234D01*
X836396Y153164D01*
X836523Y153122D01*
X836650Y153079D01*
X836763Y153065D01*
X836848Y153051D01*
X836904D01*
X836932D01*
X837087Y153065D01*
X837228Y153079D01*
X837355Y153122D01*
X837468Y153150D01*
X837552Y153192D01*
X837609Y153234D01*
X837651Y153248D01*
X837665Y153263D01*
X837764Y153347D01*
X837849Y153432D01*
X837975Y153615D01*
X838018Y153685D01*
X838046Y153756D01*
X838074Y153798D01*
Y153812D01*
X838088Y153883D01*
X838116Y153996D01*
X838130Y154108D01*
X838145Y154235D01*
X838159Y154531D01*
X838173Y154827D01*
X838187Y155109D01*
Y157026D01*
D02*
G37*
G36*
X839681Y147779D02*
X839413Y147765D01*
X839174Y147722D01*
X838962Y147666D01*
X838793Y147581D01*
X838652Y147511D01*
X838553Y147441D01*
X838483Y147398D01*
X838469Y147384D01*
X838314Y147229D01*
X838201Y147060D01*
X838130Y146891D01*
X838074Y146736D01*
X838046Y146595D01*
X838018Y146482D01*
Y146383D01*
X838032Y146172D01*
X838088Y145989D01*
X838159Y145819D01*
X838229Y145678D01*
X838314Y145566D01*
X838384Y145481D01*
X838441Y145425D01*
X838455Y145410D01*
X838624Y145284D01*
X838821Y145171D01*
X839033Y145100D01*
X839230Y145044D01*
X839399Y145016D01*
X839554Y145002D01*
X839611Y144988D01*
X839639D01*
X839667D01*
X839681D01*
Y147779D01*
D02*
G37*
G36*
X840372Y117358D02*
X840315D01*
X840287D01*
X840273D01*
X839907Y117329D01*
X839582Y117273D01*
X839301Y117202D01*
X839075Y117104D01*
X838906Y117019D01*
X838765Y116935D01*
X838694Y116878D01*
X838666Y116864D01*
X838483Y116667D01*
X838342Y116455D01*
X838243Y116244D01*
X838173Y116046D01*
X838130Y115877D01*
X838116Y115750D01*
X838102Y115694D01*
Y115624D01*
X838130Y115356D01*
X838187Y115116D01*
X838286Y114919D01*
X838384Y114735D01*
X838483Y114594D01*
X838581Y114482D01*
X838638Y114425D01*
X838666Y114397D01*
X838892Y114228D01*
X839159Y114101D01*
X839427Y114017D01*
X839681Y113946D01*
X839907Y113918D01*
X840019Y113904D01*
X840104D01*
X840174Y113890D01*
X840231D01*
X840259D01*
X840273D01*
X840640Y113918D01*
X840978Y113974D01*
X841246Y114045D01*
X841486Y114143D01*
X841655Y114242D01*
X841796Y114312D01*
X841866Y114369D01*
X841894Y114397D01*
X842078Y114594D01*
X842219Y114792D01*
X842303Y115003D01*
X842374Y115201D01*
X842416Y115370D01*
X842430Y115497D01*
X842444Y115553D01*
Y115624D01*
X842416Y115891D01*
X842359Y116131D01*
X842275Y116342D01*
X842162Y116512D01*
X842064Y116667D01*
X841979Y116779D01*
X841923Y116836D01*
X841894Y116864D01*
X841669Y117033D01*
X841401Y117146D01*
X841133Y117231D01*
X840865Y117301D01*
X840640Y117329D01*
X840541Y117343D01*
X840442D01*
X840372Y117358D01*
D02*
G37*
G36*
X839949Y84511D02*
X836326Y83186D01*
X839949Y81819D01*
Y84511D01*
D02*
G37*
G36*
X826162Y449236D02*
X819706D01*
Y447954D01*
X819720Y447770D01*
Y447601D01*
X819734Y447460D01*
Y447333D01*
X819748Y447206D01*
Y447108D01*
X819776Y446953D01*
X819790Y446840D01*
X819804Y446769D01*
Y446755D01*
X819861Y446558D01*
X819931Y446389D01*
X820002Y446234D01*
X820086Y446093D01*
X820157Y445994D01*
X820213Y445910D01*
X820255Y445867D01*
X820269Y445853D01*
X820411Y445726D01*
X820566Y445614D01*
X820721Y445515D01*
X820862Y445430D01*
X821003Y445374D01*
X821115Y445332D01*
X821186Y445303D01*
X821200Y445289D01*
X821214D01*
X821468Y445219D01*
X821736Y445162D01*
X822032Y445134D01*
X822314Y445106D01*
X822553Y445092D01*
X822666Y445078D01*
X822765D01*
X822835D01*
X822892D01*
X822934D01*
X822948D01*
X823343Y445092D01*
X823709Y445106D01*
X824005Y445148D01*
X824259Y445177D01*
X824470Y445219D01*
X824555Y445233D01*
X824611Y445261D01*
X824668Y445275D01*
X824710D01*
X824724Y445289D01*
X824738D01*
X824964Y445374D01*
X825161Y445444D01*
X825316Y445543D01*
X825443Y445614D01*
X825542Y445684D01*
X825612Y445740D01*
X825655Y445783D01*
X825669Y445797D01*
X825767Y445924D01*
X825852Y446050D01*
X825922Y446177D01*
X825979Y446304D01*
X826021Y446417D01*
X826049Y446502D01*
X826077Y446558D01*
Y446586D01*
X826106Y446741D01*
X826120Y446925D01*
X826148Y447122D01*
Y447319D01*
X826162Y447503D01*
Y449236D01*
D02*
G37*
G36*
X838714Y446579D02*
X835091Y445254D01*
X838714Y443887D01*
Y446579D01*
D02*
G37*
G36*
X823681Y439989D02*
X823413Y439975D01*
X823174Y439932D01*
X822962Y439876D01*
X822793Y439791D01*
X822652Y439721D01*
X822553Y439650D01*
X822483Y439608D01*
X822469Y439594D01*
X822314Y439439D01*
X822201Y439270D01*
X822130Y439101D01*
X822074Y438946D01*
X822046Y438805D01*
X822018Y438692D01*
Y438593D01*
X822032Y438382D01*
X822088Y438199D01*
X822159Y438029D01*
X822229Y437888D01*
X822314Y437776D01*
X822384Y437691D01*
X822440Y437635D01*
X822455Y437621D01*
X822624Y437494D01*
X822821Y437381D01*
X823033Y437310D01*
X823230Y437254D01*
X823399Y437226D01*
X823554Y437212D01*
X823611Y437198D01*
X823639D01*
X823667D01*
X823681D01*
Y439989D01*
D02*
G37*
G36*
X840927Y437247D02*
X834471D01*
Y435964D01*
X834485Y435781D01*
Y435612D01*
X834499Y435471D01*
Y435344D01*
X834513Y435217D01*
Y435118D01*
X834541Y434963D01*
X834555Y434851D01*
X834569Y434780D01*
Y434766D01*
X834626Y434568D01*
X834696Y434399D01*
X834767Y434244D01*
X834852Y434103D01*
X834922Y434005D01*
X834978Y433920D01*
X835021Y433878D01*
X835035Y433864D01*
X835176Y433737D01*
X835331Y433624D01*
X835486Y433525D01*
X835627Y433441D01*
X835768Y433384D01*
X835881Y433342D01*
X835951Y433314D01*
X835965Y433300D01*
X835979D01*
X836233Y433229D01*
X836501Y433173D01*
X836797Y433145D01*
X837079Y433116D01*
X837318Y433102D01*
X837431Y433088D01*
X837530D01*
X837600D01*
X837657D01*
X837699D01*
X837713D01*
X838108Y433102D01*
X838474Y433116D01*
X838770Y433159D01*
X839024Y433187D01*
X839236Y433229D01*
X839320Y433243D01*
X839377Y433272D01*
X839433Y433286D01*
X839475D01*
X839489Y433300D01*
X839503D01*
X839729Y433384D01*
X839926Y433455D01*
X840081Y433554D01*
X840208Y433624D01*
X840307Y433694D01*
X840378Y433751D01*
X840420Y433793D01*
X840434Y433807D01*
X840533Y433934D01*
X840617Y434061D01*
X840688Y434188D01*
X840744Y434315D01*
X840786Y434428D01*
X840815Y434512D01*
X840843Y434568D01*
Y434597D01*
X840871Y434752D01*
X840885Y434935D01*
X840913Y435132D01*
Y435330D01*
X840927Y435513D01*
Y437247D01*
D02*
G37*
G36*
X824259Y420930D02*
X824189D01*
X824160D01*
X824146D01*
X823766Y420916D01*
X823441Y420859D01*
X823174Y420789D01*
X822948Y420718D01*
X822779Y420634D01*
X822652Y420577D01*
X822581Y420521D01*
X822553Y420507D01*
X822370Y420338D01*
X822243Y420154D01*
X822144Y419957D01*
X822088Y419788D01*
X822046Y419633D01*
X822032Y419506D01*
X822018Y419421D01*
Y419393D01*
X822046Y419139D01*
X822102Y418928D01*
X822187Y418731D01*
X822285Y418561D01*
X822384Y418434D01*
X822469Y418336D01*
X822525Y418265D01*
X822553Y418251D01*
X822779Y418096D01*
X823033Y417983D01*
X823300Y417913D01*
X823568Y417856D01*
X823808Y417828D01*
X823921Y417814D01*
X824005Y417800D01*
X824090D01*
X824146D01*
X824174D01*
X824189D01*
X824555Y417814D01*
X824879Y417871D01*
X825147Y417955D01*
X825373Y418040D01*
X825542Y418124D01*
X825669Y418209D01*
X825739Y418265D01*
X825767Y418279D01*
X825951Y418463D01*
X826077Y418660D01*
X826176Y418843D01*
X826233Y419027D01*
X826275Y419196D01*
X826289Y419323D01*
X826303Y419407D01*
Y419435D01*
X826275Y419661D01*
X826218Y419872D01*
X826134Y420056D01*
X826035Y420211D01*
X825951Y420338D01*
X825866Y420422D01*
X825810Y420493D01*
X825781Y420507D01*
X825556Y420648D01*
X825302Y420746D01*
X825034Y420831D01*
X824766Y420873D01*
X824527Y420901D01*
X824414Y420916D01*
X824330D01*
X824259Y420930D01*
D02*
G37*
G36*
X823681Y404366D02*
X823413Y404352D01*
X823174Y404309D01*
X822962Y404253D01*
X822793Y404168D01*
X822652Y404098D01*
X822553Y404027D01*
X822483Y403985D01*
X822469Y403971D01*
X822314Y403816D01*
X822201Y403647D01*
X822130Y403478D01*
X822074Y403322D01*
X822046Y403181D01*
X822018Y403069D01*
Y402970D01*
X822032Y402759D01*
X822088Y402575D01*
X822159Y402406D01*
X822229Y402265D01*
X822314Y402152D01*
X822384Y402068D01*
X822440Y402011D01*
X822455Y401997D01*
X822624Y401870D01*
X822821Y401758D01*
X823033Y401687D01*
X823230Y401631D01*
X823399Y401603D01*
X823554Y401589D01*
X823611Y401575D01*
X823639D01*
X823667D01*
X823681D01*
Y404366D01*
D02*
G37*
G36*
X824315Y396683D02*
X824245D01*
X824174D01*
X824146D01*
X824132D01*
X823766Y396669D01*
X823441Y396612D01*
X823174Y396542D01*
X822948Y396457D01*
X822779Y396387D01*
X822652Y396316D01*
X822581Y396260D01*
X822553Y396246D01*
X822370Y396063D01*
X822243Y395879D01*
X822144Y395696D01*
X822088Y395513D01*
X822046Y395372D01*
X822032Y395245D01*
X822018Y395160D01*
Y395132D01*
X822046Y394893D01*
X822102Y394667D01*
X822187Y394484D01*
X822285Y394314D01*
X822384Y394188D01*
X822469Y394103D01*
X822525Y394033D01*
X822553Y394019D01*
X822666Y393934D01*
X822779Y393863D01*
X823061Y393751D01*
X823343Y393680D01*
X823639Y393624D01*
X823893Y393596D01*
X824019Y393582D01*
X824118Y393567D01*
X824203D01*
X824259D01*
X824301D01*
X824315D01*
X824696Y393582D01*
X825034Y393638D01*
X825316Y393708D01*
X825542Y393793D01*
X825725Y393877D01*
X825852Y393948D01*
X825922Y394004D01*
X825951Y394019D01*
X826134Y394202D01*
X826261Y394385D01*
X826359Y394568D01*
X826416Y394737D01*
X826458Y394893D01*
X826472Y395005D01*
X826486Y395090D01*
Y395118D01*
X826472Y395259D01*
X826458Y395400D01*
X826374Y395654D01*
X826261Y395865D01*
X826120Y396049D01*
X825993Y396189D01*
X825880Y396288D01*
X825796Y396344D01*
X825781Y396373D01*
X825767D01*
X825669Y396429D01*
X825556Y396471D01*
X825302Y396556D01*
X825020Y396612D01*
X824752Y396641D01*
X824513Y396669D01*
X824414D01*
X824315Y396683D01*
D02*
G37*
G36*
Y384292D02*
X824231D01*
X824174D01*
X824146D01*
X824132D01*
X823752Y384277D01*
X823427Y384221D01*
X823159Y384151D01*
X822934Y384066D01*
X822765Y383996D01*
X822638Y383925D01*
X822567Y383869D01*
X822539Y383855D01*
X822370Y383671D01*
X822243Y383488D01*
X822144Y383291D01*
X822088Y383107D01*
X822046Y382952D01*
X822032Y382826D01*
X822018Y382741D01*
Y382713D01*
X822046Y382459D01*
X822102Y382248D01*
X822187Y382050D01*
X822285Y381895D01*
X822384Y381754D01*
X822469Y381670D01*
X822525Y381599D01*
X822553Y381585D01*
X822666Y381500D01*
X822779Y381430D01*
X823047Y381317D01*
X823343Y381247D01*
X823625Y381190D01*
X823893Y381162D01*
X824005Y381148D01*
X824104Y381134D01*
X824189D01*
X824245D01*
X824287D01*
X824301D01*
X824513D01*
X824696Y381148D01*
X824879Y381176D01*
X825048Y381204D01*
X825330Y381275D01*
X825556Y381359D01*
X825739Y381444D01*
X825866Y381515D01*
X825937Y381571D01*
X825965Y381585D01*
X826134Y381754D01*
X826261Y381937D01*
X826359Y382107D01*
X826416Y382276D01*
X826458Y382417D01*
X826472Y382543D01*
X826486Y382614D01*
Y382642D01*
X826472Y382797D01*
X826458Y382938D01*
X826374Y383192D01*
X826261Y383418D01*
X826120Y383601D01*
X825979Y383756D01*
X825866Y383869D01*
X825781Y383925D01*
X825767Y383953D01*
X825753D01*
X825528Y384066D01*
X825274Y384151D01*
X825006Y384207D01*
X824752Y384249D01*
X824513Y384277D01*
X824400D01*
X824315Y384292D01*
D02*
G37*
G36*
X836952Y345588D02*
X834471D01*
Y343333D01*
X834485Y343206D01*
Y342896D01*
X834499Y342769D01*
Y342684D01*
X834513Y342642D01*
Y342628D01*
X834555Y342459D01*
X834612Y342304D01*
X834668Y342177D01*
X834739Y342078D01*
X834809Y341993D01*
X834852Y341923D01*
X834894Y341895D01*
X834908Y341881D01*
X835021Y341796D01*
X835162Y341726D01*
X835288Y341683D01*
X835415Y341641D01*
X835528Y341627D01*
X835613Y341613D01*
X835669D01*
X835697D01*
X835852Y341627D01*
X835993Y341641D01*
X836120Y341683D01*
X836233Y341712D01*
X836318Y341754D01*
X836374Y341796D01*
X836416Y341810D01*
X836430Y341824D01*
X836529Y341909D01*
X836614Y341993D01*
X836740Y342177D01*
X836783Y342247D01*
X836811Y342318D01*
X836839Y342360D01*
Y342374D01*
X836853Y342445D01*
X836881Y342557D01*
X836896Y342670D01*
X836910Y342797D01*
X836924Y343093D01*
X836938Y343389D01*
X836952Y343671D01*
Y345588D01*
D02*
G37*
G36*
X823427Y330681D02*
X823286D01*
X823174D01*
X823075D01*
X823018D01*
X823004D01*
X822694D01*
X822398Y330667D01*
X822144D01*
X821891Y330653D01*
X821679Y330638D01*
X821468Y330624D01*
X821299Y330610D01*
X821129Y330582D01*
X820988Y330568D01*
X820876Y330554D01*
X820777Y330540D01*
X820692Y330526D01*
X820636Y330512D01*
X820580D01*
X820566Y330497D01*
X820552D01*
X820354Y330441D01*
X820185Y330370D01*
X820058Y330314D01*
X819945Y330244D01*
X819875Y330187D01*
X819818Y330145D01*
X819790Y330117D01*
X819776Y330103D01*
X819706Y330004D01*
X819649Y329891D01*
X819607Y329793D01*
X819579Y329694D01*
X819565Y329623D01*
X819551Y329553D01*
Y329496D01*
X819565Y329370D01*
X819579Y329257D01*
X819621Y329158D01*
X819663Y329074D01*
X819706Y329003D01*
X819734Y328947D01*
X819762Y328918D01*
X819776Y328904D01*
X819875Y328820D01*
X820002Y328735D01*
X820143Y328665D01*
X820284Y328594D01*
X820425Y328552D01*
X820537Y328510D01*
X820608Y328496D01*
X820622Y328481D01*
X820636D01*
X820763Y328453D01*
X820918Y328425D01*
X821101Y328397D01*
X821284Y328369D01*
X821665Y328341D01*
X822060Y328326D01*
X822243Y328312D01*
X822426D01*
X822581Y328298D01*
X822722D01*
X822835D01*
X822934D01*
X822990D01*
X823004D01*
X823315D01*
X823611Y328312D01*
X823878D01*
X824118Y328326D01*
X824344Y328341D01*
X824541Y328355D01*
X824724Y328383D01*
X824879Y328397D01*
X825020Y328411D01*
X825133Y328439D01*
X825232Y328453D01*
X825316Y328467D01*
X825373Y328481D01*
X825429D01*
X825443Y328496D01*
X825457D01*
X825655Y328552D01*
X825810Y328623D01*
X825951Y328693D01*
X826049Y328749D01*
X826134Y328806D01*
X826190Y328862D01*
X826218Y328890D01*
X826233Y328904D01*
X826303Y329003D01*
X826359Y329102D01*
X826388Y329201D01*
X826416Y329299D01*
X826430Y329370D01*
X826444Y329440D01*
Y329496D01*
X826430Y329623D01*
X826416Y329736D01*
X826374Y329835D01*
X826331Y329919D01*
X826303Y329990D01*
X826261Y330046D01*
X826247Y330075D01*
X826233Y330089D01*
X826134Y330173D01*
X826007Y330258D01*
X825866Y330328D01*
X825725Y330399D01*
X825598Y330441D01*
X825485Y330483D01*
X825415Y330497D01*
X825387Y330512D01*
X825246Y330540D01*
X825091Y330568D01*
X824921Y330596D01*
X824738Y330610D01*
X824344Y330638D01*
X823949Y330653D01*
X823766Y330667D01*
X823582D01*
X823427Y330681D01*
D02*
G37*
G36*
X838714Y326910D02*
X835091Y325585D01*
X838714Y324217D01*
Y326910D01*
D02*
G37*
G36*
X824217Y316076D02*
X820862Y313807D01*
X824217D01*
Y316076D01*
D02*
G37*
G36*
X840927Y307738D02*
X834471D01*
Y306455D01*
X834485Y306272D01*
Y306103D01*
X834499Y305962D01*
Y305835D01*
X834513Y305708D01*
Y305609D01*
X834541Y305454D01*
X834555Y305341D01*
X834569Y305271D01*
Y305257D01*
X834626Y305059D01*
X834696Y304890D01*
X834767Y304735D01*
X834852Y304594D01*
X834922Y304496D01*
X834978Y304411D01*
X835021Y304369D01*
X835035Y304354D01*
X835176Y304228D01*
X835331Y304115D01*
X835486Y304016D01*
X835627Y303932D01*
X835768Y303875D01*
X835881Y303833D01*
X835951Y303805D01*
X835965Y303791D01*
X835979D01*
X836233Y303720D01*
X836501Y303664D01*
X836797Y303636D01*
X837079Y303607D01*
X837318Y303593D01*
X837431Y303579D01*
X837530D01*
X837600D01*
X837657D01*
X837699D01*
X837713D01*
X838108Y303593D01*
X838474Y303607D01*
X838770Y303650D01*
X839024Y303678D01*
X839236Y303720D01*
X839320Y303734D01*
X839377Y303762D01*
X839433Y303777D01*
X839475D01*
X839489Y303791D01*
X839503D01*
X839729Y303875D01*
X839926Y303946D01*
X840081Y304044D01*
X840208Y304115D01*
X840307Y304185D01*
X840378Y304242D01*
X840420Y304284D01*
X840434Y304298D01*
X840533Y304425D01*
X840617Y304552D01*
X840688Y304679D01*
X840744Y304806D01*
X840786Y304918D01*
X840815Y305003D01*
X840843Y305059D01*
Y305088D01*
X840871Y305243D01*
X840885Y305426D01*
X840913Y305623D01*
Y305821D01*
X840927Y306004D01*
Y307738D01*
D02*
G37*
%LPD*%
M02*
