M48
;Layer_Color=9474304
;FILE_FORMAT=4:4
METRIC,LZ
;TYPE=PLATED
T01F00S00C0.3000
T02F00S00C0.7000
T03F00S00C1.0000
T04F00S00C1.5494
T05F00S00C1.7526
;TYPE=NON_PLATED
T06F00S00C1.1000
T07F00S00C2.3000
T08F00S00C4.0894
%
T01
X00552Y00033
X0058Y00024
X00595Y00021
X00595001Y00045
X00597Y00069
X00595001Y00085
X00615001
X00635001
X00655001
X0066Y0007
X00679Y00069
X00685Y00085
X00715001Y00085
X00718Y00068
X00715001Y00045
X00735001
X00755001
X00766Y00054
Y00063
X00785001Y00065
X00805001
X00815Y00068
X00808Y00078
X00815001Y00085
X00788Y00097
X00755001Y00085
X00735001
X00745001Y00025
X00765001
X00785001
X00792Y0002
X00798Y00013
X00787Y00006
X00805001Y00025
X00815001Y00045
X00835001
X00836Y00029
X0083022Y00058329
X00839Y00065
X00748Y00007
X00717Y00006
X00698Y00011
X00705001Y00025
X00725001
X00685001
X00665001
X00645001
X00655001Y00045
X00675001
X00635001
X00535001
X00515001
X00495001
X00475001
X00454Y00043
X00449Y00018
X00423Y00034
X00415001Y00045
Y00085
X00405Y00078
X00394Y00088
X00381Y00053
X00368Y00043
X00341
X00355Y0006
X00345Y00072
X00341Y00091
X00328607Y00093534
X003295Y000835
X003265Y000645
X00318Y00033
Y00014
X00298Y00007
X00289Y00017
X00289115Y00024542
X00274Y00024938
X002785Y000185
X00283Y000125
X00270896
X002485Y000235
X00253Y00049
X00262Y00048
X00227892Y00033893
X00212Y00021
X00208356Y00045334
X00213411Y00073435
X0020905Y00083009
X00211Y00096
X00193403Y00096403
X0016Y00097
X0014Y00082
X00168Y00058
X00175Y00045
X00171Y00038
X0016Y0003
X00159Y00022
X0015Y000185
X0014Y00004999
X00355Y00015
X0029Y00093
X00475001Y00085
X00495001
X00515001
X00535001
X00126Y00098
X000892Y000802
X00079Y00076
X00078Y0006
X00065Y00065
X00045
X00031Y00076
Y00087
X00055Y00096
X0007Y00097
X00055Y00045
X00065Y00025
X00079Y00005
X001019Y00004999
X001146
X00127Y00041
X0009
X00102Y00106
X00089Y00123
X00071Y00118
X00055Y00125
X00065Y00145
X00077Y00142
X00045Y00145
X00025
X00025Y00132
X00013Y00118656
X00023Y00106
X00024Y00158
X00026Y00173
X00035Y00205
X00051Y00209
X00065
X00079
X00093Y00208
X001Y00229
X00088Y00238
X00058712Y00237718
X00037Y00225
X00025Y00225
X00023Y0024
X00025Y00265
X00045
X00035Y00285
X00037Y00307
X00025Y00305001
X00013Y00326
X00015Y00351
X00014Y00381
X00025Y00385001
X00045
X00057Y00374
Y0036
X00071Y00361
X00095Y00365001
X00093Y00351
X0012Y00337
X00132Y00325
X00121Y003
X00105Y00305001
Y00265
X00085
X00072Y00274
X0005768Y0032132
X00058Y004
Y00416
X00065Y00425
X00074Y00432
X00075Y00445001
X00095
X00087Y0046
X00105Y00465001
X00125
X00101Y00487
X00051Y00451
X0006Y00439
X00045Y00425001
X00042Y00413
X00012Y00415
X00025Y00465001
X00079Y00399
X00125Y00385001
X0013Y00264
X00006Y00273
Y00203
X00115Y00132
X00126Y00123
X0015Y00124
X00156Y00132
X00165Y00145
X00176Y00142
X00195Y00133
X00195Y00125
X00206Y00125
X00213Y00116
X00217197Y00109784
X00214Y00103
X00185Y00106
Y00123
X00165Y00105
X0014Y00106
X00145Y00145
X00144Y00187
X00154611Y00203736
X00168811Y00203189
X00183Y00203
X00203
X00208Y00229
X00225Y00225
X00235Y00245
X00255
X00265Y00265
X00251Y00277
X00239Y00291
X00224Y00288
X00225Y00305001
X00205
X0021Y00296
X00215Y00277
X00204Y0027
X00185Y00265
X0018401Y00242407
X00181Y00289
X00158Y00268
X0015768Y0032168
X00158Y00375
X00156Y00389
X00143Y00385
X00142Y00412
X00157Y00413
X00164Y00425
X00175Y00417
X00174Y00407
X00178667Y00400333
X00185Y00385001
X00185Y00356
X00235Y00365001
X00255
X00265Y00385001
X00255Y00405001
X00235
X00225Y00425001
X00235Y00445001
X00255
X00265Y00425001
X00319333Y00425333
X00305Y00451
X00298Y00487
X00271985Y00487015
X0021Y00488
X00186Y00495
X00186Y00471
X00197Y004655
X002Y00441
X00184Y00432
X00165Y00465001
X00145
X0015Y00451
X00149Y00492
X00225Y00385001
X00215Y00325001
X00282Y00328
X00291Y0032
X00297Y00305
X00265Y00305001
Y00345001
X00305Y0035
X00319333Y00349667
X0033Y0035
X00344Y00356
X00336Y00375
X0033Y00394
X00343Y004
X0037Y00414
X00374Y0044
X00404Y00457
X00435Y0045
X00432Y00425
X00445001Y00425001
X00442Y00399
X00427
X00413Y00374
X00395001Y00365001
X00404Y0035
X00421667Y00349333
X00449Y00351
X00442Y00359
X00455001Y00365001
X00475001
X00495001
X00505001Y00385001
X00525001
Y00425001
X00495001Y00405001
X00475001
X00485001Y00385001
X00475001Y00445001
X00481Y00465
X00504Y00467
X00512Y00479
X00464Y00492
X00439Y00486
X00428Y00495
X00421Y00433
X00359Y00493
X0036Y00317
X00385166Y00330511
X00395Y00321
X00403Y00327
X00385Y00303
X00389Y0028
X00383Y00272
X00375Y00247
X003595Y002395
X00361Y00211
X00368667Y00202333
X00352333Y00203333
X00336Y00203
X00329Y00196
X00311Y00193
X00284
X00282Y00185
X00271985Y00198
X00265Y00225
X00282Y0024
X00305Y00265
X00325
X00345001
X00345Y00218
X00331Y00176
X00325Y00145
X00345001
X00305
X00294782Y0013401
X00287293Y0013441
X0028Y0013266
X00273749Y00136805
X00269Y00131
X002574Y00140419
X00248Y00141
X00234761Y00139243
X00239Y00133
X00235Y00125
X00201Y00148
X00176Y00188
X00225Y00265
X00315Y00285
X00295Y00365001
X00455001Y00325001
X00475001
X00485001Y00305001
X00465001
X00475001Y00285
X00495001
X00515001
X00507Y00303
X00525001Y00305001
X00535001Y00325001
X00525001Y00345001
Y00265
X0052Y00249
X00523Y00229
X00504
X00495Y0024
X00476Y00234
X00464052Y00224307
X00455Y00203
X00441
X00427
X00413Y00202
X00398Y00211
X00382596Y00196581
X00373Y00185
X00375001Y00165
X00394Y00177
X00405001Y00145
X00425001
X00445001
X00435Y00134
X00394Y00128
X00384Y00111328
X00362Y00112
X00368Y00122
X00334Y00105
X003255Y001045
X00311Y00121
X002935Y001075
X00282Y00105
X00507Y0011
X00505001Y00145
X00525001
Y00185
X00535Y00179
X00485001Y00185
X00465001
Y00265
X00485001
X00445001
X00455001Y00285
X00419Y00285
X00403493Y0024
X00438Y002395
X00547Y00228
X0056Y00234
X00555001Y00205
X00566Y00203
X00579667Y00203333
X00593333Y00203667
X00607Y00202
X00615001Y00205
X00636Y0021
Y0024
X00615Y00232
X00597146Y0023375
X00593Y0024
X00545001Y00265
X005615Y00282
X00545001Y00305001
X00549767Y00321233
X00549Y00333
X0056632Y0032168
X00568Y00356
X0056Y00357
X00586103Y00355634
X00592Y00351
X00573Y00373
X00586Y00391
X0058Y004
X00582Y00415
X00593Y00425
X00577Y00441
X00567Y00432
X0056Y00456
X00593Y00462
X00601Y0045
X0063Y00438
X00632Y00462
X00659Y004635
X0067Y00469
X00682Y00468
X00683819Y00460724
X006718Y004508
X00655001Y00445001
X00665001Y00425001
X00672667Y00423667
X00694Y00418
X00686333Y00399667
X00696Y00391
X00705001Y00385001
X00725001
X0074Y00375
X00752Y00382
Y00405
X00775001Y00405001
X00785001Y00425001
X00775001Y00445001
X0076Y00442
X00745667Y00434333
X00735Y00425
X00731333Y00410667
X00733Y00486
X00758Y00478
X00798Y00486
X00815Y00478
X00806Y00468
X00792Y004625
X00824Y00453
X00843Y00469
X00835001Y00485001
X00823Y00413
X00803Y00399
X00785001Y00385001
X00786Y00364
X00824Y00357
Y00318
X00802Y00325
X00775001Y00325001
X00771Y00308
X00775001Y00285
X00752Y00275
X00738Y00244
X00715001Y00245
X00708Y00242
X0069232Y0024075
X00685001Y00265
X00705001
X00715001Y00285
X00695001
X00675001
X00658575Y00292061
X00665001Y00265
X00638Y00271
X00625001Y00305001
X00615001Y00325001
X0064Y00333
X00645Y00321
X0068Y00328
X00715001Y00325001
X00713Y00311
X00738Y00312
X00752Y00325
X007Y00351
X00695001Y00365001
X00679Y00375
X00665001Y00385001
X00665Y00365
X00631Y00362
X00625001Y00385001
X00665Y00478
X00676Y00495
X00552Y00489
X00545001Y00185
X00565001
X00576Y00179
X00555001Y00165
X00565001Y00145
X00585001
X00605001
X00615001Y00125
X00635001
X00655001
X00665001Y00105
X00685001
X00695001Y00125
X00715001
X00735001
X00755001
X00775001
X00765001Y00145
X00745001
X00755001Y00165
X00775001
X00765001Y00185
X00745001
X00745667Y00201333
X0076Y00202
X00731333Y00202333
X00717Y00202
X00725001Y00185
X00705001
X00685001
Y00145
X00705001
X00735001Y00165
X00745001Y00105
X00765001
X00725001
X00645001
X00624Y00106
X00595001Y00125
X00561Y00123
X00545001Y00145
X00645001Y00185
X00802Y00177
X00815001Y00165
X0082Y00189
X00814942Y002108
X00802Y00243
X00824Y00247
X00775001Y00245
X00779Y00222
X00801Y00117
X00815001Y00125
X00831Y00518
X00842Y00522
X00843Y00536
X0084Y00544
X00799Y00539
X00765Y00534
X00755001Y00525001
X00759Y00511
X00765001Y00505001
X00745001
X00733Y00521
X00737Y00533
Y00552
X00725001Y00545001
X00685001
X00683Y00537
X0067Y00538
X00658866Y00537505
X00665001Y00545001
X00677Y00551
X00625001Y00545001
X00616Y00552
X00605001Y00545001
X00585001
X00595001Y00525001
X00605001Y00505001
X00625001
X00635001Y00525001
X00585001Y00505001
X00555001Y00525001
X00769Y00554
X00455Y00553
X00455001Y00525001
X00475001
X00375001
X00355001
X00325Y00505001
X00295Y00525001
X00275
X00265Y00496
X00225Y00497
X00171Y00552
X00298Y00553
X00065Y00545001
X00045
X00025
X00011Y00521
T02
X0003258Y003492
Y003746
Y004
Y004254
Y004508
X0010878
X0013258
Y004254
X0010878
Y004
X0013258
Y003746
X0010878
Y003492
X0013258
X0020878
Y003746
Y004
Y004254
Y004508
X002869
Y004254
Y004
Y003746
Y003492
X003631
X003869
Y003746
X003631
Y004
X003869
Y004254
X003631
Y004508
X003869
X004631
Y004254
Y004
Y003746
Y003492
X0054122
Y003746
Y004
Y004254
Y004508
X0061742
X0064122
Y004254
X0061742
Y004
X0064122
Y003746
X0061742
Y003492
X0064122
X0071742
Y003746
Y004
Y004254
Y004508
T03
X005409Y005123
Y005377
X005663
Y005123
X005155
Y005377
X004901
X004647
X004393
X004139
X003885
X003631
X003377
X003123
X002869
X002615
X002361
X002107
X001853
X001599
Y005123
X001853
X002107
X002361
X002615
X002869
X003123
X003377
X003631
X003885
X004139
X004393
X004647
X004901
X001345
Y005377
X001091
X000837
Y005123
X001091
T04
X000619Y001854
X001254Y002108
X00245233Y001854
X00308733Y002108
X00428567Y001854
X00492067Y002108
X006119Y001854
X006754Y002108
T05
X000492Y0016
X001508
X00232533
X00334133
X00415867
X00517467
X005992
X007008
T06
X006446Y0051935
X007208Y0052951
Y0050919
T07
X006446Y0049395
X0070175
Y0054475
X006446
T08
X001Y0016
X00283333
X00466667
X0065
M30
