M48
;Layer_Color=9474304
;FILE_FORMAT=4:4
METRIC,LZ
;TYPE=PLATED
T01F00S00C0.3000
T02F00S00C0.7000
T03F00S00C1.0000
T04F00S00C1.5494
T05F00S00C1.7526
;TYPE=NON_PLATED
T06F00S00C1.1000
T07F00S00C2.3000
T08F00S00C4.0894
%
T01
X0058Y00024
X00595001Y00045
X00635001
X00655001
X0066Y0007
X006675
X00655001Y00085
X00635001
X00615001
X00595001
X00695001
X00715001
X00735001
X00755001
X00775001
X00808Y00078
X00815001Y00085
Y00045
X00835001
X0083022Y00058329
X00839Y00065
X0084Y00026
X00805001Y00025
X00792Y0002
X00785001Y00025
X00765001
X00745001
X00725001
X00705001
X00685001
X00666Y00018
X00645001Y00025
X00695001Y00045
X00715001
X00735001
X00755001
X00775001
X00798Y00013
X00535001Y00045
X00515001
X00495001
X00475001
X00454Y00043
X00415001Y00045
Y00085
X00402496Y00086744
X00394Y00088
X00405Y00078
X00355Y0006
X00368Y00043
X00341
X00321Y00033
X00313Y00007
X00298
X00291Y00017
X00289Y000245
X00274Y00024938
X002785Y000175
X0028409Y000125
X00270896
X002485Y000235
X00253Y00049
X00262Y00048
X00285Y00069
X00296
X003035
X003265Y000645
X003295Y000835
X00289421Y000835
X00278Y00089
X00211Y00096
X0020905Y00083009
X00213411Y00073435
X00208356Y00045334
X00212Y00021
X00227892Y00033893
X00171Y00038
X00175Y00045
X0016Y0003
X00159Y00022
X0015Y000185
X0014Y00004999
X0014Y00082
X00166Y00089
X0016Y00097
X00193403Y00096403
X00167Y00068
X00355Y00015
X00475001Y00085
X00495001
X00515001
X00521Y000725
X00532Y0009
X00126Y00098
X00077Y00096
X00079Y00076
X000892Y000802
X00078Y0006
X00065Y00065
X00045
X00031Y00076
Y00087
X00039Y00094
X00055Y00045
X00065Y00025
X00079Y00005
X001019Y00004999
X001146
X00102Y00106
X00089Y00123
X00075Y00125
X00055
X00065Y00145
X00045
X00025
X00025Y00132
Y0012
X00013Y00118656
X00023Y00106
X00024Y00158
X0003Y00174
X00007Y00182
X00035Y00205
X00051Y00209
X00065
X00079
X00093Y00208
X001Y00229
X00109
X00137Y00228
X00125Y00265
X00105
X00085
X00072Y0027
X00058
X00045Y00265
X00025
X00023Y0024
X00025Y00225
X0004Y0023
X00035Y00285
X00059Y00291
X00072
X00086Y00289
X00115Y00285
X00135
X00125Y00305001
X00105
X00115Y00325001
X00132Y00325
X00093Y00351
X00095Y00365001
X00072Y00361
X00058Y00359
X00057Y00374
X00045Y00385001
X00025
X00037Y00362
X00015Y00358
X00018Y00333
X00013Y00326
X00007Y00315
X00025Y00305001
X0004Y00315
X00058Y004
X00079Y00399
X00074Y00432
X00075Y00445001
X00062Y0044
X00065Y00425
X00045Y00425001
X00051Y00451
X00055Y00485001
X00075
X00087Y0046
X00095Y00445001
X00105Y00465001
X00125
X00136Y00493
X00035Y00485001
X00025Y00465001
X00125Y00385001
X00105Y00185
X00085
X00075Y00165
X00115Y00132
X00126Y00123
X00135Y00125
X00138Y00105
X00165Y00105
X00185Y00106
Y00123
X00195Y00125
X00195Y00133
X00211Y00136
X00218Y00127
X00211Y00117
X00214Y00103
X00239Y00133
X00238Y00142
X00247
X00256Y00143
X00262749Y00135749
X00269Y00131
X00273749Y00136805
X0028Y0013266
X00287293Y0013441
X00294782Y0013401
X00305Y00145
X00325
X00345001
Y00185
X00325
X00305
X00311Y00193
X00284
X00285Y00185
X00271985Y00198
X00265Y00225
X00234Y00223
X00215Y00229
X00203Y00203
X00183
X00168811Y00203189
X00154611Y00203736
X00144Y00187
X0015Y00178
X00176Y00188
Y00142
X00165Y00145
X00145
X00156Y00132
X0015Y00124
X00252Y001709
X002935Y001075
X00297Y00099
X00326
X00329104Y00105828
X00311Y00121
X00368Y00122
X00384Y00111328
X00394Y00128
X00414Y00113
X00449Y00115
X0048Y00114
X00516
X00527Y00107
X00525001Y00145
X00505001
X00495001Y00165
X00505001Y00185
X00525001
X00535Y00179
X00525001Y00225
X00505001
X00495Y0024
X00474Y0023
X00465001Y00225
X00452Y00232
X00438Y002395
X00445001Y00265
X00465001
X00485001
X00505001
Y00305001
X00485001
X00465001
X00475001Y00325001
X00495001
X00505001Y00345001
X00485001
X00495001Y00365001
X00475001
X00455001
X00442Y00359
X00449Y00351
X00421667Y00349333
X00404Y0035
X00395001Y00365001
X00413Y00374
X00427Y00399
X00442
X00445001Y00425001
X00432Y00425
X00421Y00433
X00435Y0045
X00404Y00457
X00417Y0049
X00439Y00486
X00464Y00491
X0049Y00495
X00516Y00485
X0052735Y00484508
X00533Y00492
X00495001Y00445001
X00475001
X00485001Y00425001
X00505001
X00495001Y00405001
X00475001
X00485001Y00385001
X00505001
X00535001Y00325001
X00455001
X00444Y00291
X00419Y00293
X00389Y00291
X00384Y00282
X00385001Y00305001
X00395Y00321
X00401Y00329
X00344Y00356
X0033Y0035
X00319333Y00349667
X00305Y0035
X00295Y00365001
X00255
X00235
X00225Y00385001
X00235Y00405001
X00255
X00265Y00425001
X00255Y00445001
X00235
X00225Y00425001
X002Y00441
X00184Y00432
X00164Y00425
X00174Y00407
X00178667Y00400333
X00185Y00385001
X00185Y00356
X00158Y00375
X0014Y00331
X00161Y00291
X00182Y0029
X00185Y00265
X00205
X00215Y00285
X00239Y00291
X00255Y00285
X00265Y00305001
Y00345001
Y00385001
X0033Y00394
X00343Y004
X00336Y00375
X00319333Y00425333
X00305Y00451
X0031Y00488
X00271985Y00487015
X00219Y00494
X0021Y00488
X00183Y00495
X00186Y00471
X00197Y004655
X00165Y00465001
X00145
X0015Y00451
X00225Y00345001
X00223Y00329
X00215Y00325001
X00205Y00305001
X0016Y0027
X0018401Y00242407
X00265Y00265
X00305
X00325
X00345001
X0036Y00266
X003595Y002395
X00376Y00234
X00379Y00202
X00368667Y00202333
X00361Y00211
X00352333Y00203333
X00336Y00203
X00304Y00227
X00295Y00285
X00315
X00291Y0032
X00299Y00328
X0037Y00414
X00374Y0044
X00398Y00211
X00413Y00202
X00427Y00203
X00441
X00455
X00465001Y00185
X00485001
X00445001Y00145
X00425001
X00435Y00134
X00394Y00177
X00375001Y00165
X00565001Y00185
X00576Y00179
X00579667Y00203333
X00593333Y00203667
X00607Y00202
X00611Y00235
X00593Y0024
X0059Y00266
X00565001Y00265
X00567Y00274
X005615Y00282
X00589Y00291
X00615001Y00285
X00635001
X00651Y00274
X00665001Y00265
X00685001
X00705001
X00715001Y00285
X00695001
X00675001
X00666Y00291
X00658575Y00292061
X00645001Y00305001
X00625001
X00635001Y00325001
X00615001
X00592Y00351
X00586103Y00355634
X00568Y00356
X0056Y00357
X00573Y00373
X00586Y00391
X0058Y004
X00593Y00425
X00601Y0045
X0056Y00456
X00567Y00432
X00655001Y00445001
X00659Y004635
X0067Y00469
X00682Y00468
X00683819Y00460724
X00686Y00452
X006718Y004508
X00672667Y00423667
X00665001Y00425001
X00689Y00418
X007Y00417
X00686333Y00399667
X00705001Y00385001
X00725001
X00731333Y00410667
X00745667Y00434333
X0076Y00442
X00775001Y00445001
X00785001Y00425001
X00775001Y00405001
X00785001Y00385001
X00775001Y00365001
X00785001Y00345001
X00775001Y00325001
X00785001Y00305001
X00775001Y00285
X00785001Y00265
X00775001Y00245
X00785001Y00225
Y00185
X00765001
X00745001
X00745667Y00201333
X0076Y00202
X00731333Y00202333
X00717Y00202
X00725001Y00185
X00705001
X00685001
X00645001
X00636Y0021
X00625001Y00225
X00636Y0024
X00625001Y00265
X0069232Y0024075
X00722
X00735001Y00165
X00755001
X00775001
X00785001Y00145
X00765001
X00745001
X00725001
X00705001
X00715001Y00125
X00735001
X00755001
X00775001
X00785001Y00105
X00765001
X00745001
X00725001
X00705001
X00685001
X00695001Y00125
X00655001
X00635001
X00615001
X00595001
X00605001Y00145
X00625001
Y00105
X00645001
X00605001
X00585001
X00548Y001065
X00561Y00123
X00565001Y00145
X00585001
X00566Y00203
X00545001Y00305001
X00549767Y00321233
X00555635Y0032705
X00625001Y00385001
X00665001
X00679Y00371
X00695001Y00365001
X007Y00351
X00715001Y00325001
X00823Y00328
X00823175Y00244693
X00814942Y002108
X00815001Y00165
Y00125
X00806Y00468
X00815Y00478
X00825Y00476
X00835001Y00485001
X00843Y00469
X00792Y004625
X00798Y00486
X00758Y00478
X00749Y00492
X00733Y00486
X00723Y00494
X00676Y00495
X00665Y00478
X00699Y00455
X00745001Y00505001
X00759Y00511
X00765001Y00505001
X00755001Y00525001
X00737Y00533
X00733Y00521
X00725001Y00545001
X00685001
X00683Y00537
X0067Y00538
X00658866Y00537505
X00665001Y00545001
X00625001
X00605001
X00585001
X00595001Y00525001
X00605001Y00505001
X00625001
X00635001Y00525001
X00585001Y00505001
X00555001Y00525001
X00799Y00539
X0084Y00544
X00843Y00536
X00842Y00522
X00831Y00518
X00475001Y00525001
X00455001
X00375001
X00355001
X00325Y00505001
X00295Y00525001
X00275
X00202Y00496
X00065Y00505001
X00045
X00025
Y00545001
X00045
X00065
X00055Y00525001
T02
X0003258Y003492
Y003746
Y004
Y004254
Y004508
X0010878
X0013258
Y004254
X0010878
Y004
X0013258
Y003746
X0010878
Y003492
X0013258
X0020878
Y003746
Y004
Y004254
Y004508
X002869
Y004254
Y004
Y003746
Y003492
X003631
X003869
Y003746
X003631
Y004
X003869
Y004254
X003631
Y004508
X003869
X004631
Y004254
Y004
Y003746
Y003492
X0054122
Y003746
Y004
Y004254
Y004508
X0061742
X0064122
Y004254
X0061742
Y004
X0064122
Y003746
X0061742
Y003492
X0064122
X0071742
Y003746
Y004
Y004254
Y004508
T03
X005409Y005123
Y005377
X005663
Y005123
X005155
Y005377
X004901
X004647
X004393
X004139
X003885
X003631
X003377
X003123
X002869
X002615
X002361
X002107
X001853
X001599
Y005123
X001853
X002107
X002361
X002615
X002869
X003123
X003377
X003631
X003885
X004139
X004393
X004647
X004901
X001345
Y005377
X001091
X000837
Y005123
X001091
T04
X000619Y001854
X001254Y002108
X00245233Y001854
X00308733Y002108
X00428567Y001854
X00492067Y002108
X006119Y001854
X006754Y002108
T05
X000492Y0016
X001508
X00232533
X00334133
X00415867
X00517467
X005992
X007008
T06
X006446Y0051935
X007208Y0052951
Y0050919
T07
X006446Y0049395
X0070175
Y0054475
X006446
T08
X001Y0016
X00283333
X00466667
X0065
M30
